<svg width="259" height="133" viewBox="0 0 259 133" fill="none" xmlns="http://www.w3.org/2000/svg">
<path d="M236.138 0.000167847C236.329 1.1096 236.557 2.21903 236.694 3.33903C237.141 6.87864 237.643 10.4182 237.971 13.979C238.235 16.8635 238.345 19.7691 238.117 22.6854C237.907 25.3691 237.889 28.0635 237.779 30.7578C237.643 34.0861 237.506 37.4144 237.369 40.7427C237.214 44.5887 236.977 48.4241 236.95 52.2702C236.931 55.0807 237.196 57.9018 237.323 60.7124C237.36 61.4837 237.323 62.255 237.36 63.0158C237.488 65.5728 237.679 68.1192 237.77 70.6761C237.852 72.9373 237.834 75.209 237.843 77.4701C237.852 79.9108 237.807 82.341 237.852 84.7817C237.934 88.67 238.099 92.5478 238.181 96.4255C238.235 98.7711 238.19 101.117 238.226 103.462C238.263 105.935 238.354 108.407 238.4 110.88C238.418 111.683 238.354 112.496 238.363 113.299C238.363 113.764 238.463 114.229 238.473 114.694C238.518 116.142 238.564 117.589 238.555 119.037C238.555 119.607 238.418 120.188 238.29 120.748C237.779 122.925 237.25 125.091 236.703 127.257C236.621 127.595 236.43 127.902 236.293 128.208C235.654 128.102 235.755 127.511 235.718 127.183C235.463 124.837 234.779 122.629 234.095 120.421C233.821 119.533 233.73 118.667 233.794 117.716C233.967 115.117 234.013 112.507 234.104 109.908C234.186 107.52 234.25 105.121 234.323 102.733C234.423 99.5741 234.524 96.4149 234.606 93.2557C234.624 92.4421 234.533 91.6285 234.551 90.8255C234.597 88.0995 234.697 85.3629 234.706 82.6368C234.706 79.8686 234.597 77.1003 234.578 74.332C234.578 72.969 234.733 71.6165 234.697 70.2535C234.624 67.7071 234.414 65.1607 234.332 62.6143C234.268 60.7335 234.314 58.8528 234.305 56.972C234.305 54.32 234.341 51.6679 234.268 49.0158C234.186 46.0785 233.94 43.1411 233.894 40.2038C233.831 36.0619 233.903 31.9201 233.894 27.7782C233.876 23.5412 233.803 19.3148 233.803 15.0779C233.803 14.2537 234.031 13.419 234.232 12.6054C234.779 10.3337 235.016 8.01975 235.18 5.68467C235.317 3.79335 235.618 1.92317 235.846 0.0424347L236.138 0.000167847Z" fill="#E8E8E8"/>
<path d="M67.0012 72.638C67.1425 73.1565 67.119 73.6513 66.9305 74.1227C66.7891 74.594 66.577 75.0417 66.2942 75.4659C64.8802 77.634 63.5369 79.3543 62.2644 80.6269C61.0389 81.8995 59.8842 82.8421 58.8001 83.4549C57.7632 84.0676 56.797 84.4682 55.9015 84.6567C55.0531 84.7981 54.2754 84.8924 53.5684 84.9395C52.9086 84.9395 52.343 84.9631 51.8717 85.0102C51.4004 85.0574 51.0469 85.2694 50.8112 85.6465C51.5182 85.6465 52.3194 85.5522 53.215 85.3637C54.1105 85.1752 54.9117 84.9867 55.6187 84.7981C56.3257 84.6096 56.8206 84.4682 57.1034 84.3739C57.3862 84.2797 57.2683 84.3504 56.7499 84.586C55.5244 85.1516 54.3461 85.5287 53.215 85.7172C52.0838 85.9057 50.9997 86 49.9628 86C48.9731 86 48.0304 85.9529 47.1349 85.8586C46.2865 85.7643 45.5088 85.6936 44.8018 85.6465C44.4248 85.5994 44.2598 85.4815 44.307 85.293C44.4012 85.1045 44.5897 85.0574 44.8725 85.1516C45.1082 85.1988 45.2025 85.1988 45.1553 85.1516C45.1553 85.0574 45.0846 84.9631 44.9432 84.8688C44.849 84.7746 44.7076 84.6567 44.519 84.5153C44.3777 84.3739 44.307 84.2561 44.307 84.1618C44.2598 84.0204 44.0949 83.9262 43.8121 83.879C43.5764 83.8319 43.1993 83.6434 42.6809 83.3135C42.1624 82.9364 41.5026 82.3708 40.7013 81.6167C39.9472 80.8154 39.0281 79.6136 37.9441 78.0111C37.8027 77.8225 37.6377 77.7754 37.4492 77.8697C37.3078 77.9168 37.3078 77.8225 37.4492 77.5869C37.5906 77.2098 37.4728 77.0449 37.0957 77.092C36.7658 77.092 36.5773 77.0684 36.5301 77.0213C36.4359 76.927 36.483 76.8328 36.6715 76.7385C36.8601 76.5971 36.9072 76.4086 36.8129 76.1729C36.8129 75.9373 36.8836 75.7487 37.025 75.6073C37.1193 75.5131 37.1428 75.4188 37.0957 75.3245C37.0486 75.1831 37.1664 75.136 37.4492 75.1831C37.5906 75.1831 37.5906 75.0889 37.4492 74.9003C37.3078 74.6647 37.4256 74.4997 37.8027 74.4055C37.897 74.4997 37.8734 74.5704 37.732 74.6176C37.6377 74.6647 37.6613 74.6882 37.8027 74.6882C37.9441 74.7354 38.0619 74.8061 38.1562 74.9003C38.2976 74.9475 38.439 74.9239 38.5804 74.8296C38.6275 74.8296 38.8396 74.7589 39.2167 74.6176C39.5937 74.429 39.8058 74.3583 39.853 74.4055C40.0886 74.6411 40.4185 74.6647 40.8427 74.4762C41.3141 74.2876 41.7147 74.3112 42.0446 74.5469C42.8459 75.1596 43.3643 75.5838 43.6 75.8194C43.8356 76.0551 44.0006 76.2672 44.0949 76.4557C44.1891 76.5971 44.2834 76.7856 44.3777 77.0213C44.519 77.2098 44.8254 77.5633 45.2967 78.0818C45.391 78.176 45.4853 78.2232 45.5795 78.2232C45.6738 78.176 45.6738 78.1053 45.5795 78.0111C45.5795 77.9639 45.4853 77.8461 45.2967 77.6576C45.1553 77.4219 44.9904 77.1863 44.8018 76.9506C44.6604 76.6678 44.519 76.4321 44.3777 76.2436C44.2363 76.008 44.1656 75.8666 44.1656 75.8194C44.5426 75.9608 44.8725 76.2907 45.1553 76.8092C45.4853 77.3277 45.6974 77.634 45.7916 77.7283C46.4515 78.4353 46.8757 79.0244 47.0642 79.4957C47.2999 79.9671 47.4884 80.3441 47.6298 80.6269C47.7712 80.8626 47.9833 81.004 48.2661 81.0511C48.5489 81.0982 49.1144 81.0275 49.9628 80.839C50.2456 80.7919 50.3635 80.8154 50.3163 80.9097C50.2692 81.004 49.8214 81.1218 48.9731 81.2632C48.6431 81.3103 48.6431 81.4517 48.9731 81.6874C49.3501 81.9231 49.9864 82.0173 50.8819 81.9702C51.8246 81.8759 52.9557 81.5224 54.2754 80.9097C55.5951 80.297 57.0327 79.213 58.588 77.6576C59.6249 76.5735 60.2848 75.678 60.5676 74.971C60.8975 74.2169 61.1332 73.7456 61.2746 73.5571C61.2274 73.5099 61.1567 73.4157 61.0625 73.2743C61.0154 73.1329 60.9918 73.0151 60.9918 72.9208C60.9918 72.5909 60.9211 72.3788 60.7797 72.2845C60.6854 72.1431 60.5676 72.0017 60.4262 71.8603C60.2848 71.7189 60.1434 71.4833 60.002 71.1533C59.8606 70.7763 59.7428 70.1636 59.6485 69.3152C58.9887 68.7024 58.6823 68.4668 58.7294 68.6082C58.7766 68.7024 58.753 69.0559 58.6587 69.6687C58.6116 69.9515 58.5645 70.0457 58.5173 69.9515C58.5173 69.8572 58.4938 69.6922 58.4466 69.4566C58.3995 69.1738 58.3524 68.9145 58.3052 68.6789C58.3052 68.3961 58.3052 68.2547 58.3052 68.2547C57.4569 67.4063 56.5849 66.8643 55.6894 66.6286C54.841 66.3458 53.8984 66.1337 52.8615 65.9923C51.8246 65.8038 50.6698 65.5917 49.3972 65.3561C48.1247 65.0733 46.7107 64.5312 45.1553 63.73C42.5631 62.3632 40.8427 60.9492 39.9943 59.4881C39.146 57.9799 38.7218 56.5659 38.7218 55.2462C38.7689 53.9265 39.0046 52.7953 39.4288 51.8527C39.853 50.8629 40.0179 50.203 39.9237 49.8731C39.5466 50.7686 39.2638 51.4049 39.0753 51.782C38.9339 52.159 38.816 52.4418 38.7218 52.6303C38.6746 52.8189 38.6275 53.0074 38.5804 53.1959C38.5804 53.3373 38.5332 53.6672 38.439 54.1857C38.2505 53.7144 38.2033 53.2666 38.2976 52.8424C38.3919 52.3711 38.5568 51.8998 38.7925 51.4285C39.3581 50.2502 39.7587 49.3546 39.9943 48.7419C40.2771 48.0821 40.4892 47.5872 40.6306 47.2573C40.8192 46.8802 41.0077 46.5738 41.1962 46.3382C41.3848 46.0554 41.7147 45.7019 42.186 45.2777C42.4688 44.9949 42.9401 44.6414 43.6 44.2172C44.2598 43.793 44.9904 43.3688 45.7916 42.9447C46.5929 42.5205 47.4177 42.1434 48.2661 41.8135C49.1144 41.4836 49.9157 41.295 50.6698 41.2479C51.094 41.2479 51.4475 41.1536 51.7303 40.9651C52.0602 40.7766 52.1309 40.6587 51.9424 40.6116C51.7539 40.5645 51.2118 40.6587 50.3163 40.8944C49.4679 41.1301 48.1247 41.6485 46.2865 42.4498C46.3808 42.0256 47.0406 41.6249 48.2661 41.2479C49.5386 40.8708 50.9055 40.588 52.3666 40.3995C53.8277 40.1638 55.1474 40.0225 56.3257 39.9753C57.504 39.9282 58.0931 40.046 58.0931 40.3288C58.0931 40.4231 58.0224 40.4938 57.8811 40.5409C57.7868 40.5409 57.6925 40.5645 57.5983 40.6116C57.504 40.6116 57.4333 40.6352 57.3862 40.6823C57.339 40.6823 57.3862 40.7294 57.5276 40.8237C57.669 40.918 57.8104 41.0122 57.9518 41.1065C58.1403 41.1536 58.2581 41.2715 58.3052 41.46C58.3524 41.5542 58.4702 41.6249 58.6587 41.6721C58.8473 41.6721 59.3422 41.8606 60.1434 42.2377C60.8033 42.5676 61.4395 43.0389 62.0523 43.6516C62.7121 44.2172 63.3013 44.8064 63.8197 45.4191C64.3853 45.9847 64.8566 46.4796 65.2337 46.9038C65.6579 47.2808 65.9642 47.4458 66.1528 47.3987C66.3884 47.3987 66.4591 47.4694 66.3649 47.6107C66.1292 47.8935 66.0821 48.1056 66.2235 48.247C66.3649 48.3413 66.3177 48.5298 66.0821 48.8126C66.0349 48.9069 66.0349 49.0012 66.0821 49.0954C66.1292 49.1897 66.0114 49.2368 65.7286 49.2368C65.6343 49.1897 65.6579 49.2839 65.7993 49.5196C65.9407 49.7081 65.8464 49.8495 65.5165 49.9438C65.4222 49.8967 65.4222 49.8495 65.5165 49.8024C65.6107 49.7553 65.5872 49.7081 65.4458 49.661C65.3515 49.661 65.2337 49.6374 65.0923 49.5903C64.9509 49.496 64.8331 49.496 64.7388 49.5903C64.6917 49.6374 64.5031 49.7553 64.1732 49.9438C63.8433 50.0852 63.6548 50.1323 63.6076 50.0852C63.372 49.9438 63.1599 49.9438 62.9713 50.0852C62.8299 50.1795 62.6414 50.2266 62.4058 50.2266C61.7459 50.3209 61.3924 50.2737 61.3453 50.0852C61.2981 49.8967 61.1096 49.8024 60.7797 49.8024C60.6383 49.8024 60.4262 49.661 60.1434 49.3782C59.8606 49.0483 59.5542 48.7184 59.2243 48.3884C58.9415 48.0114 58.6587 47.6814 58.3759 47.3987C58.1403 47.1159 57.9518 47.0216 57.8104 47.1159C57.7632 47.163 57.8104 47.2808 57.9518 47.4694C58.1403 47.6579 58.3288 47.8935 58.5173 48.1763C58.753 48.412 58.9651 48.6477 59.1536 48.8833C59.3422 49.0718 59.4364 49.1897 59.4364 49.2368C59.1065 49.1425 58.7059 48.8362 58.2345 48.3177C57.8104 47.7993 57.3626 47.2573 56.8913 46.6917C56.42 46.1261 55.9958 45.6312 55.6187 45.207C55.2416 44.7357 54.9589 44.5236 54.7703 44.5707C53.7805 44.8535 53.215 45.0185 53.0736 45.0656C52.9322 45.1127 52.9557 45.0892 53.1443 44.9949C53.3799 44.9006 53.6627 44.7828 53.9926 44.6414C54.3697 44.5 54.5582 44.4058 54.5582 44.3586C54.5582 44.1701 54.2283 44.0758 53.5684 44.0758C52.9086 44.0287 52.0838 44.1701 51.094 44.5C50.1514 44.8299 49.1144 45.4191 47.9833 46.2675C46.8992 47.0687 45.933 48.247 45.0846 49.8024C45.4146 49.7081 45.5795 49.8495 45.5795 50.2266C45.5795 50.6036 45.6738 51.0278 45.8623 51.4992C45.9566 51.6406 46.0273 51.7584 46.0744 51.8527C46.1687 51.8998 46.2394 51.9941 46.2865 52.1354C46.3808 52.2297 46.4515 52.4182 46.4986 52.701C46.5457 52.9367 46.5693 53.3373 46.5693 53.9029C46.5693 55.6939 46.6164 56.7073 46.7107 56.9429C46.8521 57.1786 46.9935 57.0843 47.1349 56.6601C47.3234 56.1888 47.4884 55.6232 47.6298 54.9634C47.7712 54.3035 47.8419 53.9736 47.8419 53.9736C47.9361 53.9736 47.9361 54.3035 47.8419 54.9634C47.7476 55.5761 47.724 56.2124 47.7712 56.8722C47.8183 57.2022 47.9833 57.3907 48.2661 57.4378C48.596 57.485 49.4444 57.6735 50.8112 58.0034C53.7334 58.7575 55.9251 59.441 57.3862 60.0537C58.8944 60.6193 59.9784 61.1142 60.6383 61.5383C61.2981 61.9154 61.6752 62.1982 61.7695 62.3867C61.9109 62.5753 62.0758 62.6459 62.2644 62.5988C62.5943 62.5046 62.9713 62.646 63.3955 63.023C63.8197 63.4001 64.2203 63.8478 64.5974 64.3663C64.9745 64.8376 65.2808 65.3089 65.5165 65.7802C65.7993 66.2516 65.9407 66.5579 65.9407 66.6993C66.6477 67.9248 66.9776 69.1031 66.9305 70.2342C66.9305 71.3654 66.7655 72.4023 66.4356 73.345C66.1056 74.2405 65.7521 75.0182 65.3751 75.678C64.998 76.2907 64.8331 76.7385 64.8802 77.0213C65.3987 76.1258 65.7757 75.4895 66.0114 75.1124C66.247 74.7354 66.3884 74.4526 66.4356 74.2641C66.5298 74.0284 66.6005 73.8163 66.6477 73.6278C66.6948 73.4392 66.8126 73.1093 67.0012 72.638ZM78.7106 48.1056C78.7106 49.4725 78.687 50.8157 78.6399 52.1354C78.5927 53.4552 78.522 54.7984 78.4278 56.1653C78.3335 57.5792 78.31 58.9932 78.3571 60.4072C78.4042 61.8211 78.4042 63.2587 78.3571 64.7198C78.31 65.7095 78.2628 66.6993 78.2157 67.6891C78.2157 68.6789 78.1686 69.6687 78.0743 70.6584C77.98 71.931 77.8858 73.2036 77.7915 74.4762C77.6972 75.7487 77.6501 77.0213 77.6501 78.2939C77.6501 78.9066 77.6265 79.5193 77.5794 80.132C77.5794 80.6976 77.5794 81.2868 77.5794 81.8995C77.6265 83.1249 77.6737 84.3504 77.7208 85.5758C77.7679 86.7541 77.8151 87.956 77.8622 89.1814C77.9093 89.5114 77.9329 89.8177 77.9329 90.1005C77.9329 90.3833 77.9329 90.6897 77.9329 91.0196C77.9329 91.4438 77.7444 91.6087 77.3673 91.5145C77.3202 91.2788 77.273 91.0196 77.2259 90.7368C77.2259 90.5011 77.2023 90.2419 77.1552 89.9591C77.2023 89.7706 77.3202 89.6292 77.5087 89.5349C77.6972 89.4878 77.7444 89.2757 77.6501 88.8986C77.5558 88.9929 77.4851 89.04 77.438 89.04C77.3909 89.0872 77.3202 89.1579 77.2259 89.2521C76.9903 89.0165 76.9196 88.8044 77.0138 88.6158C77.1552 88.4273 77.2259 88.2152 77.2259 87.9796C76.9903 87.6025 76.731 87.5082 76.4482 87.6968C76.1654 87.9324 75.9062 87.9324 75.6705 87.6968C75.482 87.414 75.3171 87.1312 75.1757 86.8484C75.0343 86.5656 74.8457 86.2592 74.6101 85.9293C74.6101 86.0236 74.5629 86.2592 74.4687 86.6363C74.233 86.4006 74.1152 86.1414 74.1152 85.8586C74.1152 85.5758 74.0916 85.293 74.0445 85.0102C73.9973 84.7274 73.9738 84.4446 73.9738 84.1618C74.0209 83.8319 73.9973 83.5256 73.9031 83.2428C73.6674 82.4886 73.5496 81.7345 73.5496 80.9804C73.5496 80.1792 73.5025 79.3779 73.4082 78.5767C73.4082 78.1996 73.3846 77.8225 73.3375 77.4455C73.3375 77.0684 73.2904 76.6914 73.1961 76.3143C73.0547 75.6073 73.0076 74.9003 73.0547 74.1934C73.1018 73.4392 73.1254 72.7087 73.1254 72.0017C73.0783 71.5775 73.0547 71.1533 73.0547 70.7291C73.1018 70.3049 73.1254 69.8808 73.1254 69.4566C73.1254 69.3623 73.149 69.268 73.1961 69.1738C73.2432 69.0795 73.2904 68.9617 73.3375 68.8203C73.1961 68.6789 73.0783 68.4904 72.984 68.2547C72.9369 67.9719 72.9604 67.6655 73.0547 67.3356C73.2432 66.7229 73.3139 66.1102 73.2668 65.4975C73.2668 64.8847 73.2904 64.2484 73.3375 63.5886C73.3846 63.1644 73.4082 62.7638 73.4082 62.3867C73.4082 61.9625 73.4082 61.5383 73.4082 61.1141C73.3611 60.6428 73.3846 60.2186 73.4789 59.8416C73.5732 59.4174 73.5967 58.9696 73.5496 58.4983C73.5025 57.9799 73.4789 57.485 73.4789 57.0136C73.526 56.5423 73.5496 56.0474 73.5496 55.529C73.5496 55.1519 73.5025 54.7984 73.4082 54.4685C73.3611 54.0914 73.3611 53.7379 73.4082 53.408C73.5496 52.6539 73.5732 51.9234 73.4789 51.2164C73.4318 50.4623 73.4318 49.7317 73.4789 49.0247C73.526 48.5063 73.5496 48.0349 73.5496 47.6107C73.5496 47.1394 73.5732 46.6445 73.6203 46.1261C73.6203 45.749 73.6203 45.3484 73.6203 44.9242C73.6674 44.5 73.7146 44.0758 73.7617 43.6516C73.7617 43.3217 73.7853 42.9918 73.8324 42.6619C73.8795 42.3319 73.856 41.9784 73.7617 41.6014C73.7617 41.5543 73.7853 41.5071 73.8324 41.46C73.8795 41.3657 73.9267 41.2715 73.9738 41.1772H74.1859C74.233 41.5071 74.2566 41.837 74.2566 42.167C74.3037 42.4498 74.3508 42.7326 74.398 43.0153C74.6336 42.9211 74.8457 42.8268 75.0343 42.7326C75.2699 42.6383 75.5056 42.5205 75.7412 42.3791C75.7884 42.8504 75.8119 43.2981 75.8119 43.7223C75.8591 44.0994 75.9062 44.4765 75.9533 44.8535H76.0947C76.1419 44.4765 76.1654 44.123 76.1654 43.793C76.1654 43.416 76.189 43.0154 76.2361 42.5912C76.3304 42.7797 76.4011 42.9447 76.4482 43.086C76.4954 43.1803 76.5661 43.3453 76.6603 43.5809C76.6603 43.3453 76.6603 43.1332 76.6603 42.9447C76.7075 42.7561 76.731 42.5676 76.731 42.3791C76.9667 42.3791 77.0845 42.3791 77.0845 42.3791C77.2259 42.1905 77.3202 42.167 77.3673 42.3084C77.4144 42.4026 77.4851 42.4733 77.5794 42.5205C77.4851 42.8975 77.5558 43.2274 77.7915 43.5102C78.0743 43.793 78.0979 44.1465 77.8622 44.5707C77.8151 44.665 77.8151 44.8064 77.8622 44.9949C77.9093 45.1363 77.98 45.2541 78.0743 45.3484C78.3571 45.7255 78.522 46.1496 78.5692 46.621C78.6163 47.0923 78.6634 47.5872 78.7106 48.1056ZM74.4687 82.7479H74.6808C74.5865 82.3708 74.5394 82.088 74.5394 81.8995C74.4451 81.8995 74.398 81.9231 74.398 81.9702C74.398 82.0645 74.398 82.1823 74.398 82.3237C74.4451 82.4651 74.4687 82.6065 74.4687 82.7479ZM75.9533 48.954V48.0349H75.8826V48.954H75.9533ZM92.9961 72.5673C92.9489 72.5673 92.9254 72.5437 92.9254 72.4966C92.9725 72.5437 92.9961 72.5673 92.9961 72.5673ZM94.2687 74.4055C94.033 74.1698 93.8209 73.9341 93.6324 73.6985C93.491 73.4628 93.3024 73.2036 93.0668 72.9208C93.0196 72.8737 92.9961 72.7558 92.9961 72.5673C93.1846 72.7558 93.3496 72.9444 93.491 73.1329C93.6795 73.2743 93.868 73.4628 94.0566 73.6985C94.2451 73.9341 94.4336 74.1698 94.6221 74.4055C94.8107 74.594 94.9992 74.8296 95.1877 75.1124C95.0463 75.0182 94.8814 74.9239 94.6928 74.8296C94.5514 74.6882 94.41 74.5469 94.2687 74.4055ZM103.318 75.6073C103.318 75.6545 103.318 75.7016 103.318 75.7487C103.365 75.7487 103.389 75.7723 103.389 75.8194C102.776 75.9608 102.187 76.1965 101.621 76.5264C101.056 76.8563 100.443 76.9035 99.7831 76.6678C100.396 76.4793 100.985 76.3143 101.551 76.1729C102.116 75.9844 102.705 75.7959 103.318 75.6073ZM99.2175 76.5264V76.8092C99.1233 76.8092 98.8876 76.7621 98.5106 76.6678V76.5264H99.2175ZM103.884 75.0417C103.978 75.136 104.025 75.1831 104.025 75.1831C103.931 75.2774 103.86 75.3481 103.813 75.3952C103.813 75.4424 103.766 75.5131 103.672 75.6073C103.672 75.5602 103.648 75.5366 103.601 75.5366C103.742 75.3952 103.837 75.2303 103.884 75.0417ZM106.429 70.0222C106.429 70.1164 106.452 70.1871 106.499 70.2342C106.405 70.2342 106.405 70.3285 106.499 70.517C106.405 70.2342 106.382 70.0693 106.429 70.0222ZM109.964 72.1431C110.152 72.2845 110.341 72.4259 110.529 72.5673C110.718 72.6616 110.906 72.7794 111.095 72.9208L110.883 73.345L109.822 73.0622C109.681 73.8634 109.516 74.7825 109.327 75.8194C109.139 76.8092 109.045 77.4219 109.045 77.6576C109.045 77.7518 108.997 77.8932 108.903 78.0818C108.809 78.2232 108.715 78.3174 108.62 78.3646C108.338 78.506 108.22 78.7652 108.267 79.1423C107.937 79.755 107.631 80.3913 107.348 81.0511C107.065 81.6638 106.617 82.1116 106.005 82.3944C105.769 82.4886 105.533 82.63 105.298 82.8186C105.109 83.0071 104.897 83.1721 104.661 83.3135C104.426 83.4549 104.19 83.5727 103.954 83.667C103.766 83.7612 103.554 83.879 103.318 84.0204C103.412 84.3032 103.459 84.4682 103.459 84.5153C103.365 84.6096 103.247 84.6803 103.106 84.7274C103.012 84.7274 102.894 84.7746 102.752 84.8688C102.752 84.9631 102.752 85.0338 102.752 85.0809C102.8 85.1281 102.823 85.1988 102.823 85.293C102.682 85.6701 102.446 85.8822 102.116 85.9293C101.786 85.9764 101.668 86.3064 101.763 86.9191C101.433 87.0605 101.103 87.2019 100.773 87.3433C100.49 87.4847 100.184 87.6025 99.8538 87.6968C99.2411 87.8853 98.652 87.9089 98.0864 87.7675C97.5208 87.6261 96.9552 87.3668 96.3896 86.9898C95.9654 86.7541 95.5412 86.4949 95.117 86.2121C94.74 85.9764 94.3394 85.7408 93.9152 85.5051C93.1139 85.0338 92.3362 84.5153 91.5821 83.9497C90.8751 83.3842 90.1917 82.6772 89.5319 81.8288C88.7777 80.8861 88.1415 79.8728 87.623 78.7888C87.1045 77.6576 86.5861 76.4793 86.0676 75.2538C85.9734 74.971 85.9027 74.6883 85.8555 74.4055C85.8084 74.0755 85.7377 73.7456 85.6434 73.4157C85.5492 73.1329 85.4785 72.8501 85.4313 72.5673C85.3842 72.2374 85.3135 71.931 85.2193 71.6482C84.8893 70.2342 84.6772 68.7967 84.583 67.3356C84.5358 65.8745 84.5358 64.4134 84.583 62.9523C84.7244 60.4072 85.1486 57.9799 85.8555 55.6704C85.9498 55.3876 86.0441 55.1283 86.1383 54.8927C86.2797 54.657 86.3976 54.3978 86.4918 54.115C86.916 53.0781 87.3638 52.0883 87.8351 51.1457C88.3064 50.1559 88.8484 49.2368 89.4612 48.3884C89.744 47.9642 90.0739 47.5636 90.4509 47.1866C90.4981 47.2808 90.5216 47.3751 90.5216 47.4694C90.1446 48.2235 89.7911 48.9776 89.4612 49.7317C89.1312 50.4858 88.7777 51.2635 88.4007 52.0648C88.165 52.5832 87.9765 53.1488 87.8351 53.7615C87.6937 54.3271 87.5287 54.8927 87.3402 55.4583C87.4345 55.9767 87.4109 56.4952 87.2695 57.0136C87.1281 57.5321 87.0574 58.0506 87.0574 58.569C87.0574 58.6161 87.081 58.6868 87.1281 58.7811C87.3638 58.2626 87.623 57.7442 87.9058 57.2257C88.1886 56.7073 88.3771 56.1417 88.4714 55.529C88.5656 55.1519 88.6599 54.822 88.7542 54.5392C88.8484 54.2093 88.9427 53.8793 89.037 53.5494C89.3198 52.4654 89.6968 51.4992 90.1681 50.6508C90.6395 49.8024 91.1815 48.9776 91.7942 48.1763C92.0299 47.7993 92.2655 47.4694 92.5012 47.1866C92.784 46.9038 93.0196 46.5267 93.2082 46.0554C93.161 46.0083 92.9961 45.914 92.7133 45.7726C93.0432 45.5841 93.326 45.4191 93.5617 45.2777C93.7973 45.0892 94.033 44.9478 94.2687 44.8535C94.6457 44.665 95.0228 44.5236 95.3998 44.4293C95.7769 44.2879 96.1539 44.123 96.531 43.9344C96.6724 43.8402 96.8374 43.7695 97.0259 43.7223C97.2144 43.6752 97.3558 43.5102 97.4501 43.2274C97.4501 43.1332 97.4972 43.086 97.5915 43.086C97.6857 43.0389 97.78 43.0153 97.8743 43.0153C99.1468 42.9682 100.443 43.2274 101.763 43.793C102.47 44.0758 103.153 44.3822 103.813 44.7121C103.954 44.8064 104.096 44.8535 104.237 44.8535C104.426 44.8535 104.614 44.8771 104.803 44.9242C104.991 44.9242 105.109 44.9713 105.156 45.0656C105.675 45.4427 106.17 45.8197 106.641 46.1968C107.112 46.5267 107.607 46.8802 108.126 47.2573C108.267 47.3987 108.408 47.5636 108.55 47.7521C108.691 47.8935 108.856 48.0585 109.045 48.247C109.139 48.3413 109.257 48.4591 109.398 48.6005C109.54 48.7419 109.728 48.9069 109.964 49.0954C110.011 49.1425 109.987 49.2604 109.893 49.4489C109.799 49.6374 109.846 49.7788 110.034 49.8731C110.034 49.9674 110.034 50.0381 110.034 50.0852C110.034 50.2266 110.011 50.3209 109.964 50.368C109.587 50.6979 109.186 50.745 108.762 50.5094C108.432 50.368 108.102 50.2502 107.772 50.1559C107.489 50.0616 107.183 49.9202 106.853 49.7317C106.617 49.6374 106.382 49.5432 106.146 49.4489C105.957 49.3075 105.769 49.1425 105.58 48.954C104.732 48.1528 103.813 47.5872 102.823 47.2573C101.881 46.9273 100.914 46.6681 99.9245 46.4796C99.5475 46.3853 99.1468 46.3146 98.7227 46.2675C98.2985 46.2203 97.8743 46.2439 97.4501 46.3382C95.989 46.4796 94.74 47.2337 93.7031 48.6005C92.9961 49.5903 92.4069 50.6979 91.9356 51.9234C91.4643 53.1017 91.0401 54.3507 90.663 55.6704C90.1446 57.4614 89.9089 59.276 89.956 61.1141C90.0503 62.9523 90.286 64.7905 90.663 66.6286C90.8987 67.7127 91.2286 68.726 91.6528 69.6687C92.077 70.6113 92.5012 71.554 92.9254 72.4966C92.5483 72.3552 92.2891 72.096 92.1477 71.7189C92.0063 71.3419 91.8413 70.9648 91.6528 70.5877C91.2758 69.6922 90.9458 68.7731 90.663 67.8305C90.4274 66.8407 90.1681 65.8745 89.8853 64.9319C89.6968 65.0261 89.6026 65.144 89.6026 65.2854C89.6026 65.4268 89.6026 65.5682 89.6026 65.7095C89.8382 68.6318 90.6395 71.1769 92.0063 73.345C92.7133 74.5233 93.491 75.5131 94.3394 76.3143C95.1877 77.1156 96.0597 77.9168 96.9552 78.7181C97.4736 79.2365 98.0157 79.5193 98.5813 79.5664C99.1468 79.6136 99.7124 79.59 100.278 79.4957C100.796 79.4015 101.315 79.2365 101.833 79.0009C102.352 78.7652 102.87 78.5295 103.389 78.2939C103.624 78.1996 103.884 77.8697 104.166 77.3041C104.496 76.7385 104.803 76.1258 105.086 75.4659C105.415 74.7589 105.722 74.0991 106.005 73.4864C106.287 72.8265 106.499 72.3788 106.641 72.1431C106.735 71.9074 106.829 71.766 106.924 71.7189V71.5775C106.924 71.4833 106.9 71.4361 106.853 71.4361C106.9 71.389 106.9 71.2947 106.853 71.1533L106.924 71.224C106.877 71.1298 106.853 71.0591 106.853 71.0119C106.853 70.9177 106.806 70.8234 106.712 70.7291V70.8705C106.806 70.9648 106.853 71.0591 106.853 71.1533C106.853 71.0591 106.806 70.9648 106.712 70.8705C106.57 71.3419 106.429 71.766 106.287 72.1431C106.193 72.473 106.122 72.6616 106.075 72.7087C106.028 72.7558 106.052 72.5437 106.146 72.0724C106.287 71.6011 106.429 71.1062 106.57 70.5877C106.57 70.5406 106.594 70.4935 106.641 70.4463C106.499 70.1636 106.358 69.9043 106.217 69.6687C106.122 69.3859 106.099 69.1502 106.146 68.9617C105.769 68.8674 105.51 68.8438 105.368 68.891C104.708 68.891 104.049 68.9145 103.389 68.9617C102.729 68.9617 102.069 68.9852 101.409 69.0324C101.315 69.0795 101.221 69.1502 101.126 69.2445C101.032 69.2916 100.961 69.2916 100.914 69.2445C100.537 69.0088 100.16 68.891 99.7831 68.891C99.4532 68.891 99.0997 68.8674 98.7227 68.8203C98.3927 68.8203 98.0628 68.7967 97.7329 68.7496C97.4501 68.6553 97.1202 68.5611 96.7431 68.4668C96.6017 68.3254 96.6017 68.1133 96.7431 67.8305C96.8845 67.5477 96.7667 67.3356 96.3896 67.1942V67.1235C96.3896 67.0764 96.4132 67.0528 96.4603 67.0528C96.6017 66.8172 96.6488 66.5579 96.6017 66.2751C96.6017 65.9923 96.7902 65.8038 97.1673 65.7095C96.9316 65.144 96.8609 64.7905 96.9552 64.6491C97.0966 64.5077 97.4501 64.4134 98.0157 64.3663C98.3927 64.3191 98.7698 64.2956 99.1468 64.2956C99.571 64.2956 99.9717 64.272 100.349 64.2249C100.537 64.1777 100.726 64.1542 100.914 64.1542C101.103 64.1071 101.291 64.0599 101.48 64.0128C102.894 63.5415 104.355 63.2587 105.863 63.1644C106.476 63.1644 107.065 63.188 107.631 63.2351C108.243 63.2822 108.833 63.3058 109.398 63.3058C109.398 63.5415 109.422 63.6829 109.469 63.73C109.516 63.7771 109.61 63.8714 109.752 64.0128C110.459 64.814 110.741 65.6153 110.6 66.4165C110.459 66.8879 110.364 67.3592 110.317 67.8305C110.317 68.2547 110.341 68.7024 110.388 69.1738C110.388 70.0693 110.176 70.9412 109.752 71.7896C109.846 71.7896 109.917 71.8132 109.964 71.8603V72.1431ZM90.3095 77.799C90.3567 77.7518 90.3802 77.7047 90.3802 77.6576C90.1446 77.1863 89.9089 76.7149 89.6733 76.2436C89.4376 75.7723 89.2255 75.2774 89.037 74.7589C88.8013 73.9577 88.5656 73.18 88.33 72.4259C88.0943 71.6718 87.9294 70.847 87.8351 69.9515C87.8351 69.7629 87.8115 69.598 87.7644 69.4566C87.7173 69.268 87.6701 69.0795 87.623 68.891C87.5759 68.6082 87.5287 68.349 87.4816 68.1133C87.4816 67.8305 87.4816 67.5477 87.4816 67.2649C87.4345 66.935 87.3873 66.6051 87.3402 66.2751C87.3402 65.9452 87.3166 65.5917 87.2695 65.2147H87.0574C86.9631 65.4032 86.8689 65.6153 86.7746 65.8509C86.6804 66.0866 86.6568 66.3458 86.7039 66.6286C86.7511 67.0057 86.7982 67.3592 86.8453 67.6891C86.8924 68.019 86.9396 68.3725 86.9867 68.7496C87.1752 70.3521 87.5287 71.8367 88.0472 73.2036C88.5656 74.5704 89.1548 75.9137 89.8147 77.2334C89.8618 77.4219 90.0267 77.6105 90.3095 77.799ZM148.281 46.8331C148.045 46.9273 147.928 47.0687 147.928 47.2573C147.975 47.4458 147.998 47.6107 147.998 47.7521V54.3271C147.998 55.0812 147.975 55.9296 147.928 56.8722C147.928 57.7678 147.928 58.569 147.928 59.276C147.928 59.8887 147.951 60.9021 147.998 62.316C148.045 63.6829 148.069 65.1675 148.069 66.77C148.116 68.3254 148.163 69.8336 148.21 71.2947C148.258 72.7087 148.281 73.7456 148.281 74.4055C148.281 75.3481 148.258 76.2672 148.21 77.1627C148.163 78.0111 148.022 78.883 147.786 79.7785C147.739 78.1289 147.716 76.4793 147.716 74.8296C147.716 73.1329 147.716 71.4597 147.716 69.8101C147.433 70.0457 147.291 70.3049 147.291 70.5877C147.339 70.8705 147.362 71.1298 147.362 71.3654C147.315 71.8367 147.268 72.3081 147.221 72.7794C147.174 73.2036 147.126 73.6278 147.079 74.052C147.079 74.6176 147.103 75.1831 147.15 75.7487C147.197 76.3143 147.221 76.8799 147.221 77.4455C147.174 77.9639 147.126 78.506 147.079 79.0716C147.079 79.6371 147.079 80.1792 147.079 80.6976V81.4046C147.032 81.6403 147.009 81.8524 147.009 82.0409C147.009 82.1823 147.009 82.3708 147.009 82.6065C147.009 82.9835 147.009 83.3606 147.009 83.7377C147.056 84.0676 147.103 84.4211 147.15 84.7981C147.15 85.0338 147.15 85.2459 147.15 85.4344C147.197 85.6229 147.221 85.8115 147.221 86C147.174 86.707 146.867 87.2961 146.302 87.7675C145.972 87.2019 145.665 86.6599 145.383 86.1414C145.1 85.6229 144.793 85.1045 144.463 84.586C144.181 85.1045 144.063 85.6465 144.11 86.2121C144.204 86.8248 144.181 87.414 144.039 87.9796C143.945 87.7439 143.851 87.4847 143.756 87.2019C143.709 86.9191 143.639 86.6599 143.544 86.4242C143.45 86.1885 143.356 85.9529 143.262 85.7172C143.214 85.4344 143.097 85.1988 142.908 85.0102C141.824 83.7848 140.834 82.5122 139.939 81.1925C139.043 79.8257 138.266 78.3646 137.606 76.8092C137.37 76.2436 137.111 75.678 136.828 75.1124C136.545 74.5469 136.215 74.0048 135.838 73.4864C134.66 71.6954 133.482 69.9043 132.303 68.1133C131.125 66.2751 129.923 64.437 128.698 62.5988C128.98 62.4103 129.145 62.2453 129.193 62.1039C128.957 61.774 128.698 61.4912 128.415 61.2555C128.179 60.9728 128.014 60.6664 127.92 60.3365C127.826 59.9594 127.684 59.6295 127.496 59.3467C127.307 59.0168 127.095 58.6868 126.86 58.3569C126.765 58.1684 126.671 58.0034 126.577 57.862C126.53 57.6735 126.506 57.4614 126.506 57.2257C126.506 56.9901 126.459 56.7308 126.365 56.4481C126.27 56.1653 126.153 55.9532 126.011 55.8118C125.351 55.1519 124.809 54.4449 124.385 53.6908C123.961 52.9367 123.537 52.159 123.113 51.3578C122.924 51.075 122.735 50.8393 122.547 50.6508C122.358 50.4151 122.076 50.203 121.699 50.0145C121.793 50.5801 121.864 51.1221 121.911 51.6406C121.958 52.1119 122.028 52.6068 122.123 53.1252C121.887 52.701 121.722 52.2768 121.628 51.8527C121.581 51.4285 121.51 51.0043 121.416 50.5801C121.321 50.203 121.298 49.7788 121.345 49.3075C121.392 48.8362 121.227 48.3413 120.85 47.8228C120.944 48.8126 121.015 49.7317 121.062 50.5801C121.109 51.3813 121.157 52.1826 121.204 52.9838C121.204 53.2195 121.157 53.4552 121.062 53.6908C121.015 53.9265 120.992 54.1621 120.992 54.3978C120.944 54.6335 120.827 54.8691 120.638 55.1048C120.45 55.2933 120.52 55.5761 120.85 55.9532C121.039 55.8118 121.204 55.6704 121.345 55.529C121.534 55.3876 121.746 55.2462 121.981 55.1048C122.076 55.8118 122.123 56.4952 122.123 57.155C122.17 57.7678 122.217 58.404 122.264 59.0639C122.311 60.1479 122.335 61.232 122.335 62.316C122.382 63.4001 122.429 64.4841 122.476 65.5682C122.57 66.5108 122.641 67.4534 122.688 68.3961C122.735 69.3387 122.759 70.2814 122.759 71.224C122.759 71.8839 122.735 72.638 122.688 73.4864C122.688 74.2876 122.665 75.136 122.618 76.0315C122.618 76.927 122.594 77.799 122.547 78.6474C122.547 79.4486 122.547 80.1792 122.547 80.839C122.5 81.9231 122.476 83.0071 122.476 84.0911C122.523 85.1752 122.429 86.2357 122.193 87.2726C122.099 87.8853 121.934 88.3802 121.699 88.7572C121.887 87.7203 121.981 86.707 121.981 85.7172C121.981 84.6803 121.981 83.6198 121.981 82.5358C121.793 82.63 121.699 82.7479 121.699 82.8893C121.699 82.9835 121.699 83.1014 121.699 83.2428C121.699 83.4784 121.699 83.7377 121.699 84.0204C121.699 84.3032 121.651 84.4918 121.557 84.586C121.321 84.8217 121.204 85.0574 121.204 85.293C121.204 85.5287 121.18 85.7643 121.133 86C121.039 86.2828 120.992 86.5185 120.992 86.707C120.897 86.3771 120.85 86.0707 120.85 85.7879C120.897 85.5051 120.874 85.2459 120.779 85.0102C120.544 84.4918 120.45 83.9733 120.497 83.4549C120.544 82.8893 120.544 82.3472 120.497 81.8288C120.45 81.0747 120.402 80.2263 120.355 79.2836C120.355 78.341 120.355 77.3748 120.355 76.385C120.355 75.3952 120.332 74.429 120.285 73.4864C120.285 72.4966 120.285 71.6247 120.285 70.8705C120.237 70.1164 120.19 69.3859 120.143 68.6789C120.096 67.9719 120.072 67.2413 120.072 66.4872C120.12 65.2618 120.167 64.0364 120.214 62.8109C120.261 61.5855 120.308 60.36 120.355 59.1346C120.402 58.8047 120.402 58.4747 120.355 58.1448C120.355 57.8149 120.355 57.4614 120.355 57.0843C120.45 57.1315 120.544 57.1786 120.638 57.2257C120.779 57.2729 120.921 57.3436 121.062 57.4378C120.968 57.2022 120.897 57.0136 120.85 56.8722C120.85 56.7308 120.803 56.5895 120.709 56.4481C120.662 56.3538 120.591 56.2595 120.497 56.1653C120.45 56.071 120.426 55.9767 120.426 55.8825C120.379 55.4583 120.332 55.0341 120.285 54.6099C120.285 54.1857 120.285 53.7615 120.285 53.3373C120.285 52.866 120.308 52.4182 120.355 51.9941C120.402 51.5227 120.426 51.0278 120.426 50.5094C120.473 49.9438 120.473 49.3782 120.426 48.8126C120.379 48.247 120.355 47.6579 120.355 47.0452C120.355 46.8095 120.332 46.5974 120.285 46.4089C120.285 46.1732 120.167 45.9847 119.931 45.8433C119.884 46.2675 119.837 46.6917 119.79 47.1159C119.79 47.4929 119.79 47.8935 119.79 48.3177C119.79 49.0247 119.79 49.7317 119.79 50.4387C119.837 51.1457 119.86 51.8291 119.86 52.4889H119.79C119.743 52.4889 119.719 52.4889 119.719 52.4889C119.719 52.4418 119.695 52.4182 119.648 52.4182C119.648 52.4182 119.601 52.4182 119.507 52.4182C119.46 53.9265 119.413 55.4111 119.365 56.8722C119.318 58.2862 119.295 59.7473 119.295 61.2555C119.295 62.9052 119.318 64.5312 119.365 66.1337C119.413 67.6891 119.436 69.268 119.436 70.8705C119.483 71.4833 119.507 72.096 119.507 72.7087C119.507 73.2743 119.46 73.8399 119.365 74.4055C119.318 74.971 119.342 75.5366 119.436 76.1022C119.578 76.6678 119.625 77.2334 119.578 77.799C119.578 78.2232 119.578 78.7416 119.578 79.3543C119.625 79.9671 119.672 80.6034 119.719 81.2632C119.766 81.8759 119.79 82.4886 119.79 83.1014C119.79 83.667 119.743 84.1618 119.648 84.586C119.554 85.1988 119.436 85.7879 119.295 86.3535C119.153 86.9662 118.823 87.4847 118.305 87.9089C117.928 87.1547 117.739 86.4478 117.739 85.7879C117.834 85.2694 117.881 84.7746 117.881 84.3032C117.881 83.7848 117.881 83.2663 117.881 82.7479C117.881 82.3708 117.857 81.9231 117.81 81.4046C117.763 80.839 117.716 80.2499 117.669 79.6371C117.669 79.0244 117.645 78.4353 117.598 77.8697C117.551 77.3041 117.527 76.8328 117.527 76.4557C117.48 74.4762 117.433 72.4966 117.386 70.517C117.386 68.5375 117.362 66.5108 117.315 64.437C117.315 64.1071 117.339 63.8007 117.386 63.5179C117.433 63.188 117.457 62.858 117.457 62.5281C117.362 60.8785 117.292 59.2524 117.245 57.6499C117.197 56.0003 117.127 54.3507 117.032 52.701C117.032 52.5125 117.032 52.3475 117.032 52.2061C117.08 52.0176 117.127 51.8055 117.174 51.5699C117.268 51.7113 117.339 51.8291 117.386 51.9234C117.433 51.9705 117.504 52.0412 117.598 52.1354C117.504 50.1088 117.41 48.0821 117.315 46.0554C117.268 44.0287 117.433 42.0256 117.81 40.046C117.952 39.9989 118.069 39.9989 118.164 40.046C118.258 40.046 118.352 39.9989 118.446 39.9046C118.588 39.7632 118.753 39.5511 118.941 39.2683H119.153C119.201 39.7397 119.248 40.211 119.295 40.6823C119.342 41.1065 119.389 41.5307 119.436 41.9549C119.672 42.0491 119.908 42.1198 120.143 42.167C120.426 42.167 120.685 42.1905 120.921 42.2377V43.5102C121.062 43.3217 121.321 43.0389 121.699 42.6619V45.9847C121.699 46.2203 121.699 46.456 121.699 46.6917C121.699 46.8802 121.911 46.9273 122.335 46.8331C122.429 46.8331 122.547 46.9038 122.688 47.0452C122.83 47.1866 122.948 47.328 123.042 47.4694C123.419 48.0349 123.772 48.6241 124.102 49.2368C124.479 49.8024 124.88 50.3444 125.304 50.8629C126.011 51.8055 126.671 52.7717 127.284 53.7615C127.944 54.7042 128.58 55.6939 129.193 56.7308C129.287 56.9665 129.405 57.1786 129.546 57.3671C129.687 57.5085 129.829 57.6971 129.97 57.9327C130.065 57.8385 130.135 57.7913 130.182 57.7913C129.805 57.1786 129.452 56.5894 129.122 56.0239C128.839 55.4111 128.509 54.7984 128.132 54.1857C128.415 54.0914 128.603 54.1386 128.698 54.3271C129.31 55.1755 129.9 56.0474 130.465 56.9429C131.078 57.7913 131.667 58.6397 132.233 59.4881C132.61 60.1008 132.987 60.7135 133.364 61.3262C133.741 61.8918 134.141 62.481 134.566 63.0937C134.707 63.2822 134.872 63.4708 135.061 63.6593C135.249 63.8007 135.39 63.9892 135.485 64.2249C135.862 64.8847 136.215 65.5446 136.545 66.2044C136.922 66.8172 137.299 67.4299 137.676 68.0426C138.101 68.7967 138.525 69.5273 138.949 70.2342C139.373 70.9412 139.892 71.6011 140.504 72.2138C140.74 72.4966 140.976 72.803 141.211 73.1329C141.447 73.4157 141.612 73.722 141.706 74.052C141.8 74.5233 141.989 74.9003 142.272 75.1831C142.555 75.4188 142.79 75.7252 142.979 76.1022C142.979 76.0551 143.097 76.1022 143.332 76.2436C143.379 75.5838 143.427 74.9475 143.474 74.3348C143.521 73.6749 143.544 73.0151 143.544 72.3552C143.497 71.2712 143.45 70.2342 143.403 69.2445C143.356 68.2076 143.309 67.1471 143.262 66.063V50.5094C143.262 49.8495 143.379 49.3311 143.615 48.954C143.804 48.7184 143.898 48.5063 143.898 48.3177C143.945 48.0821 143.992 47.8464 144.039 47.6107C144.134 46.8095 144.063 46.0083 143.827 45.207C143.639 44.4058 143.615 43.6045 143.756 42.8033L143.969 42.5912C144.204 42.544 144.44 42.4969 144.676 42.4498C144.958 42.3555 145.218 42.1905 145.453 41.9549C145.547 41.8606 145.689 41.8135 145.877 41.8135C146.113 41.8135 146.278 41.8135 146.372 41.8135C146.514 42.8504 146.655 43.8402 146.796 44.7828C146.938 45.6783 147.079 46.5974 147.221 47.5401C147.362 47.0216 147.48 46.5031 147.574 45.9847C147.668 45.4662 147.527 44.9478 147.15 44.4293C147.056 44.3351 147.009 44.1937 147.009 44.0051C147.056 43.7695 147.126 43.6045 147.221 43.5102C147.315 43.416 147.456 43.3924 147.645 43.4395C147.833 43.4395 148.045 43.4395 148.281 43.4395C148.328 43.958 148.352 44.4293 148.352 44.8535C148.399 45.2777 148.423 45.7019 148.423 46.1261C148.423 46.2203 148.423 46.3617 148.423 46.5503C148.423 46.6917 148.375 46.7859 148.281 46.8331ZM119.295 46.8331C119.436 46.5974 119.53 46.4089 119.578 46.2675C119.672 46.1261 119.766 45.9847 119.86 45.8433C119.813 45.5605 119.719 45.3013 119.578 45.0656C119.53 45.1127 119.436 45.1363 119.295 45.1363V46.8331ZM121.911 80.9804H121.628C121.722 81.2161 121.769 81.4753 121.769 81.7581C121.816 81.9938 121.887 82.2294 121.981 82.4651C121.934 82.2294 121.911 81.9938 121.911 81.7581C121.911 81.4753 121.911 81.2161 121.911 80.9804ZM120.85 45.6312C121.086 45.207 121.204 44.8535 121.204 44.5707C121.204 44.2408 121.109 43.9109 120.921 43.5809C120.921 43.8637 120.897 44.1701 120.85 44.5C120.85 44.8299 120.85 45.207 120.85 45.6312ZM169.477 48.1056C169.477 49.4725 169.454 50.8157 169.407 52.1354C169.36 53.4552 169.289 54.7984 169.195 56.1653C169.1 57.5792 169.077 58.9932 169.124 60.4072C169.171 61.8211 169.171 63.2587 169.124 64.7198C169.077 65.7095 169.03 66.6993 168.983 67.6891C168.983 68.6789 168.935 69.6687 168.841 70.6584C168.747 71.931 168.653 73.2036 168.558 74.4762C168.464 75.7487 168.417 77.0213 168.417 78.2939C168.417 78.9066 168.393 79.5193 168.346 80.132C168.346 80.6976 168.346 81.2868 168.346 81.8995C168.393 83.1249 168.44 84.3504 168.488 85.5758C168.535 86.7541 168.582 87.956 168.629 89.1814C168.676 89.5114 168.7 89.8177 168.7 90.1005C168.7 90.3833 168.7 90.6897 168.7 91.0196C168.7 91.4438 168.511 91.6087 168.134 91.5145C168.087 91.2788 168.04 91.0196 167.993 90.7368C167.993 90.5011 167.969 90.2419 167.922 89.9591C167.969 89.7706 168.087 89.6292 168.276 89.5349C168.464 89.4878 168.511 89.2757 168.417 88.8986C168.323 88.9929 168.252 89.04 168.205 89.04C168.158 89.0872 168.087 89.1579 167.993 89.2521C167.757 89.0165 167.686 88.8044 167.781 88.6158C167.922 88.4273 167.993 88.2152 167.993 87.9796C167.757 87.6025 167.498 87.5082 167.215 87.6968C166.932 87.9324 166.673 87.9324 166.437 87.6968C166.249 87.414 166.084 87.1312 165.942 86.8484C165.801 86.5656 165.613 86.2592 165.377 85.9293C165.377 86.0236 165.33 86.2592 165.235 86.6363C165 86.4006 164.882 86.1414 164.882 85.8586C164.882 85.5758 164.858 85.293 164.811 85.0102C164.764 84.7274 164.741 84.4446 164.741 84.1618C164.788 83.8319 164.764 83.5256 164.67 83.2428C164.434 82.4886 164.316 81.7345 164.316 80.9804C164.316 80.1792 164.269 79.3779 164.175 78.5767C164.175 78.1996 164.151 77.8225 164.104 77.4455C164.104 77.0684 164.057 76.6914 163.963 76.3143C163.822 75.6073 163.774 74.9003 163.822 74.1934C163.869 73.4392 163.892 72.7087 163.892 72.0017C163.845 71.5775 163.822 71.1533 163.822 70.7291C163.869 70.3049 163.892 69.8808 163.892 69.4566C163.892 69.3623 163.916 69.268 163.963 69.1738C164.01 69.0795 164.057 68.9617 164.104 68.8203C163.963 68.6789 163.845 68.4904 163.751 68.2547C163.704 67.9719 163.727 67.6655 163.822 67.3356C164.01 66.7229 164.081 66.1102 164.034 65.4975C164.034 64.8847 164.057 64.2484 164.104 63.5886C164.151 63.1644 164.175 62.7638 164.175 62.3867C164.175 61.9625 164.175 61.5383 164.175 61.1141C164.128 60.6428 164.151 60.2186 164.246 59.8416C164.34 59.4174 164.364 58.9696 164.316 58.4983C164.269 57.9799 164.246 57.485 164.246 57.0136C164.293 56.5423 164.316 56.0474 164.316 55.529C164.316 55.1519 164.269 54.7984 164.175 54.4685C164.128 54.0914 164.128 53.7379 164.175 53.408C164.316 52.6539 164.34 51.9234 164.246 51.2164C164.199 50.4623 164.199 49.7317 164.246 49.0247C164.293 48.5063 164.316 48.0349 164.316 47.6107C164.316 47.1394 164.34 46.6445 164.387 46.1261C164.387 45.749 164.387 45.3484 164.387 44.9242C164.434 44.5 164.481 44.0758 164.529 43.6516C164.529 43.3217 164.552 42.9918 164.599 42.6619C164.646 42.3319 164.623 41.9784 164.529 41.6014C164.529 41.5543 164.552 41.5071 164.599 41.46C164.646 41.3657 164.693 41.2715 164.741 41.1772H164.953C165 41.5071 165.023 41.837 165.023 42.167C165.071 42.4498 165.118 42.7326 165.165 43.0153C165.4 42.9211 165.613 42.8268 165.801 42.7326C166.037 42.6383 166.272 42.5205 166.508 42.3791C166.555 42.8504 166.579 43.2981 166.579 43.7223C166.626 44.0994 166.673 44.4765 166.72 44.8535H166.862C166.909 44.4765 166.932 44.123 166.932 43.793C166.932 43.416 166.956 43.0154 167.003 42.5912C167.097 42.7797 167.168 42.9447 167.215 43.086C167.262 43.1803 167.333 43.3453 167.427 43.5809C167.427 43.3453 167.427 43.1332 167.427 42.9447C167.474 42.7561 167.498 42.5676 167.498 42.3791C167.734 42.3791 167.851 42.3791 167.851 42.3791C167.993 42.1905 168.087 42.167 168.134 42.3084C168.181 42.4026 168.252 42.4733 168.346 42.5205C168.252 42.8975 168.323 43.2274 168.558 43.5102C168.841 43.793 168.865 44.1465 168.629 44.5707C168.582 44.665 168.582 44.8064 168.629 44.9949C168.676 45.1363 168.747 45.2541 168.841 45.3484C169.124 45.7255 169.289 46.1496 169.336 46.621C169.383 47.0923 169.43 47.5872 169.477 48.1056ZM165.235 82.7479H165.448C165.353 82.3708 165.306 82.088 165.306 81.8995C165.212 81.8995 165.165 81.9231 165.165 81.9702C165.165 82.0645 165.165 82.1823 165.165 82.3237C165.212 82.4651 165.235 82.6065 165.235 82.7479ZM166.72 48.954V48.0349H166.649V48.954H166.72ZM206.598 46.8331C206.363 46.9273 206.245 47.0687 206.245 47.2573C206.292 47.4458 206.316 47.6107 206.316 47.7521V54.3271C206.316 55.0812 206.292 55.9296 206.245 56.8722C206.245 57.7678 206.245 58.569 206.245 59.276C206.245 59.8887 206.269 60.9021 206.316 62.316C206.363 63.6829 206.386 65.1675 206.386 66.77C206.434 68.3254 206.481 69.8336 206.528 71.2947C206.575 72.7087 206.598 73.7456 206.598 74.4055C206.598 75.3481 206.575 76.2672 206.528 77.1627C206.481 78.0111 206.339 78.883 206.104 79.7785C206.056 78.1289 206.033 76.4793 206.033 74.8296C206.033 73.1329 206.033 71.4597 206.033 69.8101C205.75 70.0457 205.609 70.3049 205.609 70.5877C205.656 70.8705 205.679 71.1298 205.679 71.3654C205.632 71.8367 205.585 72.3081 205.538 72.7794C205.491 73.2036 205.444 73.6278 205.397 74.052C205.397 74.6176 205.42 75.1831 205.467 75.7487C205.514 76.3143 205.538 76.8799 205.538 77.4455C205.491 77.9639 205.444 78.506 205.397 79.0716C205.397 79.6371 205.397 80.1792 205.397 80.6976V81.4046C205.349 81.6403 205.326 81.8524 205.326 82.0409C205.326 82.1823 205.326 82.3708 205.326 82.6065C205.326 82.9835 205.326 83.3606 205.326 83.7377C205.373 84.0676 205.42 84.4211 205.467 84.7981C205.467 85.0338 205.467 85.2459 205.467 85.4344C205.514 85.6229 205.538 85.8115 205.538 86C205.491 86.707 205.185 87.2961 204.619 87.7675C204.289 87.2019 203.983 86.6599 203.7 86.1414C203.417 85.6229 203.111 85.1045 202.781 84.586C202.498 85.1045 202.38 85.6465 202.427 86.2121C202.522 86.8248 202.498 87.414 202.357 87.9796C202.262 87.7439 202.168 87.4847 202.074 87.2019C202.027 86.9191 201.956 86.6599 201.862 86.4242C201.767 86.1885 201.673 85.9529 201.579 85.7172C201.532 85.4344 201.414 85.1988 201.225 85.0102C200.141 83.7848 199.152 82.5122 198.256 81.1925C197.361 79.8257 196.583 78.3646 195.923 76.8092C195.687 76.2436 195.428 75.678 195.145 75.1124C194.863 74.5469 194.533 74.0048 194.156 73.4864C192.977 71.6954 191.799 69.9043 190.621 68.1133C189.442 66.2751 188.24 64.437 187.015 62.5988C187.298 62.4103 187.463 62.2453 187.51 62.1039C187.274 61.774 187.015 61.4912 186.732 61.2555C186.497 60.9728 186.332 60.6664 186.237 60.3365C186.143 59.9594 186.002 59.6295 185.813 59.3467C185.625 59.0168 185.413 58.6868 185.177 58.3569C185.083 58.1684 184.988 58.0034 184.894 57.862C184.847 57.6735 184.823 57.4614 184.823 57.2257C184.823 56.9901 184.776 56.7308 184.682 56.4481C184.588 56.1653 184.47 55.9532 184.328 55.8118C183.669 55.1519 183.127 54.4449 182.702 53.6908C182.278 52.9367 181.854 52.159 181.43 51.3578C181.241 51.075 181.053 50.8393 180.864 50.6508C180.676 50.4151 180.393 50.203 180.016 50.0145C180.11 50.5801 180.181 51.1221 180.228 51.6406C180.275 52.1119 180.346 52.6068 180.44 53.1252C180.204 52.701 180.039 52.2768 179.945 51.8527C179.898 51.4285 179.827 51.0043 179.733 50.5801C179.639 50.203 179.615 49.7788 179.662 49.3075C179.71 48.8362 179.545 48.3413 179.167 47.8228C179.262 48.8126 179.332 49.7317 179.38 50.5801C179.427 51.3813 179.474 52.1826 179.521 52.9838C179.521 53.2195 179.474 53.4552 179.38 53.6908C179.332 53.9265 179.309 54.1621 179.309 54.3978C179.262 54.6335 179.144 54.8691 178.955 55.1048C178.767 55.2933 178.838 55.5761 179.167 55.9532C179.356 55.8118 179.521 55.6704 179.662 55.529C179.851 55.3876 180.063 55.2462 180.299 55.1048C180.393 55.8118 180.44 56.4952 180.44 57.155C180.487 57.7678 180.534 58.404 180.581 59.0639C180.629 60.1479 180.652 61.232 180.652 62.316C180.699 63.4001 180.746 64.4841 180.794 65.5682C180.888 66.5108 180.959 67.4534 181.006 68.3961C181.053 69.3387 181.076 70.2814 181.076 71.224C181.076 71.8839 181.053 72.638 181.006 73.4864C181.006 74.2876 180.982 75.136 180.935 76.0315C180.935 76.927 180.911 77.799 180.864 78.6474C180.864 79.4486 180.864 80.1792 180.864 80.839C180.817 81.9231 180.794 83.0071 180.794 84.0911C180.841 85.1752 180.746 86.2357 180.511 87.2726C180.417 87.8853 180.252 88.3802 180.016 88.7572C180.204 87.7203 180.299 86.707 180.299 85.7172C180.299 84.6803 180.299 83.6198 180.299 82.5358C180.11 82.63 180.016 82.7479 180.016 82.8893C180.016 82.9835 180.016 83.1014 180.016 83.2428C180.016 83.4784 180.016 83.7377 180.016 84.0204C180.016 84.3032 179.969 84.4918 179.874 84.586C179.639 84.8217 179.521 85.0574 179.521 85.293C179.521 85.5287 179.497 85.7643 179.45 86C179.356 86.2828 179.309 86.5185 179.309 86.707C179.215 86.3771 179.167 86.0707 179.167 85.7879C179.215 85.5051 179.191 85.2459 179.097 85.0102C178.861 84.4918 178.767 83.9733 178.814 83.4549C178.861 82.8893 178.861 82.3472 178.814 81.8288C178.767 81.0747 178.72 80.2263 178.673 79.2836C178.673 78.341 178.673 77.3748 178.673 76.385C178.673 75.3952 178.649 74.429 178.602 73.4864C178.602 72.4966 178.602 71.6247 178.602 70.8705C178.555 70.1164 178.508 69.3859 178.461 68.6789C178.413 67.9719 178.39 67.2413 178.39 66.4872C178.437 65.2618 178.484 64.0364 178.531 62.8109C178.578 61.5855 178.625 60.36 178.673 59.1346C178.72 58.8047 178.72 58.4747 178.673 58.1448C178.673 57.8149 178.673 57.4614 178.673 57.0843C178.767 57.1315 178.861 57.1786 178.955 57.2257C179.097 57.2729 179.238 57.3436 179.38 57.4378C179.285 57.2022 179.215 57.0136 179.167 56.8722C179.167 56.7308 179.12 56.5895 179.026 56.4481C178.979 56.3538 178.908 56.2595 178.814 56.1653C178.767 56.071 178.743 55.9767 178.743 55.8825C178.696 55.4583 178.649 55.0341 178.602 54.6099C178.602 54.1857 178.602 53.7615 178.602 53.3373C178.602 52.866 178.625 52.4182 178.673 51.9941C178.72 51.5227 178.743 51.0278 178.743 50.5094C178.79 49.9438 178.79 49.3782 178.743 48.8126C178.696 48.247 178.673 47.6579 178.673 47.0452C178.673 46.8095 178.649 46.5974 178.602 46.4089C178.602 46.1732 178.484 45.9847 178.248 45.8433C178.201 46.2675 178.154 46.6917 178.107 47.1159C178.107 47.4929 178.107 47.8935 178.107 48.3177C178.107 49.0247 178.107 49.7317 178.107 50.4387C178.154 51.1457 178.178 51.8291 178.178 52.4889H178.107C178.06 52.4889 178.036 52.4889 178.036 52.4889C178.036 52.4418 178.013 52.4182 177.966 52.4182C177.966 52.4182 177.918 52.4182 177.824 52.4182C177.777 53.9265 177.73 55.4111 177.683 56.8722C177.636 58.2862 177.612 59.7473 177.612 61.2555C177.612 62.9052 177.636 64.5312 177.683 66.1337C177.73 67.6891 177.754 69.268 177.754 70.8705C177.801 71.4833 177.824 72.096 177.824 72.7087C177.824 73.2743 177.777 73.8399 177.683 74.4055C177.636 74.971 177.659 75.5366 177.754 76.1022C177.895 76.6678 177.942 77.2334 177.895 77.799C177.895 78.2232 177.895 78.7416 177.895 79.3543C177.942 79.9671 177.989 80.6034 178.036 81.2632C178.083 81.8759 178.107 82.4886 178.107 83.1014C178.107 83.667 178.06 84.1618 177.966 84.586C177.871 85.1988 177.754 85.7879 177.612 86.3535C177.471 86.9662 177.141 87.4847 176.622 87.9089C176.245 87.1547 176.057 86.4478 176.057 85.7879C176.151 85.2694 176.198 84.7746 176.198 84.3032C176.198 83.7848 176.198 83.2663 176.198 82.7479C176.198 82.3708 176.175 81.9231 176.127 81.4046C176.08 80.839 176.033 80.2499 175.986 79.6371C175.986 79.0244 175.963 78.4353 175.915 77.8697C175.868 77.3041 175.845 76.8328 175.845 76.4557C175.798 74.4762 175.75 72.4966 175.703 70.517C175.703 68.5375 175.68 66.5108 175.633 64.437C175.633 64.1071 175.656 63.8007 175.703 63.5179C175.75 63.188 175.774 62.858 175.774 62.5281C175.68 60.8785 175.609 59.2524 175.562 57.6499C175.515 56.0003 175.444 54.3507 175.35 52.701C175.35 52.5125 175.35 52.3475 175.35 52.2061C175.397 52.0176 175.444 51.8055 175.491 51.5699C175.585 51.7113 175.656 51.8291 175.703 51.9234C175.75 51.9705 175.821 52.0412 175.915 52.1354C175.821 50.1088 175.727 48.0821 175.633 46.0554C175.585 44.0287 175.75 42.0256 176.127 40.046C176.269 39.9989 176.387 39.9989 176.481 40.046C176.575 40.046 176.669 39.9989 176.764 39.9046C176.905 39.7632 177.07 39.5511 177.259 39.2683H177.471C177.518 39.7397 177.565 40.211 177.612 40.6823C177.659 41.1065 177.706 41.5307 177.754 41.9549C177.989 42.0491 178.225 42.1198 178.461 42.167C178.743 42.167 179.003 42.1905 179.238 42.2377V43.5102C179.38 43.3217 179.639 43.0389 180.016 42.6619V45.9847C180.016 46.2203 180.016 46.456 180.016 46.6917C180.016 46.8802 180.228 46.9273 180.652 46.8331C180.746 46.8331 180.864 46.9038 181.006 47.0452C181.147 47.1866 181.265 47.328 181.359 47.4694C181.736 48.0349 182.09 48.6241 182.42 49.2368C182.797 49.8024 183.197 50.3444 183.621 50.8629C184.328 51.8055 184.988 52.7717 185.601 53.7615C186.261 54.7042 186.897 55.6939 187.51 56.7308C187.604 56.9665 187.722 57.1786 187.863 57.3671C188.005 57.5085 188.146 57.6971 188.288 57.9327C188.382 57.8385 188.453 57.7913 188.5 57.7913C188.123 57.1786 187.769 56.5894 187.439 56.0239C187.156 55.4111 186.826 54.7984 186.449 54.1857C186.732 54.0914 186.921 54.1386 187.015 54.3271C187.628 55.1755 188.217 56.0474 188.782 56.9429C189.395 57.7913 189.984 58.6397 190.55 59.4881C190.927 60.1008 191.304 60.7135 191.681 61.3262C192.058 61.8918 192.459 62.481 192.883 63.0937C193.024 63.2822 193.189 63.4708 193.378 63.6593C193.566 63.8007 193.708 63.9892 193.802 64.2249C194.179 64.8847 194.533 65.5446 194.863 66.2044C195.24 66.8172 195.617 67.4299 195.994 68.0426C196.418 68.7967 196.842 69.5273 197.266 70.2342C197.69 70.9412 198.209 71.6011 198.822 72.2138C199.057 72.4966 199.293 72.803 199.529 73.1329C199.764 73.4157 199.929 73.722 200.024 74.052C200.118 74.5233 200.306 74.9003 200.589 75.1831C200.872 75.4188 201.108 75.7252 201.296 76.1022C201.296 76.0551 201.414 76.1022 201.65 76.2436C201.697 75.5838 201.744 74.9475 201.791 74.3348C201.838 73.6749 201.862 73.0151 201.862 72.3552C201.815 71.2712 201.767 70.2342 201.72 69.2445C201.673 68.2076 201.626 67.1471 201.579 66.063V50.5094C201.579 49.8495 201.697 49.3311 201.932 48.954C202.121 48.7184 202.215 48.5063 202.215 48.3177C202.262 48.0821 202.309 47.8464 202.357 47.6107C202.451 46.8095 202.38 46.0083 202.144 45.207C201.956 44.4058 201.932 43.6045 202.074 42.8033L202.286 42.5912C202.522 42.544 202.757 42.4969 202.993 42.4498C203.276 42.3555 203.535 42.1905 203.771 41.9549C203.865 41.8606 204.006 41.8135 204.195 41.8135C204.43 41.8135 204.595 41.8135 204.69 41.8135C204.831 42.8504 204.972 43.8402 205.114 44.7828C205.255 45.6783 205.397 46.5974 205.538 47.5401C205.679 47.0216 205.797 46.5031 205.892 45.9847C205.986 45.4662 205.844 44.9478 205.467 44.4293C205.373 44.3351 205.326 44.1937 205.326 44.0051C205.373 43.7695 205.444 43.6045 205.538 43.5102C205.632 43.416 205.774 43.3924 205.962 43.4395C206.151 43.4395 206.363 43.4395 206.598 43.4395C206.646 43.958 206.669 44.4293 206.669 44.8535C206.716 45.2777 206.74 45.7019 206.74 46.1261C206.74 46.2203 206.74 46.3617 206.74 46.5503C206.74 46.6917 206.693 46.7859 206.598 46.8331ZM177.612 46.8331C177.754 46.5974 177.848 46.4089 177.895 46.2675C177.989 46.1261 178.083 45.9847 178.178 45.8433C178.131 45.5605 178.036 45.3013 177.895 45.0656C177.848 45.1127 177.754 45.1363 177.612 45.1363V46.8331ZM180.228 80.9804H179.945C180.039 81.2161 180.087 81.4753 180.087 81.7581C180.134 81.9938 180.204 82.2294 180.299 82.4651C180.252 82.2294 180.228 81.9938 180.228 81.7581C180.228 81.4753 180.228 81.2161 180.228 80.9804ZM179.167 45.6312C179.403 45.207 179.521 44.8535 179.521 44.5707C179.521 44.2408 179.427 43.9109 179.238 43.5809C179.238 43.8637 179.215 44.1701 179.167 44.5C179.167 44.8299 179.167 45.207 179.167 45.6312Z" fill="#E8E8E8"/>
<path d="M246.135 17.0197C236.399 16.2936 227.439 15.4558 217.217 15.1486C207.725 14.8694 197.802 15.0556 188.244 15.13C167.575 15.279 146.897 15.4931 126.256 15.7723C106.14 16.0423 86.0883 16.5263 65.9901 16.8707C45.3495 17.2245 24.6061 17.2896 4.0029 17.7364C2.66551 17.7644 2.66551 18.2298 4.0029 18.2577C24.0356 18.6952 44.1992 18.7604 64.2693 19.0955C84.9379 19.4399 105.569 19.9426 126.256 20.2218C146.327 20.4918 166.425 20.6872 186.523 20.8455C196.09 20.92 206.116 21.1248 215.646 20.892C226.411 20.6314 235.931 19.7285 246.135 18.9652C249.95 18.6766 249.96 17.3175 246.135 17.0383V17.0197Z" fill="#E8E8E8"/>
<path d="M15.0813 132.91C14.6618 129.402 14.0052 125.905 13.8593 122.376C13.531 114.103 13.385 105.829 13.2938 97.5457C13.1753 86.6099 13.2665 75.6741 13.1206 64.7383C13.0476 59.3919 12.5551 54.0455 12.3636 48.6991C12.2451 45.4448 12.4366 42.1693 12.318 38.915C12.0627 32.0471 11.7891 25.1792 11.3239 18.3218C11.1598 15.955 11.4334 13.789 12.0536 11.5913C12.5551 9.83733 12.9017 8.01999 13.4398 6.28716C13.5948 5.77999 14.1602 5.43131 14.7439 4.79735C15.0722 5.60036 15.364 6.11811 15.51 6.68867C16.5679 10.9045 17.0421 15.1837 17.0877 19.6003C17.1242 23.1822 17.7626 26.7535 17.9359 30.3354C18.1182 34.1286 18.0909 37.9323 18.1091 41.7255C18.1091 43.1097 17.9723 44.5044 17.945 45.8885C17.8173 52.207 17.7352 58.536 17.5984 64.8545C17.3522 75.5473 17.0604 86.2401 16.8141 96.9329C16.6408 104.445 16.5314 111.968 16.3764 119.481C16.3034 123.189 16.2122 126.898 16.0754 130.607C16.0481 131.41 15.8292 132.202 15.6924 132.995C15.4917 132.963 15.282 132.931 15.0813 132.9V132.91Z" fill="#E8E8E8"/>
<path d="M258.881 105.419C258.291 105.69 257.932 105.961 257.547 106.013C251.122 106.75 244.902 108.533 238.695 110.239C236.092 110.95 233.617 111.17 230.937 110.834C227.987 110.459 224.974 110.588 221.986 110.536C215.689 110.433 209.405 110.252 203.109 110.278C195.414 110.304 187.707 110.575 180.012 110.627C175.87 110.653 171.728 110.433 167.586 110.355C159.891 110.213 152.197 110.084 144.515 109.955C140.963 109.89 137.398 109.735 133.845 109.787C127.228 109.877 120.611 110.2 113.994 110.239C107.12 110.278 100.233 109.89 93.3596 110.071C87.3323 110.239 81.2793 109.916 75.2776 110.937C73.0847 111.312 70.8148 111.195 68.5706 111.221C64.5182 111.26 60.4658 111.131 56.4262 111.247C50.6425 111.428 44.846 111.674 39.0751 112.074C32.8682 112.501 26.7127 112.1 20.5442 111.363C15.389 110.756 10.1695 110.704 4.98859 110.355C3.43687 110.252 1.89797 109.942 0 109.67C2.01339 108.275 4.0909 108.171 6.00169 107.874C11.3109 107.06 16.6457 106.272 21.9934 105.936C26.5331 105.651 31.0985 105.987 35.6639 106.078C38.4852 106.129 41.2937 106.259 44.115 106.297C55.5413 106.44 66.9804 106.646 78.4067 106.646C82.3565 106.646 86.3064 106.091 90.269 105.923C93.7315 105.78 97.2197 105.923 100.682 105.78C106.633 105.548 112.583 105.121 118.533 104.94C121.252 104.85 123.984 105.083 126.702 105.289C137.962 106.168 149.234 105.625 160.507 105.742C169.368 105.832 178.243 106.129 187.104 106.078C192.811 106.039 198.517 105.535 204.224 105.264C208.366 105.07 212.509 104.966 216.638 104.695C222.332 104.32 228.013 103.751 233.694 103.377C240.375 102.937 247.07 102.718 253.738 103.661C254.469 103.764 255.226 103.739 255.97 103.751C257.124 103.764 258.021 104.23 258.855 105.444L258.881 105.419Z" fill="#E8E8E8"/>
</svg>
