<svg width="227" height="5" viewBox="0 0 227 5" fill="none" xmlns="http://www.w3.org/2000/svg">
<path d="M4.03244 2.48246C5.03103 2.17924 6.10642 2.24135 7.03917 2.16098C9.71668 1.93813 12.4271 1.76643 15.0827 1.52897C16.5641 1.39745 17.9687 1.30612 19.5489 1.36822C22.2154 1.47051 24.9149 1.49243 27.6034 1.49974C34.4398 1.52166 41.2872 1.49974 48.1237 1.52531C54.0164 1.55088 59.8982 1.64222 65.7909 1.6751C77.0606 1.74085 88.3413 1.792 99.611 1.83218C103.101 1.84314 106.601 1.83218 110.08 1.77373C115.149 1.6824 120.197 1.52897 125.267 1.42302C126.266 1.4011 127.286 1.47782 128.285 1.50705C132.926 1.63126 137.557 1.70067 142.21 1.57646C145.03 1.50339 147.883 1.55454 150.714 1.53262C156.388 1.48147 162.061 1.44129 167.723 1.34996C170.039 1.31342 172.332 1.15268 174.636 1.065C175.843 1.02116 177.083 0.984632 178.291 1.00655C181.703 1.06135 185.105 1.17095 188.518 1.21844C194.696 1.30612 200.874 1.35361 207.041 1.44859C210.958 1.50705 214.865 1.58742 218.684 1.92717C219.726 2.0185 220.846 2.01485 221.921 2.07695C222.524 2.10983 223.095 2.18655 223.622 2.3546C220.67 2.42036 217.718 2.47881 214.777 2.55553C210.596 2.66512 206.415 2.82221 202.224 2.89528C196.858 2.99026 191.568 3.39577 186.137 3.25695C181.144 3.13274 176.14 3.04506 171.136 3.02314C168.458 3.01218 165.781 3.1985 163.092 3.23868C156.563 3.33732 150.034 3.41769 143.505 3.47614C141.113 3.49806 138.709 3.38847 136.317 3.42865C131.895 3.50537 127.495 3.68438 123.072 3.75379C115.665 3.86339 108.247 3.94376 100.829 3.9876C95.5948 4.01682 90.3604 3.99125 85.1371 3.94376C79.8479 3.89627 74.5697 3.7684 69.2805 3.7136C62.0819 3.64054 54.8833 3.57843 47.6848 3.55286C37.7977 3.51998 27.9106 3.5419 18.0236 3.50537C16.5312 3.50172 15.0388 3.32636 13.5574 3.22407C10.7921 3.0341 8.02677 2.84413 5.27244 2.6432C4.89935 2.61763 4.55917 2.54822 4.0105 2.4715L4.03244 2.48246Z" fill="white" stroke="white" stroke-width="1.04593" stroke-miterlimit="10"/>
</svg>
