<svg width="298" height="5" viewBox="0 0 298 5" fill="none" xmlns="http://www.w3.org/2000/svg">
<path d="M297.198 2.09679C293.852 2.67378 291.093 3.17666 288.26 3.62132C287.145 3.796 285.868 3.92304 284.65 3.92834C273.393 3.99715 262.136 4.0395 250.879 4.08714C234.558 4.15596 218.238 4.13478 201.932 4.32535C192.143 4.4418 182.397 4.28829 172.637 4.18242C167.456 4.1242 162.276 4.23536 157.095 4.21948C151.723 4.1983 146.351 4.14008 140.98 4.05538C135.711 3.97069 130.442 3.78012 125.158 3.72189C120.564 3.66896 115.971 3.72189 111.362 3.74836C107.443 3.76953 103.525 3.82247 99.6207 3.86481C96.9789 3.89128 94.3518 3.94422 91.7099 3.94422C86.7345 3.94422 81.7591 3.90187 76.7837 3.90716C73.4668 3.90716 70.1499 3.98127 66.8329 3.99715C61.6374 4.01833 56.4125 4.16654 51.2756 3.99715C46.2856 3.83305 41.3395 3.77483 36.3641 3.84894C30.0971 3.94422 23.8449 4.00774 17.5779 4.10302C16.1103 4.1242 14.6132 4.15066 13.2043 4.28829C11.2229 4.47886 9.41768 4.38887 7.55374 4.13478C5.90994 3.91246 4.17809 3.79071 2.50495 3.59485C1.99126 3.53662 1.56564 3.37252 0.949219 3.21901C2.27012 2.63143 3.92859 2.37205 5.66044 2.20796C7.72985 2.0121 9.81395 1.83741 11.9274 1.73684C14.1142 1.63097 16.3451 1.56215 18.5466 1.57803C24.4173 1.62038 30.2879 1.73154 36.1586 1.78448C40.1654 1.81624 44.1721 1.7633 48.1788 1.79506C52.846 1.83212 57.5279 1.96446 62.1951 1.95916C67.0678 1.95916 71.9258 1.83741 76.7984 1.77918C85.5898 1.67331 94.3811 1.53568 103.187 1.47745C111.67 1.41923 120.153 1.44569 128.651 1.43511C134.404 1.42981 140.143 1.41393 145.896 1.41923C149.199 1.41923 152.516 1.46687 155.818 1.47745C163.743 1.50922 171.669 1.50392 179.579 1.57803C184.247 1.62038 188.899 1.82153 193.566 1.86917C199.334 1.92211 205.102 1.91152 210.885 1.88505C216.843 1.85859 222.817 1.80565 228.776 1.72625C233.839 1.65743 238.903 1.48275 243.966 1.42981C250.717 1.3557 257.469 1.39276 264.22 1.31336C269.973 1.24454 275.726 1.13867 281.45 0.93752C283.975 0.84753 286.294 1.06456 288.686 1.20749C291.093 1.35041 293.456 1.56215 295.819 1.77389C296.318 1.81624 296.743 1.99092 297.213 2.11267L297.198 2.09679Z" fill="#444444"/>
</svg>
