<svg width="870" height="246" viewBox="0 0 870 246" fill="none" xmlns="http://www.w3.org/2000/svg">
<path d="M159.335 175.517H159.224C159.335 175.517 159.335 175.406 159.335 175.406C159.335 175.517 159.335 175.517 159.335 175.517ZM155.425 176.746C155.537 176.634 155.537 176.523 155.649 176.523C155.872 176.523 156.096 176.634 156.319 176.746C156.096 176.746 155.761 176.746 155.425 176.746ZM117.443 130.609C117.443 130.497 117.443 130.497 117.443 130.497L117.555 130.385C117.555 130.497 117.555 130.497 117.555 130.497C117.443 130.497 117.443 130.609 117.443 130.609ZM158.665 176.076C158.888 175.852 159.112 175.629 159.335 175.406C159.447 175.406 159.447 175.406 159.559 175.406C159.782 175.964 159.335 176.187 158.665 176.076ZM156.542 176.746C156.431 176.746 156.431 176.746 156.319 176.746C156.431 176.746 156.431 176.634 156.542 176.634C156.542 176.746 156.542 176.746 156.542 176.746ZM114.092 140.775C114.985 137.647 115.991 134.63 116.996 131.614C117.108 131.279 117.331 130.944 117.443 130.609C117.443 130.944 117.555 131.279 117.443 131.502C116.438 135.077 115.321 138.54 113.868 141.892C113.98 141.557 113.98 141.11 114.092 140.775ZM160.006 175.294C160.676 174.959 161.011 174.512 161.346 173.953C161.123 174.959 160.899 175.182 160.006 175.294ZM159.782 172.054C159.782 172.166 159.894 172.166 159.894 172.278C160.006 172.166 160.229 172.166 160.452 172.054C160.229 172.278 159.894 172.613 159.67 172.948C159.67 172.724 159.67 172.501 159.67 172.166C159.67 172.166 159.782 172.166 159.782 172.054ZM162.798 166.245C163.357 166.468 163.692 166.692 164.027 166.915C164.139 166.915 164.251 167.027 164.362 167.139C163.469 169.15 162.687 171.272 161.681 173.283C161.57 173.506 161.458 173.73 161.346 173.953C161.458 173.842 161.458 173.73 161.458 173.73C160.788 174.177 160.229 174.735 159.559 175.294C159.67 175.294 159.894 175.294 160.006 175.294C159.894 175.294 159.67 175.406 159.559 175.406C159.559 175.406 159.559 175.406 159.559 175.294C159.447 175.406 159.447 175.406 159.335 175.406C159.894 174.288 160.452 173.171 161.123 171.719C160.788 171.831 160.676 171.942 160.452 172.054C160.899 171.496 161.234 171.049 161.681 170.49C161.011 171.049 160.452 171.607 159.782 172.054C159.67 171.942 159.559 171.831 159.447 171.496C158.665 172.389 158.106 173.171 157.548 173.953C157.548 174.177 157.548 174.4 157.548 174.735L157.436 174.624C157.324 174.735 157.213 174.847 157.101 175.07C157.213 174.959 157.324 174.847 157.548 174.735C157.548 175.964 157.324 176.523 156.542 176.634C156.654 176.076 156.654 175.517 156.989 175.07C156.654 175.517 156.207 175.964 155.649 176.523C155.537 176.411 155.425 176.411 155.314 176.299H155.202C155.314 175.517 155.537 174.847 155.761 174.177C155.09 173.283 154.532 173.842 153.861 174.512C154.197 170.49 155.425 166.804 156.207 163.005C154.979 163.005 153.75 162.894 152.409 162.782C150.845 162.559 149.058 163.005 147.494 162.112C147.27 162 146.935 162.112 146.6 162.223C143.919 163.117 141.126 162.559 138.333 162.559C137.551 162.559 136.881 162.67 136.099 162.67C134.535 162.67 132.859 162.67 131.295 162.67C129.731 162.67 128.279 162.67 126.715 162.894C124.146 163.229 121.688 162.67 119.119 162.335C118.784 162.335 118.449 162.112 118.225 162.223C114.985 163.005 111.522 162.112 108.171 162.782C108.73 164.681 109.288 166.58 109.958 168.591C110.182 168.703 110.629 168.814 111.076 169.038C110.294 170.937 110.294 170.937 111.076 173.73C111.299 172.724 111.522 172.166 111.746 171.496C111.746 171.496 111.857 171.496 111.969 171.496C111.857 172.054 111.857 172.613 111.857 173.171C111.746 173.73 111.634 174.288 111.746 174.735C111.857 175.964 111.969 177.193 111.299 178.31C110.852 179.092 110.74 180.209 111.522 181.103C111.857 181.55 112.081 182.22 111.076 182.667C110.74 182.779 110.629 183.672 110.294 184.342C110.182 182.332 109.958 180.321 109.847 178.422C109.847 177.64 109.512 177.193 108.841 176.858C108.841 177.528 108.73 178.198 108.73 178.869C108.618 178.869 108.506 178.98 108.283 178.98C107.948 178.533 107.501 177.975 107.054 177.528C106.719 177.081 106.384 176.746 106.048 176.411C106.048 176.858 106.048 177.416 106.048 177.863C106.048 177.863 105.937 177.975 105.825 177.975C105.713 177.751 105.49 177.416 105.49 177.193C105.043 175.406 104.484 173.73 103.144 172.389C102.809 172.054 102.697 171.384 102.585 170.937C102.362 170.267 102.027 169.708 101.915 169.15C101.803 167.139 100.351 165.463 101.021 163.452C101.133 163.005 99.7925 158.76 100.463 157.867C101.133 157.867 101.58 157.867 102.25 157.867C102.362 157.978 102.474 158.313 102.697 158.649C102.92 158.872 103.256 159.319 103.702 159.319C104.708 159.542 105.825 159.542 107.166 159.654C106.272 158.649 106.16 157.42 104.484 157.308C104.931 157.867 105.155 158.313 105.602 158.872C104.484 158.872 104.484 158.872 103.702 156.861C105.378 156.526 106.942 155.744 108.73 156.191C109.735 156.526 110.964 156.079 112.304 156.079C112.528 154.627 112.863 153.286 113.198 151.946C113.98 149.153 115.209 146.472 116.214 143.679C116.549 142.562 116.885 141.445 117.22 140.328C117.22 140.104 117.22 139.881 117.331 139.769C118.784 137.982 118.56 135.748 119.231 133.737C119.789 131.614 120.236 129.492 120.906 127.369C121.688 124.465 122.023 121.337 123.587 118.544C124.146 117.538 124.146 116.31 124.481 115.304C124.816 114.187 125.04 113.07 126.157 112.4C126.38 112.176 126.492 111.729 126.604 111.394C126.38 111.394 126.045 111.506 125.598 111.506C125.822 110.724 126.045 109.942 126.268 109.048C126.492 107.596 126.827 106.144 127.05 104.691C127.386 103.463 127.274 103.351 126.045 102.01C125.822 103.016 125.71 103.909 125.486 104.691C125.375 105.585 125.04 106.367 124.816 107.149C124.704 107.373 124.481 107.596 124.481 107.819C124.369 109.942 123.029 111.729 122.582 113.628C122.023 115.751 121.353 117.762 120.794 119.773C120.236 121.784 119.566 123.794 119.007 125.805C118.672 127.146 118.337 128.598 117.89 129.939C117.89 130.162 117.667 130.274 117.555 130.385C118.449 126.922 119.231 123.347 120.236 119.884C121.241 116.198 122.358 112.623 123.364 108.937C123.476 108.49 123.252 108.043 123.364 107.596C123.699 106.702 123.922 105.809 124.481 104.915C125.375 103.239 125.822 101.34 125.71 99.441C125.71 98.7707 125.263 98.1004 124.928 97.3185C125.375 97.095 125.933 96.8716 126.492 96.5365C126.715 97.2067 127.05 97.877 126.939 98.2122C126.38 99.6644 127.497 100.893 127.497 102.234C127.497 102.234 127.832 102.234 128.056 102.346C128.056 101.787 128.168 101.117 128.168 100.558C128.168 100.446 127.721 100.223 127.609 99.9996C127.274 98.8824 127.721 98.4356 129.285 97.877C128.949 99.6644 128.949 101.34 129.843 103.016C130.178 102.792 130.513 102.569 131.072 102.234C131.184 103.909 131.184 105.362 131.295 106.926C132.189 106.591 132.859 106.367 133.641 106.032C131.966 104.58 131.854 102.904 131.966 101.005C132.524 102.01 132.971 103.016 133.53 104.021C134.088 105.027 134.647 106.144 135.205 107.149C135.541 107.708 135.987 108.266 136.211 108.825C137.105 111.729 138.333 114.41 139.674 117.092C141.238 119.773 142.243 122.789 143.36 125.805C145.371 131.167 147.382 136.641 149.505 142.003C150.622 144.908 151.962 147.701 153.191 150.605C153.638 151.722 154.197 152.84 154.532 154.068C154.755 154.627 154.755 155.409 154.755 156.303C155.761 156.303 156.654 156.191 157.548 156.191C158.106 156.303 158.777 156.414 159.447 156.526C159.782 156.526 160.229 156.638 160.676 156.638C162.575 156.526 164.139 156.973 165.033 158.984C164.251 159.319 163.469 159.766 162.575 160.213C162.798 160.995 163.022 162 163.357 163.117C163.58 162.894 163.916 162.782 164.251 162.559C163.804 163.229 164.139 163.899 164.027 164.569C164.027 165.128 163.245 165.687 162.798 166.245ZM107.166 177.416C107.277 177.193 107.612 177.081 107.501 176.858C107.389 175.852 107.054 174.959 106.83 173.953C106.384 174.847 106.495 175.629 106.942 176.299C107.054 176.634 107.054 177.081 107.166 177.416ZM104.708 160.548C106.495 160.883 108.059 161.777 110.07 161.33C108.506 159.989 106.495 159.766 104.708 160.548ZM115.991 155.632C116.885 155.409 116.661 154.739 116.438 154.068C116.326 154.627 116.103 155.186 115.991 155.632ZM143.025 130.721C142.69 129.715 142.914 128.486 141.573 127.481C142.02 128.821 142.355 129.827 142.69 130.944C142.802 130.832 142.914 130.832 143.025 130.721ZM135.987 113.628C135.764 114.41 136.099 114.857 136.881 115.304C136.881 114.41 136.769 113.852 135.987 113.628ZM128.056 102.346C128.056 103.016 128.056 103.798 128.056 104.468C128.168 104.468 128.279 104.468 128.391 104.468C128.503 103.686 128.614 102.904 128.838 101.899C128.391 102.122 128.279 102.234 128.056 102.346ZM126.38 110.054C126.38 110.501 126.604 110.947 126.715 111.283C126.939 111.506 127.162 111.729 127.609 111.953C128.056 110.836 128.726 109.719 128.726 108.601C128.614 107.708 128.614 106.479 127.609 105.585C127.162 107.149 126.715 108.601 126.38 110.054ZM145.706 155.744C146.042 155.856 146.377 155.744 146.712 155.744C146.153 153.733 145.595 152.058 144.924 150.27C144.589 149.265 144.366 148.036 143.807 147.254C142.578 145.243 142.02 143.009 141.35 140.998C140.568 138.429 139.786 135.859 138.668 133.402C137.551 130.609 133.977 122.23 133.418 120.778C132.971 119.773 132.301 118.656 132.077 117.538C131.631 115.863 130.96 114.522 130.067 112.846C129.731 114.299 129.508 115.416 129.173 116.533C128.503 119.102 127.609 121.448 126.939 124.018C125.933 128.039 124.928 132.061 123.922 136.083C123.252 138.876 122.47 141.668 121.688 144.461C120.794 147.701 119.901 150.94 119.007 154.18C118.784 154.627 118.895 155.074 118.895 155.521C120.683 155.632 122.358 155.521 123.811 155.856C127.05 156.638 130.29 156.414 133.53 156.191C137.663 155.968 141.685 155.186 145.706 155.744ZM155.649 173.283C155.649 173.283 155.649 173.06 155.761 172.948C155.425 172.948 155.202 172.948 154.867 172.836C154.867 173.06 154.867 173.171 154.755 173.283C155.09 173.283 155.314 173.283 155.649 173.283Z" fill="black"/>
<path d="M215.201 97.7653C215.871 98.5473 216.318 99.1059 216.989 99.6644C218.776 101.452 219.446 104.021 220.563 106.255C220.675 106.479 220.452 106.926 220.452 107.149C220.34 107.484 220.452 107.819 220.452 108.155C219.67 108.266 219.558 107.596 219.335 107.149C218.664 106.032 218.217 104.803 217.547 103.574C216.877 102.234 216.207 100.893 214.978 99.8878C214.531 99.5527 214.419 99.1059 214.084 98.5473C214.531 98.2122 214.866 97.9887 215.201 97.7653ZM221.569 110.277C220.452 109.719 220.34 109.607 220.563 108.266C220.563 108.266 220.675 108.378 220.787 108.378C220.898 108.49 221.122 108.49 221.234 108.49C221.345 109.048 221.457 109.719 221.569 110.277ZM179.118 140.104C179.006 139.881 179.118 139.657 179.23 139.322C179.118 139.657 179.118 139.881 179.118 140.104ZM220.563 108.266L220.452 108.155C220.452 108.155 220.452 108.155 220.563 108.155C220.563 108.155 220.563 108.155 220.563 108.266ZM211.515 98.2122C211.291 99.1059 210.621 99.2176 209.504 98.8824C209.839 97.9887 210.174 97.2068 210.509 96.3131C210.844 96.9833 211.179 97.5419 211.515 98.2122ZM223.915 116.086C223.803 116.198 223.58 116.198 223.468 116.198C223.133 114.969 222.909 113.74 222.574 112.511C222.686 112.4 222.909 112.4 223.021 112.4C223.691 113.517 223.58 114.857 223.915 116.086ZM224.473 118.209C224.585 119.661 224.697 121.113 224.697 122.565C224.585 124.8 224.473 127.034 224.25 129.268C224.25 130.274 224.026 131.279 223.803 132.284C223.244 134.519 222.909 136.753 222.798 139.099C222.462 142.785 222.351 146.584 221.345 150.27C221.122 151.052 221.122 151.052 220.228 151.499C220.563 149.712 221.122 148.036 221.345 146.249C221.792 143.456 221.904 140.663 222.127 137.982C222.239 136.418 222.239 134.854 222.574 133.29C223.58 128.933 223.803 124.465 223.915 120.108C224.026 119.438 223.915 118.879 223.915 118.32C224.138 118.32 224.362 118.32 224.473 118.209ZM213.079 158.984C213.972 158.537 214.754 157.978 215.536 157.42C215.536 157.531 215.536 157.755 215.536 158.09C215.983 158.09 216.43 158.09 217.1 157.978C215.871 160.101 213.637 159.989 212.185 161.33C211.85 160.101 212.185 159.431 213.079 158.984ZM208.387 95.5311C207.493 95.3076 206.599 95.0842 205.706 94.9725C206.599 94.8608 207.493 94.7491 208.275 94.8608C208.834 94.9725 209.839 94.8608 209.727 95.9779C209.727 96.0896 209.839 96.0896 209.951 96.0896C209.392 95.8662 208.834 95.6428 208.387 95.5311ZM215.871 152.728C214.643 154.515 213.302 156.079 211.18 156.973C209.727 157.643 208.275 158.425 207.046 159.319C206.488 159.654 206.376 160.436 206.152 160.771C205.035 160.883 203.918 160.995 202.913 161.106C201.461 161.106 199.897 161.106 198.444 160.883C197.662 160.771 196.992 160.771 196.322 161.33C195.316 162.223 194.199 162.223 193.082 161.553C192.412 161.218 191.853 160.436 190.96 161.106C190.736 161.218 190.178 160.883 189.954 160.548C188.725 159.207 187.496 157.867 186.379 156.526C185.932 155.968 185.709 155.409 185.374 154.739C185.262 154.627 185.15 154.292 184.927 154.292C183.81 153.845 183.587 152.728 183.028 151.834C181.687 149.823 180.905 147.477 180.123 145.243C179.565 143.679 178.895 141.892 179.118 140.104C179.118 140.439 179.453 140.551 180.012 140.439C179.788 139.993 179.677 139.657 179.565 139.322C179.9 139.211 180.123 138.876 179.677 138.652C179.006 138.205 178.895 137.647 179.006 136.865C179.118 135.189 178.783 133.625 179.006 132.061C179.341 129.157 178.448 126.252 179.118 123.347C179.341 122.23 178.671 120.89 179.453 119.661C179.565 119.549 179.23 119.102 179.118 118.879C178.895 117.985 178.559 117.203 179.118 116.198C179.453 115.639 179.453 114.746 179.453 113.964C179.341 111.506 179.341 109.048 180.794 106.926C180.57 105.25 182.246 104.468 182.469 103.351C182.916 103.239 183.363 103.128 183.698 103.016C183.587 102.681 183.475 102.346 183.363 101.787C184.145 100.67 185.15 99.3293 186.268 97.877C186.379 98.1005 186.379 98.3239 186.603 98.659C187.05 97.877 187.72 97.2067 187.496 96.0896C187.385 95.7545 187.72 95.0842 187.943 94.7491C189.172 93.4085 190.513 92.1797 192.3 91.8446C193.417 91.5094 194.311 90.6157 195.651 90.9509C195.651 90.9509 195.875 90.8391 195.875 90.7274C196.322 89.2752 197.662 89.2752 198.779 88.94C200.343 88.3815 201.907 87.8229 203.583 87.4878C206.376 87.1526 209.169 87.3761 211.738 88.8283C211.85 88.94 212.073 89.0517 212.185 89.0517C214.419 88.6049 215.536 90.8391 217.324 91.3977C217.659 91.3977 217.771 92.1797 217.994 92.6265C216.765 92.85 216.207 91.0626 214.754 92.068C215.201 92.2914 215.536 92.4031 216.095 92.6265C215.313 92.85 214.866 92.9617 214.866 92.9617C215.313 94.5257 213.861 94.5256 213.19 95.3076C213.19 95.5311 213.302 95.9779 213.414 96.3131C213.302 96.4248 213.19 96.5365 213.19 96.5365C212.743 96.3131 212.297 95.9779 211.85 95.6428C212.073 95.4194 212.185 95.1959 212.408 94.9725C211.738 94.6374 211.179 94.3022 210.509 93.9671C209.839 93.6319 209.28 93.8554 208.722 94.0788C208.387 93.1851 207.94 93.6319 207.381 93.8554C206.823 94.0788 206.152 94.0788 205.594 94.0788C204.253 94.3022 204.03 94.3022 202.578 95.4193C203.806 95.3076 204.7 95.0842 205.706 94.9725C205.259 95.0842 204.924 95.4193 204.477 95.5311C201.572 96.313 199.003 98.1004 196.433 99.441C195.428 99.9996 194.311 100.335 193.417 101.228C192.859 101.899 192.97 102.569 192.524 103.239C191.295 105.027 190.289 106.926 189.172 108.713C187.608 111.059 187.05 113.74 187.05 116.533C187.05 120.778 187.05 125.023 187.05 129.38C185.374 129.492 186.044 131.056 185.262 132.061C185.932 132.396 186.491 132.62 187.05 132.955C187.05 133.29 186.938 133.848 186.938 134.295C186.714 135.971 186.938 137.647 187.273 139.211C188.055 142.227 189.396 145.02 190.624 147.924C190.848 148.483 190.96 149.265 191.071 149.823C191.965 150.605 192.859 151.387 193.641 152.169C194.199 152.504 194.646 152.951 195.093 153.398C195.428 153.733 195.875 154.068 195.875 154.404C196.098 155.297 196.545 155.521 197.215 155.632C198.109 155.632 199.115 155.632 199.897 155.521C200.343 155.521 200.679 155.074 201.125 154.85C201.125 154.962 201.349 155.186 201.572 155.856C202.019 154.962 202.243 154.404 202.578 153.733C202.689 153.733 202.913 153.622 203.024 153.733C205.706 154.85 207.828 153.845 209.839 152.058C212.743 149.6 214.196 146.472 214.531 142.674C214.978 138.54 215.201 134.295 215.76 130.162C216.207 126.699 216.43 123.236 216.43 119.661C216.542 115.639 215.313 111.953 213.525 108.49C212.408 106.479 211.291 104.468 210.062 102.457C209.951 102.122 209.504 102.01 209.28 101.787C208.722 101.34 208.275 100.782 207.716 100.223C207.94 99.9996 208.163 99.8878 208.163 99.8878C209.616 101.117 211.291 102.01 212.073 103.798C212.408 104.468 212.855 104.58 213.414 104.803C213.414 103.239 212.855 102.122 211.738 101.117C210.621 100.223 210.621 99.9996 211.961 99.441C212.073 99.441 212.185 99.2176 212.408 98.9942C212.967 99.9996 213.525 100.782 213.972 101.675C215.648 105.362 217.547 109.048 218.999 112.735C219.893 115.081 220.34 117.538 220.34 120.108C220.34 122.007 220.675 124.018 220.675 126.029C220.675 127.481 220.452 129.045 220.228 130.497C220.005 132.284 219.67 133.96 219.335 135.748C219.223 135.971 219.335 136.194 219.335 136.418C219.67 139.881 219.111 143.232 218.441 146.584C217.882 148.706 216.989 150.829 215.871 152.728ZM216.095 112.176C216.877 113.628 217.212 115.192 217.659 116.756C217.994 118.097 217.771 119.661 218.664 120.89C219.111 116.086 217.771 111.729 215.648 107.373C215.201 107.596 214.978 107.708 214.531 107.819C215.089 109.383 215.425 110.836 216.095 112.176ZM215.983 147.589C215.76 148.371 215.425 149.265 215.201 150.047C216.207 149.488 216.542 148.706 215.983 147.589ZM198.779 93.1851C198.333 93.2968 197.997 93.7437 197.662 93.9671C197.997 94.1905 198.221 94.3022 198.333 94.1905C202.466 92.2914 206.599 90.8391 211.18 92.7383C211.291 92.7383 211.403 92.5148 211.85 92.2914C210.174 91.8446 208.945 91.0626 207.381 91.1743C207.046 91.1743 206.488 91.286 206.152 91.0626C205.594 90.7274 205.035 90.8391 204.365 91.0626C202.578 91.8446 200.679 92.4031 198.779 93.1851ZM195.205 98.659C195.093 98.7707 194.869 98.8824 194.758 98.9942C194.758 99.1059 194.869 99.2176 194.869 99.3293C195.316 99.1059 195.763 98.8824 196.21 98.659C195.875 98.5473 195.54 98.5473 195.205 98.659ZM195.205 95.6428C194.199 95.3076 193.976 95.7545 193.529 96.5365C194.199 96.2013 194.534 95.9779 195.205 95.6428ZM193.305 93.2968C192.524 92.6265 192.3 92.9617 192.077 93.4085C191.965 93.5202 192.077 93.6319 192.188 93.8554C192.524 93.7437 192.859 93.5202 193.305 93.2968ZM186.491 103.128C186.268 104.133 186.268 104.691 186.156 105.362C187.161 104.58 187.273 104.356 186.491 103.128ZM186.268 126.922C185.597 128.375 185.597 128.375 186.826 128.598C186.603 127.928 186.491 127.481 186.268 126.922ZM182.134 118.32C181.017 118.544 180.905 119.326 181.129 122.789C181.241 122.789 181.352 122.789 181.464 122.901C181.687 121.337 181.911 119.773 182.134 118.32ZM182.023 123.571C180.794 124.8 180.794 124.911 181.464 126.364C181.687 125.47 181.799 124.688 182.023 123.571ZM181.576 128.375C181.129 127.481 180.682 127.593 180.123 128.375C180.682 128.375 181.129 128.375 181.576 128.375ZM179.9 136.53C180.012 136.641 180.347 136.418 180.459 136.418C180.347 136.083 180.235 135.636 180.123 135.301C179.9 135.412 179.677 135.412 179.453 135.524C179.565 135.859 179.788 136.194 179.9 136.53ZM181.576 133.96C181.799 132.396 182.023 130.832 182.246 129.045C181.687 129.38 181.241 129.715 180.905 129.939C180.459 129.827 180.123 129.715 179.788 129.492C179.677 130.944 179.788 130.944 181.017 131.279C181.129 132.284 181.129 133.066 181.241 133.96C181.352 133.96 181.464 133.96 181.576 133.96ZM183.587 106.032C184.369 105.25 184.48 104.468 183.475 103.686C183.14 104.245 182.916 104.803 182.581 105.362C182.916 105.585 183.251 105.809 183.587 106.032ZM186.714 142.227C187.161 141.221 187.496 140.663 186.714 140.328C186.491 140.328 186.268 140.439 186.044 140.551C186.268 141.11 186.379 141.445 186.714 142.227ZM211.18 152.281C211.403 152.169 211.626 151.946 211.961 151.834C211.85 151.834 211.85 151.722 211.738 151.722C211.515 151.834 211.291 151.834 211.068 151.946C211.068 152.058 211.18 152.169 211.18 152.281ZM217.212 157.085C217.212 157.196 217.212 157.196 217.212 157.308C216.765 157.308 216.207 157.308 215.76 157.308C216.207 157.196 216.653 157.196 217.212 157.085ZM217.659 155.297C218.329 154.18 218.664 153.398 220.005 154.18C219.335 154.515 218.664 154.85 217.659 155.297Z" fill="black"/>
<path d="M300.554 97.095C301.112 97.4302 301.671 97.877 302.118 98.2122C301.671 98.8824 301.448 99.3293 301.224 99.7761C300.554 99.441 300.442 98.2122 299.102 98.8824C301.448 101.787 302.9 105.027 303.123 108.713C303.347 107.931 303.458 107.149 303.57 106.367C304.576 106.814 304.576 106.814 304.576 108.601C304.687 107.708 304.799 106.814 304.799 105.92C304.799 105.027 302.788 100.223 303.012 99.3293C303.235 100.67 305.469 99.8878 306.139 105.027C306.475 105.138 306.251 107.596 306.921 107.708C306.475 109.83 306.251 111.953 305.693 113.964C305.357 115.081 304.687 116.086 303.905 116.98C302.676 118.32 301.336 119.438 299.995 120.666C299.102 121.56 298.208 122.342 296.979 123.459C298.543 123.571 299.772 123.683 301.001 123.794C302.341 124.018 303.458 124.465 304.687 125.247C307.368 127.034 310.161 128.71 311.949 131.614C312.731 132.843 313.401 134.184 314.071 135.636C314.518 136.641 314.853 137.647 315.188 138.764C315.3 139.211 315.412 139.658 315.3 140.104C315.076 141.557 314.741 142.897 314.294 144.349C313.848 145.69 313.848 145.69 312.172 145.243C312.284 145.69 312.395 146.137 312.395 146.584C312.284 146.919 312.06 147.701 311.949 147.701C310.385 147.589 310.273 148.706 309.826 149.6C309.714 149.935 309.603 150.27 309.714 150.829C310.161 150.494 310.496 150.27 311.055 149.823C311.167 150.047 311.39 150.27 311.278 150.382C300.442 168.591 286.143 160.101 285.473 159.989C284.579 159.989 284.579 161.553 283.462 160.659C282.903 160.101 281.786 160.995 281.563 159.766C281.339 159.989 281.116 160.213 280.557 160.883C280.334 158.649 280.11 156.973 279.887 154.85C279.217 157.308 280.222 159.431 279.105 161.888C278.882 160.883 278.77 160.324 278.658 159.877C277.988 155.409 277.318 150.94 276.647 146.36C276.424 144.796 276.424 143.009 276.089 141.333C275.754 139.658 276.536 138.094 276.424 136.418C276.424 134.742 276.312 133.066 276.424 131.502C276.424 129.715 276.759 128.039 276.871 126.364C277.318 119.549 277.653 112.846 278.1 106.032C277.988 106.032 277.876 106.032 277.653 106.032C277.429 108.713 277.206 111.283 276.871 113.964C276.759 113.964 276.536 113.964 276.424 113.852C276.536 111.729 276.647 109.607 276.759 107.484C276.871 105.362 276.983 103.128 276.871 101.005C276.759 98.9941 276.424 96.8716 276.312 94.6374C276.536 95.1959 276.759 95.8662 277.094 96.3131C277.318 96.7599 277.876 97.095 278.323 97.5419C278.77 95.7545 276.871 94.3022 277.876 92.5148C278.882 94.1905 279.328 94.4139 280.669 94.1905C280.334 93.8554 279.999 93.6319 279.552 93.1851C280.334 93.1851 280.669 93.2968 281.228 93.2968C281.451 93.5202 281.563 93.9671 281.786 94.3022C282.01 94.5257 282.121 94.8608 282.233 95.0842C285.026 96.3131 287.819 95.0842 290.611 94.9725C292.957 94.8608 295.08 95.1959 297.314 95.8662C298.431 96.2013 299.548 96.6482 300.554 97.095ZM299.325 109.16C299.325 108.378 299.213 107.708 299.213 107.037C298.766 103.351 296.644 101.228 292.957 100.893C291.505 100.782 290.053 100.893 288.601 100.782C287.148 100.67 285.92 101.005 284.691 101.675C284.691 103.574 284.802 105.473 284.691 107.261C284.691 109.16 284.579 111.059 284.467 112.958C284.356 115.863 284.02 118.656 283.909 121.56C283.797 122.454 284.02 123.459 284.02 124.576C284.914 124.353 285.473 124.241 286.255 124.129C285.696 123.571 285.361 123.347 285.026 123.012C285.92 122.565 286.59 122.007 287.483 121.672C288.042 121.448 288.601 121.113 289.271 121.56C289.718 121.783 290.276 121.783 290.835 121.895C290.053 122.119 289.159 122.454 288.377 122.789C288.377 123.012 288.489 123.124 288.489 123.236C289.494 122.677 290.5 124.018 291.393 122.677C291.505 122.901 291.617 123.124 291.729 123.347C291.17 123.571 290.723 123.794 290.165 124.018C293.851 124.018 298.431 121.225 299.213 118.991C298.32 118.097 297.314 120.89 296.532 118.656C295.415 119.214 294.41 119.661 293.404 120.22C292.511 120.778 291.617 121.337 290.723 121.895C290.388 120.555 291.393 119.884 292.287 119.549C293.293 119.214 293.851 118.32 294.521 117.762C295.08 117.315 295.527 116.533 295.08 115.863C297.426 114.41 299.548 112.623 300.442 109.942C301.224 107.484 300.777 104.915 298.766 102.792C299.102 104.356 299.548 105.809 299.884 107.261C300.107 107.931 300.107 108.713 299.325 109.16ZM303.905 142.115C304.129 141.668 304.464 141.333 304.687 140.998C306.586 137.982 306.586 136.194 304.576 133.402C304.464 133.178 304.24 132.843 304.017 132.62C304.24 132.508 304.464 132.284 304.799 132.173C304.24 131.614 303.794 130.944 303.235 130.497C301.671 129.492 300.219 128.598 298.096 129.157C296.867 129.492 295.415 129.045 294.186 129.268C292.846 129.603 291.617 128.821 290.165 129.157C287.819 129.603 285.249 129.38 284.467 132.396C283.015 133.513 283.238 135.077 283.127 136.53C283.015 141.668 283.909 146.472 285.026 151.387C285.026 151.834 285.473 152.393 285.808 152.616C287.037 153.175 288.042 153.845 289.606 153.622C291.17 153.286 292.957 153.845 294.633 153.733C297.314 153.398 299.66 152.728 301.448 150.605C304.24 147.254 306.363 143.456 308.15 139.546C309.044 137.423 308.039 135.301 306.586 133.625C306.475 133.402 305.916 133.513 305.357 133.402C305.804 134.072 306.363 134.519 306.251 134.742C305.916 135.748 306.698 136.083 307.368 136.641C306.251 136.976 306.698 137.535 307.033 138.094C307.815 139.322 307.815 139.211 306.698 140.104C306.028 140.551 305.469 141.333 304.687 142.115C304.687 142.115 304.24 142.115 303.905 142.115ZM277.541 131.056C276.312 139.099 276.871 146.695 279.775 154.068C279.44 152.169 279.105 150.382 278.882 148.483C278.546 145.467 278.323 142.562 278.211 139.546C277.988 137.2 278.1 134.742 278.1 132.284C278.1 131.949 277.876 131.614 277.541 131.056ZM308.709 135.189C307.145 131.279 302.006 127.257 298.431 127.369C302.676 129.045 306.251 131.391 308.709 135.189ZM300.33 103.016C299.437 100.111 298.096 99.2176 294.745 99.3293C296.532 100.446 298.431 101.787 300.33 103.016ZM278.1 126.922C278.323 123.124 278.435 119.214 278.658 115.416C277.988 119.214 277.541 123.012 278.1 126.922ZM307.145 129.939C306.028 128.486 303.458 126.922 301.559 126.475C303.458 127.593 305.134 129.157 307.145 129.939ZM309.379 132.62C309.044 131.949 308.597 131.167 308.262 130.385C308.039 130.497 307.927 130.609 307.703 130.609C308.15 131.391 308.597 132.061 309.044 132.843C309.156 132.731 309.267 132.731 309.379 132.62ZM303.347 113.293C302.788 113.964 302.23 114.634 301.783 115.192C301.894 115.304 302.006 115.304 302.118 115.416C302.341 114.634 303.458 114.522 303.347 113.293ZM287.483 124.241C287.93 124.241 288.377 124.241 288.824 124.241C288.824 124.241 288.712 124.129 288.712 124.018C288.265 124.018 287.819 124.129 287.483 124.129V124.241ZM311.39 148.93C311.502 148.818 311.502 148.706 311.613 148.483C311.949 148.706 312.172 148.818 312.507 149.041C312.395 149.153 312.284 149.265 312.172 149.265C311.949 149.153 311.613 149.041 311.39 148.93ZM303.905 142.115C304.129 142.339 304.464 142.674 304.687 143.121C304.24 143.567 303.682 144.126 302.9 144.908C303.347 143.791 303.57 142.897 303.905 142.115ZM299.325 109.16C299.325 109.607 299.437 110.165 299.325 110.612C299.102 110.947 298.655 111.059 298.208 111.283C298.096 111.171 297.984 111.059 297.873 110.947C298.431 110.389 298.878 109.719 299.325 109.16ZM294.857 121.337C294.857 121.225 294.745 121.113 294.633 121.002C294.857 120.778 295.08 120.555 295.303 120.443C295.303 120.443 295.415 120.555 295.527 120.555C295.303 120.778 295.08 121.113 294.857 121.337Z" fill="black"/>
<path d="M350.886 144.685C350.55 144.573 350.104 144.461 349.768 144.349C349.768 144.349 349.768 144.238 349.768 144.126C350.215 144.126 350.55 144.126 350.886 144.126C350.886 144.349 350.886 144.461 350.886 144.685ZM343.513 140.775C342.842 139.993 342.284 139.211 341.725 138.429C341.613 138.205 341.613 137.982 341.613 137.758C342.06 138.317 342.619 138.987 343.177 139.546C343.736 140.216 344.295 140.998 344.853 141.78C344.406 141.445 343.848 141.221 343.513 140.775ZM341.613 137.758C341.502 137.758 341.502 137.758 341.502 137.758C341.502 137.647 341.502 137.647 341.502 137.647C341.502 137.758 341.613 137.758 341.613 137.758ZM367.419 101.005C367.419 101.117 366.86 101.899 367.531 102.234C367.531 102.234 367.419 102.904 367.307 103.016C366.749 103.574 366.19 103.574 365.52 103.239C364.626 102.792 363.621 102.457 362.727 102.01C362.057 101.675 361.387 101.34 360.828 100.782C358.259 98.2122 355.354 97.3185 352.45 96.6482C351.221 96.4248 349.992 96.2013 348.763 96.4248C346.64 96.6482 344.741 97.7653 343.066 99.8878C340.831 103.016 339.603 106.926 338.485 111.059C336.921 116.756 337.145 122.565 338.262 128.375C338.932 131.838 340.273 134.742 341.502 137.647C340.496 137.2 340.161 135.748 339.714 134.63C338.485 131.838 337.927 128.71 337.033 125.693C336.586 125.917 336.698 126.364 336.698 126.922C336.922 131.502 338.039 135.524 340.161 139.099C342.172 142.674 344.853 145.02 347.422 147.589C348.986 149.153 350.774 149.153 352.45 148.818C354.014 148.483 355.577 147.701 357.03 147.031C358.482 146.36 359.487 144.908 360.493 143.344C360.94 142.562 361.387 142.003 362.169 141.78C362.28 141.78 362.504 141.557 362.615 141.445C362.839 140.551 362.951 139.658 363.174 138.876C363.286 138.205 363.956 137.535 364.403 137.535C364.738 137.535 364.961 137.535 365.185 137.535C365.296 138.205 365.408 138.764 365.52 139.322C365.52 139.434 365.52 139.546 365.52 139.546C365.408 139.546 365.296 139.546 365.296 139.434C365.073 139.211 364.85 138.876 364.626 138.429C364.403 138.876 364.179 139.211 363.956 139.658C364.179 139.658 364.291 139.769 364.403 139.769C364.738 139.657 364.961 139.546 365.296 139.434C365.073 140.551 364.961 141.557 364.85 142.674C365.073 142.785 365.185 142.897 365.408 143.009C365.52 144.014 365.632 145.02 365.52 146.025C365.52 146.472 365.185 147.031 364.961 147.254C364.514 147.477 364.179 147.701 364.291 148.483C363.397 150.382 362.727 152.616 360.94 153.51C360.158 153.845 359.599 154.515 358.929 154.962C358.259 155.409 357.588 155.632 356.806 156.079C356.918 156.414 357.03 156.638 357.03 156.861C356.695 157.085 356.359 157.196 356.024 157.42C356.024 157.643 356.024 157.867 356.136 158.09C355.689 159.095 354.237 158.76 354.46 160.659C353.567 160.995 352.561 161.553 351.668 161.888C349.768 162.447 348.093 161.777 346.417 160.659C345.188 159.877 343.959 158.984 342.731 158.202C340.385 156.75 338.15 155.074 336.251 152.393C334.129 149.376 332.676 145.69 331.224 141.892C330.889 141.11 330.777 139.993 330.666 138.987C330.442 138.094 330.219 137.088 329.995 136.194C329.102 131.614 328.99 127.034 329.213 122.454C329.437 118.544 330.107 114.634 331.224 110.947C331.448 110.054 331.894 109.383 332.23 108.49C333.458 105.25 334.911 102.122 336.698 99.5527C337.145 98.8824 337.703 98.2122 338.262 97.6536C338.374 97.877 338.374 97.9887 338.374 97.9887C337.257 100.446 336.14 102.904 335.134 105.362C334.464 107.037 334.017 108.825 333.458 110.612C333.682 112.288 333.012 113.852 333.012 115.528C333.012 115.639 333.012 115.751 333.123 115.974C333.794 114.187 334.799 112.735 335.134 110.724C335.358 109.719 335.693 108.713 335.916 107.708C336.81 104.356 338.485 101.675 340.161 99.2176C340.943 98.2122 341.837 97.3185 342.395 95.8662C342.284 95.7545 342.06 95.6428 341.725 95.5311C342.507 94.8608 343.289 94.3022 344.071 93.9671C345.077 93.4085 346.305 93.0734 347.311 92.6265C347.869 92.4031 348.428 92.4031 348.763 91.5094C348.763 91.286 349.21 91.1743 349.433 91.1743C351.332 91.0626 353.343 91.5094 355.242 92.4031C356.248 92.9617 357.253 93.4085 358.259 93.9671C358.705 94.1905 359.152 94.1905 359.711 94.3022C359.934 94.3022 360.158 94.3022 360.269 94.5257C361.722 95.6428 363.174 96.8716 364.626 98.1004C365.073 98.5473 365.52 99.1059 365.967 99.5527C366.414 99.9996 366.749 100.446 367.419 101.005ZM337.592 145.802C336.922 144.238 336.14 142.897 335.693 141.221C335.022 138.652 334.129 136.306 333.905 133.513C333.905 132.955 333.794 132.396 333.682 131.838C333.57 131.056 333.458 130.162 333.458 129.38C333.347 128.263 333.235 127.146 333.235 126.029C333.123 126.029 333.012 126.029 332.9 126.029C332.565 126.587 332.23 127.369 332.341 128.263C332.453 129.38 332.565 130.497 332.676 131.726C333.235 136.641 334.799 140.998 336.698 145.131C336.922 145.467 337.257 145.69 337.48 146.025C337.48 145.913 337.592 145.913 337.592 145.802ZM357.03 143.121C355.242 143.456 353.567 145.02 351.668 144.349C353.455 143.791 355.242 143.344 357.03 142.785C357.03 142.897 357.03 143.009 357.03 143.121ZM359.376 141.221C359.264 141.11 359.264 140.998 359.152 140.886C359.487 140.663 359.823 140.328 360.158 140.104C360.158 140.104 360.269 140.216 360.269 140.328C359.934 140.663 359.711 140.998 359.376 141.221ZM361.163 139.099C360.828 138.764 360.94 138.429 361.163 138.205C361.275 138.205 361.498 138.317 361.61 138.429C361.498 138.764 361.387 138.987 361.387 139.211C361.275 139.099 361.163 139.099 361.163 139.099ZM357.588 142.785C357.477 142.785 357.477 142.674 357.477 142.674C357.588 142.45 357.7 142.227 357.923 142.003C357.923 142.003 357.923 142.115 358.035 142.115C357.812 142.339 357.7 142.562 357.588 142.785ZM364.85 137.2C364.403 136.306 364.179 135.636 363.844 135.077C363.956 134.966 363.956 134.966 364.068 134.854C364.403 135.412 364.961 135.859 364.85 137.2Z" fill="black"/>
<path d="M390.293 102.122C390.405 106.367 390.181 110.612 389.958 114.857C389.734 119.326 389.846 123.906 389.734 128.375C389.734 131.502 389.623 134.742 389.288 137.87C389.064 141.78 388.617 145.802 388.729 149.823C388.729 151.722 388.617 153.622 388.617 155.521C388.729 159.431 388.952 163.229 389.064 167.139C389.064 168.032 389.064 169.038 389.064 169.932C389.064 170.714 388.729 170.825 388.282 170.714C388.17 169.932 388.059 169.15 387.947 168.368C388.059 167.697 389.064 167.921 388.617 166.692C388.394 166.804 388.17 167.027 387.947 167.139C387.388 166.469 388.059 165.91 387.947 165.128C387.277 164.123 386.271 165.575 385.489 164.681C385.043 163.899 384.484 162.894 383.925 161.888C383.814 162.223 383.814 162.67 383.702 163.117C383.032 162.447 383.032 161.441 382.92 160.548C382.808 159.654 382.92 158.649 382.697 157.755C382.026 155.297 382.138 152.84 382.026 150.382C381.915 149.153 381.915 147.924 381.691 146.807C381.133 144.461 381.579 142.227 381.468 139.881C381.468 138.54 381.468 137.2 381.579 135.859C381.579 135.636 381.691 135.412 381.915 134.966C381.356 134.407 381.133 133.625 381.356 132.508C381.915 130.609 381.691 128.598 381.915 126.587C382.026 125.358 382.026 124.018 381.915 122.677C381.915 121.337 382.361 119.996 382.25 118.544C382.138 116.98 382.25 115.416 382.138 113.852C382.138 112.735 381.803 111.506 382.026 110.501C382.473 108.155 381.915 105.92 382.026 103.574C382.138 102.122 382.25 100.558 382.25 99.1059C382.361 97.7653 382.473 96.4248 382.473 95.1959C382.473 94.0788 382.92 93.0734 382.585 91.9563C382.473 91.7328 382.697 91.3977 382.808 91.1743C382.92 91.1743 383.032 91.1743 383.143 91.1743C383.367 92.1797 383.479 93.1851 383.59 94.0788C384.261 93.8554 384.819 93.5202 385.601 93.1851C385.825 94.6374 385.936 95.7545 386.048 96.9833C386.16 96.9833 386.16 96.9833 386.271 96.9833C386.271 95.9779 386.271 94.8608 386.383 93.4085C386.607 94.0788 386.83 94.4139 387.053 95.0842C387.165 94.1905 387.165 93.7437 387.277 93.1851C387.5 93.1851 387.724 93.2968 387.835 93.1851C388.17 92.6265 388.282 93.1851 388.506 93.2968C388.282 94.5256 389.623 95.3076 388.952 96.6482C388.841 96.7599 389.064 97.5419 389.288 97.7653C390.181 98.9942 390.293 100.67 390.293 102.122ZM383.702 156.973C383.814 156.861 383.814 156.861 383.925 156.861C383.814 156.414 383.814 155.968 383.702 155.521C383.702 155.632 383.59 155.632 383.479 155.632C383.59 156.079 383.59 156.526 383.702 156.973ZM386.048 103.574C386.048 103.016 386.048 102.569 386.048 102.122C385.936 102.122 385.936 102.122 385.825 102.122C385.936 102.569 385.936 103.016 385.936 103.574H386.048Z" fill="black"/>
<path d="M452.3 94.0788C452.077 94.3022 451.742 94.5256 451.407 94.7491C451.407 94.6374 451.295 94.6374 451.295 94.5257C451.518 94.3022 451.854 94.0788 452.189 93.8554C452.189 93.8554 452.3 93.9671 452.3 94.0788ZM453.753 91.7328C453.418 92.2914 453.082 92.9617 452.189 92.7383C452.859 91.7328 453.418 90.7274 453.864 89.9454C453.864 89.3869 453.753 88.94 453.753 88.6049C454.2 88.6049 454.646 88.7166 455.093 88.8283C454.646 89.8337 454.2 90.8391 453.753 91.7328ZM410.408 88.94C411.525 88.4932 411.414 89.1635 411.414 89.6103C411.079 89.3869 410.855 89.2752 410.408 88.94ZM450.96 152.281C452.189 153.175 452.747 154.515 453.306 155.744C453.753 156.638 453.753 157.643 453.976 158.537C453.641 158.984 453.306 159.542 452.747 160.101C452.636 160.101 452.412 160.101 452.077 160.101C451.854 160.548 451.63 161.106 451.407 161.665C451.183 161.218 450.96 160.995 450.736 160.548C450.29 161.106 449.843 161.553 449.396 162C446.715 161.106 445.598 158.425 444.145 156.191C442.581 153.733 441.241 151.164 439.677 148.594C438.225 146.249 436.661 144.014 435.32 141.557C434.203 139.769 433.309 137.87 432.304 136.083C431.187 134.184 430.181 132.284 429.064 130.162C428.506 130.944 428.171 131.502 427.835 132.061C426.942 133.29 426.16 134.63 425.378 135.859C424.372 137.535 423.255 138.987 422.026 140.439C420.686 142.003 419.792 143.791 418.675 145.578C417.558 147.589 416.441 149.712 415.324 151.722C414.095 153.845 413.089 155.968 411.861 158.09C411.414 158.984 410.743 159.877 410.073 160.771C409.85 160.995 409.179 161.106 408.397 161.33C408.844 160.771 409.179 160.436 409.515 160.101C408.621 159.095 408.174 161.33 407.28 160.213C407.504 159.766 407.727 159.319 408.062 158.872C407.28 159.542 406.387 159.207 405.493 159.319C405.046 158.76 405.381 157.867 404.376 157.643C403.929 157.643 404.041 156.861 404.264 156.414C405.046 155.074 405.94 153.622 406.722 152.169C407.615 150.382 408.509 148.594 409.403 146.807C410.632 144.573 411.861 142.45 413.201 140.328C413.871 139.099 414.43 137.982 415.212 136.865C416.888 134.519 418.675 132.284 420.351 129.939C420.462 129.715 420.686 129.603 420.686 129.492C421.468 126.922 423.479 125.135 424.596 122.789C423.814 121.225 422.92 119.773 422.138 118.209C421.915 117.874 421.691 117.427 421.58 117.092C420.798 114.075 418.898 111.618 417.558 108.937C416.217 106.367 415.1 103.686 413.76 101.005C412.978 99.441 412.196 97.7653 411.414 96.2013C411.19 95.8662 411.079 95.4194 410.855 95.0842C411.861 95.3076 411.861 95.1959 412.978 97.2067C413.536 98.1005 413.983 99.1059 414.43 99.9996C414.542 99.9996 414.653 99.9996 414.765 99.8878C414.207 98.5473 413.536 97.095 412.978 95.5311C413.871 95.7545 414.095 97.095 415.212 96.2013C414.43 95.0842 414.318 93.5202 412.978 92.6265C412.531 92.4031 412.643 91.5094 412.419 90.7274C412.754 90.9508 413.089 91.0626 413.424 91.1743C413.313 90.9508 413.201 90.7274 413.089 90.504C412.754 89.9454 412.419 89.4986 411.861 88.94C412.866 89.0517 413.648 89.722 413.983 90.2806C414.542 91.1743 415.1 92.2914 415.994 93.0734C417.334 94.3022 418.116 95.9779 419.122 97.5419C419.457 98.1004 419.792 98.659 420.127 99.2176C420.351 99.5527 420.798 99.9996 420.798 100.335C421.021 102.346 422.362 103.798 423.143 105.473C424.261 107.596 425.601 109.607 426.83 111.618C427.612 112.958 428.282 114.299 429.176 115.863C430.517 113.852 431.745 111.953 432.974 110.054C434.762 107.149 436.549 104.133 438.56 101.34C440.124 98.9942 441.688 96.7599 443.475 94.6374C445.151 92.85 447.05 91.286 448.949 89.3869C448.726 91.0626 447.497 91.8446 446.715 92.9617C446.491 93.4085 446.156 93.8554 445.709 94.3022C446.268 94.1905 446.715 94.0788 447.497 93.8554C447.05 94.6374 446.715 95.1959 446.38 95.6428C446.938 96.4248 447.05 94.8608 447.497 95.6428C447.944 95.3076 448.279 95.0842 448.614 94.8608C448.949 94.5256 449.396 94.1905 449.954 93.632C449.954 94.3022 450.066 94.6374 450.066 95.1959C450.178 95.1959 450.29 95.1959 450.401 95.1959C450.625 95.1959 450.848 95.1959 451.072 95.3076C451.072 95.5311 451.072 95.7545 450.96 95.9779C449.731 97.3185 449.061 98.9942 448.055 100.446C447.162 101.675 446.156 102.904 445.374 104.133C444.034 106.144 442.805 108.155 441.464 110.165C440.906 111.171 440.347 112.176 439.677 113.182C438.113 115.639 436.661 118.097 434.985 120.443C433.421 122.565 433.309 124.129 435.208 126.029C436.214 127.034 436.772 128.486 437.443 129.827C439.454 133.737 441.799 137.312 444.257 140.998C445.374 142.562 446.268 144.349 447.273 146.025C447.944 147.254 448.614 148.483 449.508 149.6C449.955 150.27 450.401 150.829 450.513 151.611C450.625 151.834 450.736 152.058 450.96 152.281ZM448.502 95.6428C447.944 96.3131 447.385 97.095 446.938 97.877C446.938 97.877 447.162 98.2122 447.385 98.5473C448.055 97.4302 448.726 96.4248 449.396 95.4193C449.284 95.3076 449.284 95.3076 449.173 95.1959C448.949 95.3076 448.614 95.4194 448.502 95.6428ZM445.598 94.4139C445.263 94.6374 444.704 94.6374 444.816 95.6428C445.151 95.0842 445.374 94.7491 445.598 94.4139ZM413.424 91.286C413.536 92.1797 413.871 92.85 414.542 93.2968C414.43 92.5148 414.095 91.8445 413.424 91.286ZM417.446 106.144C417.558 106.032 417.67 105.92 417.781 105.92C417.446 105.25 417.111 104.691 416.776 104.021C416.664 104.133 416.552 104.133 416.441 104.245C416.776 104.803 417.111 105.473 417.446 106.144ZM417.893 106.702C418.675 108.825 419.345 110.947 420.798 112.735C420.909 112.958 421.244 112.958 421.468 113.07C420.798 111.953 420.239 110.947 419.68 109.83C419.122 108.825 418.787 107.596 417.893 106.702ZM421.468 113.07C421.021 114.299 421.356 115.192 422.585 115.863C422.25 114.969 421.803 113.964 421.468 113.07Z" fill="black"/>
<path d="M551.38 159.877C550.821 159.877 550.71 159.877 550.374 159.877C550.71 160.436 551.045 160.995 551.268 161.441C550.71 161.665 550.263 162 549.816 162C549.481 162.112 548.922 162 548.699 161.777C548.028 161.106 547.358 160.436 546.688 159.654C546.688 159.989 546.688 160.436 546.8 161.106C546.129 160.101 545.571 159.431 545.012 158.649C545.124 159.095 545.236 159.654 545.347 160.213C545.124 160.548 544.9 161.106 544.677 161.665C543.672 161.218 543.225 160.659 542.778 159.766C542.108 158.649 541.661 157.42 540.655 156.526C539.315 155.186 537.416 151.164 536.299 149.6C535.517 148.595 535.07 147.366 534.288 146.249C533.171 144.573 531.942 142.897 530.825 141.221C530.154 140.216 529.708 138.987 528.926 137.982C528.144 137.088 527.585 135.971 526.58 135.189C526.468 135.077 526.356 134.854 526.245 134.742C524.792 132.396 523.228 129.939 521.664 127.481C521.441 127.816 521.217 128.151 520.994 128.375C520.324 129.38 519.765 130.385 519.095 131.279C518.76 131.838 518.536 132.508 518.201 133.066C517.978 133.402 517.754 134.072 517.419 134.072C516.302 134.407 516.414 135.301 516.526 136.083C516.637 137.87 516.861 139.769 516.861 141.557C516.861 144.685 516.749 147.813 516.749 150.94C516.637 152.169 516.637 153.286 516.526 154.515C516.526 155.186 516.302 155.856 516.302 156.414C516.414 157.755 516.526 159.095 516.749 160.324C516.749 161.106 516.637 161.665 515.632 161.777C515.408 161.218 515.185 160.771 515.073 160.436C515.185 159.877 515.297 159.431 515.408 159.095C515.073 158.984 514.738 158.984 514.515 158.872C514.403 159.877 514.403 160.659 514.291 161.441C513.621 161.33 513.062 161.33 512.392 161.218C512.169 160.213 511.945 159.207 511.722 158.202C511.61 157.308 511.722 156.303 511.722 155.297C511.61 154.292 511.722 153.286 511.61 152.281C510.716 153.51 511.163 154.962 511.052 156.303C510.94 157.643 511.387 159.095 511.498 160.548C511.163 160.659 510.828 160.771 510.27 160.995C510.046 160.324 509.599 159.654 509.599 158.984C509.599 158.313 509.823 158.313 509.488 157.531C509.264 157.531 509.041 157.532 508.817 157.643C508.929 157.196 509.041 156.861 509.041 156.638C508.706 155.744 508.706 154.85 509.041 153.845C509.264 153.175 508.817 152.281 508.929 151.611C509.264 150.047 509.041 148.483 509.153 146.919C509.153 146.695 509.153 146.584 509.153 146.36C509.711 144.685 509.376 143.121 509.264 141.445C509.041 139.769 508.929 138.094 508.817 136.418C508.706 134.184 508.706 131.949 508.594 129.715C508.594 129.268 508.594 128.71 508.594 128.263C508.594 126.922 508.706 125.582 508.706 124.241C508.706 123.683 508.594 123.124 508.482 122.565C507.477 123.124 508.259 124.018 508.035 124.688C507.812 125.358 508.035 126.14 507.924 126.922C507.477 123.906 507.7 120.89 507.589 117.874C507.477 114.857 507.365 111.841 507.253 108.825C507.142 105.809 507.03 102.681 506.918 99.6644C506.918 96.6482 507.142 93.6319 506.471 90.6157C507.03 91.7328 507.477 92.7383 508.035 93.8554C508.594 93.5202 508.371 92.9617 508.482 92.5148C508.817 92.6265 509.153 92.7383 509.599 92.7383C509.488 92.4031 509.488 92.068 509.376 91.6211C509.823 91.8446 510.158 91.8445 510.605 92.068C510.716 92.4031 510.828 92.85 510.828 93.4085C509.935 93.4085 509.376 93.7437 509.599 94.7491C509.935 94.8608 510.27 94.8608 510.716 95.0842C510.716 95.5311 510.716 96.0896 510.605 96.6482C510.605 97.2067 510.605 97.6536 510.605 98.1004C510.716 98.1004 510.94 98.2122 511.052 98.2122C511.163 97.6536 511.387 96.9833 511.61 96.4248C511.834 95.8662 512.057 95.3076 512.504 94.5257C513.398 96.0896 513.174 97.7653 513.509 99.441C514.068 97.6536 514.626 96.0896 515.185 94.4139C515.744 94.7491 515.632 95.1959 515.297 95.4193C514.738 96.0896 515.185 96.4248 515.52 96.6482C515.408 97.2067 515.297 97.7653 515.185 98.2122C514.85 98.8824 515.297 99.5527 514.962 100.223C514.626 100.782 514.738 101.564 514.738 102.234C514.626 103.016 514.626 103.686 514.515 104.468C514.515 104.691 514.626 104.915 514.626 105.138C514.738 105.473 514.85 105.809 514.85 106.255C514.626 110.165 515.073 114.187 515.52 118.097C515.744 119.438 515.855 120.89 516.19 122.342C516.749 121.337 517.419 120.331 517.978 119.326C517.643 118.767 517.308 118.32 517.084 117.762C517.084 117.762 517.196 117.65 517.308 117.65C517.531 117.985 517.866 118.32 518.201 118.879C518.872 117.762 519.542 116.868 520.1 116.086C521.999 113.07 523.899 110.054 525.798 107.149C527.697 104.356 529.484 101.564 531.383 98.8824C532.277 97.6536 533.394 96.6482 534.4 95.5311C534.958 94.8608 535.405 94.1905 535.964 93.4085C535.74 93.2968 535.517 93.0734 535.07 92.9617C535.74 92.4031 536.41 91.8445 537.081 91.286C537.192 91.5094 537.304 91.6211 537.416 91.8446C537.751 91.6211 538.086 91.3977 538.533 91.1743C538.645 91.3977 538.868 91.5094 538.756 91.6211C538.421 92.4031 538.198 93.2968 537.751 93.9671C536.746 95.4194 535.74 96.7599 534.735 98.2122C534.623 98.4356 534.511 98.659 534.288 98.7707C532.054 99.9996 531.383 102.122 530.043 104.021C529.484 104.803 529.149 105.585 528.591 106.367C526.245 109.83 523.899 113.182 521.664 116.533C521.329 117.092 521.106 117.65 520.882 118.209C521.106 118.432 521.217 118.544 521.553 118.767C521.776 118.432 521.999 118.097 522.223 117.762C523.452 115.974 524.681 114.41 525.686 112.623C527.027 110.277 528.479 108.155 530.378 106.144C530.825 105.585 530.936 104.803 531.272 104.133C532.724 101.228 535.07 98.8824 536.969 96.3131C537.081 96.3131 537.192 96.3131 537.304 96.4248C537.192 96.6482 537.192 96.8716 537.192 97.2067C537.528 97.095 537.863 96.9833 538.198 96.7599C538.533 97.9887 537.192 98.3239 537.192 99.1059C537.192 99.9996 536.522 100.558 536.299 101.452C537.751 99.9996 539.203 98.659 540.879 97.2067C540.879 97.5419 540.991 97.877 540.991 98.1004C540.544 99.2176 539.985 100.111 538.645 100.446C537.863 100.67 537.527 101.34 537.416 102.122C537.304 102.457 537.304 102.904 537.192 103.128C536.075 104.915 534.846 106.702 533.618 108.378C533.282 109.048 532.724 109.495 532.277 110.165C531.607 111.171 531.048 112.288 530.378 113.293C529.484 114.634 528.479 115.974 527.585 117.315C526.915 118.32 526.468 119.438 526.021 120.443C525.909 120.666 526.021 121.002 526.133 121.113C527.027 122.454 528.032 123.794 528.926 125.135C529.373 125.693 529.819 126.364 530.043 127.034C531.16 129.268 532.5 131.502 534.176 133.625C534.958 134.742 535.628 136.083 536.41 137.312C536.857 138.094 537.639 138.764 538.086 139.546C540.209 142.562 543.113 148.148 545.236 151.164C546.241 152.616 547.358 153.957 548.364 155.409C549.369 156.75 550.263 158.202 551.38 159.877ZM520.324 121.113C521.553 119.996 521.553 119.549 520.882 118.209C520.547 118.767 520.324 119.214 519.989 119.661C519.654 120.22 519.542 120.778 520.324 121.113ZM542.778 156.303C543.56 156.973 544.23 157.755 544.901 158.425C544.789 157.42 544.342 156.973 542.778 156.303Z" fill="black"/>
<path d="M578.565 101.117L578.454 101.228C578.342 101.117 578.23 100.893 578.118 100.782L578.23 100.67C578.342 100.782 578.454 101.005 578.565 101.117ZM597.109 84.0247C596.104 84.3598 596.104 84.3598 595.434 83.4661C595.992 83.6895 596.439 83.8013 597.109 84.0247ZM569.293 85.0301C570.522 85.3652 569.405 86.5941 570.075 87.1526C569.07 86.2589 568.846 85.7004 569.293 85.0301ZM569.181 87.5995C569.07 87.5995 569.07 87.5995 568.958 87.7112C568.735 87.376 568.623 87.0409 568.399 86.5941C568.511 86.5941 568.623 86.5941 568.623 86.4823C568.846 86.9292 568.958 87.2643 569.181 87.5995ZM600.796 85.2535C601.355 85.3652 601.69 85.3652 602.025 85.3652C601.801 85.9238 601.69 86.2589 601.466 86.7058C601.243 86.2589 601.131 85.9238 600.796 85.2535ZM575.996 162C575.996 161.441 575.996 161.106 576.108 160.771C576.331 160.883 576.554 160.995 576.89 161.218C576.666 161.441 576.443 161.665 575.996 162ZM599.567 85.8121C600.349 86.4823 600.908 87.376 600.573 88.6049C600.237 89.4986 600.126 90.3923 599.567 91.286C599.009 92.068 598.897 93.1851 598.673 94.1905C598.562 94.7491 598.45 95.3076 598.45 95.8662C598.338 96.4248 598.115 96.8716 598.673 97.3185C599.009 97.6536 598.897 98.5473 598.785 99.1059C598.45 100.782 598.003 102.346 597.445 103.91C595.992 108.155 594.652 112.288 593.2 116.421C592.753 117.427 592.306 118.544 591.971 119.661C591.747 120.108 591.524 120.666 591.412 121.113C590.518 124.241 589.625 127.257 588.731 130.385C588.619 130.944 587.949 131.391 588.284 132.061C587.614 132.061 587.726 132.731 587.502 133.066C587.391 133.402 587.167 133.737 587.279 134.072C587.614 135.636 586.944 136.976 586.385 138.205C585.603 140.216 584.709 142.227 584.151 144.349C583.592 146.025 583.369 147.813 582.922 149.6C582.81 149.488 582.699 149.376 582.475 149.265C581.358 151.499 580.688 153.845 580.353 156.191C580.241 156.973 579.459 159.095 579.012 159.766C578.789 160.101 578.565 160.436 578.454 160.771C578.23 161.106 578.118 161.441 578.007 161.888C577.001 161.441 577.783 160.659 577.336 160.101C577.113 159.989 576.778 159.877 576.443 159.766C576.331 159.542 576.331 159.207 576.219 158.76C575.996 159.319 575.772 159.877 575.549 160.659C575.437 159.989 575.437 159.542 575.326 158.76C574.655 159.989 574.097 160.883 573.65 161.888C573.091 160.324 573.65 158.872 573.985 157.42C574.32 155.856 574.767 154.18 575.102 152.616C575.326 151.946 575.549 151.276 575.772 150.605C576.331 149.041 577.001 147.589 577.56 146.025C578.007 144.796 578.565 143.679 579.012 142.45C579.347 141.557 579.571 140.551 579.906 139.658C580.129 138.652 580.353 137.758 580.688 136.753C581.135 135.524 581.47 134.295 581.693 133.066C581.917 132.061 582.363 130.944 582.699 129.939C582.81 129.492 582.81 129.045 582.699 128.598C582.699 128.375 582.475 128.263 582.028 127.816C581.805 129.268 581.693 130.497 581.47 131.614C581.47 131.949 581.47 132.396 581.246 132.62C580.129 134.295 579.682 136.306 579.012 138.205C578.454 139.657 577.895 141.221 577.448 142.785C576.89 144.349 576.666 145.913 575.996 147.477C574.767 150.27 574.208 153.286 573.65 156.303C573.65 156.414 573.538 156.638 573.538 156.638C572.309 156.75 572.756 157.978 572.198 158.76C572.198 157.867 572.086 157.196 572.309 156.526C572.533 155.074 572.868 153.622 573.203 152.169C573.315 151.834 573.538 151.611 573.65 151.387C573.65 151.276 573.762 151.164 573.762 151.164C573.091 150.158 573.762 149.265 574.097 148.483C574.879 146.249 575.884 144.126 576.666 141.892C577.113 140.439 577.783 139.099 578.23 137.647C578.789 136.194 579.012 134.742 579.459 133.29C579.682 132.731 579.906 132.173 580.129 131.614C580.464 130.944 581.135 130.385 580.688 129.603C580.688 129.38 580.911 129.045 581.135 128.821C581.581 128.375 581.805 127.928 581.358 127.257C581.246 127.034 581.693 126.475 581.805 126.14C579.682 121.448 577.783 116.533 575.772 111.618C575.996 111.506 576.108 111.506 576.219 111.394C576.778 112.288 577.225 113.182 577.672 114.187C578.677 116.31 579.682 118.432 580.688 120.666C581.47 122.565 582.363 124.576 583.145 126.475C583.481 125.805 583.481 125.693 583.145 125.023C582.252 123.012 581.358 120.89 580.464 118.879C579.459 116.533 578.565 114.187 577.672 111.841C576.89 109.83 575.661 107.931 574.544 106.144C574.32 105.92 574.097 105.697 573.985 105.362C573.315 103.574 572.198 101.899 571.304 100.111C570.41 98.1004 569.405 95.9779 568.176 94.0788C567.729 93.2968 567.506 92.5148 567.282 91.7328C567.282 91.1743 567.171 90.3923 567.394 90.0571C567.953 89.4986 567.953 89.0517 567.506 88.3815C568.399 89.8337 569.963 90.3923 570.634 91.8446C570.969 92.5148 571.863 92.9617 572.533 93.4085C572.644 93.5202 572.756 93.5202 572.98 93.5202C573.65 93.632 572.868 94.7491 573.873 94.7491C574.208 94.7491 574.432 95.7545 574.767 96.3131C574.767 96.4248 574.544 96.7599 574.432 97.095C575.996 97.095 575.884 98.659 576.778 99.441C576.554 99.6644 576.331 99.7761 575.772 100.111C577.783 100.111 578.007 101.675 578.565 102.681C580.129 105.473 581.47 108.49 582.81 111.283C583.145 111.953 583.257 112.623 584.039 112.958C584.263 113.07 584.263 113.405 584.374 113.628C584.933 114.857 585.38 115.974 585.938 117.092C585.938 117.203 586.162 117.315 586.273 117.427C586.609 116.533 586.832 115.639 587.167 114.857C587.502 114.187 587.726 113.405 588.061 112.735C588.396 112.065 588.396 111.394 588.731 110.724C589.848 108.601 590.295 106.255 591.077 104.133C591.3 103.574 591.636 103.016 591.077 102.457C590.965 102.346 591.189 102.01 591.189 101.787C591.3 101.228 591.524 100.782 591.636 100.223C591.859 98.8824 592.976 98.2122 593.535 97.095C594.428 95.6428 595.099 94.0788 595.434 92.2914C595.546 91.5094 595.546 90.6157 596.439 89.9454C596.439 90.8391 596.328 91.3977 596.328 92.068C596.328 92.068 596.439 92.068 596.551 92.1797C596.886 90.1689 598.45 88.4932 597.78 86.3706C598.45 85.9238 599.12 85.4769 599.679 85.1418C599.679 85.2535 599.679 85.4769 599.567 85.8121ZM576.331 158.649C576.778 158.09 577.001 157.308 576.778 156.526C576.108 157.196 576.331 157.978 576.331 158.649ZM566.835 94.7491C566.947 94.6374 567.171 94.6374 567.171 94.6374C567.282 94.9725 567.394 95.3076 567.617 95.6428C567.506 95.6428 567.394 95.6428 567.282 95.6428C567.171 95.4194 566.947 95.0842 566.835 94.7491ZM565.383 94.9725C565.048 94.5257 565.16 94.5256 565.718 93.2968C566.277 94.9725 566.724 96.4248 567.171 97.877C567.059 97.877 567.059 97.877 566.947 97.9887C566.389 96.9833 565.83 95.9779 565.383 94.9725Z" fill="black"/>
<path d="M645.823 93.7437C645.823 93.7437 645.711 93.8554 645.6 93.9671C645.265 93.7437 644.818 93.5202 644.259 93.2968C645.265 92.7383 645.488 93.5202 645.823 93.7437ZM619.347 89.1635C619.347 89.1635 619.347 89.1635 619.459 89.1635H619.347ZM620.464 89.4986C620.129 89.6103 619.682 89.722 619.124 89.9454C619.236 89.4986 619.347 89.3869 619.347 89.1635C619.682 89.2752 620.129 89.2752 620.464 89.2752C620.464 89.3869 620.464 89.3869 620.464 89.4986ZM618.342 89.6103C618.565 88.7166 617.113 89.2752 617.448 88.3815C617.672 88.4932 617.783 88.6049 618.118 88.7166C618.118 88.2697 618.118 87.8229 618.23 87.4878C618.9 87.4878 619.682 87.4878 620.799 87.4878C620.241 87.7112 620.018 87.7112 619.794 87.8229C619.124 88.158 619.012 88.4932 619.347 89.1635C619.012 89.2752 618.677 89.3869 618.342 89.6103ZM651.185 108.49C651.409 110.724 651.185 112.958 650.515 114.969C649.956 116.421 649.51 117.985 648.393 119.102C647.834 119.773 647.387 120.555 646.605 121.113C646.493 121.225 646.382 121.56 646.27 121.784C646.047 122.23 645.823 122.565 645.6 123.012C645.265 122.789 644.929 122.677 644.706 122.454C644.594 122.789 644.594 123.236 644.483 123.571C644.147 123.459 643.812 123.459 643.254 123.459C643.477 123.794 643.701 124.018 643.812 124.241C642.919 124.911 641.913 125.47 641.131 126.252C640.796 126.475 640.126 125.582 640.126 126.587C640.126 126.699 639.679 127.034 639.344 127.146C638.45 127.369 637.668 128.039 636.774 128.263C635.881 128.486 634.875 128.821 633.982 129.045C633.535 129.157 633.088 129.268 632.529 129.268C632.753 128.933 632.864 128.71 633.088 128.263C632.529 128.375 632.194 128.486 631.859 128.598C631.077 128.71 630.295 128.821 629.401 128.821C628.284 128.71 627.055 129.157 625.938 129.38C625.715 129.492 625.491 129.939 625.268 130.274C624.933 130.162 624.486 130.05 624.039 129.939C624.598 129.268 623.816 129.045 623.704 128.486C623.145 128.598 622.587 128.71 622.028 128.933C622.028 129.38 622.252 129.939 622.028 130.274C621.693 130.832 622.922 130.832 622.363 131.391C622.252 131.614 622.699 132.284 622.922 132.843C622.81 132.843 622.587 133.066 622.587 133.178C622.587 134.407 622.587 135.636 622.587 136.865C622.587 137.2 622.699 137.423 623.034 137.535C623.592 137.758 623.592 137.982 622.81 138.317C623.592 139.099 623.592 140.104 623.592 140.998C623.592 142.227 623.369 143.456 623.369 144.685C623.257 145.131 622.922 144.796 622.81 145.02C622.475 145.578 622.363 146.249 622.699 146.919C623.257 147.813 623.145 148.706 623.034 149.6C623.034 149.935 622.81 150.27 622.699 150.605C623.257 150.94 623.146 151.611 623.146 152.169C623.146 152.728 623.034 153.175 623.816 153.063C623.481 153.51 623.257 153.957 623.034 154.292C621.917 155.409 622.028 156.75 622.028 158.09C622.028 158.76 621.805 159.319 621.581 159.877C621.581 158.872 620.464 158.425 620.576 157.42C620.688 156.414 620.576 155.521 620.688 154.515C620.688 153.175 620.8 151.722 620.911 150.382C621.023 148.93 621.246 147.366 621.246 145.913C621.135 143.567 621.023 141.333 621.023 138.987C620.911 137.647 620.688 136.306 620.911 134.966C621.023 134.295 620.576 133.625 620.576 132.843C620.464 130.832 620.241 128.821 620.129 126.811C620.129 126.699 620.018 126.587 619.794 126.475C619.794 127.593 619.794 128.71 619.794 129.827C620.018 133.066 620.241 136.418 620.464 139.658C620.576 142.45 620.688 145.355 620.576 148.148C620.576 151.052 620.241 153.845 620.129 156.638C620.018 158.425 620.129 160.213 620.129 162C619.682 160.436 618.677 158.872 619.124 157.085C618.9 157.42 618.789 157.643 618.565 157.978C618.565 157.755 618.454 157.643 618.23 157.308C618.23 158.313 618.118 159.207 618.118 160.101C618.007 160.101 617.895 160.101 617.895 160.101C617.56 159.542 617.336 159.095 617.001 158.425C616.89 158.872 616.778 159.207 616.666 159.766C616.443 159.319 616.219 159.095 616.219 158.872C615.996 156.303 615.996 153.845 616.443 151.387C616.666 150.158 616.554 148.93 616.554 147.589C616.554 146.919 616.554 146.36 616.666 145.69C616.666 144.573 616.778 143.456 616.778 142.339C617.001 139.434 616.666 136.418 616.443 133.513C616.219 131.502 616.219 129.38 616.108 127.257C616.108 125.358 616.108 123.459 616.108 121.56C615.996 119.102 615.884 116.645 615.996 114.299C616.219 111.729 616.331 109.272 616.331 106.702C616.331 106.479 616.331 106.255 616.443 106.144C617.001 105.585 616.778 104.915 616.666 104.245C616.554 103.128 616.554 102.122 616.778 101.005C617.001 100.111 616.89 99.1059 616.89 98.1004C617.672 98.2122 617.672 97.5419 617.56 96.8716C617.672 96.8716 617.783 96.9833 617.895 96.9833C617.895 97.3185 618.007 97.7653 618.118 98.1004C618.342 97.9887 618.454 97.9887 618.677 97.877C618.677 98.5473 618.789 99.2176 618.789 99.7761C618.789 100.111 618.9 100.558 619.012 100.67C619.794 101.117 619.682 101.675 619.459 102.234C619.347 102.457 619.236 102.681 619.236 102.904C620.129 105.697 619.459 108.49 619.571 111.283C619.682 115.863 619.571 120.443 619.571 125.023C619.571 125.135 619.682 125.247 619.682 125.47C620.353 125.358 620.241 124.911 620.241 124.465C620.129 122.23 619.906 119.884 619.906 117.65C619.906 115.304 620.129 112.846 620.129 110.501C620.129 107.931 620.241 105.362 619.906 102.792C619.794 102.01 620.018 101.117 620.018 100.335C620.018 99.3293 620.018 98.4356 620.018 97.4302C619.794 97.5419 619.571 97.5419 619.347 97.5419C619.459 97.4302 619.459 97.3185 619.571 97.2067C620.018 96.4248 619.682 95.7545 618.9 95.6428C618.23 95.5311 617.448 95.5311 616.778 95.5311C616.554 95.4193 616.219 95.4194 615.884 95.3076C615.884 95.1959 615.884 95.0842 615.884 94.9725C616.554 94.8608 617.225 94.7491 618.118 94.6374C617.895 93.5202 618.118 92.4031 617.783 91.1743C617.895 91.1743 618.342 90.8391 618.677 90.9509C619.906 91.3977 620.8 90.6157 621.917 89.9454C621.581 89.722 621.358 89.6103 620.799 89.3869C623.034 88.94 624.933 88.7166 626.832 88.3815C626.832 88.3815 626.832 88.4932 626.832 88.6049C626.609 88.6049 626.497 88.7166 625.938 88.94C626.832 89.1635 627.279 89.2752 627.837 89.3869C630.965 90.0571 634.093 90.6157 637.221 91.3977C640.237 92.068 642.583 93.7437 645.153 95.1959C647.387 96.5365 648.504 98.659 649.286 100.893C649.621 101.899 650.068 102.904 650.403 103.91C650.738 104.803 651.074 105.697 650.962 106.702C650.85 107.261 651.074 107.931 651.185 108.49ZM618.677 105.809C618.677 105.585 618.789 105.25 618.677 105.027C618.677 104.803 618.454 104.691 618.342 104.468C618.342 105.027 618.454 105.473 618.454 106.032C618.454 107.037 618.454 108.155 618.454 109.16C618.677 108.043 618.677 106.926 618.677 105.809ZM618.454 114.969H618.342C618.342 115.751 618.342 116.645 618.342 117.427H618.454C618.454 116.645 618.454 115.863 618.454 114.969ZM618.118 99.5527C618.118 101.228 618.23 102.792 618.342 104.356C618.677 102.792 618.565 100.335 618.118 99.5527ZM618.565 128.263C618.565 128.375 618.677 128.486 618.789 128.598C618.789 129.939 618.789 131.167 618.789 132.508C618.9 132.508 619.012 132.508 619.012 132.508C619.012 131.167 618.9 129.939 618.789 128.598C618.789 125.917 618.677 123.347 618.677 120.666C618.454 121.113 618.23 121.672 618.23 122.119C618.342 124.129 618.454 126.252 618.565 128.263ZM619.124 133.513C619.012 133.737 619.012 133.96 618.9 134.184C619.012 134.184 619.124 134.184 619.236 134.295C619.236 133.96 619.236 133.737 619.236 133.513C619.124 133.513 619.124 133.513 619.124 133.513ZM619.236 151.387C619.236 150.829 619.236 150.382 619.236 149.823C619.124 149.823 619.124 149.823 619.012 149.823C619.012 150.382 619.012 150.829 619.012 151.387C619.124 151.387 619.124 151.387 619.236 151.387ZM619.236 148.818C619.236 148.259 619.347 147.813 619.347 147.254C619.236 147.254 619.236 147.254 619.124 147.254C619.124 147.813 619.124 148.259 619.124 148.818C619.124 148.818 619.124 148.818 619.236 148.818ZM619.459 145.802C619.459 144.796 619.459 143.903 619.459 142.897C619.459 142.897 619.347 142.897 619.236 143.009C619.236 143.903 619.236 144.796 619.236 145.802C619.347 145.802 619.459 145.802 619.459 145.802ZM639.679 93.9671C639.567 94.0788 639.567 94.0788 639.456 94.1905C640.126 94.6374 640.684 95.1959 641.466 95.4193C642.919 95.7545 643.701 96.8716 644.594 97.877C645.041 98.4356 645.488 99.1059 646.047 99.5527C646.717 100.335 647.164 101.117 647.387 102.122C647.499 102.681 647.499 103.463 647.834 103.91C648.169 104.468 648.393 105.027 648.393 105.585C648.393 106.367 648.616 107.037 648.728 107.819C648.839 107.819 648.951 107.819 649.063 107.708C648.951 106.479 648.951 105.25 648.839 104.021C648.504 102.01 647.834 100.111 646.829 98.3239C646.27 97.5419 645.823 96.6482 644.818 96.2013C643.142 95.4194 641.355 94.7491 639.679 93.9671ZM647.611 112.065C648.281 111.506 648.169 110.836 647.946 110.277C648.169 110.277 648.393 110.277 648.393 110.277C648.616 109.719 648.839 109.16 648.393 108.601C648.281 109.16 648.169 109.719 647.946 110.277C647.834 110.836 647.722 111.394 647.611 112.065ZM642.472 100.111C642.137 99.6644 642.025 99.1059 641.019 99.1059C641.466 99.5527 641.913 99.8878 642.248 100.223C642.36 100.223 642.36 100.111 642.472 100.111ZM640.461 97.3185C639.567 96.8716 638.674 96.5365 637.78 96.2013C638.897 97.2068 639.456 97.4302 640.461 97.3185ZM625.38 89.2752C624.933 89.2752 624.598 89.3869 624.263 89.3869C624.933 89.8337 624.933 89.8337 625.38 89.2752ZM623.481 89.4986C623.257 89.6103 622.922 89.722 622.699 89.8337C622.699 89.9454 622.81 90.0571 622.81 90.0571C623.034 89.9454 623.369 89.9454 623.592 89.8337C623.592 89.722 623.481 89.6103 623.481 89.4986ZM634.652 123.571C634.54 123.571 634.652 123.794 634.652 123.906C635.21 123.794 635.657 123.794 636.216 123.683C635.769 123.236 635.21 123.236 634.652 123.571ZM636.104 125.582C635.881 125.582 635.546 125.582 635.21 125.582C635.21 125.582 635.21 125.917 635.21 126.029C635.546 126.029 635.881 126.029 636.104 126.029C636.104 125.917 636.104 125.805 636.104 125.582ZM635.21 127.369C635.992 127.704 636.439 127.481 636.663 126.811C635.657 126.587 635.657 126.587 635.21 127.369ZM638.674 125.693C638.897 125.693 639.12 125.693 639.344 125.693C639.344 125.582 639.344 125.47 639.344 125.47C639.12 125.47 638.897 125.582 638.674 125.693ZM637.668 124.911C638.003 125.023 638.45 125.023 638.785 125.135C638.785 125.023 638.785 124.911 638.785 124.8C638.45 124.8 638.115 124.688 637.668 124.688C637.668 124.8 637.668 124.911 637.668 124.911ZM639.679 117.65C642.695 116.198 644.147 113.628 645.153 110.612C645.041 108.713 644.929 106.926 644.706 105.027C644.483 103.909 643.924 102.904 643.477 101.787C643.365 101.787 643.365 101.787 643.254 101.899C643.365 102.234 643.365 102.681 643.477 103.351C643.254 103.016 643.142 102.904 643.03 102.681C642.919 101.005 641.578 100.223 640.349 99.441C639.232 98.8824 638.115 98.5473 636.998 97.9887C636.663 97.877 636.551 97.4302 636.216 97.095C635.992 97.4302 635.657 97.4302 635.099 97.3185C633.87 96.8716 632.529 96.6482 631.3 96.4248C628.619 95.9779 626.05 95.7545 623.481 96.3131C622.922 96.4248 622.364 96.3131 621.693 96.3131C621.917 95.9779 622.028 95.7545 622.14 95.5311C621.47 95.5311 620.911 95.5311 620.353 95.6428C620.464 96.7599 620.464 97.7653 620.799 98.7707C621.023 99.6644 621.582 100.446 622.028 101.34C620.688 101.899 621.358 103.016 621.246 103.798C621.023 104.58 621.47 105.362 622.363 105.809C621.581 106.144 621.581 106.144 621.581 106.814C621.47 107.484 621.358 108.266 621.358 108.937C621.358 109.383 621.47 110.054 621.805 110.277C622.475 110.836 622.14 111.394 622.252 111.953C622.252 111.953 622.14 111.953 622.028 111.953C622.028 111.729 622.028 111.618 621.917 111.394C621.581 111.729 621.582 112.176 621.47 112.623C621.358 113.293 621.47 114.187 621.135 114.746C620.8 115.416 620.8 116.086 621.023 116.645C621.47 117.427 621.358 118.209 621.47 119.102C621.47 119.661 621.358 120.331 622.14 120.555C622.252 120.555 622.14 121.225 622.14 121.225C621.582 121.337 621.693 121.784 621.693 122.119C621.47 123.124 621.805 124.018 622.363 124.688C622.14 125.023 622.028 125.247 621.805 125.805C622.363 125.693 622.81 125.693 623.034 125.47C623.927 124.576 625.156 124.911 626.162 124.465C627.614 124.911 628.955 124.465 630.295 124.018C630.742 123.794 631.412 124.018 631.971 124.018C631.747 124.576 631.3 124.241 630.965 124.353C630.407 124.353 629.96 124.465 630.072 125.135C631.077 125.47 631.524 124.688 632.306 124.465C632.194 124.241 632.082 124.129 631.971 124.018C631.747 123.236 632.418 123.124 632.864 122.901C634.205 122.23 635.546 121.56 637.11 120.778C636.328 120.555 635.657 120.443 634.875 120.22C636.551 119.326 638.115 118.432 639.679 117.65ZM641.466 123.571C641.69 123.347 641.801 123.124 642.137 122.789C641.578 122.789 641.243 122.901 640.573 123.012C641.019 123.236 641.131 123.347 641.466 123.571ZM643.142 121.672C643.477 121.56 643.812 121.448 644.036 121.337C644.036 121.337 644.036 121.225 643.924 121.113C643.701 121.225 643.365 121.337 643.142 121.448C643.142 121.448 643.142 121.56 643.142 121.672ZM650.068 111.618C650.068 111.283 650.292 110.836 649.733 110.724C649.51 111.059 649.063 111.394 649.174 111.729C649.286 113.293 647.387 113.964 647.499 115.416C647.499 115.528 647.387 115.639 647.387 115.639C646.605 115.639 646.94 116.31 646.717 116.645C645.488 116.645 645.265 118.209 644.259 118.432C644.036 119.326 643.365 119.102 642.807 119.102C642.695 119.102 642.695 119.214 642.583 119.326C642.807 119.438 643.03 119.549 643.03 119.661C643.03 119.996 642.919 120.22 642.919 120.443C642.36 120.22 642.025 120.443 641.913 121.113C642.248 120.89 642.583 120.666 642.919 120.443C643.03 120.555 643.254 120.666 643.365 120.555C644.147 120.108 645.041 119.661 645.711 118.991C646.717 117.874 647.499 116.645 648.393 115.528C649.286 114.41 649.733 112.958 650.068 111.618Z" fill="black"/>
<path d="M686.865 144.685C686.53 144.573 686.083 144.461 685.748 144.349C685.748 144.349 685.748 144.238 685.748 144.126C686.195 144.126 686.53 144.126 686.865 144.126C686.865 144.349 686.865 144.461 686.865 144.685ZM679.492 140.775C678.822 139.993 678.263 139.211 677.705 138.429C677.593 138.205 677.593 137.982 677.593 137.758C678.04 138.317 678.599 138.987 679.157 139.546C679.716 140.216 680.274 140.998 680.833 141.78C680.386 141.445 679.827 141.221 679.492 140.775ZM677.593 137.758C677.481 137.758 677.481 137.758 677.481 137.758C677.481 137.647 677.481 137.647 677.481 137.647C677.481 137.758 677.593 137.758 677.593 137.758ZM703.399 101.005C703.399 101.117 702.84 101.899 703.51 102.234C703.51 102.234 703.399 102.904 703.287 103.016C702.728 103.574 702.17 103.574 701.5 103.239C700.606 102.792 699.6 102.457 698.707 102.01C698.037 101.675 697.366 101.34 696.808 100.782C694.238 98.2122 691.334 97.3185 688.429 96.6482C687.2 96.4248 685.972 96.2013 684.743 96.4248C682.62 96.6482 680.721 97.7653 679.045 99.8878C676.811 103.016 675.582 106.926 674.465 111.059C672.901 116.756 673.125 122.565 674.242 128.375C674.912 131.838 676.253 134.742 677.481 137.647C676.476 137.2 676.141 135.748 675.694 134.63C674.465 131.838 673.907 128.71 673.013 125.693C672.566 125.917 672.678 126.364 672.678 126.922C672.901 131.502 674.018 135.524 676.141 139.099C678.152 142.674 680.833 145.02 683.402 147.589C684.966 149.153 686.754 149.153 688.429 148.818C689.993 148.483 691.557 147.701 693.009 147.031C694.462 146.36 695.467 144.908 696.473 143.344C696.919 142.562 697.366 142.003 698.148 141.78C698.26 141.78 698.483 141.557 698.595 141.445C698.818 140.551 698.93 139.658 699.154 138.876C699.265 138.205 699.936 137.535 700.382 137.535C700.718 137.535 700.941 137.535 701.164 137.535C701.276 138.205 701.388 138.764 701.5 139.322C701.5 139.434 701.5 139.546 701.5 139.546C701.388 139.546 701.276 139.546 701.276 139.434C701.053 139.211 700.829 138.876 700.606 138.429C700.382 138.876 700.159 139.211 699.936 139.658C700.159 139.658 700.271 139.769 700.382 139.769C700.718 139.657 700.941 139.546 701.276 139.434C701.053 140.551 700.941 141.557 700.829 142.674C701.053 142.785 701.164 142.897 701.388 143.009C701.5 144.014 701.611 145.02 701.5 146.025C701.5 146.472 701.164 147.031 700.941 147.254C700.494 147.477 700.159 147.701 700.271 148.483C699.377 150.382 698.707 152.616 696.919 153.51C696.137 153.845 695.579 154.515 694.909 154.962C694.238 155.409 693.568 155.632 692.786 156.079C692.898 156.414 693.009 156.638 693.009 156.861C692.674 157.085 692.339 157.196 692.004 157.42C692.004 157.643 692.004 157.867 692.116 158.09C691.669 159.095 690.217 158.76 690.44 160.659C689.546 160.995 688.541 161.553 687.647 161.888C685.748 162.447 684.072 161.777 682.397 160.659C681.168 159.877 679.939 158.984 678.71 158.202C676.364 156.75 674.13 155.074 672.231 152.393C670.108 149.376 668.656 145.69 667.204 141.892C666.869 141.11 666.757 139.993 666.645 138.987C666.422 138.094 666.198 137.088 665.975 136.194C665.081 131.614 664.97 127.034 665.193 122.454C665.416 118.544 666.087 114.634 667.204 110.947C667.427 110.054 667.874 109.383 668.209 108.49C669.438 105.25 670.89 102.122 672.678 99.5527C673.125 98.8824 673.683 98.2122 674.242 97.6536C674.353 97.877 674.353 97.9887 674.353 97.9887C673.236 100.446 672.119 102.904 671.114 105.362C670.443 107.037 669.997 108.825 669.438 110.612C669.662 112.288 668.991 113.852 668.991 115.528C668.991 115.639 668.991 115.751 669.103 115.974C669.773 114.187 670.779 112.735 671.114 110.724C671.337 109.719 671.672 108.713 671.896 107.708C672.789 104.356 674.465 101.675 676.141 99.2176C676.923 98.2122 677.817 97.3185 678.375 95.8662C678.263 95.7545 678.04 95.6428 677.705 95.5311C678.487 94.8608 679.269 94.3022 680.051 93.9671C681.056 93.4085 682.285 93.0734 683.29 92.6265C683.849 92.4031 684.408 92.4031 684.743 91.5094C684.743 91.286 685.19 91.1743 685.413 91.1743C687.312 91.0626 689.323 91.5094 691.222 92.4031C692.227 92.9617 693.233 93.4085 694.238 93.9671C694.685 94.1905 695.132 94.1905 695.691 94.3022C695.914 94.3022 696.137 94.3022 696.249 94.5257C697.701 95.6428 699.154 96.8716 700.606 98.1004C701.053 98.5473 701.5 99.1059 701.946 99.5527C702.393 99.9996 702.728 100.446 703.399 101.005ZM673.571 145.802C672.901 144.238 672.119 142.897 671.672 141.221C671.002 138.652 670.108 136.306 669.885 133.513C669.885 132.955 669.773 132.396 669.661 131.838C669.55 131.056 669.438 130.162 669.438 129.38C669.326 128.263 669.215 127.146 669.215 126.029C669.103 126.029 668.991 126.029 668.88 126.029C668.544 126.587 668.209 127.369 668.321 128.263C668.433 129.38 668.544 130.497 668.656 131.726C669.215 136.641 670.779 140.998 672.678 145.131C672.901 145.467 673.236 145.69 673.46 146.025C673.46 145.913 673.571 145.913 673.571 145.802ZM693.009 143.121C691.222 143.456 689.546 145.02 687.647 144.349C689.435 143.791 691.222 143.344 693.009 142.785C693.009 142.897 693.009 143.009 693.009 143.121ZM695.355 141.221C695.244 141.11 695.244 140.998 695.132 140.886C695.467 140.663 695.802 140.328 696.137 140.104C696.137 140.104 696.249 140.216 696.249 140.328C695.914 140.663 695.691 140.998 695.355 141.221ZM697.143 139.099C696.808 138.764 696.919 138.429 697.143 138.205C697.255 138.205 697.478 138.317 697.59 138.429C697.478 138.764 697.366 138.987 697.366 139.211C697.254 139.099 697.143 139.099 697.143 139.099ZM693.568 142.785C693.456 142.785 693.456 142.674 693.456 142.674C693.568 142.45 693.68 142.227 693.903 142.003C693.903 142.003 693.903 142.115 694.015 142.115C693.791 142.339 693.68 142.562 693.568 142.785ZM700.829 137.2C700.382 136.306 700.159 135.636 699.824 135.077C699.936 134.966 699.936 134.966 700.047 134.854C700.382 135.412 700.941 135.859 700.829 137.2Z" fill="black"/>
<path d="M726.273 102.122C726.384 106.367 726.161 110.612 725.938 114.857C725.714 119.326 725.826 123.906 725.714 128.375C725.714 131.502 725.602 134.742 725.267 137.87C725.044 141.78 724.597 145.802 724.709 149.823C724.709 151.722 724.597 153.622 724.597 155.521C724.709 159.431 724.932 163.229 725.044 167.139C725.044 168.032 725.044 169.038 725.044 169.932C725.044 170.714 724.709 170.825 724.262 170.714C724.15 169.932 724.038 169.15 723.927 168.368C724.038 167.697 725.044 167.921 724.597 166.692C724.374 166.804 724.15 167.027 723.927 167.139C723.368 166.469 724.038 165.91 723.927 165.128C723.256 164.123 722.251 165.575 721.469 164.681C721.022 163.899 720.464 162.894 719.905 161.888C719.793 162.223 719.793 162.67 719.682 163.117C719.011 162.447 719.011 161.441 718.9 160.548C718.788 159.654 718.9 158.649 718.676 157.755C718.006 155.297 718.118 152.84 718.006 150.382C717.894 149.153 717.894 147.924 717.671 146.807C717.112 144.461 717.559 142.227 717.447 139.881C717.447 138.54 717.447 137.2 717.559 135.859C717.559 135.636 717.671 135.412 717.894 134.966C717.336 134.407 717.112 133.625 717.336 132.508C717.894 130.609 717.671 128.598 717.894 126.587C718.006 125.358 718.006 124.018 717.894 122.677C717.894 121.337 718.341 119.996 718.229 118.544C718.118 116.98 718.229 115.416 718.118 113.852C718.118 112.735 717.783 111.506 718.006 110.501C718.453 108.155 717.894 105.92 718.006 103.574C718.118 102.122 718.229 100.558 718.229 99.1059C718.341 97.7653 718.453 96.4248 718.453 95.1959C718.453 94.0788 718.9 93.0734 718.565 91.9563C718.453 91.7328 718.676 91.3977 718.788 91.1743C718.9 91.1743 719.011 91.1743 719.123 91.1743C719.347 92.1797 719.458 93.1851 719.57 94.0788C720.24 93.8554 720.799 93.5202 721.581 93.1851C721.804 94.6374 721.916 95.7545 722.028 96.9833C722.139 96.9833 722.139 96.9833 722.251 96.9833C722.251 95.9779 722.251 94.8608 722.363 93.4085C722.586 94.0788 722.81 94.4139 723.033 95.0842C723.145 94.1905 723.145 93.7437 723.256 93.1851C723.48 93.1851 723.703 93.2968 723.815 93.1851C724.15 92.6265 724.262 93.1851 724.485 93.2968C724.262 94.5256 725.602 95.3076 724.932 96.6482C724.82 96.7599 725.044 97.5419 725.267 97.7653C726.161 98.9942 726.273 100.67 726.273 102.122ZM719.682 156.973C719.793 156.861 719.793 156.861 719.905 156.861C719.793 156.414 719.793 155.968 719.682 155.521C719.682 155.632 719.57 155.632 719.458 155.632C719.57 156.079 719.57 156.526 719.682 156.973ZM722.028 103.574C722.028 103.016 722.028 102.569 722.028 102.122C721.916 102.122 721.916 102.122 721.804 102.122C721.916 102.569 721.916 103.016 721.916 103.574H722.028Z" fill="black"/>
<path d="M764.597 97.095C765.156 97.4302 765.714 97.877 766.161 98.2122C765.714 98.8824 765.491 99.3293 765.267 99.7761C764.597 99.441 764.485 98.2122 763.145 98.8824C765.491 101.787 766.943 105.027 767.167 108.713C767.39 107.931 767.502 107.149 767.613 106.367C768.619 106.814 768.619 106.814 768.619 108.601C768.73 107.708 768.842 106.814 768.842 105.92C768.842 105.027 766.831 100.223 767.055 99.3293C767.278 100.67 769.512 99.8878 770.183 105.027C770.518 105.138 770.294 107.596 770.965 107.708C770.518 109.83 770.294 111.953 769.736 113.964C769.401 115.081 768.73 116.086 767.948 116.98C766.72 118.32 765.379 119.438 764.039 120.666C763.145 121.56 762.251 122.342 761.022 123.459C762.586 123.571 763.815 123.683 765.044 123.794C766.384 124.018 767.502 124.465 768.73 125.247C771.412 127.034 774.204 128.71 775.992 131.614C776.774 132.843 777.444 134.184 778.114 135.636C778.561 136.641 778.896 137.647 779.231 138.764C779.343 139.211 779.455 139.658 779.343 140.104C779.12 141.557 778.785 142.897 778.338 144.349C777.891 145.69 777.891 145.69 776.215 145.243C776.327 145.69 776.439 146.137 776.439 146.584C776.327 146.919 776.103 147.701 775.992 147.701C774.428 147.589 774.316 148.706 773.869 149.6C773.757 149.935 773.646 150.27 773.758 150.829C774.204 150.494 774.54 150.27 775.098 149.823C775.21 150.047 775.433 150.27 775.321 150.382C764.485 168.591 750.186 160.101 749.516 159.989C748.622 159.989 748.622 161.553 747.505 160.659C746.947 160.101 745.829 160.995 745.606 159.766C745.383 159.989 745.159 160.213 744.601 160.883C744.377 158.649 744.154 156.973 743.93 154.85C743.26 157.308 744.265 159.431 743.148 161.888C742.925 160.883 742.813 160.324 742.701 159.877C742.031 155.409 741.361 150.94 740.691 146.36C740.467 144.796 740.467 143.009 740.132 141.333C739.797 139.658 740.579 138.094 740.467 136.418C740.467 134.742 740.355 133.066 740.467 131.502C740.467 129.715 740.802 128.039 740.914 126.364C741.361 119.549 741.696 112.846 742.143 106.032C742.031 106.032 741.919 106.032 741.696 106.032C741.473 108.713 741.249 111.283 740.914 113.964C740.802 113.964 740.579 113.964 740.467 113.852C740.579 111.729 740.691 109.607 740.802 107.484C740.914 105.362 741.026 103.128 740.914 101.005C740.802 98.9941 740.467 96.8716 740.355 94.6374C740.579 95.1959 740.802 95.8662 741.137 96.3131C741.361 96.7599 741.919 97.095 742.366 97.5419C742.813 95.7545 740.914 94.3022 741.919 92.5148C742.925 94.1905 743.372 94.4139 744.712 94.1905C744.377 93.8554 744.042 93.6319 743.595 93.1851C744.377 93.1851 744.712 93.2968 745.271 93.2968C745.494 93.5202 745.606 93.9671 745.829 94.3022C746.053 94.5257 746.165 94.8608 746.276 95.0842C749.069 96.3131 751.862 95.0842 754.655 94.9725C757.001 94.8608 759.123 95.1959 761.357 95.8662C762.475 96.2013 763.592 96.6482 764.597 97.095ZM763.368 109.16C763.368 108.378 763.257 107.708 763.257 107.037C762.81 103.351 760.687 101.228 757.001 100.893C755.548 100.782 754.096 100.893 752.644 100.782C751.192 100.67 749.963 101.005 748.734 101.675C748.734 103.574 748.846 105.473 748.734 107.261C748.734 109.16 748.622 111.059 748.51 112.958C748.399 115.863 748.064 118.656 747.952 121.56C747.84 122.454 748.064 123.459 748.064 124.576C748.957 124.353 749.516 124.241 750.298 124.129C749.739 123.571 749.404 123.347 749.069 123.012C749.963 122.565 750.633 122.007 751.527 121.672C752.085 121.448 752.644 121.113 753.314 121.56C753.761 121.783 754.32 121.783 754.878 121.895C754.096 122.119 753.202 122.454 752.42 122.789C752.42 123.012 752.532 123.124 752.532 123.236C753.538 122.677 754.543 124.018 755.437 122.677C755.548 122.901 755.66 123.124 755.772 123.347C755.213 123.571 754.766 123.794 754.208 124.018C757.894 124.018 762.475 121.225 763.257 118.991C762.363 118.097 761.357 120.89 760.575 118.656C759.458 119.214 758.453 119.661 757.448 120.22C756.554 120.778 755.66 121.337 754.766 121.895C754.431 120.555 755.437 119.884 756.33 119.549C757.336 119.214 757.894 118.32 758.565 117.762C759.123 117.315 759.57 116.533 759.123 115.863C761.469 114.41 763.592 112.623 764.485 109.942C765.267 107.484 764.821 104.915 762.81 102.792C763.145 104.356 763.592 105.809 763.927 107.261C764.15 107.931 764.15 108.713 763.368 109.16ZM767.948 142.115C768.172 141.668 768.507 141.333 768.73 140.998C770.63 137.982 770.63 136.194 768.619 133.402C768.507 133.178 768.284 132.843 768.06 132.62C768.284 132.508 768.507 132.284 768.842 132.173C768.284 131.614 767.837 130.944 767.278 130.497C765.714 129.492 764.262 128.598 762.139 129.157C760.911 129.492 759.458 129.045 758.229 129.268C756.889 129.603 755.66 128.821 754.208 129.157C751.862 129.603 749.292 129.38 748.51 132.396C747.058 133.513 747.282 135.077 747.17 136.53C747.058 141.668 747.952 146.472 749.069 151.387C749.069 151.834 749.516 152.393 749.851 152.616C751.08 153.175 752.085 153.845 753.649 153.622C755.213 153.286 757.001 153.845 758.676 153.733C761.357 153.398 763.703 152.728 765.491 150.605C768.284 147.254 770.406 143.456 772.194 139.546C773.087 137.423 772.082 135.301 770.63 133.625C770.518 133.402 769.959 133.513 769.401 133.402C769.848 134.072 770.406 134.519 770.294 134.742C769.959 135.748 770.741 136.083 771.412 136.641C770.294 136.976 770.741 137.535 771.076 138.094C771.858 139.322 771.858 139.211 770.741 140.104C770.071 140.551 769.512 141.333 768.73 142.115C768.73 142.115 768.284 142.115 767.948 142.115ZM741.584 131.056C740.355 139.099 740.914 146.695 743.819 154.068C743.483 152.169 743.148 150.382 742.925 148.483C742.59 145.467 742.366 142.562 742.255 139.546C742.031 137.2 742.143 134.742 742.143 132.284C742.143 131.949 741.919 131.614 741.584 131.056ZM772.752 135.189C771.188 131.279 766.049 127.257 762.475 127.369C766.72 129.045 770.294 131.391 772.752 135.189ZM764.374 103.016C763.48 100.111 762.139 99.2176 758.788 99.3293C760.575 100.446 762.475 101.787 764.374 103.016ZM742.143 126.922C742.366 123.124 742.478 119.214 742.701 115.416C742.031 119.214 741.584 123.012 742.143 126.922ZM771.188 129.939C770.071 128.486 767.502 126.922 765.602 126.475C767.502 127.593 769.177 129.157 771.188 129.939ZM773.422 132.62C773.087 131.949 772.64 131.167 772.305 130.385C772.082 130.497 771.97 130.609 771.747 130.609C772.194 131.391 772.64 132.061 773.087 132.843C773.199 132.731 773.311 132.731 773.422 132.62ZM767.39 113.293C766.831 113.964 766.273 114.634 765.826 115.192C765.938 115.304 766.049 115.304 766.161 115.416C766.384 114.634 767.502 114.522 767.39 113.293ZM751.527 124.241C751.974 124.241 752.42 124.241 752.867 124.241C752.867 124.241 752.756 124.129 752.756 124.018C752.309 124.018 751.862 124.129 751.527 124.129V124.241ZM775.433 148.93C775.545 148.818 775.545 148.706 775.657 148.483C775.992 148.706 776.215 148.818 776.55 149.041C776.439 149.153 776.327 149.265 776.215 149.265C775.992 149.153 775.657 149.041 775.433 148.93ZM767.948 142.115C768.172 142.339 768.507 142.674 768.73 143.121C768.284 143.567 767.725 144.126 766.943 144.908C767.39 143.791 767.613 142.897 767.948 142.115ZM763.368 109.16C763.368 109.607 763.48 110.165 763.368 110.612C763.145 110.947 762.698 111.059 762.251 111.283C762.139 111.171 762.028 111.059 761.916 110.947C762.475 110.389 762.921 109.719 763.368 109.16ZM758.9 121.337C758.9 121.225 758.788 121.113 758.676 121.002C758.9 120.778 759.123 120.555 759.347 120.443C759.347 120.443 759.458 120.555 759.57 120.555C759.347 120.778 759.123 121.113 758.9 121.337Z" fill="black"/>
<path d="M47.0319 243C46.5832 240.949 46.0489 238.898 45.7284 236.828C44.6813 230.285 43.506 223.741 42.7366 217.159C42.1169 211.827 41.8605 206.456 42.3947 201.065C42.8862 196.104 42.929 191.123 43.1854 186.143C43.506 179.99 43.8265 173.837 44.147 167.685C44.5103 160.575 45.0659 153.485 45.13 146.376C45.1728 141.18 44.5531 135.965 44.2539 130.77C44.1684 129.344 44.2539 127.918 44.1684 126.512C43.8692 121.785 43.4205 117.078 43.2068 112.351C43.0145 108.171 43.0572 103.972 43.0358 99.792C43.0145 95.2801 43.1213 90.7878 43.0145 86.2759C42.8221 79.0882 42.4375 71.92 42.2451 64.7518C42.1169 60.4157 42.2238 56.0796 42.1383 51.7435C42.0528 47.1731 41.8391 42.6026 41.7323 38.0322C41.6895 36.5477 41.8391 35.0438 41.8178 33.5594C41.8178 32.6999 41.5827 31.8405 41.5613 30.9811C41.4545 28.3053 41.3476 25.6294 41.369 22.9535C41.369 21.8988 41.6895 20.8246 41.9887 19.7894C43.1854 15.7658 44.4248 11.7618 45.707 7.75772C45.8994 7.1327 46.3481 6.56627 46.6687 5.99985C48.1645 6.19517 47.9295 7.28895 48.0149 7.89444C48.6133 12.2305 50.216 16.3127 51.8187 20.3949C52.4598 22.0355 52.6735 23.6371 52.5239 25.395C52.1179 30.1999 52.0111 35.0242 51.7974 39.8291C51.6051 44.2433 51.4555 48.677 51.2845 53.0912C51.0494 58.9313 50.8144 64.7713 50.622 70.6114C50.5793 72.1153 50.793 73.6193 50.7503 75.1037C50.6434 80.1429 50.4083 85.2017 50.387 90.2409C50.387 95.3583 50.6434 100.476 50.6862 105.593C50.6862 108.113 50.3229 110.613 50.4083 113.132C50.5793 117.839 51.0708 122.547 51.2631 127.254C51.4127 130.731 51.3059 134.207 51.3272 137.684C51.3272 142.586 51.2418 147.489 51.4127 152.391C51.6051 157.821 52.182 163.251 52.2889 168.681C52.4385 176.338 52.2675 183.994 52.2889 191.651C52.3316 199.483 52.5026 207.296 52.5026 215.128C52.5026 216.651 51.9683 218.194 51.4982 219.698C50.216 223.898 49.6604 228.175 49.2758 232.492C48.9552 235.988 48.25 239.445 47.7158 242.922L47.0319 243Z" fill="black"/>
<path d="M79.3791 215.321C86.6856 215.231 93.9602 215.105 101.267 215.068C134.018 214.888 166.802 214.707 199.585 214.527C228.267 214.49 256.98 214.472 285.662 214.436L415.514 214.219C454.771 214.075 494.028 213.858 533.221 213.479C555.749 213.262 578.182 212.684 601.063 211.943C596.929 211.853 592.795 211.708 588.661 211.708L517.839 211.654C433.717 211.492 349.595 211.275 265.505 210.787C225.351 210.57 185.293 209.938 145.17 209.541C122.097 209.27 98.8953 209.324 75.7898 209.089C74.8605 209.089 73.9312 209.125 73.0339 209.089C61.5612 208.746 50.0566 208.439 38.648 207.969L17.2089 207.156L13.139 206.903L4.99925 206.415C3.78148 206.343 2.59576 206.217 0 206C4.64673 206.072 9.29347 206.145 13.9082 206.199L17.3371 206.271H28.1688C37.7828 206.343 47.3326 206.397 56.8183 206.452C75.886 206.524 94.7934 206.867 113.765 207.21C127.961 207.481 142.382 207.445 156.707 207.499C188.529 207.535 220.351 207.716 252.141 207.499C285.31 207.301 318.413 206.668 351.582 206.361C369.047 206.217 386.64 206.361 404.17 206.434C450.829 206.65 497.457 206.849 544.085 207.066C560.268 207.03 576.452 207.012 592.635 206.975C628.527 207.012 664.291 207.192 699.894 207.951C722.039 208.439 744.343 208.854 767.16 208.71C783.151 208.601 799.27 209.125 815.262 209.468C830.676 209.866 845.994 210.245 861.376 210.643C867.241 210.787 870.638 211.221 869.164 212.286C844.135 214.039 819.267 215.845 792.188 216.586C774.883 217.056 757.386 217.345 739.888 217.598C719.122 217.85 698.292 218.085 677.526 218.338C659.58 218.573 641.698 218.97 623.752 219.133C611.799 219.241 599.749 219.133 587.828 218.97C559.275 218.591 530.785 219.007 502.232 219.079C469.096 219.169 435.96 218.808 402.824 218.645C391.255 218.627 379.686 218.591 368.15 218.573C337.385 218.356 306.556 218.663 275.792 218.085C253.616 217.67 231.023 217.85 208.59 217.652C202.213 217.597 195.868 217.345 189.491 217.29L100.049 216.55C94.0884 216.496 88.0636 216.351 82.1991 216.152C80.9493 216.116 80.2123 215.628 79.2509 215.339L79.3791 215.321Z" fill="black"/>
<path d="M844.447 0.024353C844.932 2.15498 845.501 4.27342 845.861 6.42841C846.998 13.2221 848.246 20.0036 849.092 26.8216C849.771 32.349 850.035 37.913 849.466 43.5135C848.939 48.6514 848.898 53.8258 848.621 58.988C848.288 65.3677 847.927 71.7474 847.595 78.1271C847.206 85.493 846.596 92.8589 846.527 100.225C846.471 105.618 847.151 111.012 847.456 116.405C847.539 117.879 847.456 119.352 847.553 120.825C847.886 125.719 848.371 130.614 848.593 135.508C848.787 139.842 848.745 144.201 848.773 148.535C848.801 153.21 848.676 157.886 848.801 162.549C849.009 169.988 849.411 177.427 849.633 184.878C849.771 189.37 849.66 193.875 849.757 198.368C849.855 203.104 850.076 207.84 850.187 212.588C850.229 214.134 850.076 215.681 850.104 217.227C850.104 218.116 850.354 219.004 850.381 219.893C850.492 222.669 850.617 225.445 850.589 228.221C850.589 229.317 850.257 230.424 849.924 231.496C848.634 235.66 847.29 239.824 845.917 243.963C845.695 244.621 845.224 245.205 844.891 245.777C843.283 245.582 843.518 244.45 843.435 243.817C842.783 239.312 841.064 235.088 839.331 230.863C838.624 229.158 838.416 227.502 838.582 225.664C839.012 220.684 839.151 215.693 839.373 210.701C839.581 206.123 839.747 201.533 839.941 196.955C840.191 190.904 840.454 184.853 840.662 178.79C840.718 177.232 840.482 175.673 840.523 174.127C840.634 168.892 840.898 163.657 840.912 158.421C840.912 153.113 840.62 147.805 840.579 142.496C840.551 139.891 840.967 137.286 840.87 134.68C840.676 129.798 840.163 124.916 839.955 120.021C839.802 116.43 839.899 112.814 839.886 109.21C839.872 104.133 839.969 99.0438 839.789 93.9668C839.594 88.3298 838.943 82.7049 838.832 77.0801C838.665 69.142 838.86 61.2038 838.832 53.2657C838.79 45.145 838.596 37.0364 838.61 28.9157C838.61 27.3329 839.192 25.7258 839.691 24.1796C841.078 19.8331 841.66 15.4014 842.09 10.9088C842.437 7.28067 843.199 3.68903 843.768 0.0852051L844.503 0L844.447 0.024353Z" fill="black"/>
<path d="M870 28.777C867.634 29.2572 865.732 29.7694 863.577 30.0415C857.829 30.7778 852.04 31.8342 846.124 32.0103C838.01 32.2504 830.192 33.3708 821.782 32.8746C814.091 32.4104 806.231 32.3624 798.455 32.0423C783.242 31.434 768.029 30.7458 752.773 30.1535C745.885 29.8814 738.955 29.6413 731.982 29.5613C701.09 29.1611 670.284 27.9446 639.223 28.729C611.417 29.4172 583.399 29.2091 555.508 29.3212C536.28 29.4012 517.01 29.4012 497.782 29.3212C486.161 29.2732 474.539 28.9691 462.918 28.889C450.367 28.809 437.732 29.1291 425.265 28.777C407.643 28.2648 390.19 28.9851 372.61 28.953C356.721 28.921 340.832 29.4813 324.984 29.4332C300.178 29.3692 275.414 28.9851 250.651 28.809C237.846 28.713 225.042 28.761 212.237 28.777C191.023 28.825 169.809 28.889 148.595 28.9851C144.707 29.0011 140.819 29.2092 136.974 29.3372C123.366 29.7854 109.716 30.1055 96.1513 30.7298C84.5723 31.258 73.0778 32.1863 61.5411 32.8266C58.3717 33.0027 54.9909 32.9546 51.8638 32.7306C42.2709 32.0583 32.7626 31.29 23.2543 30.4897C21.564 30.3456 20.1272 29.8494 17 29.1931C24.0573 28.5849 29.3819 28.1847 34.622 27.6725C43.4965 26.8082 52.4131 25.9599 61.1608 24.9194C68.218 24.0871 75.1485 23.927 82.4594 24.1831C93.7848 24.5833 105.11 25.1115 116.605 24.6633C125.183 24.3272 133.889 24.6473 142.51 24.5833C162.836 24.4393 183.163 24.1671 203.532 24.0871C232.86 23.9751 262.187 24.0391 291.515 23.895C313.025 23.799 334.493 23.3988 355.96 23.3508C380.809 23.2868 405.657 23.4789 430.505 23.5429C461.735 23.6229 492.964 23.6389 524.194 23.799C539.787 23.879 555.423 24.3272 571.017 24.3592C604.486 24.4393 637.998 24.4393 671.467 24.2792C695.977 24.1671 720.445 23.719 744.955 23.4949C750.745 23.4469 756.577 23.815 762.408 23.735C771.874 23.6229 781.34 23.3668 790.764 23.0307C798.54 22.7586 806.231 22.1023 814.007 22.0063C818.867 21.9423 823.98 22.3744 828.628 22.9987C842.151 24.7754 855.505 26.7442 870 28.793V28.777Z" fill="black"/>
</svg>
