<svg width="357" height="134" viewBox="0 0 357 134" fill="none" xmlns="http://www.w3.org/2000/svg">
<path d="M47.4664 85.2776V85.1362V85.2069V85.2776ZM47.4664 85.1362C47.5607 84.4292 47.6314 83.9815 47.6785 83.7929C47.7256 83.5572 47.9377 83.2037 48.3148 82.7324C48.2677 83.2509 48.2205 83.7222 48.1734 84.1464C48.1263 84.5235 47.8906 84.8534 47.4664 85.1362ZM47.325 86.1968C47.2779 86.1968 47.2307 86.1968 47.1836 86.1968C47.1836 86.1496 47.16 86.1261 47.1129 86.1261C47.16 85.9375 47.2779 85.6547 47.4664 85.2776C47.4193 85.419 47.3957 85.584 47.3957 85.7726C47.3957 85.914 47.3721 86.0554 47.325 86.1968ZM76.7367 80.47C76.6425 80.3286 76.5011 80.0693 76.3125 79.6922L76.5246 79.4801C76.6189 79.6687 76.6896 79.8336 76.7367 79.975C76.7839 80.1165 76.831 80.2579 76.8781 80.3993C76.7839 80.4464 76.7367 80.47 76.7367 80.47ZM75.4641 76.1572C75.417 75.8744 75.3698 75.6151 75.3227 75.3795C75.2756 75.0967 75.2049 74.8139 75.1106 74.5311H75.1813C75.2284 74.7667 75.2756 75.026 75.3227 75.3088C75.3698 75.5916 75.4405 75.8744 75.5348 76.1572V76.2986C75.5348 76.2514 75.5112 76.2043 75.4641 76.1572ZM81.0495 85.914C81.4266 86.3853 81.6387 86.9038 81.6858 87.4694C81.7329 87.9879 81.7094 88.6242 81.6151 89.3783C81.3323 88.6713 81.0731 88.035 80.8374 87.4694C80.6017 86.8566 80.3661 86.2675 80.1304 85.7019C79.989 85.419 79.8476 85.1362 79.7062 84.8534C79.6119 84.5235 79.5176 84.2171 79.4234 83.9343C79.282 83.463 79.117 83.0152 78.9285 82.591C78.7871 82.1668 78.6457 81.719 78.5043 81.2477C78.08 79.8336 77.6558 78.4196 77.2316 77.0056C76.8546 75.5916 76.4539 74.2011 76.0297 72.8342C75.9354 72.3629 75.794 72.0801 75.6055 71.9858C75.417 71.8915 75.0163 71.868 74.4036 71.9151C74.4978 72.1979 74.5921 72.4807 74.6864 72.7635C74.7807 72.9992 74.8749 73.2349 74.9692 73.4705C75.0635 73.7062 75.1106 74.0597 75.1106 74.5311H74.1208C74.3093 75.1909 74.4743 75.8508 74.6157 76.5107C74.8042 77.1706 75.0163 77.8069 75.252 78.4196C75.5819 79.3623 75.8883 80.3286 76.1711 81.3184C76.5011 82.2611 76.8546 83.2037 77.2316 84.1464C77.373 84.5235 77.5144 84.9006 77.6558 85.2776C77.8444 85.6547 78.1979 85.9611 78.7164 86.1968C79.0463 86.3382 79.282 86.6445 79.4234 87.1159C79.6119 87.5872 79.824 88.0821 80.0597 88.6006C79.6826 88.4592 79.3527 88.3414 79.0699 88.2471C78.8342 88.1528 78.5985 88.0586 78.3629 87.9643C78.5514 88.3414 78.7164 88.6949 78.8578 89.0248C78.9992 89.3548 78.8106 89.7083 78.2922 90.0853C78.0093 89.8968 77.7737 89.7083 77.5851 89.5197C77.1138 88.8598 76.7132 88.5299 76.3832 88.5299C76.1004 88.5299 75.7469 88.8834 75.3227 89.5904C75.2756 89.6847 75.2284 89.779 75.1813 89.8732C75.1813 89.9675 75.1342 90.0853 75.0399 90.2267C73.5787 87.5401 72.4239 84.7592 71.5755 81.884C70.7271 78.9617 69.8316 76.0865 68.8889 73.2584C67.4749 73.1642 66.1315 73.3291 64.8589 73.7533C63.6334 74.1775 62.4079 74.6018 61.1824 75.026C60.5697 76.9585 59.8863 78.8674 59.1321 80.7528C58.4251 82.591 57.6002 84.4057 56.6576 86.1968C56.3748 86.0554 56.1627 85.9375 56.0213 85.8433C55.6442 86.5031 55.2907 87.163 54.9607 87.8229C54.6779 88.4828 54.0652 89.0012 53.1225 89.3783C53.9238 88.2942 54.5837 87.1866 55.1021 86.0554C55.6206 84.9241 56.092 83.7694 56.5162 82.591C56.9875 81.4126 57.4353 80.2343 57.8595 79.0559C58.2837 77.8776 58.7786 76.6992 59.3442 75.5209C58.8729 75.6151 58.4487 75.6858 58.0716 75.733C57.7416 75.733 57.3881 75.7565 57.0111 75.8037L54.6779 81.5305C54.3951 82.2846 54.1123 83.0388 53.8295 83.7929C53.5938 84.4999 53.3346 85.2541 53.0518 86.0554C52.8633 86.5738 52.6983 86.9273 52.5569 87.1159C52.4155 87.2573 51.9441 87.6579 51.1429 88.3178C51.0015 88.4592 50.8601 88.6713 50.7187 88.9541L50.0823 88.1057C49.9881 88.2 49.8938 88.3178 49.7995 88.4592C49.7053 88.5535 49.5874 88.6242 49.446 88.6713C49.0218 88.907 48.6212 88.907 48.2441 88.6713C47.9142 88.4356 47.7963 88.0821 47.8906 87.6108C47.9849 86.9509 48.1027 86.291 48.2441 85.6312C48.3855 84.9713 48.574 84.3114 48.8097 83.6515C49.3282 82.1432 49.8467 80.6349 50.3651 79.1266C50.8836 77.6183 51.4021 76.11 51.9206 74.6018C51.9206 74.5075 51.9206 74.4368 51.9206 74.3896C51.9677 74.3425 51.9913 74.2718 51.9913 74.1775C51.4728 73.989 50.9543 73.8476 50.4358 73.7533C49.9174 73.6119 49.4225 73.4234 48.9511 73.1877C48.5269 72.9521 48.1027 72.6457 47.6785 72.2686C47.3014 71.8915 46.8537 71.4909 46.3352 71.0667C46.6651 70.9724 46.9244 70.8782 47.1129 70.7839C47.3486 70.6896 47.5371 70.6896 47.6785 70.7839C48.5269 71.161 49.3518 71.3259 50.153 71.2788C51.0015 71.1845 51.8263 70.996 52.6276 70.7132C52.7219 70.7132 52.8633 70.7603 53.0518 70.8546C53.0518 70.666 53.0282 70.5011 52.9811 70.3597C52.934 70.2183 52.9575 70.1004 53.0518 70.0062C53.7588 68.545 54.3716 67.0603 54.89 65.552C55.4085 64.0437 55.9034 62.5118 56.3748 60.9564C56.8932 59.2124 57.4353 57.492 58.0009 55.7952C58.5665 54.0512 59.1085 52.3073 59.627 50.5633C59.7213 50.1862 59.8156 49.8327 59.9098 49.5028C60.0512 49.1257 60.1691 48.7487 60.2633 48.3716C60.3576 48.0888 60.4047 47.8295 60.4047 47.5939C60.4047 47.3111 60.1691 47.1225 59.6977 47.0283C59.3678 46.934 59.2028 46.769 59.2028 46.5333C59.2499 46.2505 59.4149 46.0384 59.6977 45.897C59.8863 45.8028 60.1691 45.7085 60.5461 45.6142C60.9232 45.52 61.4652 45.4257 62.1723 45.3314C62.3608 45.5671 62.5493 45.7792 62.7379 45.9677C62.9735 46.1563 63.3035 46.2977 63.7277 46.3919C64.2462 46.4862 64.6468 46.7219 64.9296 47.099C65.2596 47.476 65.4952 47.9238 65.6366 48.4423C65.778 48.8194 65.9194 49.1964 66.0608 49.5735C66.2022 49.9506 66.3436 50.3512 66.485 50.7754C66.5793 50.5398 66.6264 50.3512 66.6264 50.2098C66.6736 50.0684 66.6736 49.8799 66.6264 49.6442C66.6264 49.4085 66.5557 49.1257 66.4143 48.7958C66.2729 48.4187 66.0608 47.9002 65.778 47.2404C66.108 47.476 66.3672 47.6881 66.5557 47.8767C66.7914 48.0652 67.0742 48.3009 67.4042 48.5837C67.2156 48.2066 67.0742 47.9238 66.9799 47.7353C66.8857 47.4996 66.7914 47.2875 66.6971 47.099C67.1685 47.1461 67.4513 47.2168 67.5456 47.3111C67.6398 47.3582 67.7105 47.5939 67.7577 48.0181C67.8048 48.6779 67.9462 49.2671 68.1819 49.7856C68.4647 50.3041 68.7475 50.8226 69.0303 51.341C69.8316 52.8022 70.5386 54.2869 71.1513 55.7952C71.7641 57.2564 72.3061 58.7647 72.7775 60.3201C73.1545 61.5456 73.5316 62.7475 73.9087 63.9259C74.3329 65.0571 74.7571 66.2354 75.1813 67.4609C75.3698 67.9794 75.6055 68.3329 75.8883 68.5214C76.2182 68.6628 76.666 68.7335 77.2316 68.7335C78.2686 68.6393 79.2348 68.8514 80.1304 69.3699C79.4705 69.6527 78.8342 69.6998 78.2215 69.5113C77.6558 69.2756 77.0667 69.3463 76.4539 69.7234C76.9253 70.0062 77.3966 70.2418 77.8679 70.4304C77.3966 70.6189 76.9724 70.7839 76.5953 70.9253C76.6425 71.2552 76.6425 71.5616 76.5953 71.8444C76.5953 72.1272 76.6425 72.41 76.7367 72.6928C76.9724 73.5412 77.2316 74.3896 77.5144 75.2381C77.7972 76.0393 78.0565 76.8642 78.2922 77.7126C78.7164 79.0324 79.1406 80.3521 79.5648 81.6719C79.989 82.9445 80.4368 84.2407 80.9081 85.5604C80.9081 85.7019 80.9552 85.8197 81.0495 85.914ZM61.6774 67.3902C61.7245 67.3902 61.7481 67.3902 61.7481 67.3902C61.7481 67.3431 61.7716 67.3195 61.8188 67.3195C62.1958 65.9998 62.5729 64.7036 62.95 63.431C63.3742 62.1112 63.7984 60.7914 64.2226 59.4717C64.2697 59.3303 64.2933 59.0946 64.2933 58.7647L63.4449 55.5831C63.2092 55.8188 63.0442 56.0545 62.95 56.2901C62.8557 56.4787 62.7614 56.6908 62.6672 56.9264C62.62 57.0678 62.5729 57.2328 62.5258 57.4213C62.5258 57.5627 62.4786 57.7277 62.3844 57.9163C62.243 58.1991 62.1016 58.4819 61.9602 58.7647C61.8188 59.0003 61.7009 59.2596 61.6067 59.5424C61.5124 59.9195 61.4181 60.2965 61.3238 60.6736C61.2767 61.0035 61.206 61.357 61.1117 61.7341C61.0175 62.2055 60.8525 62.8418 60.6168 63.6431C60.4283 64.4443 60.2162 65.2456 59.9805 66.0469C59.792 66.8482 59.6034 67.6023 59.4149 68.3093C59.2264 68.9692 59.1085 69.417 59.0614 69.6527C59.4385 69.5584 59.7684 69.5113 60.0512 69.5113C60.3812 69.4641 60.7111 69.3934 61.041 69.2992C61.1353 69.252 61.2296 69.1813 61.3238 69.0871C61.4181 68.8042 61.4888 68.5214 61.5359 68.2386C61.5831 67.9558 61.6302 67.673 61.6774 67.3902ZM62.3137 68.6628C63.1621 69.0399 63.9869 69.1106 64.7882 68.8749C65.5895 68.6393 66.4379 68.4743 67.3335 68.38C66.4379 65.7405 65.5659 63.1953 64.7175 60.7443C64.4347 61.687 64.0812 62.559 63.657 63.3602C63.2328 64.1615 62.9735 65.0335 62.8793 65.9762C62.9264 65.9762 62.9735 65.9998 63.0207 66.0469C63.0678 66.0469 63.1149 66.0469 63.1621 66.0469C63.2092 65.9055 63.2563 65.7641 63.3035 65.6227C63.3506 65.4813 63.3978 65.3163 63.4449 65.1278C63.7748 65.4106 63.9162 65.6698 63.8691 65.9055C63.8691 66.094 63.7984 66.2826 63.657 66.4711C63.5156 66.6596 63.3742 66.8717 63.2328 67.1074C63.0914 67.296 63.0914 67.5081 63.2328 67.7437C63.2799 67.7909 63.1621 67.9087 62.8793 68.0972C62.6436 68.2858 62.4551 68.4743 62.3137 68.6628ZM72.5653 67.3902C72.4711 67.1074 72.3768 66.8246 72.2825 66.5418C72.2354 66.259 72.1647 65.9526 72.0704 65.6227C72.3061 65.7641 72.4711 65.9762 72.5653 66.259C72.6596 66.4947 72.7539 66.7303 72.8482 66.966C72.9424 67.2017 73.0603 67.3902 73.2017 67.5316C73.3902 67.673 73.673 67.7202 74.0501 67.673C73.9087 67.3431 73.7673 67.0367 73.6259 66.7539C73.4845 66.424 73.4138 66.094 73.4138 65.7641C73.4138 65.387 73.3666 65.0806 73.2724 64.845C73.1781 64.6093 73.0367 64.3736 72.8482 64.138C72.7068 63.9023 72.6361 63.6431 72.6361 63.3602C72.6361 63.0774 72.5889 62.7946 72.4946 62.5118C72.4946 62.4647 72.4711 62.4411 72.4239 62.4411C72.4239 62.4411 72.4239 62.4176 72.4239 62.3704C72.094 61.5692 71.7641 60.7679 71.4341 59.9666C71.1513 59.1653 70.8685 58.364 70.5857 57.5627C70.35 56.8557 70.1379 56.1487 69.9494 55.4417C69.7609 54.6876 69.5488 53.9805 69.3131 53.3207C69.1717 52.9436 68.9832 52.6137 68.7475 52.3309C68.5118 52.0009 68.2761 51.671 68.0405 51.341C67.8519 51.341 67.687 51.3646 67.5456 51.4117C67.5456 51.6003 67.522 51.7888 67.4749 51.9773C67.4749 52.1659 67.4984 52.378 67.5456 52.6137C67.7812 53.5563 67.9933 54.499 68.1819 55.4417C68.3704 56.3844 68.6061 57.3271 68.8889 58.2698C69.3131 59.6838 69.7609 61.0978 70.2322 62.5118C70.7035 63.8787 71.1513 65.2692 71.5755 66.6832C71.6698 66.9189 71.7641 67.1074 71.8583 67.2488C71.9997 67.3902 72.2354 67.4374 72.5653 67.3902ZM74.4036 73.1877C74.3093 72.9049 74.2386 72.6928 74.1915 72.5514C74.1443 72.3629 74.0736 72.1979 73.9794 72.0565C73.7437 72.2922 73.6023 72.5043 73.5552 72.6928C73.5552 72.8814 73.838 73.0463 74.4036 73.1877ZM74.4036 71.4202L75.252 71.2081C75.2049 71.161 75.1813 71.0903 75.1813 70.996C75.0399 70.996 74.8985 71.0196 74.7571 71.0667C74.6157 71.0667 74.4743 71.0667 74.3329 71.0667C74.3329 71.161 74.3329 71.2317 74.3329 71.2788C74.38 71.3259 74.4036 71.3731 74.4036 71.4202ZM76.1711 77.7126C76.124 77.7597 76.0768 77.7833 76.0297 77.7833C75.9826 77.7833 75.9119 77.8069 75.8176 77.854C75.7705 77.6183 75.7233 77.3591 75.6762 77.0763C75.6762 76.7935 75.6291 76.5343 75.5348 76.2986C75.6291 76.5343 75.7233 76.7699 75.8176 77.0056C75.959 77.2413 76.0768 77.4769 76.1711 77.7126ZM99.291 64.2087C99.3853 64.1615 99.5267 64.0437 99.7152 63.8552C99.8095 63.9023 99.8566 63.9259 99.8566 63.9259C99.7623 64.0201 99.6916 64.1144 99.6445 64.2087C99.6445 64.2558 99.5974 64.3265 99.5031 64.4208L99.291 64.2087ZM109.896 81.884L110.108 81.6719C110.203 81.719 110.273 81.7661 110.32 81.8133C110.415 81.8133 110.509 81.8604 110.603 81.9547L110.462 82.0961C110.368 82.0961 110.273 82.0725 110.179 82.0254C110.085 81.9783 109.99 81.9311 109.896 81.884ZM112.3 75.4502C112.441 75.7801 112.489 76.0629 112.441 76.2986C112.347 76.7699 112.229 77.2413 112.088 77.7126C111.994 78.1368 111.899 78.561 111.805 78.9852C111.664 79.4094 111.522 79.6451 111.381 79.6922C111.287 79.7394 110.98 79.6922 110.462 79.5508C110.462 79.7394 110.485 79.9043 110.532 80.0457C110.58 80.14 110.58 80.2579 110.532 80.3993C110.532 80.4935 110.485 80.6349 110.391 80.8235C110.344 81.012 110.297 81.1063 110.25 81.1063C109.778 81.0591 109.472 81.2005 109.331 81.5305C109.236 81.8133 109.118 82.0961 108.977 82.3789C108.836 82.5203 108.789 82.7795 108.836 83.1566C109.213 82.8738 109.496 82.6381 109.684 82.4496C109.731 82.5439 109.778 82.6381 109.825 82.7324C109.825 82.7324 109.849 82.756 109.896 82.8031C108.199 85.6783 106.408 87.6344 104.523 88.6713C102.638 89.6611 100.894 90.1796 99.291 90.2267C97.6884 90.2739 96.3451 90.0618 95.261 89.5904C94.1769 89.1662 93.5877 88.9541 93.4935 88.9541C93.2107 88.907 93.0221 89.0248 92.9279 89.3076C92.8336 89.5904 92.6215 89.5904 92.2916 89.3076C92.0559 89.1191 91.7966 89.0955 91.5138 89.2369C91.2782 89.3312 91.1132 89.1898 91.0189 88.8127C90.9718 88.907 90.7833 89.1191 90.4533 89.449C90.3591 88.7891 90.2648 88.1764 90.1705 87.6108C90.1234 86.998 90.0527 86.3617 89.9584 85.7019C89.7699 86.456 89.7227 87.1866 89.817 87.8936C89.9584 88.5535 89.8406 89.2841 89.4635 90.0853C89.3692 89.7554 89.2985 89.4962 89.2514 89.3076C89.2514 89.1662 89.2278 89.0012 89.1807 88.8127L87.9081 80.3286C87.8138 79.8101 87.7431 79.2916 87.696 78.7731C87.696 78.2075 87.6488 77.6655 87.5546 77.147C87.4603 76.5814 87.4839 76.0393 87.6253 75.5209C87.7667 75.0024 87.8374 74.4839 87.8374 73.9654C87.7902 73.447 87.7667 72.9285 87.7667 72.41C87.7667 71.8915 87.7667 71.3731 87.7667 70.8546C87.8138 70.289 87.8609 69.7469 87.9081 69.2285C87.9552 68.6628 88.0023 68.1208 88.0495 67.6023C88.1909 65.4342 88.3323 63.2895 88.4737 61.1685C88.6151 59.0475 88.7565 56.9264 88.8979 54.8054C88.8036 54.8054 88.7329 54.8054 88.6858 54.8054C88.6858 54.7583 88.6622 54.7347 88.6151 54.7347C88.5208 55.5831 88.4266 56.4315 88.3323 57.2799C88.2852 58.0812 88.2144 58.9061 88.1202 59.7545H87.8374C87.8845 59.0475 87.9081 58.364 87.9081 57.7041C87.9552 56.9971 88.0023 56.3137 88.0495 55.6538C88.0495 54.9939 88.073 54.3341 88.1202 53.6742C88.1673 52.9672 88.1673 52.2837 88.1202 51.6238C88.073 50.964 88.0023 50.3041 87.9081 49.6442C87.8138 48.9372 87.7667 48.2302 87.7667 47.5232C87.8609 47.7588 87.9316 47.9709 87.9788 48.1595C88.0259 48.3009 88.0966 48.4423 88.1909 48.5837C88.2852 48.7722 88.403 48.9136 88.5444 49.0079C88.6858 49.1022 88.8272 49.22 88.9686 49.3614C89.0629 49.0786 89.0629 48.8194 88.9686 48.5837C88.8743 48.3009 88.7801 48.0416 88.6858 47.806C88.5915 47.5232 88.5208 47.2639 88.4737 47.0283C88.4737 46.7454 88.5444 46.4626 88.6858 46.1798C89.0629 46.6983 89.3457 47.0283 89.5342 47.1697C89.7227 47.3111 90.0291 47.3346 90.4533 47.2404L89.817 46.604C90.0527 46.6512 90.2412 46.6747 90.3826 46.6747C90.524 46.6747 90.689 46.6747 90.8775 46.6747C90.9247 46.8162 91.0425 47.0283 91.231 47.3111C91.2782 47.4053 91.3017 47.4996 91.3017 47.5939C91.3489 47.6881 91.4196 47.7824 91.5138 47.8767C92.4094 48.2537 93.2814 48.348 94.1298 48.1595C95.0253 47.9238 95.9209 47.7824 96.8164 47.7353C98.1833 47.6881 99.5738 47.8767 100.988 48.3009C101.365 48.3951 101.718 48.513 102.048 48.6544C102.378 48.7958 102.732 48.9372 103.109 49.0786C103.297 49.1729 103.462 49.2907 103.604 49.4321C103.745 49.5735 103.887 49.6913 104.028 49.7856C103.887 50.0213 103.769 50.2098 103.674 50.3512C103.627 50.4926 103.557 50.634 103.462 50.7754C103.274 50.6812 103.109 50.5162 102.967 50.2805C102.826 49.9977 102.567 49.9741 102.19 50.2098C102.897 51.1525 103.462 52.1423 103.887 53.1793C104.358 54.1691 104.641 55.2767 104.735 56.5022C104.782 56.2666 104.806 56.0309 104.806 55.7952C104.853 55.5124 104.924 55.2296 105.018 54.9468C105.348 55.1353 105.536 55.3003 105.583 55.4417C105.631 55.536 105.631 55.8659 105.583 56.4315C105.631 56.1016 105.678 55.7952 105.725 55.5124C105.772 55.2296 105.795 54.9468 105.795 54.664C105.795 54.5226 105.725 54.2634 105.583 53.8863C105.442 53.4621 105.301 53.0379 105.159 52.6137C105.018 52.1423 104.876 51.7181 104.735 51.341C104.641 50.9168 104.617 50.634 104.664 50.4926C104.711 50.7283 104.806 50.8933 104.947 50.9875C105.136 51.0818 105.324 51.2468 105.513 51.4824C105.748 51.671 105.96 51.9538 106.149 52.3309C106.385 52.7079 106.55 53.2971 106.644 54.0984C106.738 54.1455 106.762 54.4283 106.715 54.9468C106.715 55.4653 106.832 55.7481 107.068 55.7952C106.974 56.4551 106.856 57.115 106.715 57.7748C106.62 58.4347 106.479 59.0946 106.29 59.7545C106.196 60.1316 106.031 60.4851 105.795 60.815C105.607 61.1449 105.395 61.4277 105.159 61.6634C104.782 62.0876 104.381 62.5118 103.957 62.936C103.533 63.3131 103.109 63.6902 102.685 64.0673C102.402 64.3029 102.095 64.5622 101.766 64.845C101.483 65.1278 101.153 65.4577 100.776 65.8348C101.294 65.8819 101.742 65.9055 102.119 65.9055C102.543 65.9055 102.944 65.9291 103.321 65.9762C104.217 66.1176 104.994 66.424 105.654 66.8953C106.55 67.4609 107.398 68.0501 108.199 68.6628C109.001 69.2756 109.708 70.0297 110.32 70.9253C110.556 71.3024 110.768 71.7266 110.957 72.1979C111.192 72.6221 111.404 73.0463 111.593 73.4705C111.829 73.989 112.064 74.6489 112.3 75.4502ZM89.1807 60.6736C88.9922 61.8991 88.8508 63.1246 88.7565 64.3501C88.6622 65.5284 88.7094 66.7303 88.8979 67.9558C88.945 66.7303 88.9922 65.5284 89.0393 64.3501C89.0864 63.1246 89.1336 61.8991 89.1807 60.6736ZM88.5444 70.5718C88.1673 73.117 88.073 75.5916 88.2616 77.9954C88.4501 80.3993 89.0157 82.7795 89.9584 85.1362C89.8641 84.5235 89.7463 83.9343 89.6049 83.3687C89.5106 82.8031 89.4399 82.2139 89.3928 81.6012C89.2985 80.6585 89.2043 79.7394 89.11 78.8438C89.0157 77.9011 88.945 76.9585 88.8979 76.0158C88.8508 75.2145 88.8272 74.4368 88.8272 73.6826C88.8743 72.9285 88.8743 72.1508 88.8272 71.3495C88.8272 71.2552 88.8036 71.161 88.7565 71.0667C88.7094 70.9253 88.6387 70.7603 88.5444 70.5718ZM107.28 69.9355C106.903 69.417 106.361 68.9456 105.654 68.5214C104.994 68.0972 104.334 67.8144 103.674 67.673C104.287 68.0501 104.876 68.4507 105.442 68.8749C106.008 69.2992 106.62 69.6527 107.28 69.9355ZM96.4629 66.1176C97.0285 66.1176 97.6177 66.0233 98.2305 65.8348C98.8903 65.6463 99.4795 65.387 99.998 65.0571C100.564 64.7271 101.035 64.3736 101.412 63.9966C101.789 63.6195 102.048 63.266 102.19 62.936C102.048 62.7946 101.907 62.7711 101.766 62.8653C101.624 62.9596 101.483 63.0539 101.341 63.1481C101.2 63.2424 101.059 63.2895 100.917 63.2895C100.776 63.2424 100.634 63.0539 100.493 62.7239C100.163 62.9125 99.833 63.0774 99.5031 63.2188C99.1731 63.3602 98.8432 63.5252 98.5133 63.7138C98.2305 63.9023 97.9477 64.0908 97.6649 64.2794C97.4292 64.4208 97.1699 64.5857 96.8871 64.7743C96.6515 64.8685 96.3922 64.9864 96.1094 65.1278C95.8738 65.2221 95.6145 65.3163 95.3317 65.4106C95.3788 65.4577 95.4024 65.5049 95.4024 65.552C95.4024 65.552 95.426 65.5756 95.4731 65.6227C95.7559 65.4342 96.0387 65.4577 96.3215 65.6934C96.6515 65.8819 96.9578 65.7641 97.2406 65.3399C97.2878 65.4342 97.3349 65.5049 97.382 65.552C97.4292 65.5991 97.4763 65.6698 97.5235 65.7641C97.2878 65.8112 96.9343 65.9291 96.4629 66.1176ZM95.6145 66.3297V66.1176C95.426 66.1647 95.1432 66.1883 94.7661 66.1883V66.3297H95.6145ZM104.806 59.3303C104.617 59.5659 104.452 59.7781 104.311 59.9666C104.169 60.1551 104.028 60.3437 103.887 60.5322C103.981 60.6265 104.052 60.6736 104.099 60.6736C104.193 60.4379 104.334 60.2494 104.523 60.108C104.759 59.9666 104.853 59.7074 104.806 59.3303ZM102.967 52.8258C102.638 51.8831 102.213 51.2468 101.695 50.9168C101.223 50.5869 100.469 50.4455 99.4324 50.4926C99.998 50.8697 100.564 51.2703 101.129 51.6945C101.742 52.0716 102.355 52.4487 102.967 52.8258ZM92.9279 59.1889C92.8336 60.0844 92.7629 60.98 92.7158 61.8755C92.6686 62.7711 92.5979 63.6666 92.5037 64.5622C92.5037 64.845 92.5037 65.1513 92.5037 65.4813C92.5508 65.7641 92.5979 66.094 92.6451 66.4711C92.8807 66.3768 93.0928 66.3297 93.2814 66.3297C93.517 66.3297 93.7527 66.2826 93.9884 66.1883C93.7999 66.0469 93.6349 65.9291 93.4935 65.8348C93.3992 65.6934 93.3049 65.5756 93.2107 65.4813C93.4935 65.3399 93.7527 65.1985 93.9884 65.0571C94.2712 64.9157 94.5304 64.7743 94.7661 64.6329C94.9546 64.5386 95.1432 64.4679 95.3317 64.4208C95.5202 64.3736 95.7324 64.4208 95.968 64.5622C96.0623 64.6564 96.1801 64.7036 96.3215 64.7036C96.5101 64.7036 96.6986 64.7271 96.8871 64.7743C96.7929 64.3501 96.8636 64.0201 97.0992 63.7845C97.3349 63.5488 97.5942 63.3838 97.877 63.2895C98.2069 63.1953 98.4661 63.0539 98.6547 62.8653C98.8432 62.6297 99.0553 62.394 99.291 62.1583C99.4795 62.0169 99.6209 61.852 99.7152 61.6634C99.8095 61.4277 99.7623 61.1921 99.5738 60.9564C100.328 60.4851 101.011 59.9666 101.624 59.401C102.237 58.7882 102.685 58.0812 102.967 57.2799C103.203 56.4787 103.25 55.6774 103.109 54.8761C102.967 54.0748 102.567 53.3442 101.907 52.6844C102.048 53.2028 102.19 53.6977 102.331 54.1691C102.473 54.5933 102.59 55.0411 102.685 55.5124C102.779 56.0309 102.661 56.4315 102.331 56.7143C102.284 56.4787 102.26 56.2666 102.26 56.078C102.26 55.8423 102.237 55.6067 102.19 55.371C101.954 53.0143 100.658 51.7181 98.3012 51.4824C97.8298 51.4353 97.3585 51.4353 96.8871 51.4824C96.4629 51.4824 96.0152 51.4589 95.5438 51.4117C94.6483 51.3646 93.8234 51.5531 93.0693 51.9773V55.5124C93.0693 56.1723 93.0457 56.8086 92.9986 57.4213C92.9986 57.987 92.975 58.5761 92.9279 59.1889ZM107.846 75.9451C108.176 75.2852 108.223 74.6489 107.987 74.0361C107.752 73.3763 107.398 72.7635 106.927 72.1979C106.832 72.1036 106.715 72.0801 106.573 72.1272C106.479 72.1272 106.314 72.1036 106.078 72.0565C106.267 72.2922 106.432 72.4807 106.573 72.6221C106.715 72.7164 106.762 72.8107 106.715 72.9049C106.62 73.2349 106.644 73.4705 106.785 73.6119C106.974 73.7533 107.162 73.9183 107.351 74.1068C107.021 74.2011 106.88 74.3425 106.927 74.5311C107.021 74.6725 107.115 74.8374 107.21 75.026C107.445 75.403 107.563 75.6387 107.563 75.733C107.563 75.8272 107.374 76.0158 106.997 76.2986C106.762 76.4871 106.55 76.6992 106.361 76.9349C106.173 77.1234 105.937 77.3355 105.654 77.5712H105.23C105.324 77.3827 105.466 77.147 105.654 76.8642C106.267 75.9215 106.573 75.1202 106.573 74.4603C106.573 73.7533 106.267 72.9521 105.654 72.0565C105.466 71.868 105.348 71.703 105.301 71.5616C105.489 71.4673 105.631 71.3731 105.725 71.2788C105.583 71.0903 105.442 70.9017 105.301 70.7132C105.159 70.5246 104.971 70.3832 104.735 70.289C104.264 69.9119 103.769 69.6291 103.25 69.4406C102.779 69.2049 102.213 69.1813 101.553 69.3699C101.176 69.4641 100.752 69.4877 100.281 69.4406C99.8566 69.3934 99.4324 69.417 99.0082 69.5113C98.584 69.6055 98.1833 69.582 97.8063 69.4406C97.4292 69.2992 97.005 69.2756 96.5336 69.3699C95.7795 69.5113 95.0489 69.6527 94.3419 69.7941C93.6349 69.9355 93.1635 70.4775 92.9279 71.4202C92.4094 71.7973 92.1266 72.2215 92.0795 72.6928C92.0795 73.117 92.0795 73.5884 92.0795 74.1068C91.9852 75.7094 92.0559 77.2884 92.2916 78.8438C92.5744 80.3993 92.8807 81.9311 93.2107 83.4394C93.2578 83.5808 93.3285 83.7458 93.4228 83.9343C93.517 84.0757 93.6349 84.17 93.7763 84.2171C94.1534 84.4057 94.5069 84.5942 94.8368 84.7827C95.1667 84.9241 95.5909 84.9477 96.1094 84.8534C96.6279 84.7592 97.1464 84.7592 97.6649 84.8534C98.2305 84.9477 98.7725 84.9713 99.291 84.9241C100.139 84.8299 100.917 84.6413 101.624 84.3585C102.378 84.0757 103.062 83.6044 103.674 82.9445C104.57 81.8604 105.348 80.7292 106.008 79.5508C106.667 78.3725 107.28 77.1706 107.846 75.9451ZM101.766 68.2386C103.085 68.7571 104.287 69.417 105.371 70.2183C106.503 71.0196 107.469 72.0329 108.27 73.2584C108.034 72.5985 107.657 71.9858 107.139 71.4202C106.62 70.8075 106.055 70.2654 105.442 69.7941C104.829 69.3227 104.193 68.9456 103.533 68.6628C102.92 68.38 102.331 68.2386 101.766 68.2386ZM108.482 71.703C108.529 71.703 108.553 71.703 108.553 71.703C108.6 71.6559 108.647 71.6323 108.694 71.6323C108.553 71.3966 108.411 71.161 108.27 70.9253C108.176 70.6425 108.082 70.3832 107.987 70.1476C107.799 70.2418 107.681 70.3125 107.634 70.3597C107.775 70.5953 107.917 70.831 108.058 71.0667C108.199 71.2552 108.341 71.4673 108.482 71.703ZM104.523 79.4094C104.664 79.0324 104.782 78.7024 104.876 78.4196C105.018 78.1368 105.136 77.854 105.23 77.5712C105.418 77.854 105.583 78.0661 105.725 78.2075L104.523 79.4094ZM102.331 56.785V56.7143V56.785ZM101.624 58.1284C101.577 58.0341 101.506 57.9398 101.412 57.8455C101.553 57.657 101.695 57.492 101.836 57.3506C101.978 57.1621 102.143 56.9736 102.331 56.785C102.331 56.9264 102.331 57.0914 102.331 57.2799C102.378 57.4213 102.355 57.5392 102.26 57.6334C102.213 57.7277 102.119 57.822 101.978 57.9163C101.836 57.9634 101.718 58.0341 101.624 58.1284ZM146.841 60.2494C146.794 60.2494 146.747 60.273 146.7 60.3201C146.7 60.3201 146.676 60.3201 146.629 60.3201C146.535 59.943 146.417 59.5424 146.275 59.1182C146.181 58.694 146.087 58.2933 145.992 57.9163C146.134 57.9163 146.252 57.8927 146.346 57.8455C146.582 58.2226 146.7 58.6233 146.7 59.0475C146.7 59.4717 146.747 59.8723 146.841 60.2494ZM139.064 48.9372C138.969 49.22 138.805 49.385 138.569 49.4321C138.38 49.4792 138.121 49.4557 137.791 49.3614C137.885 49.0786 137.98 48.7958 138.074 48.513C138.168 48.2302 138.262 47.9709 138.357 47.7353C138.451 47.9238 138.545 48.1123 138.64 48.3009C138.781 48.4894 138.922 48.7015 139.064 48.9372ZM141.326 48.6544C141.562 48.8901 141.75 49.1022 141.892 49.2907C142.08 49.4792 142.269 49.6678 142.457 49.8563C143.07 50.4219 143.518 51.0818 143.801 51.8359C144.084 52.543 144.413 53.25 144.791 53.957C144.838 54.0512 144.814 54.1691 144.72 54.3105C144.673 54.4048 144.649 54.499 144.649 54.5933C144.649 54.8761 144.673 55.0882 144.72 55.2296C144.484 55.2767 144.319 55.206 144.225 55.0175C144.131 54.829 144.036 54.664 143.942 54.5226C143.754 54.1455 143.565 53.792 143.377 53.4621C143.235 53.085 143.07 52.7079 142.882 52.3309C142.646 51.8595 142.387 51.4353 142.104 51.0582C141.868 50.634 141.562 50.2569 141.185 49.927C141.091 49.8327 140.996 49.7149 140.902 49.5735C140.808 49.4321 140.713 49.2671 140.619 49.0786C140.808 48.9843 141.043 48.8429 141.326 48.6544ZM118.49 75.4502C118.49 75.3559 118.49 75.2852 118.49 75.2381C118.537 75.1438 118.56 75.0495 118.56 74.9553C118.56 75.1438 118.537 75.3088 118.49 75.4502ZM145.356 56.5729C144.979 56.3844 144.767 56.243 144.72 56.1487C144.673 56.0073 144.673 55.7009 144.72 55.2296C144.814 55.3239 144.861 55.371 144.861 55.371H145.215C145.262 55.6067 145.285 55.8188 145.285 56.0073C145.285 56.1487 145.309 56.3373 145.356 56.5729ZM142.599 86.1261C142.599 86.2203 142.622 86.291 142.67 86.3382H141.68C141.915 86.291 142.222 86.2203 142.599 86.1261ZM142.952 84.9948C143.141 84.6178 143.306 84.3585 143.447 84.2171C143.636 84.0286 143.942 84.0757 144.366 84.3585C144.131 84.4528 143.919 84.5471 143.73 84.6413C143.542 84.7356 143.282 84.8534 142.952 84.9948ZM141.68 86.3382H141.609H141.68ZM147.265 61.5927C147.265 62.0641 147.289 62.5354 147.336 63.0067C147.383 63.431 147.383 63.8787 147.336 64.3501C147.336 65.717 147.265 67.1074 147.124 68.5214C147.077 68.8514 147.029 69.1813 146.982 69.5113C146.935 69.7941 146.864 70.1004 146.77 70.4304C146.582 71.1374 146.44 71.868 146.346 72.6221C146.299 73.3291 146.228 74.0361 146.134 74.7432C146.04 75.9686 145.945 77.1706 145.851 78.3489C145.757 79.5273 145.545 80.7056 145.215 81.884C145.168 82.1197 145.097 82.2846 145.003 82.3789C144.956 82.426 144.791 82.4967 144.508 82.591C144.649 82.0725 144.791 81.554 144.932 81.0356C145.073 80.47 145.191 79.9043 145.285 79.3387C145.38 78.4432 145.45 77.5712 145.498 76.7228C145.592 75.8272 145.686 74.9317 145.78 74.0361C145.828 73.5177 145.851 73.0228 145.851 72.5514C145.898 72.0801 145.969 71.6087 146.063 71.1374C146.393 69.7705 146.605 68.38 146.7 66.966C146.794 65.552 146.864 64.138 146.912 62.7239V61.5927H147.265ZM138.003 47.5939C138.098 47.641 138.145 47.6646 138.145 47.6646C138.192 47.6646 138.262 47.6881 138.357 47.7353C138.262 47.641 138.145 47.5939 138.003 47.5939ZM137.013 47.2404C136.731 47.1461 136.448 47.0754 136.165 47.0283C135.882 46.9811 135.623 46.9104 135.387 46.8162H135.317H135.387C135.623 46.8162 135.882 46.7926 136.165 46.7454C136.448 46.6983 136.731 46.6983 137.013 46.7454C137.202 46.7926 137.391 46.8397 137.579 46.8869C137.815 46.934 137.933 47.1461 137.933 47.5232L138.003 47.5939C137.815 47.4996 137.65 47.4289 137.508 47.3818C137.367 47.3346 137.202 47.2875 137.013 47.2404ZM141.75 83.3687C141.373 83.9815 140.949 84.5235 140.478 84.9948C140.006 85.4662 139.441 85.8433 138.781 86.1261C138.31 86.3146 137.862 86.5267 137.438 86.7624C137.013 86.998 136.589 87.2573 136.165 87.5401C136.024 87.6344 135.906 87.7993 135.812 88.035C135.764 88.2235 135.694 88.3885 135.599 88.5299C135.222 88.577 134.869 88.6242 134.539 88.6713C134.256 88.6713 133.926 88.6713 133.549 88.6713C133.078 88.6713 132.606 88.6713 132.135 88.6713C131.711 88.6713 131.263 88.6477 130.792 88.6006C130.179 88.5063 129.731 88.6006 129.448 88.8834C128.789 89.4019 128.081 89.449 127.327 89.0248C127.139 88.8834 126.95 88.742 126.762 88.6006C126.573 88.4592 126.314 88.4828 125.984 88.6713C125.937 88.7184 125.843 88.7184 125.701 88.6713C125.56 88.577 125.442 88.4828 125.348 88.3885C124.971 87.9643 124.594 87.5401 124.216 87.1159C123.839 86.6917 123.462 86.2439 123.085 85.7726C122.991 85.6312 122.873 85.4662 122.732 85.2776C122.638 85.0891 122.543 84.9006 122.449 84.712C122.355 84.5235 122.284 84.4057 122.237 84.3585C121.86 84.2171 121.601 84.005 121.459 83.7222C121.365 83.3923 121.223 83.1095 121.035 82.8738C120.564 82.2139 120.187 81.5305 119.904 80.8235C119.668 80.0693 119.409 79.3387 119.126 78.6317C118.937 78.1132 118.772 77.5948 118.631 77.0763C118.49 76.5578 118.443 76.0158 118.49 75.4502C118.584 75.5916 118.796 75.6623 119.126 75.6623C119.032 75.5209 118.961 75.403 118.914 75.3088C118.867 75.1674 118.82 75.0495 118.772 74.9553C119.055 74.7667 119.102 74.6018 118.914 74.4603C118.678 74.3189 118.537 74.154 118.49 73.9654C118.443 73.7769 118.419 73.5648 118.419 73.3291C118.513 72.8107 118.513 72.3157 118.419 71.8444C118.372 71.3731 118.372 70.8782 118.419 70.3597C118.513 69.417 118.49 68.4979 118.348 67.6023C118.254 66.7068 118.301 65.7877 118.49 64.845C118.584 64.4679 118.584 64.0673 118.49 63.6431C118.395 63.2188 118.49 62.8182 118.772 62.4411C118.772 62.394 118.749 62.3233 118.702 62.229C118.655 62.1348 118.608 62.0405 118.56 61.9462C118.466 61.6634 118.395 61.4042 118.348 61.1685C118.301 60.8857 118.372 60.5793 118.56 60.2494C118.655 60.0609 118.702 59.8488 118.702 59.6131C118.702 59.3303 118.702 59.071 118.702 58.8354C118.655 58.0341 118.678 57.2564 118.772 56.5022C118.867 55.7481 119.15 55.0411 119.621 54.3812C119.527 53.8627 119.644 53.4621 119.974 53.1793C120.351 52.8493 120.564 52.4958 120.611 52.1187C120.799 52.0716 120.941 52.048 121.035 52.048C121.176 52.048 121.294 52.0245 121.388 51.9773C121.388 51.8359 121.318 51.5531 121.176 51.1289C121.789 50.3748 122.402 49.5499 123.015 48.6544C123.109 48.8429 123.18 49.0315 123.227 49.22C123.415 48.9372 123.58 48.678 123.722 48.4423C123.863 48.2066 123.887 47.9238 123.792 47.5939C123.745 47.3582 123.863 47.0518 124.146 46.6747C124.523 46.2505 124.924 45.8735 125.348 45.5435C125.819 45.2136 126.338 44.9779 126.903 44.8365C127.28 44.7422 127.61 44.6008 127.893 44.4123C128.223 44.2238 128.576 44.1766 128.953 44.2709C129.048 44.2709 129.095 44.2473 129.095 44.2002C129.236 43.7289 129.496 43.4461 129.873 43.3518C130.25 43.2575 130.627 43.1397 131.004 42.9983C131.522 42.8097 132.017 42.6448 132.489 42.5034C133.007 42.362 133.525 42.2441 134.044 42.1499C135.882 41.8671 137.579 42.1263 139.134 42.9276C139.37 43.0218 139.488 43.069 139.488 43.069C140.195 42.9276 140.761 43.0926 141.185 43.5639C141.609 44.0352 142.104 44.3652 142.67 44.5537C142.764 44.6008 142.834 44.7187 142.882 44.9072C142.976 45.0486 143.07 45.2136 143.164 45.4021C142.787 45.4493 142.457 45.3079 142.175 44.9779C141.939 44.648 141.585 44.6715 141.114 45.0486L141.963 45.3314C141.774 45.3786 141.562 45.4493 141.326 45.5435C141.279 45.5435 141.208 45.5671 141.114 45.6142C141.303 46.1327 141.232 46.4391 140.902 46.5333C140.572 46.6276 140.289 46.8162 140.054 47.099C140.148 47.1932 140.195 47.4053 140.195 47.7353C140.195 47.7353 140.148 47.7824 140.054 47.8767C139.677 47.5939 139.394 47.4053 139.205 47.3111L139.629 46.8869C139.394 46.7454 139.182 46.6276 138.993 46.5333C138.805 46.3919 138.616 46.2741 138.427 46.1798C138.192 46.0856 137.98 46.062 137.791 46.1091C137.65 46.1563 137.485 46.227 137.296 46.3212C137.202 46.0384 137.061 45.9206 136.872 45.9677C136.731 46.0149 136.566 46.0856 136.377 46.1798C136.189 46.227 136 46.2505 135.812 46.2505C135.67 46.2505 135.482 46.2741 135.246 46.3212C134.822 46.3684 134.515 46.4391 134.327 46.5333C134.138 46.5805 133.832 46.7926 133.408 47.1697C133.785 47.0754 134.115 47.0283 134.397 47.0283C134.727 46.9811 135.034 46.9104 135.317 46.8162C135.175 46.9104 134.916 47.0518 134.539 47.2404C133.596 47.476 132.724 47.8295 131.923 48.3009C131.122 48.7722 130.297 49.22 129.448 49.6442C129.118 49.8327 128.789 49.9977 128.459 50.1391C128.129 50.2805 127.846 50.5162 127.61 50.8461C127.374 51.0818 127.233 51.2939 127.186 51.4824C127.186 51.671 127.139 51.8831 127.045 52.1187C126.667 52.6372 126.29 53.2028 125.913 53.8156C125.583 54.3812 125.23 54.9468 124.853 55.5124C124.381 56.3137 124.052 57.115 123.863 57.9163C123.674 58.7175 123.58 59.5659 123.58 60.4615V68.6628C123.062 68.6628 122.802 68.8749 122.802 69.2992C122.802 69.6762 122.685 70.0297 122.449 70.3597C122.638 70.4539 122.802 70.5482 122.944 70.6425C123.132 70.6896 123.345 70.7603 123.58 70.8546C123.533 70.996 123.509 71.1374 123.509 71.2788C123.509 71.4202 123.486 71.5616 123.439 71.703C123.297 72.6457 123.392 73.7062 123.722 74.8846C123.957 75.8272 124.264 76.7464 124.641 77.6419C125.018 78.5375 125.395 79.433 125.772 80.3286C125.866 80.5642 125.913 80.7763 125.913 80.9649C125.96 81.1534 126.008 81.3419 126.055 81.5305L127.752 83.0152C127.893 83.1566 128.034 83.298 128.176 83.4394C128.364 83.5808 128.529 83.7222 128.671 83.8636C128.765 83.9579 128.859 84.0522 128.953 84.1464C129.048 84.2407 129.118 84.3585 129.166 84.4999C129.213 84.9713 129.496 85.2069 130.014 85.2069C130.297 85.2069 130.58 85.2305 130.862 85.2776C131.145 85.2776 131.428 85.2541 131.711 85.2069C131.805 85.2069 131.899 85.1598 131.994 85.0655C132.135 84.9241 132.276 84.8063 132.418 84.712C132.465 84.7592 132.512 84.8299 132.559 84.9241C132.606 85.0184 132.677 85.1598 132.771 85.3483C132.866 85.1127 132.96 84.9006 133.054 84.712C133.148 84.5235 133.243 84.3114 133.337 84.0757C133.431 84.0286 133.549 84.005 133.69 84.005C134.539 84.3821 135.293 84.4528 135.953 84.2171C136.66 83.9815 137.343 83.5808 138.003 83.0152C139.794 81.3655 140.784 79.3859 140.973 77.0763C141.067 75.7565 141.161 74.4368 141.256 73.117C141.35 71.7973 141.491 70.4775 141.68 69.1578C141.821 68.0265 141.915 66.9189 141.963 65.8348C142.057 64.7036 142.127 63.5724 142.175 62.4411C142.175 61.1685 142.01 59.9666 141.68 58.8354C141.35 57.657 140.878 56.5258 140.266 55.4417C139.889 54.7818 139.535 54.1455 139.205 53.5328C138.875 52.8729 138.522 52.213 138.145 51.5531C138.05 51.4589 137.956 51.4117 137.862 51.4117C137.815 51.3646 137.744 51.2939 137.65 51.1996C137.461 51.0111 137.273 50.8461 137.084 50.7047C136.943 50.5633 136.778 50.3983 136.589 50.2098C136.683 50.1627 136.754 50.1155 136.801 50.0684L136.872 49.9977C137.343 50.3748 137.815 50.7519 138.286 51.1289C138.805 51.4589 139.182 51.8831 139.417 52.4016C139.512 52.6372 139.606 52.7786 139.7 52.8258C139.841 52.8729 140.03 52.9436 140.266 53.0379C140.219 52.0952 139.841 51.341 139.134 50.7754C138.757 50.4926 138.592 50.3041 138.64 50.2098C138.687 50.0684 138.922 49.8799 139.347 49.6442C139.347 49.6442 139.417 49.5735 139.559 49.4321C139.747 49.7149 139.936 49.9977 140.124 50.2805C140.313 50.5633 140.454 50.8461 140.548 51.1289C141.114 52.2601 141.656 53.4149 142.175 54.5933C142.74 55.7245 143.282 56.9029 143.801 58.1284C144.366 59.5424 144.649 61.0742 144.649 62.7239C144.649 63.3838 144.673 64.0201 144.72 64.6329C144.767 65.2456 144.791 65.8819 144.791 66.5418C144.791 67.4374 144.72 68.38 144.578 69.3699C144.484 69.8883 144.366 70.4304 144.225 70.996C144.131 71.5616 144.036 72.1272 143.942 72.6928C143.942 72.8814 143.966 73.0228 144.013 73.117C144.107 74.2011 144.084 75.2852 143.942 76.3693C143.801 77.4062 143.612 78.4432 143.377 79.4801C143.094 80.7999 142.552 82.0961 141.75 83.3687ZM141.963 57.7748C142.198 58.2462 142.363 58.7175 142.457 59.1889C142.599 59.6131 142.74 60.0844 142.882 60.6029C143.023 61.0271 143.094 61.4749 143.094 61.9462C143.141 62.4176 143.306 62.8418 143.589 63.2188C143.683 61.7106 143.542 60.273 143.164 58.9061C142.787 57.492 142.269 56.1016 141.609 54.7347L140.973 54.9468C141.161 55.4653 141.303 55.9602 141.397 56.4315C141.538 56.9029 141.727 57.3506 141.963 57.7748ZM141.892 80.1872C141.798 80.4228 141.703 80.6821 141.609 80.9649C141.515 81.2005 141.42 81.4598 141.326 81.7426C142.033 81.3184 142.222 80.7999 141.892 80.1872ZM130.933 45.6849C130.839 45.7792 130.721 45.8735 130.58 45.9677C130.485 46.062 130.368 46.1563 130.226 46.2505C130.415 46.3919 130.58 46.4155 130.721 46.3212C132.041 45.7085 133.361 45.2607 134.68 44.9779C136 44.6951 137.391 44.8365 138.852 45.4021C138.852 45.4493 138.969 45.355 139.205 45.1193C138.687 45.0251 138.215 44.8836 137.791 44.6951C137.414 44.4594 136.966 44.3887 136.448 44.483C136.071 44.483 135.812 44.4594 135.67 44.4123C135.34 44.1766 134.94 44.1766 134.468 44.4123C133.903 44.648 133.313 44.8601 132.701 45.0486C132.135 45.2372 131.546 45.4493 130.933 45.6849ZM128.741 49.1493C128.647 49.1964 128.576 49.2436 128.529 49.2907C128.529 49.3378 128.482 49.385 128.388 49.4321C128.435 49.4792 128.459 49.5264 128.459 49.5735C128.459 49.5735 128.482 49.5971 128.529 49.6442L129.378 49.22C129.142 49.1257 128.93 49.1022 128.741 49.1493ZM128.671 47.3111C128.246 47.1225 127.917 47.2875 127.681 47.806C127.917 47.7117 128.081 47.641 128.176 47.5939C128.317 47.4996 128.482 47.4053 128.671 47.3111ZM127.539 45.8263C127.304 45.5907 127.115 45.52 126.974 45.6142C126.88 45.6614 126.785 45.7556 126.691 45.897L126.762 45.9677V46.1091C127.045 46.0149 127.304 45.9206 127.539 45.8263ZM123.156 52.048C123.109 52.3309 123.062 52.5901 123.015 52.8258C123.015 53.0143 123.015 53.2028 123.015 53.3914C123.345 53.1557 123.509 52.9672 123.509 52.8258C123.509 52.6844 123.392 52.4251 123.156 52.048ZM123.015 67.0367C122.779 67.5552 122.685 67.8616 122.732 67.9558C122.779 68.003 123.015 68.0501 123.439 68.0972L123.015 67.0367ZM120.399 61.5927C120.069 61.687 119.857 61.9227 119.762 62.2997C119.668 62.6297 119.668 63.3367 119.762 64.4208C119.809 64.4679 119.88 64.4915 119.974 64.4915C120.069 63.973 120.139 63.5017 120.187 63.0774C120.234 62.6061 120.304 62.1112 120.399 61.5927ZM120.328 64.9864C119.951 65.3635 119.739 65.6463 119.692 65.8348C119.692 65.9762 119.809 66.259 120.045 66.6832C120.092 66.4004 120.139 66.1412 120.187 65.9055C120.234 65.6227 120.281 65.3163 120.328 64.9864ZM120.045 67.9558C119.857 67.4374 119.55 67.4374 119.126 67.9558H120.045ZM119.055 73.1877L119.197 73.117C119.291 73.117 119.362 73.117 119.409 73.117C119.362 72.9756 119.315 72.8578 119.267 72.7635C119.22 72.6221 119.173 72.4807 119.126 72.3393C118.937 72.4336 118.82 72.4807 118.772 72.4807C118.867 72.7635 118.961 72.9992 119.055 73.1877ZM120.045 71.4909C120.139 70.9724 120.21 70.4775 120.257 70.0062C120.304 69.4877 120.375 68.9457 120.469 68.38C120.139 68.6157 119.857 68.8042 119.621 68.9456C119.338 68.8514 119.102 68.7807 118.914 68.7335C118.914 69.1578 118.937 69.4406 118.985 69.582C119.079 69.6762 119.338 69.7705 119.762 69.8648C119.762 70.1476 119.762 70.4304 119.762 70.7132C119.809 70.996 119.833 71.2552 119.833 71.4909H120.045ZM121.318 53.8156C121.883 53.2971 121.883 52.8258 121.318 52.4016L120.681 53.4621C120.823 53.5563 120.941 53.627 121.035 53.6742C121.129 53.7213 121.223 53.7684 121.318 53.8156ZM123.368 76.7228C123.509 76.44 123.604 76.2043 123.651 76.0158C123.698 75.8272 123.58 75.6858 123.297 75.5916C123.297 75.5916 123.156 75.6387 122.873 75.733L123.368 76.7228ZM138.781 83.0859C138.922 83.0388 139.087 82.9681 139.276 82.8738C139.276 82.8267 139.252 82.8031 139.205 82.8031C139.205 82.8031 139.205 82.7795 139.205 82.7324C139.017 82.8267 138.852 82.8974 138.71 82.9445C138.757 82.9916 138.781 83.0388 138.781 83.0859ZM139.983 87.3987C140.266 87.2573 140.525 87.0923 140.761 86.9038C141.043 86.7152 141.326 86.5267 141.609 86.3382V86.8331C141.75 86.7859 142.057 86.7624 142.528 86.7624C142.151 87.4222 141.656 87.8465 141.043 88.035C140.478 88.1764 139.936 88.4356 139.417 88.8127C139.276 88.1057 139.464 87.6344 139.983 87.3987ZM181.919 59.9666C181.966 60.7207 182.013 61.4513 182.06 62.1583C182.107 62.8653 182.131 63.5488 182.131 64.2087C182.178 64.8214 182.201 65.387 182.201 65.9055C182.154 66.8953 182.107 67.9087 182.06 68.9456C182.013 69.9826 181.942 71.0431 181.848 72.1272C181.707 73.3527 181.518 74.5782 181.282 75.8037C181.094 77.0292 180.787 78.2075 180.363 79.3387C180.033 80.0458 179.727 80.6114 179.444 81.0356C179.35 81.177 179.256 81.3184 179.161 81.4598C179.114 81.6012 179.043 81.7661 178.949 81.9547C178.619 82.5203 178.266 83.0623 177.889 83.5808C177.559 84.0993 177.205 84.6178 176.828 85.1362L176.192 85.9847C175.956 86.2203 175.721 86.3382 175.485 86.3382C175.343 86.3382 175.249 86.3146 175.202 86.2675C175.108 86.2203 175.014 86.1496 174.919 86.0554C174.778 86.1496 174.613 86.3382 174.424 86.621C174.236 86.8095 174.047 86.998 173.859 87.1866C173.67 87.328 173.482 87.493 173.293 87.6815C173.152 87.8229 172.987 87.9643 172.798 88.1057C172.657 88.2471 172.515 88.3885 172.374 88.5299C172.374 88.577 172.303 88.6477 172.162 88.742C172.068 88.7891 171.997 88.8363 171.95 88.8834C171.95 88.8834 171.903 88.907 171.808 88.9541C171.526 89.0484 171.361 89.1426 171.313 89.2369C171.266 89.2841 171.243 89.4255 171.243 89.6611C171.243 89.8497 171.196 90.0382 171.101 90.2267L170.606 91.8529L170.182 89.8732C170.088 89.9675 170.017 90.0146 169.97 90.0146C169.923 90.0618 169.852 90.1325 169.758 90.2267C169.57 90.4153 169.381 90.5331 169.192 90.5802C169.004 90.6274 168.815 90.6745 168.627 90.7216C168.485 90.7216 168.32 90.7688 168.132 90.863C167.991 90.9573 167.849 91.0044 167.708 91.0044C167.566 91.0516 167.425 91.1223 167.284 91.2166C166.906 91.3108 166.647 91.4051 166.506 91.4994C166.129 91.6879 165.822 91.8293 165.587 91.9236L164.809 92.3478L164.668 92.1357L164.597 92.2064V91.9943V91.9236C164.503 91.6879 164.479 91.4994 164.526 91.358C164.573 91.2166 164.644 91.0987 164.738 91.0044L164.809 90.4388C164.856 90.2974 164.88 90.1089 164.88 89.8732C164.927 89.8261 164.95 89.7318 164.95 89.5904C164.856 89.5904 164.809 89.6376 164.809 89.7318C164.573 90.0618 164.267 90.2267 163.89 90.2267C163.56 90.2267 163.348 90.156 163.254 90.0146C163.112 89.8732 163.041 89.6847 163.041 89.449C163.041 89.3548 163.065 89.2841 163.112 89.2369C162.782 89.1426 162.452 89.0484 162.122 88.9541C161.84 88.8598 161.533 88.742 161.203 88.6006C159.836 87.9879 158.634 87.0452 157.597 85.7726L157.173 85.3483C156.89 85.0655 156.678 84.8299 156.537 84.6413C156.207 84.17 155.924 83.6986 155.689 83.2273C155.453 82.756 155.217 82.2846 154.981 81.8133L154.911 81.5305C154.581 80.9177 154.369 80.305 154.274 79.6922L154.133 79.268C154.039 78.9381 153.968 78.6317 153.921 78.3489C153.874 78.019 153.827 77.6655 153.78 77.2884C153.732 76.9113 153.685 76.5578 153.638 76.2279C153.591 75.8508 153.52 75.4502 153.426 75.026C153.379 74.6489 153.332 74.2954 153.285 73.9654C153.238 73.6355 153.261 73.282 153.355 72.9049V71.9151C153.308 71.8208 153.285 71.6794 153.285 71.4909C153.285 71.161 153.285 70.8546 153.285 70.5718C153.285 70.2418 153.332 69.9355 153.426 69.6527C153.52 69.2756 153.544 68.8985 153.497 68.5214C153.497 68.1444 153.473 67.7673 153.426 67.3902V66.8953C153.332 66.0469 153.308 65.222 153.355 64.4208C153.402 63.5724 153.473 62.6768 153.567 61.7341C153.615 61.4984 153.638 61.2628 153.638 61.0271C153.685 60.7914 153.756 60.5558 153.85 60.3201V60.0373C153.945 59.6602 153.992 59.3067 153.992 58.9768C153.992 58.6468 153.992 58.2933 153.992 57.9163C154.039 57.6806 154.062 57.4449 154.062 57.2092C154.062 56.9736 154.062 56.7379 154.062 56.5022C154.015 56.2666 154.015 56.0309 154.062 55.7952C154.11 55.5595 154.133 55.3003 154.133 55.0175C154.086 54.7818 154.062 54.5226 154.062 54.2398C154.11 53.957 154.133 53.6742 154.133 53.3914C154.086 53.1557 154.039 52.9436 153.992 52.7551C153.992 52.5665 154.015 52.378 154.062 52.1894C154.157 51.7652 154.157 51.3646 154.062 50.9875C154.015 50.5633 154.015 50.1391 154.062 49.7149C154.062 49.4792 154.062 49.22 154.062 48.9372C154.11 48.6544 154.133 48.3951 154.133 48.1595C154.133 47.9238 154.133 47.6881 154.133 47.4525C154.18 47.2168 154.204 46.9811 154.204 46.7454C154.204 46.5569 154.227 46.3684 154.274 46.1798C154.322 45.9913 154.298 45.8028 154.204 45.6142C154.204 45.5671 154.204 45.52 154.204 45.4728C154.251 45.4257 154.274 45.3786 154.274 45.3314H154.416C154.463 45.52 154.487 45.7085 154.487 45.897C154.487 46.0384 154.51 46.2034 154.557 46.3919C154.699 46.2977 154.911 46.1798 155.194 46.0384C155.194 46.2741 155.194 46.5098 155.194 46.7454C155.241 46.934 155.288 47.1461 155.335 47.3818C155.382 47.1461 155.406 46.7219 155.406 46.1091C155.453 46.2505 155.476 46.3684 155.476 46.4626C155.524 46.5098 155.571 46.5805 155.618 46.6747C155.618 46.5333 155.618 46.4155 155.618 46.3212C155.665 46.227 155.689 46.1327 155.689 46.0384H155.83C155.924 45.9442 155.971 45.9206 155.971 45.9677C156.018 46.0149 156.066 46.062 156.113 46.1091C156.018 46.3448 156.018 46.5333 156.113 46.6747C156.254 46.8162 156.278 47.0047 156.183 47.2404C156.183 47.4289 156.231 47.5703 156.325 47.6646C156.466 47.9002 156.537 48.1595 156.537 48.4423C156.584 48.678 156.608 48.9372 156.608 49.22C156.655 49.9741 156.655 50.7283 156.608 51.4824C156.608 52.2366 156.584 52.9907 156.537 53.7449C156.49 54.5462 156.466 55.3474 156.466 56.1487C156.466 56.95 156.466 57.7513 156.466 58.5526C156.419 59.3067 156.396 59.8959 156.396 60.3201C156.396 60.6972 156.372 61.2156 156.325 61.8755C156.278 62.3469 156.231 62.7946 156.183 63.2188C156.183 63.6431 156.183 64.0908 156.183 64.5622C156.183 64.8921 156.207 65.1278 156.254 65.2692C156.301 64.5622 156.372 63.8552 156.466 63.1481C156.56 62.4411 156.655 61.7106 156.749 60.9564C156.796 60.815 156.843 60.65 156.89 60.4615C156.938 60.273 157.103 60.1316 157.385 60.0373L158.092 59.7545L157.951 60.4615C157.857 61.0742 157.786 61.7106 157.739 62.3704C157.692 62.9832 157.621 63.6431 157.527 64.3501C157.432 65.1985 157.385 65.9998 157.385 66.7539C157.385 67.4609 157.409 68.1444 157.456 68.8042V68.8749C157.503 69.2049 157.527 69.5348 157.527 69.8648C157.527 70.1476 157.55 70.4539 157.597 70.7839H157.668C157.904 70.7839 158.092 70.8546 158.234 70.996C158.328 71.0903 158.375 71.2081 158.375 71.3495C158.375 71.4438 158.375 71.538 158.375 71.6323C158.328 73.5648 158.469 75.3323 158.799 76.9349C158.846 77.1706 158.87 77.3827 158.87 77.5712C158.917 77.7126 158.964 77.8776 159.011 78.0661C159.059 78.4903 159.106 78.9145 159.153 79.3387C159.247 79.7158 159.389 80.0929 159.577 80.47L159.789 80.8942C159.883 80.9884 159.954 81.1298 160.001 81.3184C160.096 81.4598 160.166 81.6247 160.213 81.8133C160.261 81.9076 160.284 81.9783 160.284 82.0254C160.284 82.0725 160.308 82.1432 160.355 82.2375C160.402 82.3318 160.425 82.426 160.425 82.5203C160.425 82.5674 160.449 82.6381 160.496 82.7324C160.543 82.9681 160.638 83.1802 160.779 83.3687C160.92 83.5101 161.085 83.6751 161.274 83.8636L161.415 84.0757C161.698 84.3585 161.981 84.6178 162.264 84.8534C162.594 85.042 162.947 85.2541 163.324 85.4897C163.607 85.2541 163.866 85.1598 164.102 85.2069C164.338 85.2069 164.573 85.2305 164.809 85.2776L165.587 85.4897C165.822 85.4897 166.034 85.5604 166.223 85.7019C166.317 85.6547 166.435 85.6076 166.577 85.5604C166.718 85.5133 166.836 85.4662 166.93 85.419L167.566 85.2069L167.92 85.0655C168.438 84.7827 168.933 84.4999 169.405 84.2171C169.923 83.9343 170.394 83.5808 170.819 83.1566C172.091 81.9783 173.057 80.847 173.717 79.7629C174.094 79.2445 174.448 78.7024 174.778 78.1368C175.108 77.5712 175.367 76.9349 175.556 76.2279C175.65 75.7094 175.744 75.1674 175.838 74.6018C175.933 74.0361 176.027 73.4234 176.121 72.7635C176.31 71.5852 176.428 70.4068 176.475 69.2285C176.569 68.0501 176.663 66.8482 176.757 65.6227C176.805 64.9628 176.805 64.3029 176.757 63.6431C176.757 62.9832 176.734 62.3233 176.687 61.6634V60.7443C176.687 60.6029 176.663 60.4851 176.616 60.3908C176.616 60.2494 176.616 60.108 176.616 59.9666L177.04 59.4717C177.182 59.0946 177.229 58.7411 177.182 58.4112C177.182 58.0812 177.205 57.7277 177.252 57.3506C177.3 57.115 177.323 56.8793 177.323 56.6436C177.323 56.408 177.323 56.1723 177.323 55.9366C177.276 55.7009 177.276 55.4653 177.323 55.2296C177.417 54.9939 177.441 54.7347 177.394 54.4519C177.347 54.2162 177.323 53.957 177.323 53.6742C177.37 53.3914 177.394 53.1086 177.394 52.8258C177.394 52.5901 177.37 52.378 177.323 52.1894C177.276 52.0009 177.276 51.8124 177.323 51.6238C177.417 51.1996 177.417 50.799 177.323 50.4219C177.276 49.9977 177.276 49.5735 177.323 49.1493C177.37 48.9136 177.394 48.6544 177.394 48.3716C177.394 48.0888 177.417 47.8295 177.464 47.5939C177.464 47.3582 177.464 47.1225 177.464 46.8869C177.512 46.6512 177.535 46.4155 177.535 46.1798C177.535 45.9913 177.559 45.8028 177.606 45.6142C177.653 45.4257 177.629 45.2372 177.535 45.0486C177.535 44.9544 177.582 44.8601 177.677 44.7658H177.818L178.03 45.8263C178.172 45.7321 178.289 45.6849 178.384 45.6849C178.525 45.6378 178.69 45.5671 178.879 45.4728C178.926 45.7085 178.949 45.9442 178.949 46.1798C178.996 46.3684 179.043 46.5805 179.091 46.8162H179.161C179.161 46.6276 179.161 46.4391 179.161 46.2505C179.161 46.0149 179.185 45.7792 179.232 45.5435C179.279 45.6849 179.303 45.8028 179.303 45.897C179.35 45.9442 179.421 46.0149 179.515 46.1091C179.515 45.9677 179.515 45.8499 179.515 45.7556C179.562 45.6614 179.586 45.5671 179.586 45.4728H179.868C179.963 45.3786 180.01 45.355 180.01 45.4021C180.057 45.4493 180.104 45.4964 180.151 45.5435C180.057 45.7792 180.104 45.9677 180.293 46.1091C180.481 46.2505 180.505 46.4391 180.363 46.6747C180.316 46.7219 180.316 46.7926 180.363 46.8869C180.41 46.9811 180.458 47.0518 180.505 47.099C180.787 47.4289 180.929 47.9474 180.929 48.6544C180.929 49.4085 180.905 50.1627 180.858 50.9168C180.858 51.671 180.835 52.4251 180.787 53.1793C180.693 53.9805 180.646 54.7818 180.646 55.5831C180.693 56.3844 180.693 57.1857 180.646 57.987C180.646 58.5526 180.622 59.1182 180.575 59.6838C180.575 60.2023 180.552 60.7443 180.505 61.3099C180.458 61.4984 180.434 61.687 180.434 61.8755C180.434 62.0641 180.41 62.2526 180.363 62.4411C180.41 62.7239 180.434 63.0067 180.434 63.2895C180.481 63.5252 180.528 63.7845 180.575 64.0673C180.67 64.4443 180.74 64.7978 180.787 65.1278C180.835 65.4577 180.835 65.8112 180.787 66.1883C180.787 66.424 180.811 66.5889 180.858 66.6832V66.6125C180.858 66.424 180.858 66.259 180.858 66.1176C180.905 65.9291 180.929 65.7405 180.929 65.552V64.9157V64.138C180.929 63.9023 180.952 63.7138 181 63.5724C181 63.3367 181 63.101 181 62.8653C181.047 62.5825 181.047 62.3233 181 62.0876C180.952 61.6634 180.952 61.2392 181 60.815V59.9666L180.929 59.4717H182.131V59.8959H181.919V59.9666ZM155.335 49.7149V49.22H155.264V49.7149H155.335ZM179.091 49.1493V48.6544H179.02V49.1493H179.091ZM179.868 75.8744C179.915 75.8744 179.939 75.8272 179.939 75.733H179.798V76.0865C179.751 76.2279 179.727 76.3693 179.727 76.5107C179.727 76.605 179.703 76.6992 179.656 76.7935C179.562 77.1706 179.468 77.5241 179.373 77.854C179.326 78.1368 179.256 78.4432 179.161 78.7731C179.491 78.019 179.727 77.0527 179.868 75.8744ZM189.071 46.3212C189.118 46.4155 189.142 46.5098 189.142 46.604C188.859 46.6983 188.623 46.7926 188.435 46.8869C188.435 46.7926 188.411 46.7219 188.364 46.6747C188.505 46.5805 188.623 46.5333 188.718 46.5333C188.859 46.4862 188.977 46.4155 189.071 46.3212ZM200.454 69.6527C200.454 69.8412 200.36 69.959 200.171 70.0062C200.171 69.7705 200.171 69.2049 200.171 68.3093C200.218 67.3667 200.265 66.3768 200.313 65.3399C200.36 64.2558 200.383 63.266 200.383 62.3704C200.43 61.4277 200.454 60.815 200.454 60.5322C200.69 60.6265 200.808 60.7679 200.808 60.9564C200.808 61.3335 200.784 61.9462 200.737 62.7946C200.69 63.5959 200.643 64.4443 200.595 65.3399C200.595 66.2354 200.572 67.0838 200.525 67.8851C200.478 68.6864 200.454 69.2756 200.454 69.6527ZM188.364 47.7353C188.6 47.5939 188.765 47.5232 188.859 47.5232C189 47.476 189.33 47.4525 189.849 47.4525C189.613 47.4996 189.377 47.5467 189.142 47.5939C188.953 47.641 188.694 47.6881 188.364 47.7353ZM192.465 44.6951H192.182H192.465ZM200.666 56.785C200.855 57.1621 200.902 57.5392 200.808 57.9163C200.713 58.2933 200.713 58.6704 200.808 59.0475C200.76 59.0475 200.713 59.071 200.666 59.1182C200.666 59.1182 200.643 59.1182 200.595 59.1182L200.383 56.785H200.666ZM218.766 49.4321C219.096 49.4321 219.449 49.4085 219.826 49.3614C220.203 49.2671 220.58 49.4085 220.957 49.7856C220.722 49.7856 220.51 49.8092 220.321 49.8563C220.133 49.9034 219.968 49.9034 219.826 49.8563C219.261 49.762 218.695 49.762 218.129 49.8563C217.611 49.9506 217.069 50.0213 216.503 50.0684C215.796 50.1155 215.089 50.1391 214.382 50.1391C213.675 50.092 212.968 50.092 212.261 50.1391H206.605C206.464 50.1391 206.299 50.1627 206.11 50.2098C205.969 50.2569 205.898 50.469 205.898 50.8461C205.851 50.7047 205.78 50.8933 205.686 51.4117C205.639 51.9302 205.592 52.5665 205.544 53.3207C205.544 54.0748 205.521 54.8525 205.474 55.6538C205.474 56.408 205.497 56.9736 205.544 57.3506C205.592 57.6806 205.615 58.1284 205.615 58.694C205.615 59.2124 205.615 59.7309 205.615 60.2494C205.662 60.7679 205.686 61.2156 205.686 61.5927C205.686 61.9698 205.709 62.1819 205.757 62.229C205.851 62.3704 205.898 62.6532 205.898 63.0774C205.898 63.4545 205.874 63.8552 205.827 64.2794C205.827 64.7036 205.804 65.1278 205.757 65.552C205.757 65.9291 205.757 66.2119 205.757 66.4004C205.709 67.1546 205.615 67.9087 205.474 68.6628C205.38 69.3699 205.427 70.124 205.615 70.9253C205.38 71.3024 205.262 71.703 205.262 72.1272C205.309 72.5514 205.309 72.9521 205.262 73.3291C205.12 74.0833 205.12 74.861 205.262 75.6623C205.262 75.4266 205.262 75.1909 205.262 74.9553C205.309 74.6725 205.332 74.3896 205.332 74.1068C205.568 74.3425 205.686 74.5546 205.686 74.7432C205.686 74.9317 205.686 75.1438 205.686 75.3795C205.686 75.8508 205.662 76.6757 205.615 77.854C205.615 78.9852 205.592 80.2107 205.544 81.5305C205.497 82.8031 205.45 84.0286 205.403 85.2069C205.403 86.3853 205.403 87.2337 205.403 87.7522V89.1662C205.167 89.0719 204.932 89.0248 204.696 89.0248C204.508 88.9777 204.319 88.9305 204.13 88.8834C204.036 89.1191 203.965 89.3312 203.918 89.5197C203.871 89.7554 203.824 89.9911 203.777 90.2267C203.588 90.1325 203.423 90.0853 203.282 90.0853C203.188 90.0853 203.094 90.0618 202.999 90.0146C202.858 89.5433 202.834 89.0955 202.929 88.6713C203.023 88.2 203.023 87.7522 202.929 87.328H202.646L202.434 88.6006C202.387 88.9305 202.269 89.3076 202.08 89.7318H201.868C201.774 89.4019 201.703 89.0955 201.656 88.8127C201.656 88.4828 201.632 88.2 201.585 87.9643C201.397 88.2 201.208 88.4592 201.02 88.742C200.878 88.9777 200.713 89.2133 200.525 89.449C200.148 89.4019 199.912 89.2841 199.818 89.0955C199.771 88.907 199.747 88.6949 199.747 88.4592C199.7 88.035 199.794 87.6815 200.03 87.3987C200.313 87.0687 200.454 86.6917 200.454 86.2675C200.454 85.6076 200.454 84.9948 200.454 84.4292C200.454 83.8636 200.478 83.2273 200.525 82.5203C200.572 82.1432 200.619 81.7426 200.666 81.3184C200.713 80.8942 200.808 80.4935 200.949 80.1165C200.996 79.9279 200.972 79.7394 200.878 79.5508C200.831 79.3623 200.808 79.1502 200.808 78.9145C200.808 78.3018 200.808 77.7126 200.808 77.147C200.808 76.5343 200.831 75.9451 200.878 75.3795C200.925 74.7667 200.972 74.1775 201.02 73.6119C201.067 72.9992 201.137 72.3864 201.232 71.7737C201.279 71.3024 201.302 70.831 201.302 70.3597C201.302 69.8883 201.35 69.417 201.444 68.9456C201.538 68.2858 201.538 67.5788 201.444 66.8246C201.35 66.0233 201.35 65.2928 201.444 64.6329C201.538 64.3029 201.538 63.9494 201.444 63.5724C201.35 63.1481 201.302 62.7475 201.302 62.3704C201.35 60.8621 201.373 59.3774 201.373 57.9163C201.373 56.4551 201.444 54.9704 201.585 53.4621C201.632 52.8022 201.609 52.1894 201.515 51.6238C201.42 51.0582 201.302 50.4691 201.161 49.8563C200.548 49.9506 199.983 49.927 199.464 49.7856C198.946 49.6442 198.404 49.6206 197.838 49.7149C197.32 49.8092 196.778 49.8092 196.212 49.7149C195.693 49.6206 195.104 49.5499 194.444 49.5028C194.821 49.22 195.151 49.1022 195.434 49.1493C195.764 49.1493 196.094 49.1257 196.424 49.0786C196.707 49.0315 196.99 49.0079 197.272 49.0079C197.602 49.0079 197.909 48.9608 198.192 48.8665C197.814 48.6308 197.437 48.5837 197.06 48.7251C196.73 48.8194 196.377 48.8194 196 48.7251C195.623 48.678 195.269 48.6072 194.939 48.513C194.609 48.4187 194.209 48.3244 193.737 48.2302C193.926 48.0888 194.067 47.9709 194.162 47.8767C194.303 47.7824 194.492 47.6646 194.727 47.5232H192.394C192.771 47.1461 193.172 46.9811 193.596 47.0283C194.067 47.0283 194.539 46.8397 195.01 46.4626C194.68 46.4626 194.397 46.4626 194.162 46.4626C193.973 46.4155 193.761 46.3919 193.525 46.3919C193.101 46.4391 192.677 46.4862 192.253 46.5333C191.828 46.5805 191.404 46.6276 190.98 46.6747C190.744 46.6747 190.414 46.604 189.99 46.4626C190.179 46.3684 190.32 46.2977 190.414 46.2505C190.509 46.1563 190.674 46.0384 190.909 45.897C190.344 45.8499 189.825 45.8263 189.354 45.8263C188.93 45.8263 188.529 45.8028 188.152 45.7556C188.341 45.7556 188.67 45.7085 189.142 45.6142C190.367 45.4728 191.593 45.3314 192.818 45.19C194.091 45.0015 195.34 44.8837 196.565 44.8365C197.367 44.7894 198.144 44.7658 198.899 44.7658C199.653 44.7658 200.407 44.8836 201.161 45.1193H201.797C203.023 45.1193 204.248 45.1193 205.474 45.1193C206.699 45.1193 207.925 45.0958 209.15 45.0486C209.386 45.0486 209.622 45.0722 209.857 45.1193C210.093 45.1665 210.329 45.0958 210.564 44.9072C210.564 44.8601 210.611 44.8837 210.706 44.9779C210.8 45.0722 210.894 45.1193 210.988 45.1193C211.554 45.2607 212.12 45.3079 212.685 45.2607C213.298 45.2136 213.887 45.1665 214.453 45.1193C215.16 45.0722 215.867 45.0486 216.574 45.0486C217.281 45.0486 217.988 45.0486 218.695 45.0486C218.742 45.2372 218.766 45.4021 218.766 45.5435C218.766 45.6378 218.789 45.7792 218.836 45.9677C218.224 46.0149 217.634 46.062 217.069 46.1091C216.503 46.1091 215.938 46.1327 215.372 46.1798V46.3919C215.466 46.4391 215.537 46.4862 215.584 46.5333C215.631 46.5805 215.702 46.604 215.796 46.604C216.268 46.6512 216.715 46.6747 217.14 46.6747C217.611 46.6747 218.082 46.6747 218.554 46.6747C218.648 46.6747 218.766 46.6983 218.907 46.7454C219.048 46.7454 219.143 46.8633 219.19 47.099C218.813 47.3818 218.412 47.5467 217.988 47.5939C217.611 47.5939 217.234 47.6174 216.857 47.6646C216.48 47.6646 216.103 47.641 215.725 47.5939C215.348 47.5467 214.948 47.4996 214.524 47.4525C214.571 47.9709 214.406 48.2066 214.029 48.1595C213.699 48.1123 213.439 48.2066 213.251 48.4423C213.628 48.4894 213.982 48.5365 214.311 48.5837C214.689 48.5837 215.066 48.6072 215.443 48.6544C216.15 48.7487 216.55 49.055 216.645 49.5735C217.022 49.5264 217.375 49.4792 217.705 49.4321C218.035 49.385 218.389 49.385 218.766 49.4321ZM194.939 47.806C195.034 47.806 195.222 47.7588 195.505 47.6646V47.5232C195.411 47.5232 195.293 47.5467 195.151 47.5939C195.057 47.5939 194.963 47.5939 194.869 47.5939C194.869 47.6881 194.892 47.7588 194.939 47.806ZM199.676 48.7958C200.053 48.7958 200.313 48.7722 200.454 48.7251V48.6544C200.313 48.6544 200.171 48.678 200.03 48.7251C199.936 48.7251 199.818 48.7251 199.676 48.7251V48.7958ZM205.12 86.4089C204.885 86.7388 204.79 87.0452 204.837 87.328C204.885 87.6108 204.979 87.8936 205.12 88.1764V86.4089ZM204.979 72.6221C205.026 72.5278 205.05 72.41 205.05 72.2686C205.097 72.1272 205.144 72.0094 205.191 71.9151H204.979C204.885 72.1979 204.837 72.41 204.837 72.5514C204.885 72.5985 204.932 72.6221 204.979 72.6221ZM200.808 59.5424C200.902 59.8723 200.784 60.2023 200.454 60.5322C200.501 60.3437 200.501 60.1787 200.454 60.0373C200.454 59.8488 200.572 59.6838 200.808 59.5424ZM280.965 82.9445C280.871 83.5572 280.871 84.17 280.965 84.7827C281.059 85.3955 280.847 85.9611 280.329 86.4796C280.612 86.5738 280.777 86.7388 280.824 86.9745C280.918 87.163 280.871 87.328 280.682 87.4694C280.305 87.8465 280.14 88.2235 280.187 88.6006C280.282 88.9305 280.305 89.2841 280.258 89.6611C280.258 89.8025 280.235 89.9439 280.187 90.0853C280.187 90.2739 280.14 90.4624 280.046 90.6509C279.999 90.4153 279.952 90.1796 279.905 89.9439C279.857 89.7554 279.81 89.5433 279.763 89.3076C279.386 89.2133 279.174 89.2369 279.127 89.3783C279.127 89.5669 279.127 89.779 279.127 90.0146V91.2873C279.033 91.3815 278.915 91.4522 278.773 91.4994C278.679 91.5465 278.514 91.6172 278.278 91.7115C278.231 91.1459 278.184 90.6274 278.137 90.156C278.137 89.6847 278.113 89.1898 278.066 88.6713H277.925C277.878 88.907 277.831 89.1191 277.784 89.3076C277.784 89.5433 277.784 89.779 277.784 90.0146C277.642 89.9204 277.477 89.779 277.289 89.5904C277.053 89.9675 277.029 90.321 277.218 90.6509C277.406 90.9809 277.406 91.3344 277.218 91.7115C277.029 91.5701 276.77 91.3344 276.44 91.0044C276.346 91.1459 276.228 91.2873 276.087 91.4287C275.992 91.6172 275.827 91.8293 275.592 92.065V90.2267C275.639 88.6242 275.662 87.0452 275.662 85.4897C275.71 83.8872 275.78 82.2846 275.875 80.6821C275.969 79.4566 275.992 78.2075 275.945 76.9349C275.945 75.6623 275.992 74.4132 276.087 73.1877C276.181 72.1508 276.205 71.1374 276.157 70.1476C276.157 69.1578 276.157 68.1444 276.157 67.1074V55.2296C275.78 55.7481 275.427 56.243 275.097 56.7143C274.767 57.1385 274.602 57.6806 274.602 58.3405C274.696 58.3876 274.767 58.4347 274.814 58.4819C274.861 58.529 274.932 58.5761 275.026 58.6233C274.508 59.7074 273.989 60.815 273.471 61.9462C272.952 63.0303 272.434 64.1144 271.915 65.1985C271.774 65.5756 271.515 65.8819 271.138 66.1176C270.525 66.5418 270.101 67.0603 269.865 67.673C269.676 68.2386 269.441 68.8278 269.158 69.4406C269.111 69.5348 269.134 69.7234 269.229 70.0062C269.37 70.3832 269.535 70.7367 269.724 71.0667C269.912 71.3495 270.077 71.6794 270.218 72.0565C270.266 73.4705 269.936 74.861 269.229 76.2279C268.993 75.8508 268.828 75.4973 268.734 75.1674C268.687 74.8374 268.852 74.4839 269.229 74.1068C269.417 73.8712 269.535 73.6119 269.582 73.3291C269.629 72.9992 269.676 72.6928 269.724 72.41C269.771 72.3157 269.747 72.2215 269.653 72.1272C269.606 71.9858 269.535 71.868 269.441 71.7737C269.394 71.6794 269.347 71.5852 269.299 71.4909C269.252 71.3966 269.182 71.2788 269.087 71.1374C268.946 71.4673 268.804 71.7737 268.663 72.0565C268.569 72.2922 268.639 72.5985 268.875 72.9756C269.064 73.2113 269.064 73.447 268.875 73.6826C268.734 73.9183 268.592 74.154 268.451 74.3896C268.357 74.2954 268.286 74.2011 268.239 74.1068C268.239 74.0126 268.192 73.9183 268.097 73.824C267.862 73.9183 267.603 74.0597 267.32 74.2482C267.037 74.3896 266.801 74.4132 266.613 74.3189C266.283 74.2247 265.953 74.2718 265.623 74.4603C265.34 74.6018 265.057 74.4839 264.774 74.1068C265.01 73.5884 265.01 73.0935 264.774 72.6221C264.539 72.1508 264.327 71.6794 264.138 71.2081C263.95 70.831 263.761 70.4775 263.573 70.1476C263.431 69.7705 263.29 69.3934 263.148 69.0164C262.771 68.0737 262.276 67.2253 261.664 66.4711C261.051 65.6698 260.462 64.8685 259.896 64.0673C258.388 62.1348 257.115 60.1316 256.078 58.0577C255.843 57.6334 255.583 57.2328 255.301 56.8557C255.018 56.4787 254.735 56.1016 254.452 55.7245C254.358 55.7245 254.287 55.7481 254.24 55.7952C254.146 56.3137 254.051 56.8322 253.957 57.3506C253.91 57.822 253.839 58.364 253.745 58.9768C253.509 58.6468 253.392 58.5054 253.392 58.5526C253.439 58.0341 253.462 57.5392 253.462 57.0678C253.509 56.5494 253.58 56.0309 253.674 55.5124C253.722 54.5697 253.25 53.957 252.26 53.6742C252.213 53.7684 252.19 53.8156 252.19 53.8156C252.567 54.0984 252.755 54.4283 252.755 54.8054C252.755 55.1353 252.732 55.4888 252.685 55.8659C252.59 56.6672 252.496 57.4685 252.402 58.2698C252.355 59.0239 252.284 59.8016 252.19 60.6029V60.7443C252.567 61.5456 252.614 62.3704 252.331 63.2188C252.048 64.0201 251.978 64.8214 252.119 65.6227C252.166 65.9055 252.119 66.2354 251.978 66.6125C251.93 66.8482 251.907 67.0838 251.907 67.3195C251.907 67.5552 252.072 67.7909 252.402 68.0265C252.449 67.3667 252.472 66.7303 252.472 66.1176C252.472 65.5049 252.496 64.8685 252.543 64.2087C252.967 64.3029 253.203 64.4443 253.25 64.6329C253.297 64.8214 253.321 65.0335 253.321 65.2692C253.274 66.3533 253.227 67.4609 253.179 68.5921C253.179 69.6762 253.132 70.7603 253.038 71.8444C252.991 72.3629 253.015 72.8814 253.109 73.3998C253.25 73.9183 253.25 74.4368 253.109 74.9553C253.015 75.4266 253.132 75.8979 253.462 76.3693C253.792 76.7935 253.934 77.2413 253.886 77.7126C253.839 78.2782 253.792 78.6553 253.745 78.8438C253.698 78.9852 253.533 79.2445 253.25 79.6215C253.486 79.7158 253.604 79.8572 253.604 80.0457C253.604 80.2343 253.604 80.4464 253.604 80.6821C253.604 80.9649 253.58 81.1534 253.533 81.2477C253.533 81.2948 253.509 81.3419 253.462 81.3891C253.415 81.3891 253.368 81.4362 253.321 81.5305C253.321 81.5776 253.321 81.7426 253.321 82.0254C253.227 82.6853 253.156 83.298 253.109 83.8636C253.062 84.4292 253.085 85.042 253.179 85.7019C253.274 86.6445 253.344 87.5637 253.392 88.4592C253.439 89.3548 253.509 90.2503 253.604 91.1459C253.651 91.4287 253.557 91.735 253.321 92.065C253.227 91.7822 253.156 91.4994 253.109 91.2166C253.109 90.9337 253.015 90.6745 252.826 90.4388C252.496 90.0618 252.331 89.6847 252.331 89.3076C252.378 88.9777 252.378 88.6242 252.331 88.2471C252.237 87.8229 252.166 87.3987 252.119 86.9745C252.072 86.5503 251.978 86.1261 251.836 85.7019C251.742 86.0789 251.742 86.4796 251.836 86.9038C251.93 87.2808 252.001 87.6815 252.048 88.1057V90.7923C251.907 90.6038 251.789 90.4624 251.695 90.3681C251.6 90.2739 251.506 90.1796 251.412 90.0853L251.2 90.5095C251.011 90.2739 250.846 90.0382 250.705 89.8025C250.611 89.614 250.493 89.4019 250.351 89.1662C250.399 89.4019 250.422 89.6376 250.422 89.8732C250.469 90.1089 250.54 90.3446 250.634 90.5802C250.304 90.6745 250.021 90.7688 249.786 90.863C249.55 90.9573 249.314 91.0516 249.079 91.1459C248.89 90.9102 248.702 90.6981 248.513 90.5095C248.372 90.3681 248.183 90.1796 247.948 89.9439C248.136 87.6344 248.136 85.3483 247.948 83.0859C247.9 82.6617 247.853 82.3553 247.806 82.1668C247.806 81.9311 247.806 81.7426 247.806 81.6012C247.806 81.4126 247.806 81.2241 247.806 81.0356C247.806 80.7999 247.83 80.47 247.877 80.0457C248.018 78.3489 248.183 76.6992 248.372 75.0967C248.607 73.447 248.678 71.7737 248.584 70.0769C248.537 68.7571 248.56 67.4609 248.655 66.1883C248.749 64.9157 248.867 63.6431 249.008 62.3704C249.197 60.9093 249.126 59.4245 248.796 57.9163C248.513 56.408 248.419 54.9232 248.513 53.4621C248.56 52.8022 248.584 52.1423 248.584 51.4824C248.631 50.7754 248.631 50.0684 248.584 49.3614C248.584 48.9372 248.56 48.513 248.513 48.0888C248.513 47.6174 248.49 47.1461 248.442 46.6747C248.631 46.5805 248.772 46.6747 248.867 46.9576C249.008 47.1932 249.22 47.1932 249.503 46.9576C249.692 46.9576 249.88 47.0518 250.069 47.2404C250.257 47.3818 250.493 47.641 250.776 48.0181V45.4021C250.776 45.2607 250.846 45.19 250.988 45.19C250.988 45.19 251.082 45.19 251.271 45.19C251.176 45.5671 251.271 45.7792 251.553 45.8263C251.883 45.8735 252.048 46.0384 252.048 46.3212C252.048 46.5569 252.095 46.7926 252.19 47.0283C252.284 47.2168 252.378 47.4053 252.472 47.5939C252.567 47.8295 252.685 48.0181 252.826 48.1595C252.967 48.3009 253.109 48.4423 253.25 48.5837C253.297 48.6308 253.344 48.6308 253.392 48.5837C253.486 48.5365 253.557 48.513 253.604 48.513C253.745 48.7958 253.863 49.0786 253.957 49.3614C254.051 49.6442 254.193 49.9034 254.381 50.1391C254.758 50.7047 255.159 51.2468 255.583 51.7652C256.055 52.2837 256.502 52.8022 256.927 53.3207C257.021 53.5092 257.115 53.6977 257.209 53.8863C257.351 54.0277 257.469 54.2162 257.563 54.4519C257.657 54.6404 257.751 54.829 257.846 55.0175C257.94 55.1589 258.129 55.2767 258.411 55.371C258.506 55.371 258.576 55.4417 258.623 55.5831C258.718 55.7245 258.812 55.8423 258.906 55.9366C259.048 56.078 259.166 56.243 259.26 56.4315C259.354 56.5729 259.495 56.7143 259.684 56.8557C259.684 56.5729 259.59 56.3373 259.401 56.1487C259.26 55.9602 259.142 55.7716 259.048 55.5831C258.671 54.8761 258.27 54.2162 257.846 53.6035C257.422 52.9907 256.88 52.4251 256.22 51.9066C256.125 51.8124 256.055 51.7417 256.008 51.6945C255.96 51.6003 255.89 51.506 255.795 51.4117C255.56 51.1289 255.348 50.8697 255.159 50.634C255.018 50.3512 254.829 50.0684 254.594 49.7856C254.499 49.5971 254.405 49.3614 254.311 49.0786C255.678 50.3041 256.95 51.6003 258.129 52.9672C259.354 54.3341 260.438 55.7952 261.381 57.3506C261.616 57.7277 261.805 58.1048 261.946 58.4819C262.088 58.8589 262.276 59.2124 262.512 59.5424C263.031 60.3437 263.573 61.0978 264.138 61.8048C264.704 62.5118 265.246 63.2424 265.764 63.9966C266 64.3265 266.212 64.6564 266.401 64.9864C266.636 65.3163 266.896 65.6698 267.178 66.0469C267.838 64.5857 268.475 63.1481 269.087 61.7341C269.7 60.3201 270.336 58.9296 270.996 57.5627C271.656 56.1959 272.363 54.829 273.117 53.4621C273.871 52.0952 274.649 50.7283 275.45 49.3614C275.827 49.6442 275.898 49.9741 275.662 50.3512C275.568 50.5869 275.474 50.8461 275.38 51.1289C275.333 51.3646 275.262 51.6003 275.168 51.8359C275.262 51.8359 275.309 51.8595 275.309 51.9066C275.356 51.9066 275.403 51.9066 275.45 51.9066C275.686 51.5296 275.898 51.1761 276.087 50.8461C276.275 50.5162 276.417 50.1627 276.511 49.7856C276.605 49.4085 276.652 49.0315 276.652 48.6544C276.652 48.2302 276.652 47.806 276.652 47.3818C276.841 47.6174 277.1 47.9709 277.43 48.4423C277.807 48.8665 278.09 49.1729 278.278 49.3614C278.326 49.2671 278.349 49.1964 278.349 49.1493C278.349 49.055 278.373 48.9608 278.42 48.8665C278.561 49.0079 278.679 49.1493 278.773 49.2907C278.868 48.7722 278.915 48.3009 278.915 47.8767C278.962 47.4525 279.009 46.9811 279.056 46.4626C279.433 46.7455 279.622 47.0754 279.622 47.4525C279.669 47.7824 279.692 48.1123 279.692 48.4423C279.692 49.055 279.669 49.6678 279.622 50.2805C279.575 50.8933 279.504 51.5296 279.41 52.1894C279.315 52.9436 279.221 53.6977 279.127 54.4519C279.08 55.1589 279.033 55.8895 278.985 56.6436C278.985 57.3506 279.009 58.0577 279.056 58.7647C279.15 59.4717 279.221 60.2023 279.268 60.9564C279.268 61.6163 279.268 62.2997 279.268 63.0067C279.315 63.7138 279.339 64.3972 279.339 65.0571C279.292 66.3768 279.245 67.6966 279.198 69.0164C279.15 70.3361 279.103 71.6794 279.056 73.0463V78.9852C279.056 79.3623 279.033 79.7158 278.985 80.0457C278.985 80.3286 278.985 80.6349 278.985 80.9649C278.985 81.3891 279.08 81.719 279.268 81.9547C279.315 81.3419 279.339 80.7528 279.339 80.1872C279.339 79.5744 279.386 78.9617 279.48 78.3489C279.575 77.7362 279.575 77.147 279.48 76.5814C279.433 75.9686 279.527 75.3559 279.763 74.7432C279.857 74.7903 279.975 74.8139 280.117 74.8139C280.07 76.3221 280.022 77.854 279.975 79.4094C279.975 80.9649 279.952 82.5203 279.905 84.0757C280.187 83.9343 280.305 83.7222 280.258 83.4394C280.211 83.1095 280.447 82.9445 280.965 82.9445ZM250.21 86.5503C250.446 86.0789 250.493 85.6312 250.351 85.2069C250.21 84.7356 250.092 84.2878 249.998 83.8636C249.998 83.8165 249.951 83.7929 249.857 83.7929C249.809 83.7929 249.762 83.7694 249.715 83.7222C249.809 84.2407 249.88 84.7356 249.927 85.2069C250.021 85.6312 250.116 86.0789 250.21 86.5503ZM249.644 83.7222C249.927 83.3451 249.904 82.9209 249.574 82.4496C249.621 82.7324 249.644 82.9681 249.644 83.1566C249.644 83.3451 249.644 83.5337 249.644 83.7222ZM250.351 89.0955C250.729 88.907 250.893 88.6713 250.846 88.3885C250.846 88.1057 250.799 87.8229 250.705 87.5401C250.658 87.3987 250.634 87.2101 250.634 86.9745C250.681 86.7388 250.54 86.5974 250.21 86.5503C250.21 86.9745 250.21 87.3987 250.21 87.8229C250.257 88.2471 250.304 88.6713 250.351 89.0955ZM252.543 80.1872C252.543 80.47 252.543 80.7528 252.543 81.0356C252.543 81.2712 252.59 81.5305 252.685 81.8133H252.967C252.92 81.5305 252.897 81.2477 252.897 80.9649C252.897 80.6821 252.873 80.4228 252.826 80.1872H252.543ZM253.816 52.4016C253.91 52.1187 253.91 51.8831 253.816 51.6945C253.722 51.4589 253.462 51.341 253.038 51.341C253.179 51.5296 253.321 51.7181 253.462 51.9066C253.604 52.048 253.722 52.213 253.816 52.4016ZM256.008 55.0175C256.243 55.3946 256.502 55.7716 256.785 56.1487C257.068 56.4787 257.351 56.8322 257.634 57.2092C257.398 56.2666 256.997 55.4417 256.432 54.7347C255.913 54.0277 255.301 53.3442 254.594 52.6844C254.688 53.1557 254.876 53.5799 255.159 53.957C255.489 54.2869 255.772 54.6404 256.008 55.0175ZM262.088 63.9259C262.182 63.8316 262.253 63.7845 262.3 63.7845C262.206 63.6431 262.111 63.5252 262.017 63.431C261.923 63.2895 261.829 63.1717 261.734 63.0774C261.687 63.1246 261.64 63.1717 261.593 63.2188C261.546 63.2188 261.499 63.2424 261.452 63.2895L262.088 63.9259ZM265.411 65.3399C265.411 65.387 265.482 65.4106 265.623 65.4106C265.529 65.222 265.434 65.0571 265.34 64.9157C265.293 64.7271 265.222 64.5622 265.128 64.4208C264.939 64.138 264.727 63.8787 264.492 63.6431C264.256 63.3602 264.091 63.0539 263.997 62.7239C263.903 62.394 263.738 62.1583 263.502 62.0169C263.266 61.8755 263.007 61.7341 262.724 61.5927C263.525 62.8182 264.421 64.0673 265.411 65.3399ZM265.623 65.4813C265.67 65.7641 265.717 65.9526 265.764 66.0469C265.811 66.1412 266 66.3061 266.33 66.5418C266.189 66.3061 266.047 66.1176 265.906 65.9762C265.811 65.7877 265.717 65.6227 265.623 65.4813ZM268.38 68.0265C268.475 67.7909 268.545 67.6023 268.592 67.4609C268.687 67.2724 268.781 67.0603 268.875 66.8246C268.687 66.9189 268.522 66.9896 268.38 67.0367C268.286 67.0838 268.192 67.131 268.097 67.1781C268.145 67.4138 268.239 67.6966 268.38 68.0265ZM278.561 73.3291H278.349C278.396 73.5177 278.42 73.7769 278.42 74.1068H278.561V73.3291ZM278.561 84.6413C278.326 85.0184 278.184 85.2776 278.137 85.419C278.137 85.5133 278.184 85.749 278.278 86.1261C278.373 85.8904 278.42 85.6547 278.42 85.419C278.467 85.1362 278.514 84.877 278.561 84.6413ZM278.561 79.8336V75.2381H278.349V76.7935L278.137 84.005C278.137 84.1464 278.137 84.2878 278.137 84.4292C278.184 84.5706 278.326 84.6413 278.561 84.6413V79.8336ZM278.703 71.5616V69.5113C278.561 69.7469 278.491 70.1004 278.491 70.5718C278.491 70.996 278.561 71.3259 278.703 71.5616ZM278.703 67.673C278.561 67.9087 278.491 68.0501 278.491 68.0972C278.491 68.1444 278.585 68.2386 278.773 68.38C278.773 68.2386 278.75 68.1208 278.703 68.0265C278.703 67.9323 278.703 67.8144 278.703 67.673ZM279.268 82.8031C279.174 83.5572 279.127 84.005 279.127 84.1464C279.127 84.2878 279.221 84.4764 279.41 84.712C279.363 84.3821 279.339 84.0757 279.339 83.7929C279.339 83.463 279.315 83.133 279.268 82.8031ZM304.631 83.5808C305.574 83.8636 306.54 84.17 307.53 84.4999C308.52 84.7827 309.557 85.0891 310.641 85.419C310.594 85.8433 310.217 86.2203 309.51 86.5503C308.803 86.7859 308.072 87.0216 307.318 87.2573C306.611 87.4458 305.975 87.7993 305.409 88.3178C304.796 88.8363 303.995 89.0012 303.005 88.8127C301.45 88.5299 299.918 88.4121 298.41 88.4592C296.901 88.4592 295.416 88.4592 293.955 88.4592C293.484 88.8363 293.178 89.2605 293.036 89.7318C292.942 90.2503 292.918 90.8159 292.966 91.4287C292.73 91.5229 292.494 91.6172 292.259 91.7115C292.023 91.8529 291.787 91.9707 291.551 92.065C291.174 91.4994 291.009 90.9337 291.057 90.3681C291.151 89.8025 291.151 89.2369 291.057 88.6713C290.962 88.907 290.868 89.1191 290.774 89.3076C290.68 89.5433 290.585 89.779 290.491 90.0146C290.444 89.9675 290.373 89.9439 290.279 89.9439C290.326 89.6611 290.35 89.3783 290.35 89.0955C290.35 88.7656 290.397 88.4121 290.491 88.035C290.302 88.1764 290.161 88.2942 290.067 88.3885C289.972 88.4356 289.855 88.5063 289.713 88.6006C289.619 88.4592 289.548 88.3178 289.501 88.1764C289.454 88.035 289.383 87.87 289.289 87.6815C289.195 87.7758 289.101 87.8465 289.006 87.8936C288.959 87.8936 288.888 87.9407 288.794 88.035C288.653 87.8936 288.582 87.8229 288.582 87.8229C288.488 87.5401 288.417 87.2573 288.37 86.9745C288.323 86.6917 288.323 86.4324 288.37 86.1968C288.417 85.3483 288.464 84.5235 288.511 83.7222C288.606 82.8738 288.7 82.049 288.794 81.2477C288.888 80.305 288.936 79.4094 288.936 78.561C288.983 77.6655 289.03 76.7464 289.077 75.8037C289.124 75.6151 289.148 75.4502 289.148 75.3088C289.195 75.1202 289.289 74.9317 289.43 74.7432C289.478 74.9788 289.525 75.2381 289.572 75.5209C289.619 75.7565 289.666 75.9922 289.713 76.2279H289.925C289.878 75.4737 289.855 74.7432 289.855 74.0361C289.902 73.282 289.902 72.5043 289.855 71.703C289.855 71.3731 289.831 71.0431 289.784 70.7132C289.737 70.3832 289.478 70.124 289.006 69.9355C288.912 69.8883 288.865 69.7705 288.865 69.582C288.865 69.3934 288.865 69.252 288.865 69.1578C288.959 69.0635 289.148 69.0164 289.43 69.0164C289.43 68.6393 289.454 68.2622 289.501 67.8851C289.548 67.5081 289.313 67.131 288.794 66.7539C289.171 66.6596 289.383 66.5182 289.43 66.3297C289.478 66.094 289.548 65.8348 289.643 65.552C289.784 64.6093 289.76 63.6902 289.572 62.7946C289.383 61.852 289.336 60.9093 289.43 59.9666C289.525 59.4481 289.595 58.9532 289.643 58.4819C289.69 58.0105 289.737 57.5392 289.784 57.0678C289.878 56.1723 289.925 55.3003 289.925 54.4519C289.925 53.5563 289.949 52.6844 289.996 51.8359C289.996 51.6003 289.996 51.341 289.996 51.0582C289.996 50.7754 289.737 50.6105 289.218 50.5633C289.124 51.0347 289.053 51.4824 289.006 51.9066C289.006 52.2837 288.983 52.6844 288.936 53.1086C288.841 54.6169 288.771 56.1252 288.723 57.6334C288.723 59.1417 288.676 60.65 288.582 62.1583C288.488 63.5252 288.394 64.9157 288.299 66.3297C288.252 67.6966 288.181 69.0635 288.087 70.4304C288.04 71.0903 288.04 71.7501 288.087 72.41C288.134 73.0699 288.111 73.7298 288.016 74.3896C287.781 75.8508 287.686 77.3355 287.734 78.8438C287.828 80.3521 287.804 81.8604 287.663 83.3687C287.663 83.5572 287.639 83.7458 287.592 83.9343C287.592 84.1229 287.569 84.335 287.522 84.5706C287.144 84.3821 286.932 84.1464 286.885 83.8636C286.885 83.5337 286.885 83.2509 286.885 83.0152C286.932 82.3082 286.979 81.2477 287.027 79.8336C287.074 78.4196 287.121 76.8171 287.168 75.026C287.262 73.2349 287.357 71.3495 287.451 69.3699C287.545 67.3431 287.616 65.4106 287.663 63.5724C287.757 61.687 287.828 59.9666 287.875 58.4112C287.969 56.8557 288.04 55.6302 288.087 54.7347C288.087 54.2634 288.087 53.8156 288.087 53.3914C288.134 52.9672 288.181 52.5194 288.229 52.048C288.229 51.7652 288.252 51.4824 288.299 51.1996C288.346 50.9168 288.205 50.6576 287.875 50.4219C288.205 49.9977 288.205 49.6678 287.875 49.4321C287.545 49.1493 287.404 48.8194 287.451 48.4423C287.451 48.2066 287.498 48.0416 287.592 47.9474C287.734 47.7117 287.804 47.5467 287.804 47.4525C287.804 47.3582 287.757 47.1697 287.663 46.8869C288.04 46.8397 288.394 46.8162 288.723 46.8162C289.101 46.8162 289.454 46.6276 289.784 46.2505C289.454 46.1563 289.148 46.1091 288.865 46.1091C288.582 46.062 288.299 45.9913 288.016 45.897C288.535 45.5671 289.053 45.3314 289.572 45.19C290.137 45.0486 290.727 45.0486 291.339 45.19C291.716 45.2843 292.094 45.3314 292.471 45.3314C292.895 45.2843 293.295 45.2372 293.673 45.19C294.191 45.19 294.686 45.19 295.157 45.19C295.676 45.1429 296.194 45.1193 296.713 45.1193C297.938 45.1193 299.14 45.1193 300.318 45.1193C301.544 45.1193 302.769 45.1429 303.995 45.19C304.419 45.19 304.843 45.2372 305.268 45.3314C305.692 45.4257 306.116 45.5435 306.54 45.6849C306.352 45.6849 306.163 45.7085 305.975 45.7556C305.786 45.7556 305.574 45.7556 305.338 45.7556C304.725 45.7085 304.113 45.7792 303.5 45.9677C302.887 46.1091 302.251 46.1563 301.591 46.1091C300.978 46.0149 300.366 46.0384 299.753 46.1798C299.187 46.3212 298.574 46.3919 297.915 46.3919C297.349 46.3919 296.783 46.3684 296.218 46.3212C295.652 46.227 295.087 46.1563 294.521 46.1091C294.097 46.1091 293.673 46.1327 293.248 46.1798C292.824 46.227 292.423 46.2977 292.046 46.3919C292.046 46.4391 292.023 46.4862 291.976 46.5333C291.976 46.5805 291.976 46.6276 291.976 46.6747C292.164 46.7219 292.353 46.769 292.541 46.8162C292.73 46.8162 292.895 46.7926 293.036 46.7454C293.932 46.5569 294.804 46.5098 295.652 46.604C296.501 46.6512 297.373 46.6983 298.268 46.7454C299.117 46.8397 300.012 46.8397 300.955 46.7454C301.803 46.7454 302.652 46.7926 303.5 46.8869C304.348 46.934 305.173 47.099 305.975 47.3818C306.587 47.5703 306.964 47.6881 307.106 47.7353C307.294 47.7353 307.719 47.6174 308.378 47.3818C308.378 47.5703 308.378 47.7588 308.378 47.9474C308.426 48.0888 308.426 48.2537 308.378 48.4423C308.378 48.5365 308.355 48.6308 308.308 48.7251C308.308 48.8194 308.261 48.8665 308.166 48.8665C307.648 49.0079 307.153 49.1964 306.682 49.4321C306.257 49.6206 305.762 49.6678 305.197 49.5735C303.971 49.3378 302.746 49.2671 301.52 49.3614C300.578 49.4085 299.635 49.4557 298.692 49.5028C297.797 49.5028 296.878 49.4557 295.935 49.3614C295.322 49.2671 294.709 49.2671 294.097 49.3614C293.531 49.4085 292.918 49.4557 292.259 49.5028C292.306 49.5971 292.353 49.7149 292.4 49.8563C292.447 49.9506 292.471 49.9741 292.471 49.927C293.366 49.6913 294.238 49.6678 295.087 49.8563C295.935 49.9977 296.783 50.092 297.632 50.1391C298.245 50.1391 298.834 50.1155 299.399 50.0684C300.012 50.0213 300.625 49.9977 301.238 49.9977C301.803 50.0448 302.369 50.092 302.934 50.1391C303.5 50.1391 304.113 50.1627 304.773 50.2098L304.843 50.3512L304.914 50.7047C303.406 50.8461 301.945 50.964 300.531 51.0582C299.117 51.1054 297.726 51.0111 296.359 50.7754C295.039 50.5398 293.743 50.5633 292.471 50.8461C292.235 51.7417 292.235 52.6137 292.471 53.4621C292.753 54.2634 293.013 55.0646 293.248 55.8659V54.1691C293.343 54.1219 293.437 54.0984 293.531 54.0984C293.72 55.2296 293.79 56.3844 293.743 57.5627C293.743 58.7411 293.79 59.9666 293.885 61.2392C295.911 60.8621 297.915 60.8857 299.894 61.3099C301.874 61.687 303.901 62.0641 305.975 62.4411C305.032 62.6768 304.136 62.8182 303.288 62.8653C302.439 62.8653 301.52 62.7475 300.531 62.5118C299.682 62.2762 298.834 62.1348 297.985 62.0876C297.184 61.9934 296.383 61.9462 295.581 61.9462C295.299 61.9462 295.016 61.9698 294.733 62.0169C294.497 62.0641 294.262 62.1112 294.026 62.1583V62.4411H295.016C295.157 62.4411 295.299 62.4647 295.44 62.5118C295.629 62.5118 295.817 62.4883 296.006 62.4411C297.09 62.3469 298.127 62.4176 299.117 62.6532C300.106 62.8889 301.143 63.101 302.227 63.2895C302.369 63.5252 302.534 63.6666 302.722 63.7138C302.958 63.7609 303.17 63.7845 303.359 63.7845C303.594 63.7845 303.83 63.7845 304.066 63.7845C304.301 63.7845 304.513 63.8787 304.702 64.0673C305.032 64.3029 305.433 64.4915 305.904 64.6329C306.375 64.7271 306.823 64.8214 307.247 64.9157C307.483 65.0099 307.719 65.0335 307.954 64.9864C308.237 64.8921 308.52 64.8214 308.803 64.7743C308.567 65.1513 308.308 65.4577 308.025 65.6934C307.789 65.9291 307.412 66.0233 306.894 65.9762C306.658 65.9762 306.446 66.0469 306.257 66.1883C306.069 66.2826 305.904 66.3768 305.762 66.4711C304.961 66.3768 304.183 66.2826 303.429 66.1883C302.675 66.094 301.945 65.9526 301.238 65.7641C300.483 65.6227 299.753 65.5049 299.046 65.4106C298.339 65.2692 297.608 65.2692 296.854 65.4106C297.184 65.4577 297.703 65.552 298.41 65.6934C299.164 65.8348 299.965 65.9762 300.813 66.1176C301.662 66.259 302.463 66.4004 303.217 66.5418C304.018 66.6361 304.608 66.7303 304.985 66.8246C303.854 67.4845 302.769 67.6966 301.732 67.4609C300.743 67.2253 299.753 67.0603 298.763 66.966C297.915 66.8246 297.066 66.7539 296.218 66.7539C295.416 66.7539 294.568 66.7539 293.673 66.7539C293.673 69.1578 293.673 71.5616 293.673 73.9654C293.673 76.3221 293.696 78.7496 293.743 81.2477C294.026 81.2477 294.262 81.2477 294.45 81.2477C294.686 81.2005 294.922 81.2005 295.157 81.2477C295.864 81.2477 296.571 81.2477 297.278 81.2477C297.985 81.2477 298.692 81.2712 299.399 81.3184C300.248 81.4126 301.096 81.5305 301.945 81.6719C302.84 81.7661 303.712 81.8604 304.561 81.9547C305.032 81.9547 305.362 82.0254 305.55 82.1668C306.069 82.4025 306.564 82.5674 307.035 82.6617C307.554 82.756 308.048 82.6146 308.52 82.2375C308.614 82.2375 308.708 82.2846 308.803 82.3789C308.85 82.3789 308.944 82.5439 309.085 82.8738C308.284 82.9681 307.506 83.0859 306.752 83.2273C305.998 83.3687 305.291 83.4865 304.631 83.5808ZM293.814 82.0254C293.908 82.4967 293.979 82.8267 294.026 83.0152C295.534 83.1095 297.019 83.2037 298.48 83.298C299.941 83.3451 301.403 83.4158 302.864 83.5101C303.005 83.3687 303.288 83.0152 303.712 82.4496C301.968 82.4025 300.295 82.2846 298.692 82.0961C297.09 81.8604 295.464 81.8368 293.814 82.0254ZM295.44 87.1159C297.09 87.0687 298.739 87.0216 300.389 86.9745C302.086 86.9273 303.806 86.8802 305.55 86.8331C304.985 86.5974 304.348 86.4324 303.641 86.3382C302.416 86.291 301.19 86.2675 299.965 86.2675C298.787 86.2203 297.608 86.1968 296.43 86.1968C296.194 86.1496 295.982 86.1968 295.794 86.3382C295.652 86.4324 295.464 86.5267 295.228 86.621C295.275 86.7624 295.346 86.9273 295.44 87.1159Z" fill="#E8E8E8"/>
<path d="M20.9778 133.17C20.6995 132.06 20.3683 130.951 20.1695 129.831C19.5203 126.291 18.7915 122.752 18.3145 119.191C17.9303 116.306 17.7713 113.401 18.1025 110.485C18.4073 107.801 18.4338 105.106 18.5928 102.412C18.7915 99.0838 18.9903 95.7555 19.189 92.4273C19.4143 88.5812 19.7588 84.7458 19.7985 80.8998C19.825 78.0892 19.4408 75.2681 19.2553 72.4575C19.2023 71.6862 19.2553 70.9149 19.2023 70.1541C19.0168 67.5972 18.7385 65.0508 18.606 62.4938C18.4868 60.2327 18.5133 57.961 18.5 55.6998C18.4868 53.2591 18.553 50.8289 18.4868 48.3882C18.3675 44.4999 18.129 40.6222 18.0098 36.7444C17.9303 34.3988 17.9965 32.0531 17.9435 29.7075C17.8905 27.235 17.758 24.7626 17.6918 22.2902C17.6653 21.4871 17.7581 20.6736 17.7448 19.8705C17.7448 19.4056 17.599 18.9407 17.5858 18.4758C17.5195 17.0283 17.4533 15.5807 17.4665 14.1332C17.4665 13.5626 17.6653 12.9815 17.8508 12.4215C18.5928 10.2449 19.3613 8.07888 20.1563 5.91285C20.2755 5.57474 20.5538 5.26833 20.7525 4.96191C21.68 5.06757 21.5343 5.65927 21.5873 5.98682C21.9583 8.33247 22.952 10.5408 23.9458 12.7491C24.3433 13.6366 24.4758 14.503 24.383 15.454C24.1313 18.0532 24.065 20.663 23.9325 23.2622C23.8133 25.6501 23.7205 28.0486 23.6145 30.4365C23.4688 33.5958 23.323 36.755 23.2038 39.9142C23.1773 40.7278 23.3098 41.5414 23.2833 42.3444C23.217 45.0705 23.0713 47.807 23.058 50.5331C23.058 53.3014 23.217 56.0697 23.2435 58.8379C23.2435 60.201 23.0183 61.5534 23.0713 62.9164C23.1773 65.4628 23.482 68.0092 23.6013 70.5556C23.694 72.4364 23.6278 74.3171 23.641 76.1979C23.641 78.8499 23.588 81.502 23.694 84.1541C23.8133 87.0914 24.171 90.0288 24.2373 92.9661C24.33 97.108 24.224 101.25 24.2373 105.392C24.2638 109.629 24.3698 113.855 24.3698 118.092C24.3698 118.916 24.0385 119.751 23.747 120.565C22.952 122.836 22.6075 125.15 22.369 127.485C22.1703 129.377 21.733 131.247 21.4018 133.127L20.9778 133.17Z" fill="#E8E8E8"/>
<path d="M6.13759 115.387C19.9308 116.211 32.6243 117.162 47.1065 117.511C60.5553 117.828 74.6135 117.617 88.155 117.532C117.437 117.363 146.733 117.12 175.976 116.803C204.477 116.497 232.885 115.947 261.359 115.556C290.602 115.155 319.99 115.081 349.18 114.574C351.074 114.542 351.074 114.014 349.18 113.982C320.798 113.485 292.231 113.411 263.797 113.031C234.514 112.64 205.285 112.069 175.976 111.752C147.541 111.446 119.067 111.224 90.593 111.045C77.0383 110.96 62.8343 110.728 49.3325 110.992C34.0818 111.288 20.5933 112.312 6.13759 113.179C0.731597 113.506 0.718347 115.049 6.13759 115.366V115.387Z" fill="#E8E8E8"/>
<path d="M33.0087 22.5751C36.0297 22.5223 39.0374 22.4483 42.0584 22.4272C55.5999 22.3215 69.1547 22.2159 82.7094 22.1102C94.5681 22.0891 106.44 22.0785 118.299 22.0574L171.988 21.9306C188.219 21.846 204.45 21.7193 220.655 21.4974C229.97 21.3706 239.245 21.0325 248.705 20.5993C246.996 20.5464 245.287 20.4619 243.577 20.4619L214.295 20.4302C179.514 20.3351 144.733 20.2083 109.965 19.923C93.3624 19.7962 76.7999 19.4264 60.2109 19.194C50.6709 19.0355 41.0779 19.0672 31.5247 18.9298C31.1404 18.9298 30.7562 18.951 30.3852 18.9298C25.6417 18.7291 20.885 18.5495 16.168 18.2747L9.07922 17.8944L7.30372 17.7993L5.62097 17.6513L2.25547 17.3661C1.75198 17.3238 1.26173 17.2498 0.188477 17.123C2.10972 17.1653 4.03097 17.2076 5.93897 17.2393L7.35672 17.2815H11.8352C15.8102 17.3238 19.7587 17.3555 23.6807 17.3872C31.5644 17.4295 39.3819 17.6302 47.2259 17.831C53.0957 17.9895 59.0582 17.9683 64.9809 18C78.1381 18.0212 91.2954 18.1268 104.439 18C118.153 17.8838 131.84 17.514 145.554 17.3344C152.775 17.2498 160.05 17.3344 167.297 17.3766C186.589 17.5034 205.868 17.6196 225.147 17.7464C231.838 17.7253 238.529 17.7147 245.22 17.6936C260.06 17.7147 274.847 17.8204 289.568 18.2642C298.724 18.5495 307.946 18.7925 317.38 18.7079C323.992 18.6446 330.656 18.951 337.268 19.1517C343.641 19.3842 349.975 19.6061 356.335 19.8385C358.76 19.923 360.164 20.1766 359.555 20.8C349.206 21.8249 338.924 22.8815 327.728 23.3147C320.573 23.5894 313.339 23.7585 306.104 23.9064C297.518 24.0543 288.906 24.1917 280.32 24.3396C272.9 24.477 265.506 24.7094 258.086 24.8045C253.144 24.8679 248.162 24.8045 243.233 24.7094C231.427 24.4875 219.648 24.7306 207.842 24.7728C194.142 24.8257 180.441 24.6143 166.741 24.5192C161.958 24.5087 157.174 24.4875 152.404 24.477C139.684 24.3502 126.938 24.5298 114.218 24.1917C105.049 23.9487 95.7076 24.0543 86.4326 23.9381C83.7959 23.9064 81.1724 23.7585 78.5356 23.7268L41.5549 23.2936C39.0904 23.2619 36.5994 23.1774 34.1747 23.0611C33.6579 23.04 33.3532 22.7547 32.9557 22.5857L33.0087 22.5751Z" fill="#E8E8E8"/>
<path d="M342.144 0.260309C342.754 3.76822 343.708 7.26557 343.92 10.7946C344.397 19.0678 344.609 27.341 344.741 35.6247C344.913 46.5605 344.781 57.4963 344.993 68.4321C345.099 73.7785 345.814 79.1249 346.093 84.4713C346.265 87.7257 345.987 91.0011 346.159 94.2554C346.53 101.123 346.927 107.991 347.603 114.849C347.842 117.215 347.444 119.381 346.543 121.579C345.814 123.333 345.311 125.15 344.529 126.883C344.304 127.39 343.482 127.739 342.634 128.373C342.157 127.57 341.733 127.052 341.521 126.482C339.984 122.266 339.295 117.987 339.229 113.57C339.176 109.988 338.249 106.417 337.997 102.835C337.732 99.0418 337.772 95.2381 337.745 91.4449C337.745 90.0607 337.944 88.666 337.984 87.2819C338.169 80.9634 338.288 74.6344 338.487 68.3159C338.845 57.6231 339.269 46.9303 339.627 36.2375C339.878 28.7251 340.037 21.2021 340.263 13.6897C340.369 9.98103 340.501 6.27236 340.7 2.5637C340.74 1.76068 341.058 0.968231 341.256 0.175781C341.548 0.207479 341.853 0.239177 342.144 0.270875V0.260309Z" fill="#E8E8E8"/>
</svg>
