<svg width="273" height="131" viewBox="0 0 273 131" fill="none" xmlns="http://www.w3.org/2000/svg">
<path d="M254.957 0.00648499C256.083 1.48346 257.065 2.70132 257.933 3.95157C258.274 4.44389 258.522 5.00747 258.533 5.54514C258.667 10.5137 258.75 15.4823 258.843 20.4509C258.977 27.6544 258.936 34.8579 259.308 42.0549C259.535 46.3757 259.235 50.6771 259.029 54.9849C258.915 57.2717 259.132 59.5584 259.101 61.8451C259.06 64.216 258.946 66.587 258.781 68.9579C258.615 71.2835 258.243 73.6091 258.13 75.9412C258.026 77.9688 258.13 79.9964 258.181 82.0304C258.223 83.7601 258.326 85.4897 258.409 87.2128C258.46 88.3788 258.564 89.5384 258.564 90.7044C258.564 92.9005 258.481 95.0965 258.491 97.2925C258.491 98.7565 258.636 100.221 258.667 101.685C258.708 103.978 258.998 106.284 258.667 108.551C258.347 110.754 258.233 112.937 258.378 115.133C258.564 117.899 258.688 120.659 258.874 123.425C258.915 124.072 258.967 124.733 259.235 125.355C259.607 126.23 259.432 127.026 258.936 127.849C258.502 128.575 258.264 129.339 257.882 130.077C257.768 130.304 257.448 130.492 257.148 130.764C256.001 130.181 255.494 129.449 255.174 128.685C254.792 127.771 254.451 126.851 254.254 125.919C254.048 124.953 253.913 123.969 253.944 122.997C254.027 120.406 254.244 117.815 254.347 115.224C254.409 113.455 254.306 111.687 254.368 109.918C254.44 107.858 254.699 105.792 254.688 103.732C254.688 101.581 254.451 99.4367 254.337 97.286C254.13 93.4058 253.861 89.5254 253.748 85.6387C253.634 81.8944 253.686 78.1501 253.665 74.3994C253.655 71.86 253.624 69.3272 253.634 66.7878C253.634 65.3303 253.727 63.8662 253.748 62.4087C253.81 58.9106 253.799 55.4125 253.944 51.9209C254.027 49.8609 254.42 47.8074 254.513 45.7474C254.616 43.2015 254.595 40.6557 254.544 38.1034C254.492 35.4733 254.389 32.8368 254.234 30.2067C254.099 27.9718 253.758 25.7369 253.655 23.5021C253.51 20.5222 253.582 17.5423 253.427 14.5625C253.293 12.0231 253.086 9.48374 252.694 6.95734C252.518 5.84313 252.942 4.8196 253.221 3.7637C253.5 2.70131 253.913 1.65837 254.327 0.615417C254.409 0.395172 254.75 0.207306 254.988 0L254.957 0.00648499Z" fill="#E8E8E8"/>
<path d="M270.457 15.8956C269.847 16.1083 269.475 16.321 269.077 16.3615C262.428 16.9389 255.991 18.3366 249.568 19.6736C246.873 20.2307 244.312 20.4029 241.538 20.1396C238.486 19.8458 235.367 19.9471 232.275 19.9066C225.758 19.8256 219.255 19.6838 212.739 19.704C204.776 19.7243 196.8 19.937 188.837 19.9775C184.55 19.9978 180.263 19.8256 175.977 19.7648C168.014 19.6534 160.051 19.5521 152.101 19.4508C148.425 19.4002 144.735 19.2786 141.059 19.3191C134.211 19.39 127.363 19.6433 120.515 19.6736C113.401 19.704 106.274 19.4002 99.1609 19.542C92.9233 19.6736 86.6591 19.4204 80.448 20.2206C78.1786 20.5143 75.8295 20.4232 73.507 20.4434C69.3132 20.4738 65.1194 20.3725 60.9388 20.4637C54.9534 20.6055 48.9546 20.7979 42.9824 21.1119C36.559 21.4462 30.1886 21.1322 23.805 20.5548C18.4698 20.0788 13.0683 20.0383 7.70658 19.7648C6.10072 19.6838 4.50814 19.4407 2.54395 19.228C4.62758 18.1341 6.77757 18.053 8.75504 17.8201C14.2495 17.1819 19.7704 16.5641 25.3047 16.3007C30.0028 16.0779 34.7275 16.3413 39.4522 16.4122C42.3719 16.4527 45.2784 16.554 48.1981 16.5843C60.0231 16.6958 71.8613 16.8578 83.6863 16.8578C87.7739 16.8578 91.8616 16.4223 95.9625 16.2906C99.5458 16.1792 103.156 16.2906 106.739 16.1792C112.897 15.9969 119.055 15.6626 125.213 15.5208C128.027 15.4499 130.853 15.6322 133.667 15.7943C145.319 16.4831 156.985 16.0576 168.651 16.1488C177.822 16.2197 187.005 16.4527 196.176 16.4122C202.082 16.3818 207.988 15.9867 213.894 15.774C218.18 15.6221 222.467 15.5411 226.74 15.3284C232.633 15.0346 238.512 14.589 244.392 14.2952C251.306 13.9508 258.234 13.7787 265.135 14.5181C265.892 14.5991 266.675 14.5788 267.444 14.589C268.639 14.5991 269.568 14.9637 270.43 15.9158L270.457 15.8956Z" fill="#E8E8E8"/>
<path d="M272.77 106.556C265.292 107.051 257.854 107.821 250.349 107.981C232.742 108.36 215.109 108.54 197.488 108.636C174.202 108.771 150.915 108.662 127.629 108.841C116.243 108.931 104.87 109.503 93.4837 109.727C86.5465 109.862 79.5822 109.644 72.6449 109.785C58.0267 110.08 43.3949 110.401 28.8037 110.947C23.7597 111.133 19.1619 110.825 14.483 110.093C10.7507 109.509 6.88315 109.098 3.17788 108.469C2.08252 108.283 1.35229 107.622 0 106.948C1.71741 106.556 2.82628 106.223 4.02982 106.056C12.9955 104.817 22.1234 104.258 31.5218 104.201C39.1488 104.156 46.7486 103.411 54.389 103.206C62.4622 102.994 70.5624 103.026 78.6491 103C81.6106 102.994 84.5586 103.154 87.5201 103.186C100.975 103.334 114.444 103.43 127.899 103.597C150.672 103.886 173.431 104.226 196.204 104.515C212.201 104.714 228.212 104.849 244.223 105.035C252.121 105.125 260.018 105.234 267.915 105.382C269.619 105.414 271.296 105.671 273 105.825C272.932 106.062 272.865 106.306 272.797 106.543L272.77 106.556Z" fill="#E8E8E8"/>
<path d="M20.9287 4C21.2779 4.34402 21.6505 4.62045 21.8484 4.93375C22.3838 5.76923 23.1521 6.61085 23.2802 7.47089C23.4548 8.65038 24.2697 9.78687 23.9088 11.0094C23.5712 12.1274 23.5363 13.2701 23.3035 14.4004C22.8611 16.6119 22.3606 18.8235 21.9298 21.0412C21.7319 22.0425 21.5573 23.05 21.4991 24.0636C21.2081 28.5543 20.3234 33.0326 20.8938 37.5479C21.3944 41.5901 21.243 45.663 21.3245 49.7175C21.3827 52.5127 21.3827 55.3139 21.3245 58.1091C21.2896 59.7985 21.0684 61.4878 21.0102 63.1772C20.952 65.0017 21.1848 66.8385 20.9287 68.6508C20.5562 71.2125 21.08 73.7496 21.0568 76.3052C21.0335 78.615 21.4409 80.9248 21.406 83.2285C21.3594 86.8346 21.08 90.4345 20.952 94.0344C20.8821 95.8958 20.9171 97.7571 20.9287 99.6185C20.9636 102.702 21.0102 105.786 21.08 108.87C21.0917 109.435 21.243 110 21.3361 110.56C21.6621 112.538 21.8949 114.522 22.3489 116.494C22.7331 118.177 23.4082 119.848 23.8739 121.525C24.0019 121.986 23.967 122.477 23.804 122.932C23.3151 124.326 22.7564 125.709 22.1743 127.091C22.0695 127.337 21.7087 127.545 21.2314 128C20.789 126.974 20.498 126.2 20.1255 125.438C19.4969 124.148 18.8799 122.852 18.1232 121.58C17.5179 120.554 17.4015 119.547 17.5877 118.484C17.8788 116.838 18.2629 115.191 17.937 113.521C17.6925 112.273 17.9253 111.008 17.8788 109.755C17.774 106.8 17.5761 103.845 17.5179 100.884C17.4364 96.6207 17.483 92.3573 17.3782 88.0939C17.3084 84.967 17.0173 81.8463 16.9824 78.7256C16.9358 75.1134 17.0755 71.5012 17.1221 67.889C17.1803 63.3492 17.192 58.8094 17.3084 54.2696C17.3666 52.0028 17.6925 49.7298 17.7158 47.463C17.774 42.5976 17.774 37.726 17.6576 32.8606C17.5761 29.2976 17.2502 25.7407 17.0872 22.1777C17.0523 21.336 17.32 20.4883 17.2618 19.6405C17.1803 18.2645 16.9941 16.8884 16.7496 15.5185C16.5517 14.3881 16.0744 13.2701 16.0046 12.1397C15.958 11.4332 16.2723 10.6899 16.7263 10.0142C18.0185 8.04835 19.4503 6.10711 20.9404 4H20.9287Z" fill="#E8E8E8"/>
<path d="M88.3194 83.6567H87.6831C87.7774 83.8453 87.8717 84.0102 87.9659 84.1516C88.1073 84.293 88.2251 84.458 88.3194 84.6465C88.1309 84.7408 87.9659 84.8115 87.8245 84.8586C87.6831 84.9057 87.5182 84.9529 87.3296 85C86.9997 85 86.7876 84.9529 86.6933 84.8586C86.4577 84.6229 86.2456 84.3873 86.0571 84.1516C85.8685 83.916 85.6564 83.6803 85.4208 83.4446V84.3637C84.9494 83.7039 84.596 83.1854 84.3603 82.8083C84.4074 82.9969 84.431 83.1618 84.431 83.3032C84.4781 83.4446 84.5253 83.6096 84.5724 83.7981C84.3839 84.1752 84.2425 84.4815 84.1482 84.7172C83.6297 84.5287 83.2056 84.1516 82.8756 83.586C82.6871 83.209 82.4986 82.8319 82.31 82.4549C82.1215 82.0778 81.8858 81.7714 81.6031 81.5358C81.3674 81.3001 81.1082 80.9938 80.8254 80.6167C80.5897 80.2396 80.3541 79.839 80.1184 79.4148C79.8827 78.9435 79.6471 78.5193 79.4114 78.1423C79.1757 77.7181 78.9872 77.3881 78.8458 77.1525C78.6102 76.7754 78.3981 76.4219 78.2095 76.092C78.021 75.7621 77.8089 75.4086 77.5732 75.0315C77.1962 74.5131 76.8191 73.9946 76.4421 73.4762C76.065 72.9106 75.688 72.345 75.3109 71.7794C75.0752 71.4495 74.8631 71.1195 74.6746 70.7896C74.5332 70.4126 74.3447 70.0826 74.109 69.7998C73.8734 69.4699 73.6377 69.14 73.402 68.8101C73.2135 68.4801 72.9778 68.1973 72.6951 67.9617C72.5537 67.9145 72.4594 67.8203 72.4123 67.6789C71.9409 66.9248 71.4696 66.1707 70.9983 65.4165C70.5741 64.6624 70.1028 63.8847 69.5843 63.0835C69.4901 63.2249 69.3958 63.3427 69.3015 63.437C69.2544 63.5312 69.1837 63.6255 69.0894 63.7198C68.9009 64.0026 68.7124 64.3089 68.5238 64.6389C68.3353 64.9216 68.1468 65.228 67.9583 65.5579L67.322 66.6184C67.2277 66.7598 67.157 66.9012 67.1099 67.0426C67.0627 67.184 66.992 67.2783 66.8978 67.3254C66.5207 67.4197 66.3086 67.5846 66.2615 67.8203C66.2615 68.0559 66.2615 68.2916 66.2615 68.5273C66.3086 69.14 66.3558 69.7291 66.4029 70.2947C66.45 70.8603 66.4972 71.4495 66.5443 72.0622C66.5443 73.052 66.5207 74.0417 66.4736 75.0315C66.4736 75.9742 66.45 76.9404 66.4029 77.9302C66.4029 78.3072 66.3793 78.7078 66.3322 79.132C66.3322 79.5091 66.3322 79.8861 66.3322 80.2632C66.2379 80.7345 66.1908 81.1352 66.1908 81.4651C66.1908 81.8421 66.2144 82.2428 66.2615 82.667C66.3086 83.0911 66.3558 83.5153 66.4029 83.9395C66.4972 84.4108 66.2851 84.7172 65.7666 84.8586C65.6723 84.6701 65.5781 84.5051 65.4838 84.3637C65.4367 84.2223 65.3895 84.1045 65.3424 84.0102C65.3895 83.7746 65.4131 83.6096 65.4131 83.5153C65.4602 83.3739 65.5074 83.2325 65.5545 83.0911C65.4602 83.0911 65.366 83.0911 65.2717 83.0911C65.2246 83.044 65.1539 83.0204 65.0596 83.0204C65.0125 83.3032 64.9654 83.586 64.9182 83.8688C64.9182 84.1045 64.8947 84.3637 64.8475 84.6465C64.6119 84.5994 64.3998 84.5758 64.2112 84.5758C64.0698 84.5287 63.9049 84.4815 63.7164 84.4344C63.6221 84.1516 63.5278 83.8688 63.4336 83.586C63.3864 83.2561 63.3393 82.9262 63.2922 82.5963C63.245 82.2663 63.2215 81.96 63.2215 81.6772C63.2215 81.3472 63.2215 81.0409 63.2215 80.7581C63.2215 80.4282 63.2215 80.1218 63.2215 79.839C63.2215 79.5091 63.1979 79.1792 63.1508 78.8492C62.868 79.2263 62.7501 79.6505 62.7973 80.1218C62.8915 80.546 62.9151 80.9702 62.868 81.3944C62.8208 81.8186 62.8208 82.2428 62.868 82.667C62.9622 83.0911 63.0565 83.5389 63.1508 84.0102C63.0094 84.1045 62.868 84.1752 62.7266 84.2223C62.6323 84.2223 62.4909 84.2694 62.3024 84.3637C62.2081 84.1281 62.1139 83.916 62.0196 83.7274C61.9253 83.5389 61.8782 83.3268 61.8782 83.0911C61.9253 82.8555 61.9489 82.7141 61.9489 82.667C61.996 82.5727 61.9725 82.4077 61.8782 82.1721H61.454C61.454 82.0778 61.4776 81.9835 61.5247 81.8893C61.5718 81.7479 61.5718 81.63 61.5247 81.5358C61.3833 80.9702 61.3833 80.4046 61.5247 79.839C61.619 79.6034 61.619 79.3677 61.5247 79.132C61.4776 78.8492 61.4776 78.59 61.5247 78.3543C61.619 77.8359 61.6425 77.341 61.5954 76.8697C61.5483 76.3984 61.5718 75.927 61.6661 75.4557C61.6661 75.22 61.6661 75.1022 61.6661 75.1022C61.8075 74.5838 61.8546 74.0653 61.8075 73.5469C61.8075 72.9813 61.7604 72.4392 61.6661 71.9208C61.619 71.4023 61.5718 70.8839 61.5247 70.3654C61.4776 69.847 61.454 69.3285 61.454 68.8101C61.4069 68.1031 61.3597 67.3961 61.3126 66.6891C61.3126 65.9821 61.3126 65.2516 61.3126 64.4975C61.3126 64.3561 61.289 64.2147 61.2419 64.0733C61.2419 63.9319 61.2419 63.7905 61.2419 63.6491C61.289 63.2249 61.3126 62.8007 61.3126 62.3765C61.3126 61.9052 61.3126 61.4574 61.3126 61.0332C61.3126 60.8447 61.289 60.6797 61.2419 60.5383C61.2419 60.3969 61.2419 60.2084 61.2419 59.9728C60.8648 60.2084 60.7235 60.4441 60.8177 60.6797C60.9591 60.9154 60.9827 61.1511 60.8884 61.3867C60.7941 61.6224 60.7706 61.858 60.8177 62.0937C60.912 62.3294 60.9355 62.565 60.8884 62.8007C60.747 61.858 60.6763 60.9154 60.6763 59.9728C60.7235 58.983 60.7235 57.9932 60.6763 57.0034C60.5821 56.0608 60.5349 55.1181 60.5349 54.1755C60.5349 53.2328 60.5114 52.2902 60.4642 51.3475C60.4171 50.3578 60.37 49.3916 60.3228 48.4489C60.2757 47.4591 60.2521 46.4929 60.2521 45.5503C60.2521 44.6076 60.2521 43.665 60.2521 42.7223C60.2993 41.7326 60.205 40.7663 59.9693 39.8237C60.1107 40.1536 60.2521 40.4836 60.3935 40.8135C60.5821 41.1434 60.7706 41.4969 60.9591 41.874C61.1005 41.7797 61.1712 41.6619 61.1712 41.5205C61.1712 41.3319 61.1712 41.167 61.1712 41.0256C61.2655 41.0256 61.5011 41.0727 61.8782 41.167C61.8311 40.9784 61.8075 40.7428 61.8075 40.46C61.9489 40.5071 62.0667 40.5543 62.161 40.6014C62.3024 40.6014 62.4438 40.6249 62.5852 40.6721C62.6323 40.8135 62.6559 40.9549 62.6559 41.0963C62.6559 41.2377 62.6794 41.3791 62.7266 41.5205C62.1139 41.5676 61.8311 41.8504 61.8782 42.3688C62.161 42.4631 62.3966 42.5338 62.5852 42.5809V43.6414V44.5605H62.7973C62.8915 44.372 62.9387 44.207 62.9387 44.0656C62.9858 43.8771 63.0565 43.6885 63.1508 43.5C63.245 43.2644 63.3393 43.0758 63.4336 42.9344C63.5278 42.7459 63.6221 42.5338 63.7164 42.2981C64.0463 42.8166 64.2112 43.3351 64.2112 43.8535C64.2584 44.3248 64.3291 44.8433 64.4233 45.4089C64.6119 44.8433 64.7768 44.3013 64.9182 43.7828C65.0596 43.2644 65.2246 42.7459 65.4131 42.2274C65.6959 42.3688 65.743 42.5809 65.5545 42.8637C65.3188 43.0523 65.2482 43.2172 65.3424 43.3586C65.4367 43.4529 65.5309 43.5472 65.6252 43.6414C65.5781 43.8299 65.5545 43.9949 65.5545 44.1363C65.5545 44.2777 65.5074 44.4191 65.4131 44.5605C65.3188 44.7962 65.2953 45.0318 65.3424 45.2675C65.4367 45.456 65.4131 45.6681 65.2717 45.9038C65.1775 46.0923 65.1303 46.3044 65.1303 46.5401C65.1775 46.7286 65.1775 46.9407 65.1303 47.1763C65.1303 47.412 65.1068 47.6477 65.0596 47.8833C65.0596 48.119 65.0596 48.3546 65.0596 48.5903C65.0596 48.7317 65.0832 48.8495 65.1303 48.9438C65.1303 49.0852 65.1303 49.2266 65.1303 49.368C65.1775 49.4623 65.201 49.5565 65.201 49.6508C65.1068 50.9234 65.1303 52.1959 65.2717 53.4685C65.4131 54.6939 65.5545 55.9194 65.6959 57.1448C65.743 57.6161 65.7902 58.0639 65.8373 58.4881C65.8844 58.9123 65.9787 59.36 66.1201 59.8314C66.3086 59.5014 66.4736 59.1951 66.615 58.9123C66.8035 58.5824 66.992 58.276 67.1806 57.9932C67.0863 57.8047 66.992 57.6397 66.8978 57.4983C66.8035 57.3098 66.7093 57.1213 66.615 56.9327C66.6621 56.9327 66.7093 56.9092 66.7564 56.862C66.8506 56.9563 66.9449 57.0741 67.0392 57.2155C67.1334 57.3569 67.2513 57.4983 67.3927 57.6397C67.6283 57.3098 67.8169 57.0034 67.9583 56.7206C68.1468 56.4378 68.3353 56.155 68.5238 55.8722C69.1837 54.9296 69.7964 53.987 70.362 53.0443C70.9747 52.1017 71.5874 51.159 72.2002 50.2164C72.7658 49.3209 73.3313 48.4489 73.8969 47.6005C74.4625 46.705 75.0752 45.8331 75.7351 44.9847C75.9707 44.6076 76.2535 44.2541 76.5835 43.9242C76.9134 43.5943 77.2433 43.2408 77.5732 42.8637L78.6337 41.5912C78.5395 41.4969 78.4452 41.4498 78.3509 41.4498C78.2567 41.4026 78.1624 41.3319 78.0681 41.2377C78.3038 41.0491 78.4923 40.8842 78.6337 40.7428C78.8223 40.5542 79.0343 40.3657 79.27 40.1772C79.3171 40.2715 79.3407 40.3422 79.3407 40.3893C79.3878 40.3893 79.435 40.4364 79.4821 40.5307C79.5764 40.4364 79.6942 40.3657 79.8356 40.3186C79.977 40.2715 80.0948 40.2008 80.1891 40.1065C80.3305 40.2479 80.4012 40.3657 80.4012 40.46C80.3069 40.6956 80.1891 40.9549 80.0477 41.2377C79.9534 41.4733 79.8356 41.709 79.6942 41.9447C79.4114 42.416 79.105 42.8637 78.7751 43.2879C78.4923 43.7121 78.1624 44.1599 77.7853 44.6312C77.7382 44.6783 77.6911 44.7255 77.6439 44.7726C77.6439 44.8197 77.5968 44.8669 77.5025 44.914C76.8427 45.291 76.3242 45.8095 75.9472 46.4694C75.6173 47.0821 75.2638 47.6712 74.8867 48.2368C74.6982 48.4725 74.5332 48.7317 74.3918 49.0145C74.2504 49.2973 74.0855 49.5565 73.8969 49.7922C73.1899 50.8762 72.4594 51.9603 71.7053 53.0443C70.9983 54.0812 70.2677 55.1417 69.5136 56.2257C69.4194 56.3671 69.3251 56.5321 69.2308 56.7206C69.1837 56.9092 69.113 57.0977 69.0187 57.2862C69.2073 57.3805 69.3722 57.4747 69.5136 57.569L69.9378 56.9327C70.3149 56.4143 70.6684 55.8958 70.9983 55.3774C71.3753 54.8118 71.7524 54.2462 72.1295 53.6806C72.5537 52.9736 73.0014 52.2902 73.4727 51.6303C73.9441 50.9234 74.4625 50.2399 75.0281 49.5801C75.2166 49.4387 75.3345 49.2502 75.3816 49.0145C75.4287 48.7788 75.4994 48.5432 75.5937 48.3075C76.1121 47.3649 76.6777 46.5165 77.2905 45.7624C77.9503 44.9611 78.5866 44.1599 79.1993 43.3586C79.2464 43.3586 79.27 43.3822 79.27 43.4293C79.3171 43.4293 79.3643 43.4293 79.4114 43.4293C79.4114 43.665 79.3878 43.8535 79.3407 43.9949C79.435 43.9478 79.5292 43.9006 79.6235 43.8535C79.7649 43.8064 79.9063 43.7592 80.0477 43.7121C80.142 44.0892 80.0477 44.372 79.7649 44.5605C79.5292 44.7019 79.4114 44.8904 79.4114 45.1261C79.3643 45.4089 79.27 45.6681 79.1286 45.9038C79.0343 46.1394 78.9401 46.3751 78.8458 46.6107C79.3171 46.1866 79.7649 45.7624 80.1891 45.3382C80.6604 44.914 81.1553 44.4427 81.6738 43.9242C81.768 44.2541 81.7916 44.4662 81.7445 44.5605C81.6502 44.8904 81.4852 45.1968 81.2496 45.4796C81.0139 45.7624 80.684 45.9509 80.2598 46.0452C79.8356 46.1866 79.5764 46.5165 79.4821 47.0349C79.4821 47.3649 79.435 47.6005 79.3407 47.7419C78.9636 48.3075 78.5866 48.8731 78.2095 49.4387C77.8796 49.9571 77.5261 50.4992 77.1491 51.0648C77.0077 51.2533 76.8427 51.4418 76.6542 51.6303C76.5128 51.7717 76.3949 51.9367 76.3007 52.1252C76.065 52.5023 75.8529 52.8558 75.6644 53.1857C75.523 53.5156 75.3345 53.8456 75.0988 54.1755C74.816 54.5997 74.5096 55.0239 74.1797 55.4481C73.8498 55.8251 73.5434 56.2257 73.2606 56.6499C73.0721 56.9799 72.9071 57.3098 72.7658 57.6397C72.6244 57.9696 72.483 58.3231 72.3416 58.7002C72.2944 58.7473 72.318 58.8887 72.4123 59.1244C72.6951 59.5486 72.9778 59.9728 73.2606 60.3969C73.5906 60.774 73.8969 61.1746 74.1797 61.5988C74.274 61.8345 74.3918 62.0466 74.5332 62.2351C74.6746 62.3765 74.7924 62.565 74.8867 62.8007C75.6408 64.3561 76.4892 65.7465 77.4318 66.9719C77.7146 67.349 77.9503 67.7496 78.1388 68.1738C78.3745 68.5508 78.6102 68.9279 78.8458 69.3049C79.0343 69.5406 79.2229 69.7998 79.4114 70.0826C79.5999 70.3183 79.7885 70.554 79.977 70.7896C80.6368 71.7323 81.391 72.9577 82.2393 74.4659C83.0877 75.927 83.8418 77.1525 84.5017 78.1423C84.7845 78.5664 85.0908 78.9906 85.4208 79.4148C85.7978 79.839 86.1513 80.2868 86.4812 80.7581C86.764 81.2294 87.0468 81.7007 87.3296 82.1721C87.6124 82.6434 87.9423 83.1383 88.3194 83.6567ZM68.6652 59.0537C69.0423 58.7237 69.2544 58.441 69.3015 58.2053C69.3487 57.9696 69.2544 57.6633 69.0187 57.2862C68.9245 57.4276 68.8302 57.569 68.7359 57.7104C68.6888 57.8518 68.6181 58.0168 68.5238 58.2053C68.2882 58.5824 68.3353 58.8651 68.6652 59.0537ZM82.9463 81.3237C83.182 81.5593 83.3941 81.795 83.5826 82.0307C83.8183 82.2663 84.0539 82.502 84.2896 82.7377C84.1953 82.4077 84.0539 82.1485 83.8654 81.96C83.724 81.7714 83.4176 81.5593 82.9463 81.3237ZM102.767 46.4694H102.696C102.649 46.4222 102.602 46.3987 102.555 46.3987C102.508 46.3515 102.46 46.3044 102.413 46.2573L102.555 46.1159C102.602 46.2101 102.625 46.2808 102.625 46.328C102.672 46.328 102.72 46.3751 102.767 46.4694ZM114.432 35.6525C114.149 35.7468 113.961 35.7703 113.866 35.7232C113.819 35.6761 113.678 35.5111 113.442 35.2283C113.631 35.3226 113.796 35.3933 113.937 35.4404C114.078 35.4875 114.243 35.5582 114.432 35.6525ZM96.8988 36.2181C97.2758 36.3595 97.3701 36.5716 97.1816 36.8544C97.0402 37.1372 97.0873 37.3964 97.323 37.632C96.7574 37.1136 96.616 36.6423 96.8988 36.2181ZM96.7574 37.8441C96.7574 37.8913 96.7102 37.9148 96.616 37.9148C96.5688 37.8206 96.5217 37.7263 96.4746 37.632C96.4274 37.4907 96.3803 37.3728 96.3332 37.2786C96.3803 37.2314 96.4274 37.2079 96.4746 37.2079C96.5217 37.3021 96.5688 37.42 96.616 37.5614C96.6631 37.6556 96.7102 37.7499 96.7574 37.8441ZM116.836 36.4302C117.166 36.4302 117.425 36.4537 117.613 36.5009C117.519 36.6423 117.448 36.7837 117.401 36.9251C117.354 37.0193 117.283 37.1372 117.189 37.2786C117.142 37.1843 117.095 37.0665 117.048 36.9251C117.001 36.7837 116.93 36.6187 116.836 36.4302ZM101.07 85C101.117 84.7643 101.141 84.5994 101.141 84.5051C101.141 84.4108 101.141 84.293 101.141 84.1516C101.235 84.2459 101.329 84.3166 101.423 84.3637C101.518 84.3637 101.612 84.4108 101.706 84.5051C101.612 84.5994 101.518 84.6701 101.423 84.7172C101.329 84.7643 101.211 84.8586 101.07 85ZM116.058 36.7837C116.294 37.0193 116.482 37.2786 116.624 37.5614C116.765 37.797 116.765 38.1034 116.624 38.4804C116.529 38.8104 116.435 39.1167 116.341 39.3995C116.294 39.6823 116.176 39.9415 115.987 40.1772C115.799 40.4129 115.681 40.6956 115.634 41.0256C115.634 41.3555 115.587 41.6854 115.492 42.0153C115.445 42.2039 115.398 42.3924 115.351 42.5809C115.351 42.7695 115.327 42.958 115.28 43.1465C115.233 43.2879 115.186 43.4293 115.139 43.5707C115.139 43.7121 115.233 43.8771 115.422 44.0656C115.516 44.1599 115.563 44.3248 115.563 44.5605C115.61 44.749 115.61 44.9376 115.563 45.1261C115.422 45.6445 115.28 46.163 115.139 46.6814C114.998 47.1999 114.833 47.7184 114.644 48.2368C114.22 49.5565 113.772 50.8762 113.301 52.1959C112.877 53.4685 112.429 54.7646 111.958 56.0843C111.863 56.4614 111.745 56.8149 111.604 57.1448C111.463 57.4276 111.321 57.7575 111.18 58.1346C111.086 58.3231 111.015 58.4881 110.968 58.6295C110.968 58.7709 110.921 58.9358 110.826 59.1244C110.544 60.067 110.261 61.0332 109.978 62.023C109.695 63.0128 109.436 63.979 109.2 64.9216C109.106 65.1102 109.012 65.2987 108.918 65.4872C108.823 65.6286 108.823 65.8172 108.918 66.0528C108.682 66.0057 108.54 66.0764 108.493 66.2649C108.493 66.4063 108.47 66.5241 108.423 66.6184C108.281 66.8069 108.211 67.0426 108.211 67.3254C108.305 67.7967 108.281 68.2445 108.14 68.6687C108.046 69.0929 107.904 69.517 107.716 69.9412C107.15 71.2138 106.655 72.4864 106.231 73.7589C106.09 74.3245 105.948 74.8901 105.807 75.4557C105.713 75.9742 105.618 76.5162 105.524 77.0818C105.477 77.0818 105.359 77.0346 105.17 76.9404C104.511 78.3543 104.086 79.7919 103.898 81.253C103.804 81.4886 103.662 81.8893 103.474 82.4549C103.332 82.9733 103.191 83.3268 103.05 83.5153C102.955 83.6096 102.861 83.7274 102.767 83.8688C102.72 83.9631 102.672 84.0574 102.625 84.1516C102.578 84.2459 102.531 84.3637 102.484 84.5051C102.484 84.6465 102.46 84.7643 102.413 84.8586C102.083 84.7643 101.942 84.6229 101.989 84.4344C102.083 84.1988 102.06 83.9631 101.918 83.7274C101.824 83.7274 101.73 83.7274 101.636 83.7274C101.588 83.6803 101.494 83.6332 101.353 83.586C101.353 83.4918 101.329 83.3975 101.282 83.3032C101.282 83.1618 101.282 83.044 101.282 82.9497C101.188 83.1383 101.094 83.3268 100.999 83.5153C100.952 83.6567 100.881 83.8453 100.787 84.0809C100.787 83.8924 100.764 83.7274 100.716 83.586C100.716 83.3975 100.716 83.1618 100.716 82.879C100.481 83.2561 100.269 83.6096 100.08 83.9395C99.9388 84.2694 99.7738 84.5758 99.5853 84.8586C99.3968 84.3873 99.3497 83.9395 99.4439 83.5153C99.5853 83.044 99.7031 82.5727 99.7974 82.1014C99.9388 81.5829 100.057 81.0645 100.151 80.546C100.292 80.0275 100.434 79.5091 100.575 78.9906C100.622 78.755 100.669 78.5429 100.716 78.3543C100.811 78.1658 100.905 77.9773 100.999 77.7888C101.188 77.2703 101.353 76.7754 101.494 76.3041C101.683 75.8328 101.895 75.3379 102.13 74.8194C102.272 74.4424 102.413 74.0653 102.555 73.6882C102.696 73.3112 102.837 72.9341 102.979 72.5571C103.073 72.2743 103.167 71.9915 103.262 71.7087C103.356 71.4259 103.45 71.1195 103.544 70.7896C103.639 70.5068 103.709 70.224 103.757 69.9412C103.851 69.6113 103.969 69.3049 104.11 69.0222C104.393 68.2209 104.605 67.4432 104.746 66.6891C104.841 66.312 104.935 65.9821 105.029 65.6993C105.123 65.3694 105.218 65.0159 105.312 64.6389C105.359 64.4503 105.383 64.1911 105.383 63.8612C105.383 63.7669 105.218 63.6019 104.888 63.3663C104.793 63.8376 104.723 64.2618 104.676 64.6389C104.676 65.0159 104.628 65.393 104.534 65.77C104.534 66.0528 104.511 66.2413 104.464 66.3356C104.086 66.9012 103.804 67.4904 103.615 68.1031C103.427 68.7158 103.214 69.3285 102.979 69.9412C102.79 70.4126 102.625 70.8839 102.484 71.3552C102.343 71.8265 102.178 72.2978 101.989 72.7692C101.848 73.2876 101.706 73.8061 101.565 74.3245C101.471 74.7959 101.329 75.2672 101.141 75.7385C100.764 76.6812 100.457 77.6238 100.222 78.5664C100.033 79.462 99.8445 80.381 99.656 81.3237C99.656 81.5122 99.6089 81.6065 99.5146 81.6065C99.1376 81.6536 98.949 81.8186 98.949 82.1014C98.949 82.3842 98.8783 82.6434 98.7369 82.879C98.7369 82.6434 98.7134 82.4313 98.6662 82.2428C98.6662 82.0071 98.6898 81.7714 98.7369 81.5358C98.8312 81.0173 98.9255 80.546 99.0197 80.1218C99.1611 79.6505 99.279 79.1792 99.3732 78.7078C99.3732 78.6136 99.3968 78.5429 99.4439 78.4957C99.491 78.4486 99.5382 78.3779 99.5853 78.2836C99.6796 78.1894 99.7267 78.1187 99.7267 78.0716C99.491 77.7888 99.4203 77.506 99.5146 77.2232C99.656 76.9404 99.7738 76.6812 99.8681 76.4455C100.104 75.7385 100.363 75.0551 100.646 74.3952C100.976 73.6883 101.259 72.9577 101.494 72.2036C101.683 71.7794 101.848 71.3552 101.989 70.931C102.178 70.4597 102.366 70.0119 102.555 69.5877C102.696 69.1164 102.814 68.6687 102.908 68.2445C103.002 67.7731 103.144 67.3018 103.332 66.8305C103.379 66.5948 103.427 66.4063 103.474 66.2649C103.568 66.0764 103.662 65.8879 103.757 65.6993C103.851 65.4637 103.945 65.2751 104.039 65.1337C104.181 64.9452 104.204 64.7095 104.11 64.4268C104.063 64.3796 104.063 64.3089 104.11 64.2147C104.204 64.1204 104.275 64.0497 104.322 64.0026C104.652 63.6726 104.723 63.3427 104.534 63.0128C104.487 62.9185 104.487 62.8007 104.534 62.6593C104.628 62.5179 104.723 62.3765 104.817 62.2351C104.11 60.774 103.45 59.2658 102.837 57.7104C102.272 56.155 101.659 54.6232 100.999 53.115C101.094 53.0207 101.188 52.9736 101.282 52.9736C101.423 53.2564 101.565 53.5392 101.706 53.822C101.895 54.1048 102.06 54.3876 102.201 54.6704C102.531 55.3302 102.837 56.0136 103.12 56.7206C103.45 57.4276 103.757 58.1346 104.039 58.8416C104.322 59.4543 104.581 60.067 104.817 60.6797C105.1 61.2453 105.359 61.8345 105.595 62.4472C105.736 62.1644 105.76 61.8816 105.665 61.5988C105.383 60.939 105.076 60.3027 104.746 59.69C104.464 59.0301 104.204 58.3703 103.969 57.7104C103.639 56.9563 103.309 56.2257 102.979 55.5188C102.696 54.7646 102.413 54.0105 102.13 53.2564C101.895 52.5965 101.588 51.9838 101.211 51.4182C100.881 50.8055 100.528 50.1928 100.151 49.5801C100.104 49.4858 100.057 49.4151 100.01 49.368C99.9624 49.3209 99.9152 49.2502 99.8681 49.1559C99.6324 48.5432 99.3497 47.9776 99.0197 47.4591C98.6898 46.9407 98.407 46.3987 98.1713 45.8331C97.8414 45.1732 97.5115 44.5369 97.1816 43.9242C96.8988 43.2644 96.5688 42.6045 96.1918 41.9447C96.0504 41.709 95.9326 41.4733 95.8383 41.2377C95.7912 41.002 95.7205 40.7663 95.6262 40.5307C95.6262 40.295 95.6026 40.0829 95.5555 39.8944C95.5555 39.7059 95.6026 39.5645 95.6969 39.4702C95.9326 39.1403 95.9561 38.7868 95.7676 38.4097C96.0504 38.8811 96.3803 39.2581 96.7574 39.5409C97.1816 39.7766 97.5115 40.1301 97.7472 40.6014C97.8414 40.837 98.0064 41.0256 98.242 41.167C98.4777 41.2612 98.6898 41.4026 98.8783 41.5912C98.9255 41.6383 99.0197 41.6619 99.1611 41.6619C99.3968 41.6619 99.4675 41.7797 99.3732 42.0153C99.279 42.251 99.3968 42.3924 99.7267 42.4395C99.821 42.4395 99.9152 42.5574 100.01 42.793C100.104 42.9816 100.198 43.1701 100.292 43.3586C100.339 43.4529 100.316 43.5472 100.222 43.6414C100.174 43.6885 100.127 43.7592 100.08 43.8535C100.599 43.9006 100.905 44.1127 100.999 44.4898C101.141 44.8197 101.329 45.1025 101.565 45.3382C101.471 45.4324 101.376 45.5031 101.282 45.5503C101.235 45.5974 101.141 45.6917 100.999 45.8331C101.659 45.7859 102.06 45.9745 102.201 46.3987C102.343 46.7757 102.531 47.1292 102.767 47.4591C103.285 48.3546 103.733 49.2502 104.11 50.1457C104.534 51.0412 104.982 51.9603 105.453 52.9029C105.548 53.0914 105.618 53.28 105.665 53.4685C105.76 53.657 105.925 53.7984 106.16 53.8927C106.255 53.9398 106.302 54.0105 106.302 54.1048C106.349 54.199 106.396 54.2933 106.443 54.3876C106.584 54.7646 106.726 55.1181 106.867 55.4481C107.056 55.778 107.221 56.1315 107.362 56.5085C107.409 56.6028 107.456 56.6499 107.504 56.6499C107.551 56.6499 107.598 56.6735 107.645 56.7206C107.739 56.4378 107.833 56.1786 107.928 55.9429C108.022 55.6601 108.116 55.4009 108.211 55.1653C108.305 54.9296 108.399 54.7175 108.493 54.529C108.588 54.2933 108.682 54.0577 108.776 53.822C108.87 53.5863 108.918 53.3742 108.918 53.1857C108.965 52.9972 109.035 52.7851 109.13 52.5494C109.507 51.8896 109.789 51.2061 109.978 50.4992C110.167 49.745 110.379 49.0145 110.614 48.3075C110.709 48.119 110.779 47.954 110.826 47.8126C110.873 47.6712 110.826 47.4827 110.685 47.247C110.638 47.1999 110.661 47.0585 110.756 46.8228C110.803 46.6343 110.873 46.3044 110.968 45.8331C111.062 45.456 111.251 45.1496 111.533 44.914C111.816 44.6312 112.052 44.3013 112.24 43.9242C112.476 43.4058 112.688 42.9109 112.877 42.4395C113.112 41.9211 113.277 41.4026 113.372 40.8842C113.466 40.6485 113.513 40.4129 113.513 40.1772C113.56 39.8944 113.749 39.6352 114.078 39.3995C114.031 39.6352 114.008 39.8708 114.008 40.1065C114.008 40.295 113.984 40.5071 113.937 40.7428H114.149C114.243 40.0829 114.432 39.4702 114.715 38.9046C115.045 38.339 115.092 37.7263 114.856 37.0665C115.092 36.9251 115.304 36.7837 115.492 36.6423C115.681 36.5009 115.893 36.383 116.129 36.2888C116.129 36.3359 116.105 36.4066 116.058 36.5009C116.058 36.5951 116.058 36.6894 116.058 36.7837ZM101.282 82.8083C101.659 82.4313 101.777 81.9835 101.636 81.4651C101.4 81.7007 101.282 81.9364 101.282 82.1721C101.282 82.3606 101.282 82.5727 101.282 82.8083ZM95.2727 42.3688H95.4848C95.6262 42.5574 95.7205 42.7459 95.7676 42.9344C95.6733 42.9816 95.6262 43.0051 95.6262 43.0051C95.5319 42.9109 95.4612 42.8166 95.4141 42.7223C95.4141 42.5809 95.367 42.4631 95.2727 42.3688ZM94.3536 42.5809C94.2594 42.3924 94.2122 42.2746 94.2122 42.2274C94.2594 42.1332 94.3772 41.8975 94.5657 41.5205C94.7543 42.0389 94.9192 42.5338 95.0606 43.0051C95.202 43.4293 95.367 43.8771 95.5555 44.3484C95.5084 44.3484 95.4612 44.372 95.4141 44.4191C95.4141 44.4191 95.3905 44.4191 95.3434 44.4191C95.202 44.0892 95.037 43.7828 94.8485 43.5C94.7071 43.2172 94.5422 42.9109 94.3536 42.5809ZM142.504 41.7326C142.409 41.8268 142.362 41.874 142.362 41.874C142.221 41.8268 141.938 41.6854 141.514 41.4498C141.797 41.3084 141.985 41.3084 142.079 41.4498C142.221 41.544 142.362 41.6383 142.504 41.7326ZM126.455 39.1167C126.314 39.1638 126.172 39.211 126.031 39.2581C125.937 39.2581 125.772 39.2817 125.536 39.3288C125.63 39.2345 125.677 39.1638 125.677 39.1167C125.677 39.0225 125.701 38.9518 125.748 38.9046C126.031 38.9046 126.243 38.9282 126.384 38.9753C126.432 39.0225 126.455 39.0696 126.455 39.1167ZM125.041 39.1167C125.135 38.8811 125.041 38.7868 124.758 38.8339C124.476 38.8339 124.381 38.669 124.476 38.339C124.664 38.4333 124.806 38.5276 124.9 38.6218C124.9 38.4333 124.9 38.2919 124.9 38.1976C124.947 38.0562 124.97 37.9148 124.97 37.7734H126.667C126.479 37.8677 126.337 37.9384 126.243 37.9855C126.149 37.9855 126.055 38.0091 125.96 38.0562C125.677 38.2448 125.607 38.5276 125.748 38.9046C125.465 38.9989 125.23 39.0696 125.041 39.1167ZM145.827 51.1354C145.921 51.8424 145.921 52.5494 145.827 53.2564C145.779 53.9163 145.638 54.5761 145.402 55.236C145.261 55.6601 145.096 56.1079 144.907 56.5792C144.719 57.0506 144.46 57.4747 144.13 57.8518C143.894 58.0875 143.706 58.3231 143.564 58.5588C143.423 58.7473 143.234 58.9123 142.999 59.0537C142.904 59.1479 142.857 59.2422 142.857 59.3365C142.857 59.3836 142.834 59.4543 142.786 59.5486C142.692 59.6428 142.598 59.7607 142.504 59.9021C142.457 60.0435 142.386 60.1848 142.292 60.3262C142.197 60.232 142.103 60.1613 142.009 60.1141C141.915 60.067 141.82 60.0199 141.726 59.9728C141.726 60.067 141.702 60.1848 141.655 60.3262C141.655 60.4205 141.655 60.5148 141.655 60.609C141.325 60.609 141.043 60.5855 140.807 60.5383C140.901 60.6797 140.972 60.7976 141.019 60.8918C141.066 60.939 141.137 61.0097 141.231 61.1039C140.901 61.3396 140.571 61.5517 140.241 61.7402C139.959 61.8816 139.699 62.0701 139.464 62.3058C139.369 62.4001 139.252 62.3765 139.11 62.2351C138.969 62.0937 138.874 62.188 138.827 62.5179C138.827 62.7536 138.662 62.8714 138.332 62.8714C138.05 62.9657 137.79 63.0835 137.555 63.2249C137.319 63.3663 137.06 63.4841 136.777 63.5784C136.447 63.6726 136.141 63.7669 135.858 63.8612C135.575 63.9083 135.269 63.979 134.939 64.0733L134.091 64.2854C134.138 64.1911 134.185 64.0968 134.232 64.0026C134.279 63.9083 134.35 63.7905 134.444 63.6491C133.973 63.7433 133.69 63.7905 133.596 63.7905C133.03 63.9319 132.535 63.979 132.111 63.9319C131.734 63.9319 131.357 63.979 130.98 64.0733C130.65 64.1675 130.296 64.2618 129.919 64.3561C129.825 64.3561 129.731 64.4268 129.637 64.5682C129.589 64.7095 129.519 64.8274 129.424 64.9216C129.142 64.8274 128.906 64.7331 128.717 64.6389C128.906 64.4503 128.906 64.3089 128.717 64.2147C128.576 64.0733 128.505 63.9083 128.505 63.7198C128.27 63.814 127.916 63.9083 127.445 64.0026C127.445 64.144 127.445 64.3089 127.445 64.4975C127.492 64.6389 127.468 64.7567 127.374 64.8509C127.28 65.0395 127.327 65.1573 127.516 65.2044C127.751 65.2516 127.775 65.393 127.586 65.6286C127.539 65.7229 127.563 65.8643 127.657 66.0528C127.751 66.1942 127.846 66.3356 127.94 66.477C127.798 66.6184 127.728 66.7127 127.728 66.7598C127.728 67.1369 127.728 67.5375 127.728 67.9617C127.728 68.3387 127.751 68.7158 127.798 69.0929C127.798 69.2814 127.893 69.4228 128.081 69.517C128.317 69.6113 128.27 69.7763 127.94 70.0119C128.317 70.4361 128.458 71.0017 128.364 71.7087C128.364 72.0858 128.34 72.4628 128.293 72.8399C128.246 73.2169 128.223 73.594 128.223 73.971C128.223 74.1596 128.175 74.2303 128.081 74.1831C128.034 74.136 127.987 74.136 127.94 74.1831C127.61 74.6073 127.563 75.008 127.798 75.385C127.987 75.6678 128.081 75.9742 128.081 76.3041C128.081 76.5869 128.081 76.8697 128.081 77.1525C128.081 77.2467 127.987 77.4353 127.798 77.7181C128.034 77.8123 128.128 77.9537 128.081 78.1423C128.081 78.3308 128.081 78.5429 128.081 78.7785C128.081 78.9199 128.081 79.0613 128.081 79.2027C128.128 79.3441 128.27 79.3913 128.505 79.3441C128.411 79.4855 128.317 79.6269 128.223 79.7683C128.175 79.9097 128.105 80.0275 128.011 80.1218C127.681 80.4989 127.492 80.8995 127.445 81.3237C127.445 81.7007 127.445 82.1014 127.445 82.5256C127.445 82.8083 127.327 83.1854 127.091 83.6567C127.091 83.3268 126.974 83.0676 126.738 82.879C126.549 82.6434 126.479 82.3606 126.526 82.0307C126.573 81.7479 126.573 81.4651 126.526 81.1823C126.526 80.8524 126.526 80.546 126.526 80.2632C126.573 79.7919 126.597 79.3441 126.597 78.9199C126.644 78.4957 126.691 78.048 126.738 77.5767C126.738 77.1053 126.761 76.6576 126.809 76.2334C126.856 75.7621 126.879 75.2907 126.879 74.8194C126.879 74.0653 126.856 73.3348 126.809 72.6278C126.809 71.8737 126.785 71.1195 126.738 70.3654C126.738 69.9884 126.714 69.5877 126.667 69.1636C126.62 68.7394 126.644 68.3152 126.738 67.891C126.785 67.6553 126.761 67.4432 126.667 67.2547C126.573 67.019 126.502 66.7834 126.455 66.5477C126.455 65.8879 126.408 65.2516 126.314 64.6389C126.267 64.0261 126.219 63.3898 126.172 62.73C126.172 62.73 126.125 62.6357 126.031 62.4472C126.031 62.8243 126.007 63.1777 125.96 63.5077C125.96 63.8376 125.984 64.1911 126.031 64.5682C126.078 65.6522 126.125 66.7127 126.172 67.7496C126.267 68.7394 126.337 69.7763 126.384 70.8603C126.432 71.7558 126.455 72.6513 126.455 73.5469C126.502 74.3952 126.526 75.2907 126.526 76.2334C126.479 77.1289 126.408 78.0244 126.314 78.9199C126.267 79.7683 126.219 80.6638 126.172 81.6065V85C126.031 84.4815 125.866 83.9867 125.677 83.5153C125.489 82.9969 125.442 82.4313 125.536 81.8186C125.489 81.9128 125.442 82.0071 125.395 82.1014C125.348 82.1956 125.3 82.2899 125.253 82.3842C125.206 82.337 125.135 82.2192 125.041 82.0307C124.994 82.3606 124.97 82.667 124.97 82.9497C124.97 83.2325 124.97 83.4918 124.97 83.7274C124.876 83.7274 124.806 83.751 124.758 83.7981C124.664 83.6096 124.57 83.4446 124.476 83.3032C124.381 83.1147 124.287 82.9026 124.193 82.667C124.146 82.8083 124.099 82.9497 124.051 83.0911C124.051 83.1854 124.028 83.3268 123.981 83.5153C123.886 83.3739 123.816 83.2797 123.769 83.2325C123.721 83.1383 123.698 83.044 123.698 82.9497C123.557 81.3944 123.627 79.839 123.91 78.2836C124.004 77.9066 124.028 77.506 123.981 77.0818C123.934 76.6576 123.934 76.257 123.981 75.8799V74.6073C124.028 74.2303 124.051 73.8768 124.051 73.5469C124.051 73.2169 124.075 72.8634 124.122 72.4864C124.169 71.5437 124.146 70.6247 124.051 69.7291C124.004 68.8336 123.934 67.9145 123.839 66.9719C123.792 66.312 123.745 65.6522 123.698 64.9923C123.698 64.3325 123.698 63.6726 123.698 63.0128C123.651 62.4001 123.627 61.7873 123.627 61.1746C123.627 60.5619 123.627 59.9492 123.627 59.3365C123.627 58.5824 123.604 57.8282 123.557 57.0741C123.509 56.32 123.533 55.5659 123.627 54.8118C123.721 54.0105 123.769 53.2093 123.769 52.408C123.816 51.5596 123.816 50.7348 123.769 49.9336C123.769 49.7922 123.792 49.6979 123.839 49.6508C124.028 49.4151 124.099 49.203 124.051 49.0145C124.051 48.826 124.051 48.6139 124.051 48.3782C123.957 47.6241 123.981 46.9642 124.122 46.3987C124.216 46.1159 124.24 45.8331 124.193 45.5503C124.146 45.2203 124.122 44.8669 124.122 44.4898C124.405 44.5369 124.546 44.4898 124.546 44.3484C124.593 44.1599 124.617 43.9478 124.617 43.7121C124.617 43.7121 124.664 43.7592 124.758 43.8535C124.806 43.9478 124.829 44.0656 124.829 44.207C124.829 44.3013 124.853 44.4191 124.9 44.5605C125.088 44.4662 125.23 44.4191 125.324 44.4191C125.324 44.6076 125.324 44.7962 125.324 44.9847C125.324 45.1732 125.348 45.3853 125.395 45.621C125.395 45.7152 125.395 45.8331 125.395 45.9745C125.395 46.0687 125.442 46.1159 125.536 46.1159C125.772 46.2573 125.89 46.4222 125.89 46.6107C125.89 46.7521 125.842 46.9407 125.748 47.1763C125.748 47.2706 125.725 47.3413 125.677 47.3884C125.63 47.4356 125.63 47.5063 125.677 47.6005C125.913 48.4489 125.984 49.3209 125.89 50.2164C125.842 51.0648 125.819 51.9367 125.819 52.8322C125.866 54.2933 125.89 55.7544 125.89 57.2155C125.89 58.6766 125.89 60.1377 125.89 61.5988C125.89 61.6931 125.913 61.7638 125.96 61.8109C126.149 61.7638 126.243 61.6931 126.243 61.5988C126.243 61.4574 126.243 61.3396 126.243 61.2453C126.196 60.4912 126.149 59.7607 126.102 59.0537C126.055 58.3467 126.031 57.6161 126.031 56.862C126.031 56.1079 126.055 55.3774 126.102 54.6704C126.149 53.9163 126.172 53.1621 126.172 52.408C126.172 51.6068 126.172 50.8055 126.172 50.0043C126.219 49.1559 126.196 48.3311 126.102 47.5298C126.055 47.247 126.031 46.9878 126.031 46.7521C126.078 46.4694 126.102 46.1866 126.102 45.9038C126.149 45.621 126.149 45.3382 126.102 45.0554C126.102 44.7726 126.102 44.4662 126.102 44.1363H125.748C125.748 44.0892 125.748 44.0656 125.748 44.0656C125.795 44.0185 125.819 43.9713 125.819 43.9242C126.149 43.3586 126.007 43.0287 125.395 42.9344C125.159 42.9344 124.947 42.9344 124.758 42.9344C124.57 42.9344 124.358 42.9109 124.122 42.8637C124.028 42.8637 123.839 42.8166 123.557 42.7223V42.5809C123.792 42.5338 124.004 42.5102 124.193 42.5102C124.428 42.4631 124.688 42.3924 124.97 42.2981C124.876 41.9682 124.829 41.6147 124.829 41.2377C124.829 40.8606 124.782 40.4836 124.688 40.1065C124.782 40.1065 124.876 40.0829 124.97 40.0358C125.065 39.9887 125.159 39.9887 125.253 40.0358C125.677 40.1301 126.031 40.1065 126.314 39.9651C126.644 39.8237 126.997 39.6352 127.374 39.3995C127.28 39.3052 127.162 39.2345 127.021 39.1874C126.926 39.1403 126.809 39.0696 126.667 38.9753C127.327 38.8811 127.963 38.7868 128.576 38.6925C129.189 38.5511 129.802 38.4333 130.414 38.339V38.4804C130.367 38.5276 130.296 38.5511 130.202 38.5511C130.155 38.5511 130.061 38.5983 129.919 38.6925C130.155 38.7868 130.367 38.8575 130.556 38.9046C130.744 38.9046 130.933 38.9282 131.121 38.9753L137.06 40.2479C138.003 40.4836 138.874 40.837 139.676 41.3084C140.477 41.7326 141.278 42.2039 142.079 42.7223C142.739 43.0994 143.258 43.6178 143.635 44.2777C144.059 44.8904 144.389 45.5503 144.625 46.2573C144.719 46.6343 144.837 46.9642 144.978 47.247C145.167 47.5298 145.308 47.8598 145.402 48.2368C145.497 48.5196 145.567 48.8024 145.614 49.0852C145.709 49.3209 145.732 49.6036 145.685 49.9336C145.685 50.1692 145.709 50.3813 145.756 50.5699C145.803 50.7113 145.827 50.8998 145.827 51.1354ZM125.324 49.4387V48.9438C125.277 48.8495 125.23 48.7788 125.183 48.7317C125.135 48.6846 125.088 48.6139 125.041 48.5196C125.088 48.7081 125.112 48.8967 125.112 49.0852C125.112 49.2266 125.135 49.368 125.183 49.5094V51.5596C125.277 51.1826 125.324 50.8291 125.324 50.4992C125.324 50.1692 125.324 49.8157 125.324 49.4387ZM125.183 55.236H125.041V56.7913H125.183V55.236ZM124.9 45.4796C124.947 45.998 124.97 46.5165 124.97 47.0349C125.018 47.5063 125.041 48.0012 125.041 48.5196C125.135 48.0012 125.159 47.4356 125.112 46.8228C125.112 46.163 125.041 45.7152 124.9 45.4796ZM125.183 63.6491C125.183 63.6491 125.253 63.7198 125.395 63.8612V66.2649H125.536C125.489 65.8879 125.442 65.4872 125.395 65.063C125.395 64.6389 125.395 64.2382 125.395 63.8612C125.348 63.0128 125.324 62.1644 125.324 61.316C125.324 60.4676 125.3 59.6193 125.253 58.7709C125.112 59.1008 125.041 59.4072 125.041 59.69C125.041 60.3498 125.041 61.0097 125.041 61.6695C125.088 62.3294 125.135 62.9892 125.183 63.6491ZM125.536 66.9012C125.536 66.9955 125.512 67.0897 125.465 67.184C125.465 67.2311 125.465 67.3018 125.465 67.3961H125.607V66.9012H125.536ZM125.607 78.213V77.2232H125.536V78.213H125.607ZM125.607 76.5869C125.654 76.4455 125.677 76.3041 125.677 76.1627C125.677 75.9742 125.701 75.7856 125.748 75.5971H125.536V76.6576C125.583 76.6576 125.607 76.634 125.607 76.5869ZM125.819 74.678V72.9106H125.677V74.678H125.819ZM138.545 41.9447C138.497 41.9918 138.474 42.0389 138.474 42.086C138.662 42.1803 138.851 42.3217 139.039 42.5102C139.228 42.6516 139.44 42.7459 139.676 42.793C140.147 42.9344 140.524 43.1701 140.807 43.5C141.137 43.7828 141.443 44.0892 141.726 44.4191L142.574 45.4796C143.093 45.998 143.376 46.5401 143.423 47.1056C143.47 47.2942 143.493 47.4827 143.493 47.6712C143.541 47.8598 143.611 48.0247 143.706 48.1661C143.941 48.4489 144.059 48.826 144.059 49.2973C144.106 49.533 144.13 49.7686 144.13 50.0043C144.177 50.1928 144.224 50.4049 144.271 50.6406H144.483C144.483 50.2635 144.483 49.8864 144.483 49.5094C144.483 49.0852 144.436 48.6846 144.342 48.3075C144.248 47.6477 144.106 47.0349 143.918 46.4694C143.729 45.8566 143.446 45.2675 143.069 44.7019C142.928 44.4191 142.763 44.1599 142.574 43.9242C142.433 43.6414 142.197 43.4529 141.867 43.3586C141.302 43.123 140.736 42.8873 140.171 42.6516C139.652 42.416 139.11 42.1803 138.545 41.9447ZM143.635 53.3978C143.871 53.1621 143.988 52.9736 143.988 52.8322C143.988 52.6437 143.941 52.4552 143.847 52.2666H144.059C144.153 52.0781 144.224 51.9131 144.271 51.7717C144.318 51.5832 144.248 51.3711 144.059 51.1354C144.012 51.324 143.965 51.5125 143.918 51.701C143.918 51.8424 143.894 52.031 143.847 52.2666C143.753 52.5965 143.682 52.9736 143.635 53.3978ZM140.383 45.7624C140.241 45.6681 140.124 45.5503 140.029 45.4089C139.935 45.2203 139.746 45.1496 139.464 45.1968C139.794 45.5267 140.053 45.7624 140.241 45.9038C140.241 45.9038 140.288 45.8566 140.383 45.7624ZM139.11 43.9949C138.78 43.9006 138.474 43.8064 138.191 43.7121C137.908 43.5707 137.625 43.4529 137.343 43.3586C137.955 43.9242 138.545 44.1363 139.11 43.9949ZM129.566 38.9046C129.377 38.9518 129.212 38.9753 129.071 38.9753C128.977 38.9753 128.882 38.9989 128.788 39.046C129.024 39.1403 129.165 39.1874 129.212 39.1874C129.307 39.1874 129.424 39.0932 129.566 38.9046ZM128.293 39.1167L127.869 39.3288V39.4702C127.963 39.4231 128.058 39.3995 128.152 39.3995C128.246 39.3524 128.34 39.3052 128.435 39.2581L128.293 39.1167ZM135.363 60.609V60.8918C135.834 60.7976 136.164 60.7504 136.353 60.7504C136.117 60.5148 135.787 60.4676 135.363 60.609ZM136.353 61.9523H135.787V62.2351H136.353V61.9523ZM135.787 63.0835C136.212 63.2249 136.494 63.0835 136.636 62.6593C136.353 62.6122 136.164 62.6122 136.07 62.6593C136.023 62.7064 135.929 62.8478 135.787 63.0835ZM137.908 61.9523H138.332V61.8109C138.238 61.858 138.168 61.8816 138.12 61.8816C138.073 61.8816 138.003 61.9052 137.908 61.9523ZM137.343 61.5281C137.437 61.5281 137.531 61.5517 137.625 61.5988C137.767 61.5988 137.885 61.5988 137.979 61.5988C137.979 61.5517 137.979 61.5281 137.979 61.5281C138.026 61.481 138.05 61.4339 138.05 61.3867H137.343V61.5281ZM138.615 56.9327C139.558 56.4614 140.288 55.8251 140.807 55.0239C141.325 54.2226 141.726 53.3507 142.009 52.408C141.962 51.8424 141.915 51.2768 141.867 50.7113C141.867 50.0985 141.82 49.5094 141.726 48.9438C141.679 48.5667 141.561 48.2132 141.373 47.8833C141.231 47.5534 141.09 47.2235 140.948 46.8935H140.878C140.878 47.0349 140.878 47.1763 140.878 47.3177C140.925 47.412 140.972 47.577 141.019 47.8126C140.83 47.5298 140.736 47.412 140.736 47.4591C140.642 46.8935 140.43 46.4694 140.1 46.1866C139.77 45.9038 139.393 45.6445 138.969 45.4089C138.639 45.2203 138.285 45.0554 137.908 44.914C137.578 44.7726 137.248 44.6076 136.919 44.4191C136.824 44.372 136.73 44.3013 136.636 44.207C136.541 44.1127 136.447 44.0185 136.353 43.9242C136.164 44.1127 135.929 44.1363 135.646 43.9949C135.269 43.9006 134.868 43.8064 134.444 43.7121C134.067 43.6178 133.666 43.5236 133.242 43.4293C132.441 43.2879 131.616 43.2172 130.768 43.2172C129.966 43.1701 129.142 43.2172 128.293 43.3586C128.105 43.4058 127.916 43.4293 127.728 43.4293C127.586 43.3822 127.421 43.3586 127.233 43.3586C127.327 43.1701 127.398 43.0051 127.445 42.8637C127.209 42.9109 127.021 42.9344 126.879 42.9344C126.738 42.9344 126.573 42.9344 126.384 42.9344C126.432 43.3115 126.455 43.665 126.455 43.9949C126.455 44.3248 126.502 44.6548 126.597 44.9847C126.691 45.2675 126.809 45.5503 126.95 45.8331C127.091 46.0687 127.233 46.328 127.374 46.6107C126.95 46.7993 126.785 47.0349 126.879 47.3177C126.974 47.6005 126.974 47.8598 126.879 48.0954C126.785 48.661 127.021 49.0852 127.586 49.368C127.351 49.5094 127.209 49.6036 127.162 49.6508C127.162 49.6979 127.139 49.8157 127.091 50.0043C127.091 50.2399 127.068 50.4756 127.021 50.7113C127.021 50.9469 127.021 51.1826 127.021 51.4182C127.021 51.5596 127.044 51.7246 127.091 51.9131C127.139 52.0545 127.209 52.1724 127.304 52.2666C127.492 52.408 127.563 52.573 127.516 52.7615C127.516 52.9029 127.516 53.0679 127.516 53.2564L127.445 53.3271C127.398 53.2328 127.374 53.0914 127.374 52.9029C127.186 53.1386 127.091 53.3978 127.091 53.6806C127.044 53.9163 127.021 54.1519 127.021 54.3876C127.021 54.6232 126.974 54.8589 126.879 55.0946C126.691 55.4716 126.667 55.8487 126.809 56.2257C126.903 56.4614 126.95 56.7206 126.95 57.0034C126.997 57.2862 127.021 57.569 127.021 57.8518C127.021 57.9932 127.021 58.1582 127.021 58.3467C127.068 58.4881 127.209 58.6059 127.445 58.7002C127.492 58.7002 127.516 58.7944 127.516 58.983C127.516 59.1244 127.492 59.1951 127.445 59.1951C127.304 59.2422 127.233 59.3129 127.233 59.4072C127.233 59.5014 127.209 59.5957 127.162 59.69C127.115 60.3027 127.28 60.8447 127.657 61.316L127.304 62.023C127.492 61.9759 127.633 61.9523 127.728 61.9523C127.822 61.9523 127.916 61.9287 128.011 61.8816C128.293 61.5517 128.623 61.4103 129 61.4574C129.377 61.4574 129.731 61.3632 130.061 61.1746C130.532 61.3632 130.956 61.4103 131.333 61.316C131.758 61.1746 132.182 61.0332 132.606 60.8918C132.794 60.8447 132.959 60.8447 133.101 60.8918C133.289 60.8918 133.478 60.8918 133.666 60.8918C133.619 61.1275 133.525 61.2218 133.384 61.1746C133.289 61.1275 133.171 61.1039 133.03 61.1039C132.653 61.1039 132.488 61.2689 132.535 61.5988C132.818 61.7402 133.054 61.7402 133.242 61.5988C133.478 61.4574 133.714 61.3396 133.949 61.2453C133.855 61.1511 133.784 61.0804 133.737 61.0332C133.737 60.9861 133.714 60.939 133.666 60.8918C133.619 60.6562 133.666 60.5148 133.808 60.4676C133.996 60.4205 134.161 60.3498 134.303 60.2555C134.68 60.0199 135.08 59.8078 135.505 59.6193C135.976 59.3836 136.447 59.1479 136.919 58.9123C136.683 58.818 136.447 58.7473 136.212 58.7002C136.023 58.653 135.811 58.5824 135.575 58.4881C136.094 58.2053 136.589 57.9461 137.06 57.7104C137.578 57.4276 138.097 57.1684 138.615 56.9327ZM139.676 60.609L140.171 60.1141C139.935 60.1613 139.746 60.2084 139.605 60.2555C139.511 60.2555 139.369 60.2791 139.181 60.3262C139.322 60.4205 139.487 60.5148 139.676 60.609ZM140.807 59.4072C140.901 59.36 140.995 59.3365 141.09 59.3365C141.184 59.3365 141.278 59.3129 141.373 59.2658C141.325 59.1715 141.302 59.1244 141.302 59.1244C141.208 59.1244 141.019 59.1715 140.736 59.2658C140.736 59.3129 140.736 59.3365 140.736 59.3365C140.783 59.3365 140.807 59.36 140.807 59.4072ZM145.12 53.0443C145.167 52.95 145.19 52.8558 145.19 52.7615C145.19 52.6201 145.096 52.5494 144.907 52.5494C144.813 52.6437 144.719 52.7379 144.625 52.8322C144.578 52.9265 144.554 53.0207 144.554 53.115C144.648 53.6335 144.483 54.0341 144.059 54.3169C143.682 54.5997 143.517 55.0003 143.564 55.5188C143.517 55.5659 143.47 55.5895 143.423 55.5895C143.187 55.6366 143.069 55.7308 143.069 55.8722C143.116 56.0136 143.116 56.155 143.069 56.2964C142.645 56.2493 142.362 56.4143 142.221 56.7913C142.079 57.1212 141.82 57.3333 141.443 57.4276C141.349 57.6633 141.208 57.7811 141.019 57.7811C140.878 57.7811 140.713 57.8047 140.524 57.8518C140.477 57.8518 140.43 57.8754 140.383 57.9225C140.524 58.0639 140.642 58.1346 140.736 58.1346C140.689 58.276 140.666 58.3938 140.666 58.4881C140.666 58.5352 140.642 58.6059 140.595 58.7002C140.265 58.5588 140.053 58.7002 139.959 59.1244C140.241 58.8887 140.453 58.7473 140.595 58.7002C140.689 58.7002 140.76 58.7237 140.807 58.7709C140.854 58.7709 140.901 58.7709 140.948 58.7709C141.184 58.5824 141.42 58.4174 141.655 58.276C141.938 58.1346 142.197 57.9461 142.433 57.7104C142.716 57.3805 142.999 57.0506 143.281 56.7206C143.564 56.3436 143.847 55.9665 144.13 55.5895C144.365 55.2124 144.554 54.8118 144.695 54.3876C144.884 53.9634 145.025 53.5156 145.12 53.0443ZM165.579 73.971C165.485 73.9239 165.367 73.9003 165.225 73.9003C165.131 73.9003 165.037 73.8768 164.943 73.8296V73.6882H165.579V73.971ZM160.913 71.4966C160.724 71.2609 160.536 71.0253 160.347 70.7896C160.206 70.5068 160.017 70.2476 159.782 70.0119C159.735 69.9648 159.711 69.8234 159.711 69.5877C159.9 69.8234 160.065 70.0355 160.206 70.224C160.347 70.3654 160.512 70.554 160.701 70.7896C160.889 71.0253 161.078 71.2609 161.266 71.4966C161.455 71.6851 161.62 71.9208 161.761 72.2036C161.384 71.9208 161.101 71.6851 160.913 71.4966ZM176.042 46.328C176.089 46.4222 176.066 46.5636 175.972 46.7521C175.877 46.8935 175.925 47.0114 176.113 47.1056C176.113 47.1999 176.113 47.2942 176.113 47.3884C176.066 47.5298 176.019 47.6241 175.972 47.6712C175.642 48.0012 175.265 48.0483 174.84 47.8126C174.558 47.6712 174.275 47.5534 173.992 47.4591C173.709 47.3177 173.403 47.1528 173.073 46.9642C172.837 46.87 172.625 46.7757 172.437 46.6814C172.248 46.5401 172.06 46.3751 171.871 46.1866C171.07 45.3853 170.222 44.8197 169.326 44.4898C168.478 44.1599 167.582 43.8771 166.639 43.6414C166.262 43.5472 165.862 43.4765 165.438 43.4293C165.013 43.3822 164.613 43.3822 164.236 43.4293C163.576 43.5236 162.94 43.7592 162.327 44.1363C161.761 44.4662 161.219 44.9847 160.701 45.6917C159.994 46.6814 159.405 47.7655 158.933 48.9438C158.509 50.1221 158.109 51.3711 157.731 52.6908C157.213 54.529 156.977 56.3671 157.024 58.2053C157.072 59.9963 157.284 61.8345 157.661 63.7198C157.896 64.8038 158.179 65.8172 158.509 66.7598C158.886 67.7024 159.287 68.6451 159.711 69.5877C159.334 69.3992 159.075 69.1164 158.933 68.7394C158.839 68.3623 158.698 67.9852 158.509 67.6082C158.132 66.7127 157.826 65.7936 157.59 64.8509C157.354 63.8612 157.119 62.895 156.883 61.9523C156.695 62.0937 156.6 62.3529 156.6 62.73C156.836 65.6522 157.566 68.2209 158.792 70.4361C159.452 71.5673 160.182 72.5571 160.984 73.4055C161.785 74.2538 162.61 75.0787 163.458 75.8799C163.976 76.3512 164.495 76.634 165.013 76.7283C165.532 76.7754 166.05 76.7518 166.569 76.6576C167.087 76.5633 167.582 76.3984 168.053 76.1627C168.525 75.927 169.02 75.6914 169.538 75.4557C169.962 75.22 170.339 74.9137 170.669 74.5366C171.046 74.1124 171.376 73.6411 171.659 73.1227C171.942 72.6042 172.295 72.2743 172.72 72.1329C172.767 72.1329 172.884 72.0858 173.073 71.9915C173.12 71.7087 173.167 71.4259 173.214 71.1431C173.262 70.8603 173.332 70.5775 173.427 70.2947C173.521 69.7763 173.78 69.517 174.204 69.517H174.628C174.723 69.7527 174.77 69.9648 174.77 70.1533C174.77 70.2947 174.793 70.4597 174.84 70.6482V70.7189H174.699C174.652 70.5775 174.534 70.3654 174.346 70.0826C174.157 70.3654 174.016 70.6011 173.921 70.7896C174.016 70.8367 174.11 70.8603 174.204 70.8603C174.346 70.8603 174.511 70.8132 174.699 70.7189C174.652 71.0488 174.605 71.3788 174.558 71.7087C174.558 71.9915 174.511 72.3214 174.416 72.6985L174.84 72.9106C174.84 73.2405 174.84 73.5704 174.84 73.9003C174.888 74.2303 174.911 74.5602 174.911 74.8901C174.817 75.3143 174.676 75.55 174.487 75.5971C174.346 75.6914 174.228 75.7856 174.133 75.8799C174.039 75.9742 174.039 76.1391 174.133 76.3748C173.804 76.9875 173.497 77.6238 173.214 78.2836C172.932 78.8964 172.507 79.3206 171.942 79.5562C171.706 79.6505 171.494 79.8154 171.306 80.0511C171.117 80.2396 170.905 80.4046 170.669 80.546L169.397 81.1823C169.444 81.2765 169.467 81.3708 169.467 81.4651C169.467 81.5593 169.491 81.6536 169.538 81.7479C169.444 81.795 169.326 81.8421 169.185 81.8893C169.09 81.9364 168.973 81.9835 168.831 82.0307C168.831 82.1249 168.831 82.1956 168.831 82.2428C168.878 82.2899 168.902 82.3606 168.902 82.4549C168.808 82.8319 168.595 83.0676 168.266 83.1618C167.936 83.209 167.794 83.5153 167.841 84.0809C167.559 84.2223 167.276 84.3637 166.993 84.5051C166.71 84.6465 166.404 84.7643 166.074 84.8586C165.508 85.0471 164.943 85.0707 164.377 84.9293C163.859 84.7879 163.34 84.5287 162.822 84.1516C162.445 83.8688 162.044 83.6096 161.62 83.3739C161.243 83.0911 160.866 82.8319 160.489 82.5963C159.687 82.1249 158.957 81.6065 158.297 81.0409C157.637 80.4282 156.977 79.6976 156.317 78.8492C155.658 77.9066 155.068 76.8697 154.55 75.7385C154.079 74.6073 153.631 73.4526 153.207 72.2743C153.112 71.9915 153.042 71.6851 152.995 71.3552C152.948 71.0253 152.877 70.7189 152.783 70.4361C152.688 70.1062 152.618 69.7998 152.57 69.517C152.523 69.2342 152.476 68.9279 152.429 68.598C152.099 67.184 151.911 65.77 151.863 64.3561C151.816 62.895 151.84 61.4339 151.934 59.9728C152.028 58.7002 152.17 57.4747 152.358 56.2964C152.547 55.071 152.806 53.8691 153.136 52.6908C153.23 52.408 153.348 52.1488 153.49 51.9131C153.631 51.6303 153.749 51.3711 153.843 51.1354C154.22 50.0985 154.621 49.1088 155.045 48.1661C155.516 47.1763 156.035 46.2573 156.6 45.4089C156.789 45.1732 156.954 44.9611 157.095 44.7726C157.237 44.5841 157.402 44.3955 157.59 44.207C157.684 44.3484 157.708 44.4427 157.661 44.4898C157.331 45.291 156.977 46.0687 156.6 46.8228C156.27 47.5298 155.94 48.2839 155.611 49.0852C155.375 49.6037 155.186 50.1692 155.045 50.782C154.904 51.3475 154.739 51.9131 154.55 52.4787C154.644 52.9972 154.621 53.5156 154.479 54.0341C154.338 54.5525 154.267 55.071 154.267 55.5895L154.338 55.6601C154.338 55.7073 154.338 55.7544 154.338 55.8015C154.574 55.236 154.809 54.7175 155.045 54.2462C155.328 53.7277 155.54 53.1621 155.681 52.5494C155.775 52.1724 155.846 51.8424 155.893 51.5596C155.988 51.2297 156.082 50.8998 156.176 50.5699C156.459 49.4858 156.836 48.5196 157.307 47.6712C157.779 46.8228 158.297 46.0216 158.863 45.2675C159.098 44.8904 159.334 44.5605 159.57 44.2777C159.852 43.9949 160.088 43.6178 160.277 43.1465C160.088 43.0523 159.923 42.958 159.782 42.8637C160.065 42.6752 160.324 42.5102 160.559 42.3688C160.795 42.1803 161.031 42.0389 161.266 41.9447C161.643 41.7561 161.997 41.6147 162.327 41.5205C162.657 41.3791 163.01 41.2141 163.387 41.0256C163.529 40.9313 163.67 40.8842 163.812 40.8842C164 40.837 164.141 40.6721 164.236 40.3893C164.33 40.2008 164.471 40.1065 164.66 40.1065C165.98 40.1065 167.205 40.3893 168.336 40.9549C168.666 41.0963 168.973 41.2612 169.255 41.4498C169.585 41.5912 169.915 41.7326 170.245 41.874C170.386 41.9682 170.528 42.0153 170.669 42.0153C170.858 42.0153 171.023 42.0389 171.164 42.086C171.258 42.1332 171.329 42.1567 171.376 42.1567C171.423 42.1567 171.494 42.1803 171.588 42.2274C172.06 42.6045 172.507 42.9816 172.932 43.3586C173.403 43.7357 173.851 44.1363 174.275 44.5605C174.463 44.6548 174.605 44.7962 174.699 44.9847C174.84 45.1732 174.982 45.3382 175.123 45.4796C175.265 45.621 175.406 45.7624 175.547 45.9038C175.689 45.998 175.854 46.1394 176.042 46.328ZM157.237 74.678C157.001 74.2067 156.765 73.7354 156.53 73.2641C156.294 72.7927 156.105 72.2978 155.964 71.7794C155.728 70.9781 155.493 70.2005 155.257 69.4463C155.068 68.6922 154.951 67.8674 154.904 66.9719C154.904 66.7834 154.88 66.6184 154.833 66.477C154.786 66.2885 154.762 66.1 154.762 65.9114C154.715 65.6286 154.668 65.3694 154.621 65.1337C154.621 64.8509 154.597 64.5682 154.55 64.2854C154.503 63.9554 154.479 63.6255 154.479 63.2956C154.479 62.9657 154.456 62.6122 154.409 62.2351C154.314 62.188 154.267 62.1644 154.267 62.1644C153.984 62.5886 153.843 63.0599 153.843 63.5784C153.89 63.9554 153.937 64.3325 153.984 64.7095C154.032 65.0395 154.079 65.393 154.126 65.77C154.267 67.3725 154.574 68.8572 155.045 70.224C155.516 71.5909 156.058 72.9341 156.671 74.2538C156.718 74.3952 156.765 74.5131 156.812 74.6073C156.907 74.7016 157.001 74.7959 157.095 74.8901C157.142 74.843 157.166 74.8194 157.166 74.8194C157.166 74.7723 157.189 74.7252 157.237 74.678ZM169.538 73.052C168.973 73.1462 168.407 73.3583 167.841 73.6882C167.323 74.0182 166.734 74.0653 166.074 73.8296C166.639 73.6411 167.205 73.4762 167.771 73.3348C168.336 73.1462 168.902 72.9813 169.467 72.8399C169.467 72.887 169.467 72.9341 169.467 72.9813C169.515 72.9813 169.538 73.0048 169.538 73.052ZM170.952 71.8501C170.952 71.803 170.928 71.7794 170.881 71.7794C170.881 71.7323 170.881 71.6851 170.881 71.638C170.976 71.5437 171.07 71.4495 171.164 71.3552C171.306 71.2609 171.423 71.1667 171.518 71.0724C171.518 71.1667 171.541 71.2374 171.588 71.2845C171.447 71.3788 171.235 71.5673 170.952 71.8501ZM172.083 70.4361C171.942 70.2005 171.965 70.0355 172.154 69.9412C172.154 69.9412 172.248 69.9884 172.437 70.0826L172.225 70.5068C172.178 70.5068 172.13 70.4833 172.083 70.4361ZM169.821 72.8399C169.821 72.7927 169.797 72.7692 169.75 72.7692C169.75 72.7692 169.75 72.7456 169.75 72.6985C169.797 72.6042 169.844 72.5335 169.892 72.4864C169.939 72.4392 169.986 72.3685 170.033 72.2743C170.08 72.3214 170.104 72.3685 170.104 72.4157C170.009 72.6042 169.915 72.7456 169.821 72.8399ZM174.487 69.2342C174.346 68.9515 174.228 68.7158 174.133 68.5273C174.039 68.3387 173.945 68.1266 173.851 67.891L173.921 67.8203C174.063 67.9617 174.181 68.1266 174.275 68.3152C174.416 68.5037 174.487 68.8101 174.487 69.2342ZM208.971 53.3271C208.876 54.8825 208.806 56.4143 208.759 57.9225C208.711 59.4307 208.664 60.939 208.617 62.4472C208.617 62.73 208.617 63.0364 208.617 63.3663C208.664 63.6491 208.688 63.9319 208.688 64.2147C208.641 66.1 208.617 67.9852 208.617 69.8705C208.617 71.7087 208.57 73.5233 208.476 75.3143C208.476 76.0213 208.429 76.7283 208.334 77.4353C208.287 78.1423 208.264 78.8492 208.264 79.5562C208.217 80.0275 208.193 80.4989 208.193 80.9702C208.24 81.3944 208.287 81.8421 208.334 82.3135C208.382 82.6905 208.334 83.0204 208.193 83.3032C208.099 83.586 207.981 83.916 207.84 84.293C207.368 83.916 207.085 83.4682 206.991 82.9497C206.897 82.3842 206.803 81.8186 206.708 81.253C206.567 80.4517 206.543 79.6741 206.638 78.9199C206.779 78.1658 206.826 77.3881 206.779 76.5869C206.732 76.0684 206.755 75.55 206.85 75.0315C206.991 74.5131 207.015 73.9946 206.92 73.4762C206.873 72.9106 206.85 72.3685 206.85 71.8501C206.85 71.2845 206.85 70.7189 206.85 70.1533C206.897 68.6922 206.92 67.2311 206.92 65.77C206.968 64.2618 206.991 62.7536 206.991 61.2453C206.991 59.8785 206.968 58.5352 206.92 57.2155C206.92 55.8487 206.897 54.4818 206.85 53.115C206.755 53.0679 206.708 53.0443 206.708 53.0443C206.661 53.0914 206.638 53.115 206.638 53.115C206.543 53.1621 206.496 53.1857 206.496 53.1857C206.543 52.5259 206.567 51.8896 206.567 51.2768C206.614 50.617 206.638 49.9571 206.638 49.2973C206.638 48.9202 206.614 48.5432 206.567 48.1661C206.567 47.7891 206.543 47.412 206.496 47.0349C206.261 47.1292 206.143 47.2942 206.143 47.5298C206.143 47.7184 206.143 47.9305 206.143 48.1661C206.096 48.6846 206.048 49.2266 206.001 49.7922C206.001 50.3106 206.001 50.8291 206.001 51.3475C206.001 51.7717 206.025 52.1959 206.072 52.6201C206.119 53.0443 206.143 53.4921 206.143 53.9634C206.19 54.3404 206.19 54.7411 206.143 55.1653C206.143 55.5423 206.119 55.9194 206.072 56.2964C206.072 56.3907 206.025 56.485 205.931 56.5792C205.884 56.6264 205.836 56.6971 205.789 56.7913C205.695 57.1684 205.601 57.4747 205.506 57.7104C205.789 57.569 205.978 57.4512 206.072 57.3569V59.2658C206.119 60.4441 206.166 61.5988 206.213 62.73C206.261 63.8612 206.308 64.9923 206.355 66.1235C206.355 66.7834 206.331 67.4668 206.284 68.1738C206.237 68.8336 206.213 69.4935 206.213 70.1533C206.166 71.5673 206.119 73.0048 206.072 74.4659C206.072 75.8799 206.048 77.2939 206.001 78.7078C205.954 79.1792 205.931 79.6505 205.931 80.1218C205.978 80.5931 205.907 81.088 205.719 81.6065C205.624 81.8421 205.601 82.1014 205.648 82.3842C205.695 82.6198 205.671 82.879 205.577 83.1618C205.577 83.0204 205.53 82.8083 205.436 82.5256C205.389 82.2899 205.365 82.0778 205.365 81.8893C205.365 81.6536 205.271 81.4179 205.082 81.1823C204.988 81.088 204.941 80.9231 204.941 80.6874C204.988 80.4517 205.012 80.2161 205.012 79.9804C205.012 79.6034 204.917 79.3677 204.729 79.2734C204.729 80.2632 204.729 81.253 204.729 82.2428C204.729 83.1854 204.799 84.1281 204.941 85.0707C204.799 84.835 204.705 84.6229 204.658 84.4344C204.658 84.1988 204.611 83.9631 204.517 83.7274C204.328 82.7848 204.234 81.8186 204.234 80.8288C204.234 79.7919 204.234 78.7785 204.234 77.7888C204.234 76.5633 204.187 75.3379 204.093 74.1124C204.045 72.887 204.022 71.6616 204.022 70.4361C204.022 69.5877 204.045 68.7394 204.093 67.891C204.14 66.9955 204.187 66.1235 204.234 65.2751C204.328 64.2854 204.375 63.2956 204.375 62.3058C204.375 61.2689 204.399 60.2555 204.446 59.2658C204.493 58.653 204.517 58.0403 204.517 57.4276C204.564 56.8149 204.635 56.1786 204.729 55.5188C204.917 55.7073 205.082 55.8722 205.224 56.0136C205.412 56.1079 205.577 56.2022 205.719 56.2964C205.954 56.0136 205.978 55.778 205.789 55.5895C205.648 55.4009 205.577 55.1888 205.577 54.9532C205.577 54.7175 205.53 54.5054 205.436 54.3169C205.389 54.0812 205.389 53.8456 205.436 53.6099C205.436 52.8558 205.459 52.1017 205.506 51.3475C205.554 50.5934 205.601 49.7686 205.648 48.8731C205.365 49.3444 205.247 49.7922 205.294 50.2164C205.342 50.6406 205.318 51.0412 205.224 51.4182C205.129 51.7953 205.035 52.1959 204.941 52.6201C204.894 52.9972 204.799 53.3742 204.658 53.7513C204.705 53.28 204.729 52.8086 204.729 52.3373C204.776 51.866 204.847 51.3711 204.941 50.8527C204.611 50.9941 204.352 51.1826 204.163 51.4182C204.022 51.6068 203.88 51.8189 203.739 52.0545C203.362 52.8086 202.985 53.5392 202.608 54.2462C202.231 54.9532 201.783 55.613 201.265 56.2257C201.123 56.3671 201.005 56.5792 200.911 56.862C200.864 57.0977 200.84 57.3333 200.84 57.569C200.84 57.8989 200.723 58.2524 200.487 58.6295C200.298 58.9123 200.133 59.1951 199.992 59.4779C199.851 59.7135 199.733 60.0199 199.639 60.3969C199.544 60.6797 199.379 60.9625 199.144 61.2453C198.955 61.481 198.743 61.7638 198.507 62.0937C198.602 62.1408 198.672 62.2115 198.719 62.3058C198.767 62.3529 198.837 62.4236 198.932 62.5179C197.895 64.2147 196.858 65.9114 195.821 67.6082C194.831 69.2578 193.841 70.931 192.851 72.6278C192.286 73.4762 191.767 74.4659 191.296 75.5971C190.778 77.0582 190.118 78.4015 189.317 79.6269C188.515 80.8524 187.667 82.0542 186.771 83.2325C186.63 83.4211 186.512 83.6332 186.418 83.8688C186.371 84.1045 186.3 84.3401 186.206 84.5758C186.112 84.8115 186.041 85.0471 185.994 85.2828C185.947 85.5185 185.876 85.7541 185.782 85.9898C185.687 85.4713 185.664 84.9529 185.711 84.4344C185.758 83.8688 185.664 83.3268 185.428 82.8083C185.145 83.3268 184.863 83.8217 184.58 84.293C184.344 84.7643 184.085 85.2592 183.802 85.7777C183.331 85.3064 183.095 84.7643 183.095 84.1516C183.048 83.9631 183.024 83.7981 183.024 83.6567C183.072 83.4682 183.095 83.2561 183.095 83.0204C183.142 82.6905 183.166 82.3606 183.166 82.0307C183.213 81.7007 183.236 81.3708 183.236 81.0409V79.9097C183.236 79.6269 183.213 79.4148 183.166 79.2734C183.166 78.755 183.142 78.2601 183.095 77.7888C183.095 77.2703 183.095 76.7518 183.095 76.2334C183.095 75.7149 183.095 75.1965 183.095 74.678C183.142 74.1596 183.166 73.6411 183.166 73.1227C183.166 72.6985 183.142 72.2978 183.095 71.9208C183.048 71.4966 183.001 71.0724 182.954 70.6482C182.954 70.4126 182.954 70.1769 182.954 69.9412C183.001 69.6584 182.907 69.3992 182.671 69.1636C182.624 70.7189 182.6 72.2743 182.6 73.8296C182.6 75.3379 182.6 76.8461 182.6 78.3543C182.27 76.7518 182.129 75.1022 182.176 73.4055C182.176 72.18 182.176 70.9546 182.176 69.7291C182.223 68.4566 182.27 67.184 182.317 65.9114C182.317 64.8274 182.317 63.7669 182.317 62.73C182.365 61.6459 182.412 60.5619 182.459 59.4779C182.459 59.1479 182.459 58.5352 182.459 57.6397C182.459 56.7442 182.435 55.778 182.388 54.7411C182.388 53.657 182.388 52.6201 182.388 51.6303C182.388 50.6406 182.388 49.8864 182.388 49.368C182.388 49.2266 182.388 49.0852 182.388 48.9438C182.435 48.7553 182.341 48.6139 182.105 48.5196C182.058 48.4725 182.035 48.3782 182.035 48.2368C182.035 48.0954 182.035 47.9776 182.035 47.8833C182.035 47.5063 182.035 47.1292 182.035 46.7521C182.082 46.328 182.129 45.8566 182.176 45.3382C182.365 45.3382 182.529 45.3382 182.671 45.3382C182.812 45.291 182.93 45.3146 183.024 45.4089C183.119 45.5031 183.166 45.6445 183.166 45.8331C183.213 46.0216 183.213 46.163 183.166 46.2573C182.789 46.7757 182.647 47.2706 182.742 47.7419C182.836 48.1661 182.954 48.6374 183.095 49.1559C183.189 48.3075 183.284 47.4591 183.378 46.6107C183.519 45.7152 183.661 44.7962 183.802 43.8535C183.896 43.9006 184.014 43.9242 184.156 43.9242C184.344 43.9242 184.485 43.9713 184.58 44.0656C184.768 44.2541 184.957 44.372 185.145 44.4191C185.381 44.4662 185.617 44.5134 185.852 44.5605C185.947 44.6548 185.994 44.7255 185.994 44.7726C186.135 45.5267 186.112 46.2808 185.923 47.0349C185.734 47.7419 185.687 48.4725 185.782 49.2266C185.829 49.4623 185.852 49.6743 185.852 49.8629C185.899 50.0514 185.994 50.2399 186.135 50.4285C186.324 50.8055 186.418 51.3004 186.418 51.9131C186.512 56.5792 186.512 61.1746 186.418 65.6993C186.418 66.642 186.394 67.6082 186.347 68.598C186.3 69.5877 186.277 70.554 186.277 71.4966C186.229 72.1093 186.229 72.722 186.277 73.3348C186.324 73.9003 186.371 74.4895 186.418 75.1022C186.606 75.1022 186.701 75.0551 186.701 74.9608C186.842 74.6309 187.031 74.3481 187.266 74.1124C187.502 73.8296 187.667 73.4997 187.761 73.1227C187.855 72.7927 187.997 72.4864 188.185 72.2036C188.374 71.9208 188.586 71.6616 188.822 71.4259C189.34 70.8603 189.764 70.2476 190.094 69.5877C190.471 68.8808 190.848 68.1973 191.225 67.5375C191.555 66.9719 191.862 66.3827 192.144 65.77C192.474 65.1573 192.804 64.5682 193.134 64.0026C193.229 63.7669 193.346 63.5784 193.488 63.437C193.676 63.2956 193.818 63.1306 193.912 62.9421C194.289 62.4236 194.619 61.8816 194.902 61.316C195.232 60.7504 195.585 60.1848 195.962 59.6193C196.434 58.818 196.905 58.0403 197.376 57.2862C197.895 56.485 198.413 55.6837 198.932 54.8825C199.026 54.7411 199.191 54.6704 199.426 54.6704C199.144 55.236 198.837 55.8015 198.507 56.3671C198.225 56.9327 197.942 57.4747 197.659 57.9932C197.753 58.0875 197.824 58.1346 197.871 58.1346L198.507 57.0741C199.026 56.1315 199.544 55.2124 200.063 54.3169C200.628 53.3742 201.241 52.4787 201.901 51.6303C202.278 51.1119 202.584 50.5934 202.82 50.075C203.103 49.5565 203.433 49.0381 203.81 48.5196C203.904 48.3782 203.998 48.2368 204.093 48.0954C204.187 47.954 204.281 47.9069 204.375 47.954C204.752 48.0483 204.941 48.0012 204.941 47.8126C204.941 47.577 204.941 47.3413 204.941 47.1056C204.988 46.5872 205.012 46.0923 205.012 45.621C205.012 45.1025 205.012 44.5841 205.012 44.0656C205.294 44.4427 205.506 44.7019 205.648 44.8433V43.6414C205.884 43.5943 206.072 43.5707 206.213 43.5707C206.402 43.5236 206.614 43.4765 206.85 43.4293C206.944 43.0523 206.991 42.6516 206.991 42.2274C207.038 41.8033 207.085 41.3791 207.133 40.9549C207.18 40.9549 207.203 40.9549 207.203 40.9549C207.25 40.9077 207.298 40.8842 207.345 40.8842C207.439 40.9784 207.486 41.0963 207.486 41.2377C207.533 41.3319 207.604 41.4262 207.698 41.5205C207.792 41.5676 207.887 41.5912 207.981 41.5912C208.075 41.5912 208.169 41.6147 208.264 41.6619C208.594 43.4529 208.711 45.291 208.617 47.1763C208.57 49.0616 208.523 50.9469 208.476 52.8322C208.57 52.7379 208.641 52.6672 208.688 52.6201C208.735 52.5259 208.806 52.408 208.9 52.2666C208.9 52.5023 208.9 52.7144 208.9 52.9029C208.947 53.0443 208.971 53.1857 208.971 53.3271ZM205.648 44.8433C205.506 45.1732 205.412 45.5031 205.365 45.8331C205.318 46.1159 205.412 46.4458 205.648 46.8228V44.8433ZM204.729 79.2734C204.776 79.0378 204.823 78.8021 204.87 78.5664C204.917 78.3308 204.964 78.0951 205.012 77.8595H204.799C204.799 78.0951 204.776 78.3308 204.729 78.5664C204.729 78.8021 204.729 79.0378 204.729 79.2734ZM206.496 46.9642C206.591 47.1056 206.661 47.247 206.708 47.3884C206.803 47.5298 206.92 47.6948 207.062 47.8833C207.015 47.5534 206.991 47.2706 206.991 47.0349C206.991 46.7993 206.991 46.5636 206.991 46.328H206.779C206.732 46.4222 206.685 46.5401 206.638 46.6814C206.591 46.7757 206.543 46.87 206.496 46.9642Z" fill="#E8E8E8"/>
</svg>
