<svg width="259" height="133" viewBox="0 0 259 133" fill="none" xmlns="http://www.w3.org/2000/svg">
<path d="M236.137 0.000244141C236.329 1.10968 236.557 2.21911 236.694 3.3391C237.141 6.87872 237.642 10.4183 237.971 13.9791C238.235 16.8636 238.344 19.7692 238.116 22.6854C237.907 25.3692 237.888 28.0635 237.779 30.7579C237.642 34.0862 237.505 37.4145 237.369 40.7427C237.214 44.5888 236.976 48.4242 236.949 52.2702C236.931 55.0808 237.195 57.9019 237.323 60.7125C237.359 61.4838 237.323 62.2551 237.359 63.0159C237.487 65.5728 237.679 68.1193 237.77 70.6762C237.852 72.9373 237.834 75.209 237.843 77.4702C237.852 79.9109 237.806 82.3411 237.852 84.7818C237.934 88.6701 238.098 92.5478 238.18 96.4256C238.235 98.7712 238.189 101.117 238.226 103.463C238.262 105.935 238.354 108.407 238.399 110.88C238.417 111.683 238.354 112.496 238.363 113.299C238.363 113.764 238.463 114.229 238.472 114.694C238.518 116.142 238.563 117.589 238.554 119.037C238.554 119.607 238.417 120.188 238.29 120.748C237.779 122.925 237.25 125.091 236.703 127.257C236.621 127.595 236.429 127.902 236.292 128.208C235.654 128.102 235.754 127.511 235.718 127.183C235.463 124.838 234.779 122.629 234.095 120.421C233.821 119.533 233.73 118.667 233.794 117.716C233.967 115.117 234.012 112.507 234.104 109.908C234.186 107.52 234.25 105.121 234.323 102.733C234.423 99.5742 234.523 96.415 234.605 93.2558C234.624 92.4422 234.532 91.6286 234.551 90.8256C234.596 88.0995 234.696 85.363 234.706 82.6369C234.706 79.8686 234.596 77.1003 234.578 74.3321C234.578 72.969 234.733 71.6166 234.696 70.2536C234.624 67.7072 234.414 65.1608 234.332 62.6144C234.268 60.7336 234.313 58.8529 234.304 56.9721C234.304 54.3201 234.341 51.668 234.268 49.0159C234.186 46.0786 233.94 43.1412 233.894 40.2039C233.83 36.062 233.903 31.9201 233.894 27.7783C233.876 23.5413 233.803 19.3149 233.803 15.0779C233.803 14.2538 234.031 13.4191 234.231 12.6055C234.779 10.3338 235.016 8.01983 235.18 5.68475C235.317 3.79343 235.618 1.92325 235.846 0.042511L236.137 0.000244141Z" fill="#E8E8E8"/>
<path d="M246.134 17.0197C236.399 16.2937 227.439 15.4559 217.217 15.1487C207.724 14.8695 197.802 15.0556 188.243 15.1301C167.575 15.279 146.897 15.4931 126.256 15.7724C106.139 16.0423 86.0881 16.5264 65.9899 16.8708C45.3493 17.2245 24.6059 17.2897 4.0027 17.7365C2.66531 17.7644 2.66531 18.2299 4.0027 18.2578C24.0354 18.6953 44.199 18.7604 64.2691 19.0956C84.9377 19.44 105.569 19.9426 126.256 20.2219C146.326 20.4918 166.425 20.6873 186.523 20.8456C196.09 20.92 206.116 21.1248 215.646 20.8921C226.41 20.6315 235.931 19.7285 246.134 18.9652C249.95 18.6767 249.959 17.3176 246.134 17.0384V17.0197Z" fill="#E8E8E8"/>
<path d="M15.0812 132.91C14.6617 129.402 14.005 125.905 13.8591 122.376C13.5308 114.103 13.3849 105.83 13.2937 97.5458C13.1751 86.61 13.2663 75.6742 13.1204 64.7383C13.0475 59.392 12.555 54.0456 12.3635 48.6992C12.2449 45.4448 12.4364 42.1694 12.3179 38.915C12.0625 32.0471 11.7889 25.1792 11.3238 18.3219C11.1596 15.9551 11.4333 13.7891 12.0534 11.5914C12.555 9.83741 12.9015 8.02007 13.4396 6.28724C13.5946 5.78007 14.1601 5.43139 14.7437 4.79742C15.0721 5.60044 15.3639 6.11819 15.5098 6.68875C16.5677 10.9046 17.042 15.1838 17.0876 19.6004C17.124 23.1823 17.7624 26.7536 17.9357 30.3355C18.1181 34.1286 18.0907 37.9324 18.109 41.7256C18.109 43.1097 17.9722 44.5045 17.9448 45.8886C17.8171 52.2071 17.7351 58.5361 17.5983 64.8546C17.352 75.5474 17.0602 86.2402 16.814 96.933C16.6407 104.445 16.5312 111.968 16.3762 119.481C16.3033 123.189 16.2121 126.898 16.0753 130.607C16.0479 131.41 15.829 132.202 15.6922 132.995C15.4916 132.963 15.2818 132.931 15.0812 132.9V132.91Z" fill="#E8E8E8"/>
<path d="M49.4528 47.4694H49.3821C49.335 47.4223 49.2879 47.3987 49.2407 47.3987C49.1936 47.3516 49.1465 47.3045 49.0993 47.2573L49.2407 47.1159C49.2879 47.2102 49.3114 47.2809 49.3114 47.328C49.3586 47.328 49.4057 47.3752 49.4528 47.4694ZM61.1181 36.6526C60.8353 36.7468 60.6467 36.7704 60.5525 36.7233C60.5053 36.6761 60.364 36.5112 60.1283 36.2284C60.3168 36.3226 60.4818 36.3933 60.6232 36.4405C60.7646 36.4876 60.9295 36.5583 61.1181 36.6526ZM43.5849 37.2182C43.9619 37.3596 44.0562 37.5716 43.8676 37.8544C43.7263 38.1372 43.7734 38.3965 44.009 38.6321C43.4435 38.1137 43.3021 37.6423 43.5849 37.2182ZM43.4435 38.8442C43.4435 38.8914 43.3963 38.9149 43.3021 38.9149C43.2549 38.8207 43.2078 38.7264 43.1607 38.6321C43.1135 38.4907 43.0664 38.3729 43.0193 38.2786C43.0664 38.2315 43.1135 38.2079 43.1607 38.2079C43.2078 38.3022 43.2549 38.42 43.3021 38.5614C43.3492 38.6557 43.3963 38.75 43.4435 38.8442ZM63.5218 37.4303C63.8517 37.4303 64.111 37.4538 64.2995 37.5009C64.2052 37.6423 64.1345 37.7837 64.0874 37.9251C64.0403 38.0194 63.9696 38.1372 63.8753 38.2786C63.8282 38.1844 63.781 38.0665 63.7339 37.9251C63.6868 37.7837 63.6161 37.6188 63.5218 37.4303ZM47.7561 86.0001C47.8032 85.7644 47.8268 85.5995 47.8268 85.5052C47.8268 85.4109 47.8268 85.2931 47.8268 85.1517C47.921 85.246 48.0153 85.3167 48.1096 85.3638C48.2038 85.3638 48.2981 85.4109 48.3923 85.5052C48.2981 85.5995 48.2038 85.6702 48.1096 85.7173C48.0153 85.7644 47.8975 85.8587 47.7561 86.0001ZM62.7441 37.7837C62.9798 38.0194 63.1683 38.2786 63.3097 38.5614C63.4511 38.7971 63.4511 39.1034 63.3097 39.4805C63.2155 39.8104 63.1212 40.1168 63.0269 40.3996C62.9798 40.6824 62.862 40.9416 62.6734 41.1773C62.4849 41.4129 62.3671 41.6957 62.3199 42.0257C62.3199 42.3556 62.2728 42.6855 62.1785 43.0154C62.1314 43.204 62.0843 43.3925 62.0371 43.581C62.0371 43.7695 62.0136 43.9581 61.9664 44.1466C61.9193 44.288 61.8722 44.4294 61.8251 44.5708C61.8251 44.7122 61.9193 44.8772 62.1078 45.0657C62.2021 45.1599 62.2492 45.3249 62.2492 45.5606C62.2964 45.7491 62.2964 45.9376 62.2492 46.1262C62.1078 46.6446 61.9665 47.1631 61.8251 47.6815C61.6837 48.2 61.5187 48.7184 61.3302 49.2369C60.906 50.5566 60.4582 51.8763 59.9869 53.196C59.5627 54.4686 59.1149 55.7647 58.6436 57.0844C58.5494 57.4615 58.4315 57.815 58.2901 58.1449C58.1487 58.4277 58.0073 58.7576 57.8659 59.1347C57.7717 59.3232 57.701 59.4882 57.6538 59.6296C57.6538 59.771 57.6067 59.9359 57.5124 60.1244C57.2297 61.0671 56.9469 62.0333 56.6641 63.0231C56.3813 64.0129 56.122 64.9791 55.8864 65.9217C55.7921 66.1103 55.6979 66.2988 55.6036 66.4873C55.5093 66.6287 55.5093 66.8172 55.6036 67.0529C55.3679 67.0058 55.2265 67.0765 55.1794 67.265C55.1794 67.4064 55.1558 67.5242 55.1087 67.6185C54.9673 67.807 54.8966 68.0427 54.8966 68.3255C54.9909 68.7968 54.9673 69.2445 54.8259 69.6687C54.7316 70.0929 54.5902 70.5171 54.4017 70.9413C53.8361 72.2139 53.3412 73.4865 52.917 74.759C52.7757 75.3246 52.6343 75.8902 52.4929 76.4558C52.3986 76.9742 52.3043 77.5163 52.2101 78.0818C52.1629 78.0818 52.0451 78.0347 51.8566 77.9405C51.1967 79.3544 50.7725 80.792 50.584 82.2531C50.4897 82.4887 50.3483 82.8893 50.1598 83.4549C50.0184 83.9734 49.877 84.3269 49.7356 84.5154C49.6414 84.6097 49.5471 84.7275 49.4528 84.8689C49.4057 84.9632 49.3586 85.0574 49.3114 85.1517C49.2643 85.246 49.2172 85.3638 49.17 85.5052C49.17 85.6466 49.1465 85.7644 49.0993 85.8587C48.7694 85.7644 48.628 85.623 48.6751 85.4345C48.7694 85.1988 48.7458 84.9632 48.6044 84.7275C48.5102 84.7275 48.4159 84.7275 48.3217 84.7275C48.2745 84.6804 48.1803 84.6332 48.0389 84.5861C48.0389 84.4918 48.0153 84.3976 47.9682 84.3033C47.9682 84.1619 47.9682 84.0441 47.9682 83.9498C47.8739 84.1384 47.7796 84.3269 47.6854 84.5154C47.6382 84.6568 47.5675 84.8453 47.4733 85.081C47.4733 84.8925 47.4497 84.7275 47.4026 84.5861C47.4026 84.3976 47.4026 84.1619 47.4026 83.8791C47.1669 84.2562 46.9548 84.6097 46.7663 84.9396C46.6249 85.2695 46.4599 85.5759 46.2714 85.8587C46.0829 85.3874 46.0357 84.9396 46.13 84.5154C46.2714 84.0441 46.3892 83.5728 46.4835 83.1014C46.6249 82.583 46.7427 82.0645 46.837 81.5461C46.9784 81.0276 47.1198 80.5092 47.2612 79.9907C47.3083 79.755 47.3554 79.543 47.4026 79.3544C47.4968 79.1659 47.5911 78.9774 47.6854 78.7888C47.8739 78.2704 48.0389 77.7755 48.1803 77.3042C48.3688 76.8328 48.5809 76.338 48.8165 75.8195C48.9579 75.4424 49.0993 75.0654 49.2407 74.6883C49.3821 74.3113 49.5235 73.9342 49.6649 73.5572C49.7592 73.2744 49.8535 72.9916 49.9477 72.7088C50.042 72.426 50.1362 72.1196 50.2305 71.7897C50.3248 71.5069 50.3955 71.2241 50.4426 70.9413C50.5369 70.6114 50.6547 70.305 50.7961 70.0222C51.0789 69.221 51.291 68.4433 51.4324 67.6892C51.5266 67.3121 51.6209 66.9822 51.7152 66.6994C51.8094 66.3695 51.9037 66.016 51.998 65.6389C52.0451 65.4504 52.0687 65.1912 52.0687 64.8612C52.0687 64.767 51.9037 64.602 51.5738 64.3664C51.4795 64.8377 51.4088 65.2619 51.3617 65.6389C51.3617 66.016 51.3146 66.393 51.2203 66.7701C51.2203 67.0529 51.1967 67.2414 51.1496 67.3357C50.7725 67.9013 50.4897 68.4904 50.3012 69.1031C50.1127 69.7159 49.9006 70.3286 49.6649 70.9413C49.4764 71.4126 49.3114 71.884 49.17 72.3553C49.0286 72.8266 48.8637 73.2979 48.6751 73.7692C48.5337 74.2877 48.3924 74.8062 48.251 75.3246C48.1567 75.7959 48.0153 76.2673 47.8268 76.7386C47.4497 77.6812 47.1433 78.6239 46.9077 79.5665C46.7192 80.462 46.5306 81.3811 46.3421 82.3238C46.3421 82.5123 46.295 82.6066 46.2007 82.6066C45.8236 82.6537 45.6351 82.8186 45.6351 83.1014C45.6351 83.3842 45.5644 83.6435 45.423 83.8791C45.423 83.6435 45.3995 83.4314 45.3523 83.2428C45.3523 83.0072 45.3759 82.7715 45.423 82.5359C45.5173 82.0174 45.6115 81.5461 45.7058 81.1219C45.8472 80.6506 45.965 80.1792 46.0593 79.7079C46.0593 79.6137 46.0829 79.543 46.13 79.4958C46.1771 79.4487 46.2243 79.378 46.2714 79.2837C46.3657 79.1895 46.4128 79.1188 46.4128 79.0716C46.1771 78.7888 46.1064 78.506 46.2007 78.2233C46.3421 77.9405 46.4599 77.6812 46.5542 77.4456C46.7899 76.7386 47.0491 76.0552 47.3319 75.3953C47.6618 74.6883 47.9446 73.9578 48.1803 73.2037C48.3688 72.7795 48.5337 72.3553 48.6751 71.9311C48.8637 71.4598 49.0522 71.012 49.2407 70.5878C49.3821 70.1165 49.5 69.6687 49.5942 69.2445C49.6885 68.7732 49.8299 68.3019 50.0184 67.8306C50.0655 67.5949 50.1127 67.4064 50.1598 67.265C50.2541 67.0765 50.3483 66.8879 50.4426 66.6994C50.5369 66.4637 50.6311 66.2752 50.7254 66.1338C50.8668 65.9453 50.8904 65.7096 50.7961 65.4268C50.749 65.3797 50.749 65.309 50.7961 65.2147C50.8904 65.1205 50.9611 65.0498 51.0082 65.0026C51.3381 64.6727 51.4088 64.3428 51.2203 64.0129C51.1732 63.9186 51.1732 63.8008 51.2203 63.6594C51.3146 63.518 51.4088 63.3766 51.5031 63.2352C50.7961 61.7741 50.1362 60.2658 49.5235 58.7105C48.9579 57.1551 48.3452 55.6233 47.6854 54.1151C47.7796 54.0208 47.8739 53.9737 47.9682 53.9737C48.1096 54.2565 48.251 54.5393 48.3923 54.8221C48.5809 55.1049 48.7458 55.3877 48.8872 55.6704C49.2172 56.3303 49.5235 57.0137 49.8063 57.7207C50.1362 58.4277 50.4426 59.1347 50.7254 59.8417C51.0082 60.4544 51.2674 61.0671 51.5031 61.6798C51.7859 62.2454 52.0451 62.8346 52.2808 63.4473C52.4222 63.1645 52.4457 62.8817 52.3515 62.5989C52.0687 61.939 51.7623 61.3028 51.4324 60.69C51.1496 60.0302 50.8904 59.3703 50.6547 58.7105C50.3248 57.9564 49.9948 57.2258 49.6649 56.5188C49.3821 55.7647 49.0993 55.0106 48.8165 54.2565C48.5809 53.5966 48.2745 52.9839 47.8975 52.4183C47.5675 51.8056 47.214 51.1929 46.837 50.5802C46.7899 50.4859 46.7427 50.4152 46.6956 50.3681C46.6485 50.3209 46.6013 50.2502 46.5542 50.156C46.3185 49.5432 46.0357 48.9777 45.7058 48.4592C45.3759 47.9407 45.0931 47.3987 44.8574 46.8331C44.5275 46.1733 44.1976 45.537 43.8676 44.9243C43.5849 44.2644 43.2549 43.6046 42.8779 42.9447C42.7365 42.7091 42.6186 42.4734 42.5244 42.2377C42.4772 42.0021 42.4065 41.7664 42.3123 41.5308C42.3123 41.2951 42.2887 41.083 42.2416 40.8945C42.2416 40.7059 42.2887 40.5645 42.383 40.4703C42.6186 40.1404 42.6422 39.7869 42.4537 39.4098C42.7365 39.8811 43.0664 40.2582 43.4435 40.541C43.8676 40.7766 44.1976 41.1301 44.4332 41.6015C44.5275 41.8371 44.6925 42.0257 44.9281 42.167C45.1638 42.2613 45.3759 42.4027 45.5644 42.5912C45.6115 42.6384 45.7058 42.6619 45.8472 42.6619C46.0829 42.6619 46.1536 42.7798 46.0593 43.0154C45.965 43.2511 46.0829 43.3925 46.4128 43.4396C46.5071 43.4396 46.6013 43.5574 46.6956 43.7931C46.7899 43.9816 46.8841 44.1702 46.9784 44.3587C47.0255 44.453 47.0019 44.5472 46.9077 44.6415C46.8605 44.6886 46.8134 44.7593 46.7663 44.8536C47.2847 44.9007 47.5911 45.1128 47.6854 45.4899C47.8268 45.8198 48.0153 46.1026 48.251 46.3383C48.1567 46.4325 48.0624 46.5032 47.9682 46.5504C47.921 46.5975 47.8268 46.6917 47.6854 46.8331C48.3452 46.786 48.7458 46.9745 48.8872 47.3987C49.0286 47.7758 49.2172 48.1293 49.4528 48.4592C49.9713 49.3547 50.419 50.2502 50.7961 51.1457C51.2203 52.0413 51.668 52.9603 52.1394 53.903C52.2336 54.0915 52.3043 54.28 52.3515 54.4686C52.4457 54.6571 52.6107 54.7985 52.8464 54.8928C52.9406 54.9399 52.9877 55.0106 52.9877 55.1049C53.0349 55.1991 53.082 55.2934 53.1291 55.3877C53.2705 55.7647 53.4119 56.1182 53.5533 56.4481C53.7419 56.7781 53.9068 57.1315 54.0482 57.5086C54.0954 57.6029 54.1425 57.65 54.1896 57.65C54.2368 57.65 54.2839 57.6736 54.331 57.7207C54.4253 57.4379 54.5195 57.1787 54.6138 56.943C54.7081 56.6602 54.8023 56.401 54.8966 56.1653C54.9909 55.9297 55.0851 55.7176 55.1794 55.529C55.2737 55.2934 55.3679 55.0577 55.4622 54.8221C55.5565 54.5864 55.6036 54.3743 55.6036 54.1858C55.6507 53.9973 55.7214 53.7852 55.8157 53.5495C56.1927 52.8896 56.4755 52.2062 56.6641 51.4992C56.8526 50.7451 57.0647 50.0146 57.3004 49.3076C57.3946 49.1191 57.4653 48.9541 57.5124 48.8127C57.5596 48.6713 57.5124 48.4828 57.3711 48.2471C57.3239 48.2 57.3475 48.0586 57.4417 47.8229C57.4889 47.6344 57.5596 47.3045 57.6538 46.8331C57.7481 46.4561 57.9366 46.1497 58.2194 45.9141C58.5022 45.6313 58.7379 45.3013 58.9264 44.9243C59.1621 44.4058 59.3742 43.9109 59.5627 43.4396C59.7984 42.9212 59.9633 42.4027 60.0576 41.8843C60.1519 41.6486 60.199 41.4129 60.199 41.1773C60.2461 40.8945 60.4346 40.6352 60.7646 40.3996C60.7174 40.6352 60.6939 40.8709 60.6939 41.1066C60.6939 41.2951 60.6703 41.5072 60.6232 41.7429H60.8353C60.9295 41.083 61.1181 40.4703 61.4009 39.9047C61.7308 39.3391 61.7779 38.7264 61.5423 38.0665C61.7779 37.9251 61.99 37.7837 62.1785 37.6423C62.3671 37.5009 62.5792 37.3831 62.8148 37.2889C62.8148 37.336 62.7913 37.4067 62.7441 37.5009C62.7441 37.5952 62.7441 37.6895 62.7441 37.7837ZM47.9682 83.8084C48.3452 83.4314 48.463 82.9836 48.3217 82.4652C48.086 82.7008 47.9682 82.9365 47.9682 83.1721C47.9682 83.3607 47.9682 83.5728 47.9682 83.8084ZM41.9588 43.3689H42.1709C42.3123 43.5574 42.4065 43.746 42.4537 43.9345C42.3594 43.9816 42.3123 44.0052 42.3123 44.0052C42.218 43.9109 42.1473 43.8167 42.1002 43.7224C42.1002 43.581 42.0531 43.4632 41.9588 43.3689ZM41.0397 43.581C40.9454 43.3925 40.8983 43.2747 40.8983 43.2275C40.9454 43.1333 41.0633 42.8976 41.2518 42.5205C41.4403 43.039 41.6053 43.5339 41.7467 44.0052C41.8881 44.4294 42.0531 44.8772 42.2416 45.3485C42.1945 45.3485 42.1473 45.372 42.1002 45.4192C42.1002 45.4192 42.0766 45.4192 42.0295 45.4192C41.8881 45.0892 41.7231 44.7829 41.5346 44.5001C41.3932 44.2173 41.2282 43.9109 41.0397 43.581Z" fill="#E8E8E8"/>
<path d="M85.7962 44.9243C85.9848 45.0185 86.1497 45.1364 86.2911 45.2778C86.4325 45.4192 86.5739 45.537 86.7153 45.6313C86.4325 46.0555 86.244 46.3618 86.1497 46.5504C85.9612 46.4561 85.7962 46.2911 85.6548 46.0555C85.5134 45.8198 85.2542 45.7962 84.8772 45.9848C85.5841 46.9274 86.1497 47.9172 86.5739 48.9541C87.0452 49.9439 87.328 51.0515 87.4223 52.2769C87.4694 52.0413 87.493 51.8056 87.493 51.5699C87.5401 51.2871 87.6108 51.0044 87.7051 50.7216C88.035 50.9101 88.2236 51.075 88.2707 51.2164C88.3178 51.3107 88.3178 51.6406 88.2707 52.2062C88.3178 51.9234 88.3649 51.6406 88.4121 51.3578C88.4592 51.0751 88.4828 50.7923 88.4828 50.5095C88.4828 50.3681 88.4121 50.1088 88.2707 49.7318C88.1293 49.3076 87.9879 48.8598 87.8465 48.3885C87.7051 47.9172 87.5637 47.493 87.4223 47.1159C87.328 46.6917 87.3045 46.409 87.3516 46.2676C87.3987 46.5032 87.493 46.6682 87.6344 46.7624C87.8229 46.8567 88.0115 47.0217 88.2 47.2573C88.4356 47.4459 88.6477 47.7522 88.8363 48.1764C89.0719 48.5535 89.2369 49.1426 89.3312 49.9439C89.3783 49.9439 89.4019 50.0381 89.4019 50.2267C89.449 50.3681 89.4726 50.533 89.4726 50.7216C89.4726 50.9101 89.4961 51.0986 89.5433 51.2871C89.5904 51.4757 89.6611 51.5699 89.7553 51.5699C89.6611 52.2298 89.5433 52.8896 89.4019 53.5495C89.3076 54.2093 89.1662 54.8692 88.9777 55.529C88.8834 55.9061 88.7184 56.2596 88.4828 56.5895C88.2943 56.9195 88.0822 57.2258 87.8465 57.5086C87.4694 57.9328 87.0688 58.3334 86.6446 58.7105C86.2204 59.0875 85.7962 59.4646 85.372 59.8417C85.0893 60.0773 84.7829 60.3365 84.453 60.6193C84.1702 60.9021 83.8402 61.2321 83.4632 61.6091C83.9816 61.6562 84.4294 61.6798 84.8065 61.6798C85.2306 61.6798 85.6313 61.7269 86.0083 61.8212C86.4325 61.8683 86.8331 61.9626 87.2102 62.104C87.5873 62.2454 87.9643 62.4339 88.3414 62.6696C89.2369 63.2352 90.0853 63.8243 90.8865 64.4371C91.6878 65.0498 92.3948 65.8039 93.0075 66.6994C93.5259 67.5478 93.9501 68.3962 94.2801 69.2445C94.4214 69.5745 94.5393 69.9044 94.6335 70.2343C94.7749 70.5642 94.9163 70.8942 95.0577 71.2241C95.152 71.6483 95.1756 71.9311 95.1284 72.0725C95.0342 72.5438 94.9399 73.0151 94.8456 73.4865C94.7514 73.9106 94.6335 74.3348 94.4921 74.759C94.3508 75.1832 94.2094 75.4189 94.068 75.466C93.9737 75.5131 93.6673 75.4896 93.1489 75.3953C93.1489 75.5367 93.1724 75.6781 93.2196 75.8195C93.2667 75.9609 93.2667 76.0787 93.2196 76.173C93.2196 76.3144 93.1724 76.4794 93.0782 76.6679C93.031 76.8093 92.9839 76.88 92.9368 76.88C92.4655 76.8328 92.1591 76.9742 92.0177 77.3042C91.9234 77.587 91.8056 77.8698 91.6642 78.1525C91.5228 78.3882 91.4757 78.6474 91.5228 78.9302L92.3712 78.2939C92.4183 78.3882 92.4655 78.4589 92.5126 78.506C92.5597 78.5532 92.5833 78.6003 92.5833 78.6474C90.8865 81.5225 89.0955 83.4549 87.2102 84.4447C85.3249 85.4345 83.581 85.9529 81.9785 86.0001C80.376 86.0472 79.0328 85.8587 77.9487 85.4345C76.8647 84.9632 76.2755 84.7275 76.1813 84.7275C75.8985 84.6804 75.7099 84.8218 75.6157 85.1517C75.5214 85.4345 75.3093 85.4345 74.9794 85.1517C74.7437 84.9632 74.4845 84.916 74.2017 85.0103C73.966 85.1046 73.8011 84.9632 73.7068 84.5861C73.6597 84.6804 73.4711 84.8925 73.1412 85.2224C73.047 84.5625 72.9527 83.9498 72.8584 83.3842C72.8113 82.7715 72.7406 82.1352 72.6463 81.4754C72.4578 82.2295 72.4107 82.96 72.5049 83.667C72.6463 84.374 72.5285 85.1281 72.1514 85.9294C72.0572 85.5994 71.9865 85.3402 71.9393 85.1517C71.9393 84.9632 71.9158 84.7746 71.8686 84.5861L70.5961 76.1023C70.5018 75.5838 70.4311 75.0654 70.384 74.5469C70.384 73.9813 70.3368 73.4393 70.2426 72.9209C70.1483 72.4024 70.1719 71.884 70.3133 71.3655C70.4547 70.847 70.5254 70.3286 70.5254 69.8101C70.4782 69.2917 70.4547 68.7732 70.4547 68.2548C70.4547 67.6892 70.4547 67.1472 70.4547 66.6287C70.5018 66.1103 70.5489 65.5682 70.5961 65.0026C70.6432 64.4371 70.6903 63.895 70.7375 63.3766C70.8789 61.2556 71.0203 59.1347 71.1617 57.0137C71.3031 54.8456 71.4445 52.7011 71.5859 50.5802C71.4445 50.5802 71.3502 50.5566 71.3031 50.5095C71.2088 51.3578 71.1145 52.2062 71.0203 53.0546C70.9731 53.903 70.9024 54.7278 70.8082 55.529H70.5254C70.5725 54.8692 70.5961 54.1858 70.5961 53.4788C70.6432 52.7718 70.6903 52.0884 70.7375 51.4285C70.7375 50.7687 70.761 50.1088 70.8082 49.449C70.8553 48.742 70.8553 48.0586 70.8082 47.3987C70.761 46.7389 70.6903 46.079 70.5961 45.4192C70.5018 44.7122 70.4547 44.0288 70.4547 43.3689C70.5489 43.5574 70.6196 43.746 70.6668 43.9345C70.7139 44.0759 70.7846 44.2409 70.8789 44.4294C71.0203 44.6179 71.2795 44.8536 71.6566 45.1364C71.7508 44.8536 71.7508 44.5944 71.6566 44.3587C71.5623 44.0759 71.468 43.8167 71.3738 43.581C71.2795 43.3454 71.2088 43.0861 71.1617 42.8033C71.1617 42.5205 71.2324 42.2377 71.3738 41.955C71.7508 42.5205 72.0336 42.874 72.2221 43.0154C72.4107 43.1097 72.717 43.1097 73.1412 43.0154L72.5049 42.3791C72.7406 42.4263 72.9291 42.4498 73.0705 42.4498C73.2119 42.4498 73.3769 42.4498 73.5654 42.4498C73.6125 42.5912 73.7304 42.8033 73.9189 43.0861C73.966 43.2747 74.0603 43.4632 74.2017 43.6517C75.0972 44.0288 75.9692 44.123 76.8175 43.9345C77.713 43.746 78.6086 43.6046 79.5041 43.5103C80.2111 43.4632 80.918 43.5103 81.625 43.6517C82.332 43.746 83.0154 43.8874 83.6753 44.0759C84.3823 44.2644 85.0893 44.5472 85.7962 44.9243ZM85.0186 52.489C84.9714 52.2534 84.9479 52.0413 84.9479 51.8527C84.9479 51.6171 84.9243 51.3814 84.8772 51.1457C84.7829 50.0146 84.3823 49.1191 83.6753 48.4592C83.0154 47.7994 82.1199 47.4223 80.9887 47.328C80.5174 47.2809 80.0461 47.2573 79.5748 47.2573C79.1506 47.2573 78.7028 47.2573 78.2315 47.2573C77.2417 47.1631 76.4169 47.3516 75.7571 47.8229V51.3578C75.7099 51.9706 75.6864 52.5833 75.6864 53.196C75.6864 53.7616 75.6628 54.3507 75.6157 54.9635C75.5214 55.859 75.4507 56.7545 75.4036 57.65C75.3564 58.5455 75.2857 59.441 75.1915 60.3365C75.1915 60.6665 75.1915 60.9728 75.1915 61.2556C75.2386 61.5384 75.2857 61.8683 75.3329 62.2454C75.8042 62.1983 76.2519 62.104 76.6761 61.9626C76.4876 61.8212 76.3226 61.7034 76.1813 61.6091C76.087 61.5149 75.9927 61.4206 75.8985 61.3263C76.1813 61.1378 76.4405 60.9728 76.6761 60.8314C76.9589 60.69 77.2182 60.5486 77.4538 60.4072C77.6424 60.313 77.8309 60.2423 78.0194 60.1951C78.2079 60.148 78.42 60.1951 78.6557 60.3365C78.75 60.4308 78.8914 60.4779 79.0799 60.4779C79.2684 60.4779 79.4334 60.5015 79.5748 60.5486C79.3391 60.6429 79.0799 60.7607 78.7971 60.9021C78.5614 60.9964 78.3022 61.0907 78.0194 61.1849C78.0194 61.1849 78.0665 61.2792 78.1608 61.4677C78.4436 61.2321 78.7264 61.2321 79.0092 61.4677C79.3391 61.6562 79.6455 61.5384 79.9283 61.1142C79.9754 61.2085 80.0225 61.2792 80.0697 61.3263C80.1168 61.3735 80.1639 61.4442 80.2111 61.5384L79.1506 61.9626C79.7162 61.9626 80.3053 61.8683 80.918 61.6798C81.5779 61.4913 82.1671 61.2321 82.6855 60.9021C83.2511 60.5722 83.7224 60.2187 84.0995 59.8417C84.4765 59.4646 84.7358 59.0875 84.8772 58.7105C84.7358 58.5691 84.5944 58.5455 84.453 58.6398C84.3116 58.734 84.1702 58.8519 84.0288 58.9933C83.8874 59.0875 83.746 59.1347 83.6046 59.1347C83.4632 59.0875 83.3218 58.899 83.1804 58.5691C82.5205 58.8519 81.8607 59.1818 81.2008 59.5589C80.9181 59.7003 80.6352 59.8652 80.3525 60.0537C80.1168 60.1951 79.8576 60.3601 79.5748 60.5486C79.4805 60.1245 79.5276 59.8181 79.7162 59.6296C79.9518 59.3939 80.2346 59.2289 80.5646 59.1347C80.8945 58.9933 81.1537 58.8283 81.3422 58.6398C81.5308 58.4041 81.7429 58.192 81.9785 58.0035C82.1671 57.8621 82.3085 57.6736 82.4027 57.4379C82.497 57.2022 82.4498 56.9666 82.2613 56.7309C83.0154 56.3067 83.6988 55.8118 84.3116 55.2463C84.9243 54.6335 85.3721 53.903 85.6548 53.0546C85.8905 52.2534 85.9376 51.4757 85.7962 50.7216C85.6548 49.9203 85.2542 49.1898 84.5944 48.5299C84.7358 49.0484 84.8772 49.5197 85.0186 49.9439C85.16 50.3681 85.2778 50.8158 85.372 51.2871C85.4663 51.8527 85.3485 52.2534 85.0186 52.489ZM87.9172 73.3451C88.0115 73.2508 88.0822 73.133 88.1293 72.9916C88.1764 72.8502 88.2471 72.7323 88.3414 72.6381C88.9541 71.6954 89.2605 70.8942 89.2605 70.2343C89.2605 69.5273 88.9541 68.7497 88.3414 67.9013C88.2471 67.807 88.1764 67.7363 88.1293 67.6892C88.0822 67.5949 88.035 67.5007 87.9879 67.4064C88.0822 67.3121 88.1529 67.265 88.2 67.265C88.2471 67.2179 88.3178 67.1472 88.4121 67.0529C88.2707 66.8644 88.1293 66.6758 87.9879 66.4873C87.8465 66.2988 87.658 66.1574 87.4223 66.0631C86.951 65.7332 86.4561 65.4504 85.9376 65.2147C85.4663 64.9791 84.9007 64.9555 84.2409 65.144C83.8638 65.2383 83.4396 65.2619 82.9683 65.2147C82.5441 65.1676 82.1199 65.1912 81.6957 65.2854C81.2715 65.3797 80.8709 65.3561 80.4939 65.2147C80.1168 65.0733 79.6926 65.0498 79.2213 65.144C78.4672 65.3326 77.7366 65.4975 77.0296 65.6389C76.3226 65.7332 75.8513 66.2752 75.6157 67.265C75.0972 67.5949 74.8144 67.9955 74.7673 68.4669C74.7673 68.8911 74.7673 69.3624 74.7673 69.8808C74.673 71.4833 74.7437 73.0623 74.9794 74.6176C75.2622 76.173 75.5685 77.7284 75.8985 79.2837C75.9927 79.7079 76.1812 79.9436 76.464 79.9907C76.8411 80.1792 77.1946 80.3678 77.5245 80.5563C77.8544 80.6977 78.2786 80.7213 78.7971 80.627C79.3156 80.5327 79.834 80.5563 80.3525 80.6977C80.918 80.792 81.4601 80.792 81.9785 80.6977C82.8269 80.6034 83.6046 80.4149 84.3116 80.1321C85.0657 79.8493 85.7491 79.378 86.3618 78.7181C87.2573 77.6341 88.035 76.5029 88.6949 75.3246C89.3547 74.1463 89.9674 72.9444 90.533 71.719C90.863 71.0591 90.9101 70.4229 90.6744 69.8101C90.4388 69.1503 90.0853 68.5611 89.614 68.0427C89.5668 67.9955 89.284 67.9248 88.7656 67.8306C88.9541 68.0662 89.1191 68.2548 89.2605 68.3962C89.4019 68.4904 89.449 68.5847 89.4019 68.679C89.3076 69.056 89.3312 69.3152 89.4726 69.4566C89.6611 69.5509 89.8496 69.6923 90.0381 69.8808C89.7082 69.9751 89.5668 70.1165 89.614 70.305C89.7082 70.4936 89.8025 70.6585 89.8968 70.7999C90.1324 71.177 90.2502 71.4126 90.2502 71.5069C90.2502 71.6012 90.0617 71.7897 89.6847 72.0725C89.449 72.261 89.2369 72.4731 89.0484 72.7088C88.8598 72.8973 88.6242 73.133 88.3414 73.4158C88.2943 73.4158 88.2471 73.3922 88.2 73.3451C88.0586 73.3451 87.9408 73.3451 87.8465 73.3451H87.9172ZM71.2324 66.3459C70.8553 68.8911 70.761 71.3655 70.9496 73.7692C71.1381 76.173 71.7037 78.5532 72.6463 80.9098C72.5521 80.3442 72.4342 79.7786 72.2928 79.213C72.1986 78.6003 72.1279 77.9876 72.0807 77.3749C71.9865 76.4322 71.8922 75.5131 71.798 74.6176C71.7037 73.675 71.633 72.7323 71.5859 71.7897C71.5387 70.9884 71.5152 70.2108 71.5152 69.4566C71.5623 68.7025 71.5623 67.9248 71.5152 67.1236C71.5152 67.0293 71.4916 66.9351 71.4445 66.8408C71.3973 66.7465 71.3266 66.5816 71.2324 66.3459ZM90.9572 69.0325C90.7216 68.3726 90.3445 67.7599 89.826 67.1943C89.3076 66.5816 88.742 66.0396 88.1293 65.5682C87.5166 65.0969 86.8803 64.7199 86.2204 64.4371C85.6077 64.1543 85.0186 64.0364 84.453 64.0836C85.7727 64.602 86.9745 65.2619 88.0586 66.0631C89.1898 66.8172 90.156 67.807 90.9572 69.0325ZM85.6548 48.6006C85.3249 47.658 84.9007 47.0217 84.3823 46.6917C83.9109 46.3618 83.1568 46.2204 82.1199 46.2676C82.6855 46.6446 83.2511 47.0452 83.8167 47.4694C84.4294 47.8465 85.0421 48.2235 85.6548 48.6006ZM71.5859 63.7301C71.633 62.5046 71.6801 61.3028 71.7272 60.1244C71.7744 58.9461 71.8215 57.7443 71.8686 56.5188C71.6801 57.7443 71.5387 58.9461 71.4445 60.1244C71.3502 61.3028 71.3973 62.5046 71.5859 63.7301ZM89.9674 65.7096C89.5904 65.2383 89.0484 64.7905 88.3414 64.3664C87.6815 63.9422 87.0217 63.6594 86.3618 63.518C86.9745 63.8479 87.5637 64.2485 88.1293 64.7198C88.6949 65.144 89.3076 65.474 89.9674 65.7096ZM91.3814 67.4064C91.24 67.1707 91.0986 66.9351 90.9572 66.6994C90.863 66.4166 90.7687 66.1574 90.6744 65.9217C90.4859 66.016 90.3681 66.0867 90.3209 66.1338C90.4623 66.3695 90.6037 66.6051 90.7451 66.8408C90.8865 67.0293 91.0279 67.2414 91.1693 67.4771C91.2165 67.4771 91.24 67.4771 91.24 67.4771C91.2872 67.43 91.3343 67.4064 91.3814 67.4064ZM87.493 55.1756C87.3045 55.4112 87.1395 55.6233 86.9981 55.8118C86.8567 55.9532 86.7153 56.1182 86.5739 56.3067L86.786 56.5188C86.8803 56.2832 87.0217 56.0946 87.2102 55.9532C87.4459 55.8118 87.5401 55.5526 87.493 55.1756ZM77.4538 62.104H78.3022V61.9626H77.4538V62.104ZM92.5833 77.7284C92.6304 77.6341 92.7011 77.5398 92.7954 77.4456C92.8897 77.4927 92.9603 77.5398 93.0075 77.587C93.1017 77.6341 93.196 77.6812 93.2903 77.7284C93.2431 77.7755 93.2196 77.8226 93.2196 77.8698L93.1489 77.9405C93.0546 77.8933 92.9603 77.8698 92.8661 77.8698C92.7718 77.8226 92.6776 77.7755 92.5833 77.7284ZM87.9172 73.3451H87.8465C87.9408 73.4393 88.035 73.5572 88.1293 73.6985C88.2236 73.7928 88.3178 73.8871 88.4121 73.9813C88.1293 74.3113 87.7287 74.7119 87.2102 75.1832C87.3516 74.8062 87.4694 74.4762 87.5637 74.1934C87.7051 73.9106 87.8229 73.6278 87.9172 73.3451ZM85.0186 52.489C85.0186 52.6775 85.0186 52.8661 85.0186 53.0546C85.0657 53.196 85.0421 53.3374 84.9479 53.4788C84.9007 53.5731 84.8065 53.6438 84.6651 53.6909C84.5237 53.738 84.4058 53.8087 84.3116 53.903C84.2173 53.8087 84.1466 53.7145 84.0995 53.6202C84.2409 53.4317 84.3823 53.2667 84.5237 53.1253C84.7122 52.9368 84.8772 52.7247 85.0186 52.489ZM82.1906 60.1951C82.1435 60.1951 82.0728 60.148 81.9785 60.0537L82.4027 59.6296L82.5441 59.771C82.4498 59.8652 82.3791 59.9359 82.332 59.9831C82.332 60.0302 82.2849 60.1009 82.1906 60.1951Z" fill="#E8E8E8"/>
<path d="M106.762 48.1057C106.762 49.4726 106.738 50.8158 106.691 52.1355C106.644 53.4552 106.573 54.7985 106.479 56.1653C106.385 57.5793 106.361 58.9933 106.408 60.4072C106.455 61.8212 106.455 63.2587 106.408 64.7198C106.361 65.7096 106.314 66.6994 106.267 67.6892C106.267 68.679 106.22 69.6687 106.125 70.6585C106.031 71.9311 105.937 73.2037 105.843 74.4762C105.748 75.7488 105.701 77.0214 105.701 78.2939C105.701 78.9067 105.678 79.5194 105.63 80.1321C105.63 80.6977 105.63 81.2868 105.63 81.8996C105.678 83.125 105.725 84.3504 105.772 85.5759C105.819 86.7542 105.866 87.9561 105.913 89.1815C105.96 89.5114 105.984 89.8178 105.984 90.1006C105.984 90.3834 105.984 90.6897 105.984 91.0197C105.984 91.4439 105.795 91.6088 105.418 91.5146C105.371 91.2789 105.324 91.0197 105.277 90.7369C105.277 90.5012 105.253 90.242 105.206 89.9592C105.253 89.7707 105.371 89.6293 105.56 89.535C105.748 89.4879 105.795 89.2758 105.701 88.8987C105.607 88.993 105.536 89.0401 105.489 89.0401C105.442 89.0872 105.371 89.1579 105.277 89.2522C105.041 89.0165 104.971 88.8045 105.065 88.6159C105.206 88.4274 105.277 88.2153 105.277 87.9796C105.041 87.6026 104.782 87.5083 104.499 87.6968C104.216 87.9325 103.957 87.9325 103.722 87.6968C103.533 87.414 103.368 87.1313 103.227 86.8485C103.085 86.5657 102.897 86.2593 102.661 85.9294C102.661 86.0236 102.614 86.2593 102.52 86.6364C102.284 86.4007 102.166 86.1415 102.166 85.8587C102.166 85.5759 102.143 85.2931 102.096 85.0103C102.048 84.7275 102.025 84.4447 102.025 84.1619C102.072 83.832 102.048 83.5256 101.954 83.2428C101.718 82.4887 101.601 81.7346 101.601 80.9805C101.601 80.1792 101.554 79.378 101.459 78.5767C101.459 78.1997 101.436 77.8226 101.389 77.4456C101.389 77.0685 101.341 76.6915 101.247 76.3144C101.106 75.6074 101.059 74.9004 101.106 74.1934C101.153 73.4393 101.176 72.7088 101.176 72.0018C101.129 71.5776 101.106 71.1534 101.106 70.7292C101.153 70.305 101.176 69.8808 101.176 69.4566C101.176 69.3624 101.2 69.2681 101.247 69.1739C101.294 69.0796 101.341 68.9618 101.389 68.8204C101.247 68.679 101.129 68.4904 101.035 68.2548C100.988 67.972 101.012 67.6656 101.106 67.3357C101.294 66.723 101.365 66.1102 101.318 65.4975C101.318 64.8848 101.341 64.2485 101.389 63.5887C101.436 63.1645 101.459 62.7639 101.459 62.3868C101.459 61.9626 101.459 61.5384 101.459 61.1142C101.412 60.6429 101.436 60.2187 101.53 59.8417C101.624 59.4175 101.648 58.9697 101.601 58.4984C101.554 57.9799 101.53 57.485 101.53 57.0137C101.577 56.5424 101.601 56.0475 101.601 55.529C101.601 55.152 101.554 54.7985 101.459 54.4686C101.412 54.0915 101.412 53.738 101.459 53.4081C101.601 52.654 101.624 51.9234 101.53 51.2164C101.483 50.4623 101.483 49.7318 101.53 49.0248C101.577 48.5063 101.601 48.035 101.601 47.6108C101.601 47.1395 101.624 46.6446 101.671 46.1262C101.671 45.7491 101.671 45.3485 101.671 44.9243C101.718 44.5001 101.766 44.0759 101.813 43.6517C101.813 43.3218 101.836 42.9919 101.883 42.6619C101.931 42.332 101.907 41.9785 101.813 41.6015C101.813 41.5543 101.836 41.5072 101.883 41.4601C101.931 41.3658 101.978 41.2715 102.025 41.1773H102.237C102.284 41.5072 102.308 41.8371 102.308 42.167C102.355 42.4498 102.402 42.7326 102.449 43.0154C102.685 42.9212 102.897 42.8269 103.085 42.7326C103.321 42.6384 103.557 42.5205 103.792 42.3791C103.839 42.8505 103.863 43.2982 103.863 43.7224C103.91 44.0995 103.957 44.4765 104.004 44.8536H104.146C104.193 44.4765 104.216 44.123 104.216 43.7931C104.216 43.4161 104.24 43.0154 104.287 42.5912C104.381 42.7798 104.452 42.9447 104.499 43.0861C104.546 43.1804 104.617 43.3454 104.711 43.581C104.711 43.3454 104.711 43.1333 104.711 42.9447C104.759 42.7562 104.782 42.5677 104.782 42.3791C105.018 42.3791 105.136 42.3791 105.136 42.3791C105.277 42.1906 105.371 42.167 105.418 42.3084C105.465 42.4027 105.536 42.4734 105.63 42.5205C105.536 42.8976 105.607 43.2275 105.843 43.5103C106.125 43.7931 106.149 44.1466 105.913 44.5708C105.866 44.6651 105.866 44.8065 105.913 44.995C105.96 45.1364 106.031 45.2542 106.125 45.3485C106.408 45.7255 106.573 46.1497 106.62 46.621C106.667 47.0924 106.715 47.5873 106.762 48.1057ZM102.52 82.7479H102.732C102.638 82.3709 102.59 82.0881 102.59 81.8996C102.496 81.8996 102.449 81.9231 102.449 81.9703C102.449 82.0645 102.449 82.1824 102.449 82.3238C102.496 82.4652 102.52 82.6066 102.52 82.7479ZM104.004 48.9541V48.035H103.934V48.9541H104.004Z" fill="#E8E8E8"/>
<path d="M132.076 50.9337C132.076 50.5095 132.194 50.1795 132.43 49.9439C132.712 49.7082 132.948 49.449 133.137 49.1662C133.372 48.7891 133.584 48.4592 133.773 48.1764C134.009 47.8936 134.244 47.5637 134.48 47.1866C134.668 47.2809 134.763 47.328 134.763 47.328C134.763 47.658 134.739 47.8936 134.692 48.035C134.315 48.6006 133.938 49.1898 133.561 49.8025C133.231 50.3681 132.877 50.9337 132.5 51.4992C132.123 52.112 131.723 52.7011 131.298 53.2667C130.874 53.8323 130.45 54.4214 130.026 55.0342C129.79 54.3743 129.884 53.8323 130.309 53.4081C130.686 53.031 130.968 52.6068 131.157 52.1355C131.393 51.6642 131.699 51.2636 132.076 50.9337ZM136.742 44.0052C136.648 44.1466 136.554 44.288 136.459 44.4294C136.365 44.5237 136.247 44.6886 136.106 44.9243C136.059 44.5944 136.012 44.288 135.965 44.0052C135.965 43.7224 135.941 43.4161 135.894 43.0861C136.271 43.1804 136.53 43.2511 136.671 43.2982C136.907 43.4868 136.931 43.7224 136.742 44.0052ZM132.359 41.1773C131.558 41.083 130.733 41.0123 129.884 40.9652C129.083 40.8709 128.258 40.7531 127.41 40.6117C126.562 40.4703 125.69 40.3053 124.794 40.1168C123.946 39.9283 123.05 39.7397 122.108 39.5512C122.343 38.75 122.838 38.5143 123.592 38.8442C124.252 39.0799 124.865 39.1977 125.43 39.1977C126.043 39.1977 126.679 39.3391 127.339 39.6219C127.575 39.4334 127.834 39.3627 128.117 39.4098C128.4 39.4569 128.683 39.5276 128.965 39.6219C129.154 39.4334 129.295 39.2684 129.39 39.127C130.049 39.0799 130.662 39.0563 131.228 39.0563C131.793 39.0563 132.053 39.3155 132.005 39.834C132.382 39.5041 132.689 39.2684 132.924 39.127C133.16 38.9385 133.396 38.75 133.631 38.5614C133.914 38.6557 134.032 38.8678 133.985 39.1977C133.938 39.4805 133.679 40.0697 133.207 40.9652H132.854C132.665 41.1537 132.5 41.2244 132.359 41.1773ZM139.57 55.3877C139.476 56.943 139.405 58.4748 139.358 59.9831C139.311 61.4913 139.264 62.9995 139.217 64.5078C139.217 64.7905 139.217 65.0969 139.217 65.4268C139.264 65.7096 139.287 65.9924 139.287 66.2752C139.24 68.1605 139.217 70.0458 139.217 71.9311C139.217 73.7692 139.17 75.5838 139.075 77.3749C139.075 78.0819 139.028 78.7888 138.934 79.4958C138.887 80.2028 138.863 80.9098 138.863 81.6168C138.816 82.0881 138.792 82.5594 138.792 83.0307C138.84 83.4549 138.887 83.9027 138.934 84.374C138.981 84.7511 138.934 85.081 138.792 85.3638C138.698 85.6466 138.58 85.9765 138.439 86.3536C137.968 85.9765 137.685 85.5288 137.591 85.0103C137.496 84.4447 137.402 83.8791 137.308 83.3135C137.166 82.5123 137.143 81.7346 137.237 80.9805C137.378 80.2264 137.426 79.4487 137.378 78.6474C137.331 78.129 137.355 77.6105 137.449 77.0921C137.591 76.5736 137.614 76.0552 137.52 75.5367C137.473 74.9711 137.449 74.4291 137.449 73.9106C137.449 73.3451 137.449 72.7795 137.449 72.2139C137.496 70.7528 137.52 69.2917 137.52 67.8306C137.567 66.3223 137.591 64.8141 137.591 63.3059C137.591 61.939 137.567 60.5958 137.52 59.2761C137.52 57.9092 137.496 56.5424 137.449 55.1756C137.355 55.1284 137.308 55.1049 137.308 55.1049C137.261 55.152 137.237 55.1756 137.237 55.1756C137.143 55.2227 137.096 55.2463 137.096 55.2463C137.143 54.5864 137.166 53.9501 137.166 53.3374C137.214 52.6775 137.237 52.0177 137.237 51.3578C137.237 50.9808 137.214 50.6037 137.166 50.2267C137.166 49.8496 137.143 49.4726 137.096 49.0955C136.86 49.1898 136.742 49.3547 136.742 49.5904C136.742 49.7789 136.742 49.991 136.742 50.2267C136.695 50.7451 136.648 51.2871 136.601 51.8527C136.601 52.3712 136.601 52.8896 136.601 53.4081C136.601 53.8323 136.624 54.2565 136.671 54.6807C136.719 55.1049 136.742 55.5526 136.742 56.0239C136.789 56.401 136.789 56.8016 136.742 57.2258C136.742 57.6029 136.719 57.9799 136.671 58.357C136.671 58.4513 136.624 58.5455 136.53 58.6398C136.483 58.6869 136.436 58.7576 136.389 58.8519C136.294 59.2289 136.2 59.5353 136.106 59.771C136.389 59.6296 136.577 59.5117 136.671 59.4175V61.3263C136.719 62.5046 136.766 63.6594 136.813 64.7905C136.86 65.9217 136.907 67.0529 136.954 68.1841C136.954 68.8439 136.931 69.5273 136.884 70.2343C136.836 70.8942 136.813 71.554 136.813 72.2139C136.766 73.6279 136.719 75.0654 136.671 76.5265C136.671 77.9405 136.648 79.3544 136.601 80.7684C136.554 81.2397 136.53 81.711 136.53 82.1824C136.577 82.6537 136.507 83.1486 136.318 83.667C136.224 83.9027 136.2 84.1619 136.247 84.4447C136.294 84.6804 136.271 84.9396 136.177 85.2224C136.177 85.081 136.129 84.8689 136.035 84.5861C135.988 84.3504 135.965 84.1384 135.965 83.9498C135.965 83.7142 135.87 83.4785 135.682 83.2428C135.587 83.1486 135.54 82.9836 135.54 82.7479C135.587 82.5123 135.611 82.2766 135.611 82.041C135.611 81.6639 135.517 81.4282 135.328 81.334C135.328 82.3238 135.328 83.3135 135.328 84.3033C135.328 85.246 135.399 86.1886 135.54 87.1312C135.399 86.8956 135.305 86.6599 135.258 86.4243C135.21 86.2357 135.163 86.0236 135.116 85.788C134.928 84.8453 134.833 83.8791 134.833 82.8893C134.833 81.8524 134.833 80.8391 134.833 79.8493C134.833 78.6239 134.786 77.3984 134.692 76.173C134.645 74.9476 134.621 73.7221 134.621 72.4967C134.621 71.6483 134.645 70.7999 134.692 69.9515C134.739 69.056 134.786 68.1841 134.833 67.3357C134.88 66.3459 134.904 65.3561 134.904 64.3664C134.951 63.3294 134.998 62.3161 135.045 61.3263C135.093 60.7136 135.116 60.1009 135.116 59.4882C135.163 58.8754 135.234 58.2392 135.328 57.5793C135.517 57.7678 135.682 57.9328 135.823 58.0742C136.012 58.1685 136.177 58.2627 136.318 58.357C136.554 58.0742 136.577 57.8385 136.389 57.65C136.247 57.4615 136.177 57.2494 136.177 57.0137C136.177 56.7781 136.129 56.566 136.035 56.3774C135.988 56.1418 135.965 55.9061 135.965 55.6704C136.012 54.9163 136.059 54.1622 136.106 53.4081C136.153 52.654 136.2 51.8292 136.247 50.9337C135.965 51.405 135.847 51.8527 135.894 52.2769C135.941 52.7011 135.917 53.1017 135.823 53.4788C135.729 53.8559 135.635 54.2565 135.54 54.6807C135.493 55.0577 135.375 55.4348 135.187 55.8118C135.281 55.3405 135.328 54.8692 135.328 54.3979C135.375 53.9266 135.446 53.4317 135.54 52.9132C135.21 53.0546 134.951 53.2431 134.763 53.4788C134.621 53.6673 134.48 53.8794 134.338 54.1151C133.961 54.8692 133.584 55.5997 133.207 56.3067C132.83 57.0137 132.382 57.6736 131.864 58.2863C131.723 58.4277 131.605 58.6398 131.511 58.9226C131.463 59.1582 131.44 59.3939 131.44 59.6296C131.44 59.9595 131.322 60.313 131.086 60.69C130.898 60.9728 130.733 61.2556 130.591 61.5384C130.45 61.7741 130.332 62.0804 130.238 62.4575C130.144 62.7403 129.979 63.0231 129.743 63.3059C129.555 63.5415 129.342 63.8243 129.107 64.1543C129.201 64.2014 129.272 64.2721 129.319 64.3664C129.366 64.4135 129.437 64.4842 129.531 64.5785C128.494 66.2752 127.457 67.972 126.42 69.6687C125.43 71.3184 124.441 72.9916 123.451 74.6883C122.885 75.5367 122.367 76.5265 121.896 77.6577C121.377 79.1188 120.717 80.462 119.916 81.6875C119.115 82.9129 118.266 84.1148 117.371 85.2931C117.229 85.4816 117.112 85.6937 117.017 85.9294C116.97 86.165 116.9 86.4007 116.805 86.6364C116.711 86.872 116.64 87.1077 116.593 87.3433C116.546 87.579 116.475 87.8147 116.381 88.0503C116.287 87.5319 116.263 86.9899 116.31 86.4243C116.357 85.9058 116.263 85.3874 116.028 84.8689C115.745 85.3874 115.462 85.8822 115.179 86.3536C114.944 86.8249 114.684 87.3198 114.401 87.8382C113.93 87.3669 113.695 86.8249 113.695 86.2122C113.647 86.0236 113.624 85.8587 113.624 85.7173C113.671 85.5288 113.695 85.3167 113.695 85.081C113.742 84.7511 113.765 84.4211 113.765 84.0912C113.812 83.7613 113.836 83.4314 113.836 83.1014V81.9703C113.836 81.6875 113.812 81.4754 113.765 81.334C113.765 80.8155 113.742 80.3206 113.695 79.8493C113.695 79.3309 113.695 78.8124 113.695 78.2939C113.695 77.7755 113.695 77.257 113.695 76.7386C113.742 76.2201 113.765 75.7017 113.765 75.1832C113.765 74.759 113.742 74.3584 113.695 73.9813C113.647 73.5572 113.6 73.133 113.553 72.7088C113.553 72.4731 113.553 72.2374 113.553 72.0018C113.6 71.719 113.506 71.4598 113.27 71.2241C113.223 72.7795 113.2 74.3348 113.2 75.8902C113.2 77.3984 113.2 78.9067 113.2 80.4149C112.87 78.8124 112.728 77.1628 112.775 75.466C112.775 74.2406 112.775 73.0151 112.775 71.7897C112.823 70.5171 112.87 69.2445 112.917 67.972C112.917 66.8879 112.917 65.8275 112.917 64.7905C112.964 63.7065 113.011 62.6225 113.058 61.5384C113.058 61.2085 113.058 60.5958 113.058 59.7003C113.058 58.8047 113.035 57.8385 112.988 56.8016C112.988 55.7176 112.988 54.6807 112.988 53.6909C112.988 52.7011 112.988 51.947 112.988 51.4285C112.988 51.2871 112.988 51.1457 112.988 51.0043C113.035 50.8158 112.94 50.6744 112.705 50.5802C112.658 50.533 112.634 50.4388 112.634 50.2974C112.634 50.156 112.634 50.0381 112.634 49.9439C112.634 49.5668 112.634 49.1898 112.634 48.8127C112.681 48.3885 112.728 47.9172 112.775 47.3987C112.964 47.4459 113.129 47.4459 113.27 47.3987C113.412 47.3516 113.53 47.3752 113.624 47.4694C113.718 47.5637 113.765 47.7051 113.765 47.8936C113.812 48.0821 113.812 48.2235 113.765 48.3178C113.388 48.8363 113.247 49.3312 113.341 49.8025C113.435 50.2267 113.553 50.698 113.695 51.2164C113.789 50.3681 113.883 49.5197 113.977 48.6713C114.119 47.7758 114.26 46.8567 114.401 45.9141C114.496 45.9612 114.614 45.9848 114.755 45.9848C114.944 45.9848 115.085 46.0319 115.179 46.1262C115.368 46.3147 115.556 46.4325 115.745 46.4797C115.98 46.5268 116.216 46.5739 116.452 46.621C116.546 46.4325 116.64 46.244 116.735 46.0555C116.876 45.8198 117.041 45.5606 117.229 45.2778C117.324 45.7962 117.253 46.1262 117.017 46.2676C116.829 46.409 116.687 46.5975 116.593 46.8331C116.735 47.5873 116.711 48.3414 116.522 49.0955C116.334 49.8025 116.287 50.533 116.381 51.2871C116.428 51.5228 116.452 51.7349 116.452 51.9234C116.499 52.112 116.593 52.3005 116.735 52.489C116.923 52.8661 117.017 53.361 117.017 53.9737C117.112 58.6398 117.112 63.2352 117.017 67.7599C117.017 68.7025 116.994 69.6687 116.947 70.6585C116.9 71.6483 116.852 72.6145 116.805 73.5572C116.805 74.1699 116.829 74.7826 116.876 75.3953C116.923 75.9609 116.97 76.5736 117.017 77.2335C117.206 77.1392 117.3 77.0685 117.3 77.0214C117.442 76.6915 117.63 76.4087 117.866 76.173C118.101 75.8902 118.266 75.5603 118.361 75.1832C118.455 74.8533 118.596 74.5469 118.785 74.2641C118.973 73.9813 119.185 73.7221 119.421 73.4865C119.94 72.9209 120.364 72.3081 120.694 71.6483C121.071 70.9413 121.448 70.2579 121.825 69.598C122.155 69.0324 122.461 68.4433 122.744 67.8306C123.074 67.2179 123.404 66.6287 123.734 66.0631C123.828 65.8275 123.946 65.6389 124.087 65.4975C124.276 65.3561 124.417 65.1912 124.511 65.0026C124.888 64.4842 125.218 63.9422 125.501 63.3766C125.831 62.811 126.185 62.2454 126.562 61.6798C127.033 60.8786 127.504 60.1009 127.976 59.3468C128.494 58.5455 129.013 57.7443 129.531 56.943C129.625 56.8016 129.79 56.7309 130.026 56.7309C129.743 57.2965 129.437 57.8621 129.107 58.4277C128.824 58.9933 128.541 59.5589 128.258 60.1244C128.306 60.1244 128.329 60.148 128.329 60.1951C128.376 60.1951 128.423 60.1951 128.47 60.1951L129.107 59.1347C129.625 58.192 130.144 57.2729 130.662 56.3774C131.228 55.4348 131.84 54.5393 132.5 53.6909C132.877 53.1724 133.184 52.654 133.419 52.1355C133.702 51.6171 134.009 51.0986 134.338 50.5802C134.433 50.4388 134.527 50.2974 134.621 50.156C134.763 50.0146 134.88 49.9674 134.975 50.0146C135.352 50.1088 135.54 50.0617 135.54 49.8732C135.54 49.6375 135.54 49.4019 135.54 49.1662C135.587 48.6477 135.587 48.1528 135.54 47.6815C135.54 47.1631 135.54 46.6446 135.54 46.1262C135.682 46.2676 135.8 46.409 135.894 46.5504C136.035 46.6917 136.153 46.8096 136.247 46.9038V45.702C136.483 45.6548 136.672 45.6313 136.813 45.6313C137.001 45.5841 137.214 45.537 137.449 45.4899C137.543 45.1128 137.591 44.7122 137.591 44.288C137.638 43.8638 137.685 43.4396 137.732 43.0154C137.779 43.0154 137.803 43.0154 137.803 43.0154C137.85 42.9683 137.897 42.9447 137.944 42.9447C138.038 43.039 138.085 43.1568 138.085 43.2982C138.133 43.3925 138.203 43.4868 138.298 43.581C138.392 43.6281 138.486 43.6517 138.58 43.6517C138.675 43.6517 138.769 43.6753 138.863 43.7224C139.193 45.5134 139.311 47.3516 139.217 49.2369C139.17 51.1222 139.122 53.0075 139.075 54.8928C139.17 54.7985 139.24 54.7278 139.287 54.6807C139.334 54.5864 139.405 54.4686 139.499 54.3272C139.499 54.5628 139.499 54.7749 139.499 54.9635C139.547 55.1049 139.57 55.2463 139.57 55.3877ZM113.482 52.4183C113.058 53.5495 113.058 54.5864 113.482 55.529C113.53 55.4348 113.577 55.3641 113.624 55.317C113.671 55.2698 113.695 55.1991 113.695 55.1049C113.647 54.6807 113.6 54.2565 113.553 53.8323C113.553 53.4081 113.53 52.9368 113.482 52.4183ZM113.624 70.5171C113.624 70.3757 113.671 70.1165 113.765 69.7394H113.553C113.506 69.8337 113.482 69.9515 113.482 70.0929C113.482 70.2343 113.459 70.3522 113.412 70.4464C113.459 70.4936 113.53 70.5171 113.624 70.5171ZM136.247 46.9038C136.106 47.2338 136.012 47.5637 135.965 47.8936C135.917 48.1764 136.012 48.5063 136.247 48.8834V46.9038ZM135.328 81.334C135.375 81.0983 135.422 80.8627 135.47 80.627C135.517 80.3913 135.564 80.1557 135.611 79.92H135.399C135.399 80.1557 135.375 80.3913 135.328 80.627C135.328 80.8627 135.328 81.0983 135.328 81.334ZM135.54 69.6687C135.587 69.0089 135.611 68.3726 135.611 67.7599C135.658 67.1472 135.682 66.5344 135.682 65.9217C135.587 65.9689 135.54 65.9924 135.54 65.9924C135.493 66.2752 135.47 66.5816 135.47 66.9115C135.47 67.1943 135.47 67.5007 135.47 67.8306C135.47 68.1134 135.422 68.3962 135.328 68.679C135.234 68.9618 135.305 69.2917 135.54 69.6687ZM136.742 47.6108C137.119 47.328 137.284 47.0452 137.237 46.7624C137.237 46.4797 137.143 46.2204 136.954 45.9848C136.907 46.2204 136.86 46.4797 136.813 46.7624C136.813 46.9981 136.789 47.2809 136.742 47.6108ZM137.096 49.0955C137.19 49.1898 137.261 49.3076 137.308 49.449C137.402 49.5904 137.52 49.7553 137.661 49.9439C137.614 49.6139 137.591 49.3312 137.591 49.0955C137.591 48.8598 137.591 48.6242 137.591 48.3885H137.378C137.331 48.4828 137.284 48.6006 137.237 48.742C137.19 48.8363 137.143 48.9541 137.096 49.0955ZM113.341 84.2326C113.247 84.5154 113.247 84.7039 113.341 84.7982C113.482 84.8925 113.6 84.9867 113.695 85.081C113.459 85.1753 113.341 85.3402 113.341 85.5759C113.388 85.8115 113.365 86.0236 113.27 86.2122C113.223 86.3536 113.2 86.495 113.2 86.6364C113.2 86.7778 113.176 86.9192 113.129 87.0606C112.893 86.4478 112.752 85.8587 112.705 85.2931C112.658 84.7275 112.728 84.1148 112.917 83.4549C113.011 83.2193 113.035 82.9836 112.988 82.7479C112.94 82.4652 112.94 82.2059 112.988 81.9703C112.988 81.7817 112.964 81.6168 112.917 81.4754C112.917 81.2869 112.917 81.0983 112.917 80.9098H113.2C113.2 81.2868 113.2 81.6639 113.2 82.041C113.247 82.3709 113.294 82.7244 113.341 83.1014C113.388 83.29 113.412 83.4785 113.412 83.667C113.459 83.8556 113.435 84.0441 113.341 84.2326ZM117.371 42.9447C117.465 43.1804 117.465 43.4396 117.371 43.7224C117.324 43.9581 117.182 44.453 116.947 45.2071C116.617 44.9243 116.31 44.6651 116.028 44.4294C115.792 44.1466 115.556 43.8874 115.321 43.6517C115.556 43.2275 115.745 42.8505 115.886 42.5205C116.122 42.6148 116.334 42.7326 116.522 42.874C116.711 43.0154 116.758 43.3218 116.664 43.7931C116.852 43.6046 116.994 43.4632 117.088 43.3689C117.182 43.2275 117.277 43.0861 117.371 42.9447ZM129.884 55.529C129.319 56.3774 128.753 57.2258 128.188 58.0742C127.669 58.8754 127.151 59.7003 126.632 60.5486C126.915 59.4646 127.339 58.5455 127.905 57.7914C128.518 56.9902 129.107 56.1889 129.672 55.3877C129.719 55.3877 129.79 55.4348 129.884 55.529Z" fill="#E8E8E8"/>
<path d="M146.417 42.874C146.417 42.9212 146.417 42.9683 146.417 43.0154C146.464 43.0154 146.488 43.0626 146.488 43.1568C146.205 43.2511 145.969 43.3218 145.781 43.3689C145.781 43.3218 145.757 43.2747 145.71 43.2275C145.851 43.1333 145.969 43.0861 146.063 43.0861C146.205 43.039 146.323 42.9683 146.417 42.874ZM157.799 53.1253C157.988 53.5024 158.035 53.8794 157.941 54.2565C157.846 54.6335 157.846 55.0106 157.941 55.3877C157.846 55.3877 157.776 55.4112 157.729 55.4584C157.681 55.0813 157.634 54.7042 157.587 54.3272C157.587 53.9501 157.564 53.5731 157.516 53.196C157.564 53.196 157.611 53.196 157.658 53.196C157.705 53.1489 157.752 53.1253 157.799 53.1253ZM145.71 44.288C145.946 44.0995 146.11 44.0052 146.205 44.0052C146.346 43.9581 146.676 43.9581 147.195 44.0052C146.959 44.0523 146.723 44.0995 146.488 44.1466C146.252 44.1466 145.993 44.1937 145.71 44.288ZM175.615 45.9141C175.945 45.9141 176.275 45.8905 176.605 45.8434C176.982 45.7491 177.359 45.8905 177.736 46.2676C177.501 46.2676 177.288 46.2911 177.1 46.3383C176.959 46.3854 176.817 46.3854 176.676 46.3383C176.11 46.244 175.545 46.244 174.979 46.3383C174.461 46.4325 173.919 46.5032 173.353 46.5504C172.693 46.5975 172.01 46.621 171.303 46.621C170.596 46.5739 169.889 46.5739 169.182 46.621H163.667C163.479 46.621 163.314 46.6446 163.172 46.6917C163.031 46.7389 162.96 46.951 162.96 47.328C162.913 47.1866 162.842 47.3752 162.748 47.8936C162.701 48.3649 162.654 48.9777 162.607 49.7318C162.607 50.4859 162.583 51.24 162.536 51.9941C162.536 52.7482 162.56 53.3138 162.607 53.6909C162.654 54.0208 162.677 54.4686 162.677 55.0342C162.677 55.5526 162.677 56.0711 162.677 56.5895C162.677 57.0608 162.677 57.485 162.677 57.8621C162.725 58.2392 162.748 58.4513 162.748 58.4984C162.842 58.6398 162.89 58.9226 162.89 59.3468C162.937 59.7238 162.937 60.1245 162.89 60.5486C162.89 60.9728 162.866 61.3735 162.819 61.7505C162.819 62.1276 162.819 62.4104 162.819 62.5989C162.772 63.353 162.677 64.1071 162.536 64.8612C162.442 65.5682 162.489 66.2988 162.677 67.0529C162.442 67.43 162.324 67.8306 162.324 68.2548C162.371 68.6318 162.371 69.0325 162.324 69.4566C162.183 70.1636 162.183 70.9177 162.324 71.719C162.324 71.4833 162.324 71.2477 162.324 71.012C162.371 70.7292 162.395 70.4464 162.395 70.1636C162.63 70.3993 162.748 70.6114 162.748 70.7999C162.748 70.9884 162.748 71.2005 162.748 71.4362C162.748 71.9075 162.725 72.7088 162.677 73.8399C162.63 74.9711 162.583 76.173 162.536 77.4456C162.536 78.7181 162.513 79.9436 162.465 81.1219C162.465 82.2531 162.465 83.0779 162.465 83.5963V84.9396C161.9 84.8453 161.476 84.7511 161.193 84.6568C161.099 84.8925 161.028 85.1281 160.981 85.3638C160.981 85.5523 160.934 85.7644 160.839 86.0001C160.509 85.9529 160.274 85.8822 160.132 85.788C159.991 85.3638 159.944 84.9396 159.991 84.5154C160.085 84.0441 160.085 83.5963 159.991 83.1721H159.779C159.732 83.4078 159.685 83.6199 159.637 83.8084C159.637 83.997 159.614 84.1855 159.567 84.374C159.472 84.6097 159.402 84.8218 159.355 85.0103C159.308 85.1517 159.26 85.3402 159.213 85.5759H159.001C158.907 85.246 158.836 84.9396 158.789 84.6568C158.789 84.3269 158.742 84.0441 158.648 83.8084C158.506 84.0441 158.341 84.3033 158.153 84.5861C158.011 84.8218 157.846 85.0574 157.658 85.2931C157.281 85.1988 157.045 85.081 156.951 84.9396C156.904 84.7511 156.88 84.539 156.88 84.3033C156.88 83.8791 156.998 83.5256 157.234 83.2428C157.469 82.9129 157.587 82.5359 157.587 82.1117C157.587 81.4518 157.587 80.8627 157.587 80.3442C157.587 79.7786 157.611 79.1659 157.658 78.506C157.705 78.129 157.752 77.7284 157.799 77.3042C157.846 76.88 157.941 76.4794 158.082 76.1023C158.129 75.9138 158.106 75.7252 158.011 75.5367C157.964 75.3482 157.941 75.1361 157.941 74.9004C157.941 74.2877 157.941 73.6985 157.941 73.133C157.941 72.5674 157.964 72.0018 158.011 71.4362C158.059 70.8235 158.106 70.2343 158.153 69.6687C158.2 69.056 158.271 68.4669 158.365 67.9013C158.412 67.43 158.436 66.9822 158.436 66.558C158.436 66.0867 158.483 65.6154 158.577 65.144C158.671 64.4842 158.671 63.7772 158.577 63.0231C158.483 62.269 158.483 61.562 158.577 60.9021C158.624 60.5251 158.601 60.148 158.506 59.771C158.459 59.3939 158.436 59.0404 158.436 58.7105C158.483 57.2022 158.506 55.7411 158.506 54.3272C158.506 52.8661 158.553 51.3814 158.648 49.8732C158.742 49.2133 158.742 48.6242 158.648 48.1057C158.553 47.5401 158.436 46.951 158.294 46.3383C157.681 46.4325 157.116 46.409 156.597 46.2676C156.126 46.1262 155.584 46.1026 154.971 46.1969C154.453 46.2911 153.934 46.2911 153.416 46.1969C152.898 46.1026 152.308 46.0319 151.649 45.9848C152.026 45.702 152.355 45.5841 152.638 45.6313C152.968 45.6313 153.298 45.6077 153.628 45.5606C153.911 45.5134 154.194 45.4899 154.476 45.4899C154.759 45.4899 155.066 45.4427 155.396 45.3485C155.018 45.1599 154.641 45.1128 154.264 45.2071C153.934 45.3013 153.581 45.3249 153.204 45.2778C152.874 45.1835 152.52 45.1128 152.143 45.0657C151.813 44.9714 151.436 44.8772 151.012 44.7829C151.201 44.6415 151.342 44.5237 151.436 44.4294C151.578 44.3351 151.743 44.2173 151.931 44.0759C151.507 44.0759 151.106 44.0759 150.729 44.0759C150.4 44.0759 150.046 44.0523 149.669 44.0052C149.999 43.6281 150.4 43.4632 150.871 43.5103C151.342 43.5575 151.79 43.3925 152.214 43.0154C151.931 42.9683 151.672 42.9447 151.436 42.9447C151.248 42.8976 151.036 42.8976 150.8 42.9447C150.376 42.9919 149.952 43.039 149.528 43.0861C149.103 43.1333 148.679 43.1804 148.255 43.2275C148.114 43.2275 147.972 43.204 147.831 43.1568C147.689 43.1097 147.524 43.0626 147.336 43.0154C147.572 42.8269 147.854 42.6384 148.184 42.4498C147.666 42.4027 147.171 42.3791 146.7 42.3791C146.275 42.3791 145.875 42.3556 145.498 42.3084C145.686 42.3084 146.016 42.2613 146.488 42.167C147.713 42.0257 148.915 41.8843 150.093 41.7429C151.319 41.6015 152.544 41.4836 153.769 41.3894C154.524 41.3422 155.278 41.3422 156.032 41.3894C156.786 41.3894 157.54 41.4836 158.294 41.6722C158.436 41.7193 158.624 41.7429 158.86 41.7429C160.085 41.6957 161.287 41.6722 162.465 41.6722C163.691 41.6722 164.916 41.6486 166.142 41.6015C166.377 41.6015 166.589 41.625 166.778 41.6722C167.014 41.7193 167.249 41.6486 167.485 41.4601C167.532 41.4601 167.579 41.5072 167.626 41.6015C167.721 41.6486 167.815 41.6957 167.909 41.7429C168.475 41.8371 169.04 41.8607 169.606 41.8136C170.172 41.7664 170.761 41.7193 171.373 41.6722C172.033 41.625 172.717 41.625 173.424 41.6722C174.131 41.6722 174.838 41.6486 175.545 41.6015C175.545 41.79 175.545 41.9549 175.545 42.0963C175.592 42.1906 175.639 42.332 175.686 42.5205C175.073 42.5677 174.484 42.6148 173.919 42.6619C173.4 42.6619 172.858 42.6855 172.292 42.7326C172.292 42.7798 172.269 42.8269 172.222 42.874C172.222 42.874 172.222 42.8976 172.222 42.9447C172.316 42.9919 172.387 43.039 172.434 43.0861C172.528 43.1333 172.622 43.1568 172.717 43.1568C173.141 43.204 173.565 43.2275 173.989 43.2275C174.461 43.2275 174.908 43.2275 175.332 43.2275C175.474 43.2275 175.615 43.2511 175.757 43.2982C175.898 43.2982 175.992 43.416 176.039 43.6517C175.662 43.8874 175.262 44.0288 174.838 44.0759C174.461 44.123 174.083 44.1702 173.706 44.2173C173.329 44.2173 172.952 44.1937 172.575 44.1466C172.198 44.0995 171.821 44.0288 171.444 43.9345C171.444 44.453 171.279 44.7122 170.949 44.7122C170.619 44.6651 170.36 44.7593 170.172 44.995C170.549 45.0421 170.902 45.0657 171.232 45.0657C171.562 45.0657 171.915 45.0892 172.292 45.1364C172.575 45.2306 172.811 45.3249 172.999 45.4192C173.235 45.5134 173.4 45.7255 173.494 46.0555C173.871 46.0083 174.225 45.9612 174.555 45.9141C174.885 45.8669 175.238 45.8669 175.615 45.9141ZM152.143 44.3587L152.78 44.1466L152.709 44.0759C152.426 44.0759 152.214 44.0995 152.073 44.1466C152.073 44.1937 152.073 44.2409 152.073 44.288C152.12 44.288 152.143 44.3116 152.143 44.3587ZM156.88 45.3485C157.022 45.3013 157.257 45.2778 157.587 45.2778V45.1364C157.446 45.1835 157.304 45.2071 157.163 45.2071C157.069 45.2071 156.974 45.2306 156.88 45.2778V45.3485ZM162.183 82.2531C161.947 82.583 161.853 82.8893 161.9 83.1721C161.947 83.4549 162.041 83.7377 162.183 84.0205V82.2531ZM162.041 68.679L162.253 68.0427C162.159 68.0427 162.088 68.0191 162.041 67.972C161.947 68.2548 161.9 68.4904 161.9 68.679H162.041ZM157.941 55.8825C158.035 56.1182 158.035 56.3067 157.941 56.4481C157.846 56.5424 157.729 56.6602 157.587 56.8016C157.634 56.6602 157.634 56.4953 157.587 56.3067C157.587 56.1182 157.705 55.9768 157.941 55.8825ZM157.587 65.7803C157.587 65.9689 157.493 66.0867 157.304 66.1338C157.304 65.8982 157.304 65.3326 157.304 64.4371C157.352 63.4944 157.399 62.5282 157.446 61.5384C157.493 60.5015 157.516 59.5353 157.516 58.6398C157.564 57.6971 157.587 57.108 157.587 56.8723C157.823 56.8723 157.941 56.9902 157.941 57.2258C157.941 57.6029 157.917 58.192 157.87 58.9933C157.823 59.7945 157.776 60.6429 157.729 61.5384C157.729 62.4339 157.705 63.2823 157.658 64.0836C157.611 64.8848 157.587 65.4504 157.587 65.7803Z" fill="#E8E8E8"/>
<path d="M210.614 54.3272C210.52 55.8825 210.449 57.4143 210.402 58.9226C210.355 60.4308 210.307 61.939 210.26 63.4473C210.26 63.7301 210.26 64.0364 210.26 64.3664C210.307 64.6492 210.331 64.9319 210.331 65.2147C210.284 67.1 210.26 68.9853 210.26 70.8706C210.26 72.7088 210.213 74.5234 210.119 76.3144C210.119 77.0214 210.072 77.7284 209.977 78.4353C209.93 79.1423 209.907 79.8493 209.907 80.5563C209.86 81.0276 209.836 81.4989 209.836 81.9703C209.883 82.3945 209.93 82.8422 209.977 83.3135C210.025 83.6906 209.977 84.0205 209.836 84.3033C209.742 84.5861 209.624 84.916 209.483 85.2931C209.011 84.916 208.728 84.4683 208.634 83.9498C208.54 83.3842 208.446 82.8186 208.351 82.2531C208.21 81.4518 208.186 80.6741 208.281 79.92C208.422 79.1659 208.469 78.3882 208.422 77.587C208.375 77.0685 208.399 76.55 208.493 76.0316C208.634 75.5131 208.658 74.9947 208.564 74.4762C208.516 73.9106 208.493 73.3686 208.493 72.8502C208.493 72.2846 208.493 71.719 208.493 71.1534C208.54 69.6923 208.564 68.2312 208.564 66.7701C208.611 65.2619 208.634 63.7536 208.634 62.2454C208.634 60.8786 208.611 59.5353 208.564 58.2156C208.564 56.8488 208.54 55.4819 208.493 54.1151C208.399 54.068 208.351 54.0444 208.351 54.0444C208.304 54.0915 208.281 54.1151 208.281 54.1151C208.186 54.1622 208.139 54.1858 208.139 54.1858C208.186 53.5259 208.21 52.8896 208.21 52.2769C208.257 51.6171 208.281 50.9572 208.281 50.2974C208.281 49.9203 208.257 49.5433 208.21 49.1662C208.21 48.7891 208.186 48.4121 208.139 48.035C207.904 48.1293 207.786 48.2942 207.786 48.5299C207.786 48.7184 207.786 48.9305 207.786 49.1662C207.739 49.6846 207.692 50.2267 207.644 50.7923C207.644 51.3107 207.644 51.8292 207.644 52.3476C207.644 52.7718 207.668 53.196 207.715 53.6202C207.762 54.0444 207.786 54.4921 207.786 54.9635C207.833 55.3405 207.833 55.7411 207.786 56.1653C207.786 56.5424 207.762 56.9195 207.715 57.2965C207.715 57.3908 207.668 57.485 207.574 57.5793C207.527 57.6264 207.479 57.6971 207.432 57.7914C207.338 58.1685 207.244 58.4748 207.15 58.7105C207.432 58.5691 207.621 58.4513 207.715 58.357V60.2658C207.762 61.4442 207.809 62.5989 207.857 63.7301C207.904 64.8612 207.951 65.9924 207.998 67.1236C207.998 67.7834 207.974 68.4669 207.927 69.1739C207.88 69.8337 207.857 70.4936 207.857 71.1534C207.809 72.5674 207.762 74.0049 207.715 75.466C207.715 76.88 207.692 78.2939 207.644 79.7079C207.597 80.1792 207.574 80.6506 207.574 81.1219C207.621 81.5932 207.55 82.0881 207.362 82.6066C207.267 82.8422 207.244 83.1014 207.291 83.3842C207.338 83.6199 207.315 83.8791 207.22 84.1619C207.22 84.0205 207.173 83.8084 207.079 83.5256C207.032 83.29 207.008 83.0779 207.008 82.8893C207.008 82.6537 206.914 82.418 206.725 82.1824C206.631 82.0881 206.584 81.9231 206.584 81.6875C206.631 81.4518 206.655 81.2161 206.655 80.9805C206.655 80.6034 206.56 80.3678 206.372 80.2735C206.372 81.2633 206.372 82.2531 206.372 83.2428C206.372 84.1855 206.443 85.1281 206.584 86.0708C206.443 85.8351 206.348 85.623 206.301 85.4345C206.301 85.1988 206.254 84.9632 206.16 84.7275C205.971 83.7849 205.877 82.8186 205.877 81.8289C205.877 80.792 205.877 79.7786 205.877 78.7888C205.877 77.5634 205.83 76.338 205.736 75.1125C205.688 73.8871 205.665 72.6616 205.665 71.4362C205.665 70.5878 205.688 69.7394 205.736 68.8911C205.783 67.9955 205.83 67.1236 205.877 66.2752C205.971 65.2854 206.018 64.2957 206.018 63.3059C206.018 62.269 206.042 61.2556 206.089 60.2658C206.136 59.6531 206.16 59.0404 206.16 58.4277C206.207 57.815 206.278 57.1787 206.372 56.5188C206.56 56.7074 206.725 56.8723 206.867 57.0137C207.055 57.108 207.22 57.2022 207.362 57.2965C207.597 57.0137 207.621 56.7781 207.432 56.5895C207.291 56.401 207.22 56.1889 207.22 55.9532C207.22 55.7176 207.173 55.5055 207.079 55.317C207.032 55.0813 207.032 54.8456 207.079 54.61C207.079 53.8559 207.102 53.1017 207.15 52.3476C207.197 51.5935 207.244 50.7687 207.291 49.8732C207.008 50.3445 206.89 50.7923 206.937 51.2164C206.985 51.6406 206.961 52.0413 206.867 52.4183C206.772 52.7954 206.678 53.196 206.584 53.6202C206.537 53.9973 206.443 54.3743 206.301 54.7514C206.348 54.28 206.372 53.8087 206.372 53.3374C206.419 52.8661 206.49 52.3712 206.584 51.8527C206.254 51.9941 205.995 52.1827 205.806 52.4183C205.665 52.6068 205.523 52.8189 205.382 53.0546C205.005 53.8087 204.628 54.5393 204.251 55.2463C203.874 55.9532 203.426 56.6131 202.908 57.2258C202.766 57.3672 202.648 57.5793 202.554 57.8621C202.507 58.0978 202.483 58.3334 202.483 58.5691C202.483 58.899 202.366 59.2525 202.13 59.6296C201.941 59.9124 201.776 60.1951 201.635 60.4779C201.494 60.7136 201.376 61.02 201.282 61.397C201.187 61.6798 201.022 61.9626 200.787 62.2454C200.598 62.4811 200.386 62.7639 200.15 63.0938C200.245 63.1409 200.315 63.2116 200.362 63.3059C200.41 63.353 200.48 63.4237 200.575 63.518C199.538 65.2147 198.501 66.9115 197.464 68.6083C196.474 70.2579 195.484 71.9311 194.495 73.6279C193.929 74.4762 193.41 75.466 192.939 76.5972C192.421 78.0583 191.761 79.4016 190.96 80.627C190.158 81.8524 189.31 83.0543 188.414 84.2326C188.273 84.4211 188.155 84.6332 188.061 84.8689C188.014 85.1046 187.943 85.3402 187.849 85.5759C187.755 85.8115 187.684 86.0472 187.637 86.2829C187.59 86.5185 187.519 86.7542 187.425 86.9899C187.33 86.4714 187.307 85.9529 187.354 85.4345C187.401 84.8689 187.307 84.3269 187.071 83.8084C186.788 84.3269 186.506 84.8218 186.223 85.2931C185.987 85.7644 185.728 86.2593 185.445 86.7778C184.974 86.3064 184.738 85.7644 184.738 85.1517C184.691 84.9632 184.667 84.7982 184.667 84.6568C184.715 84.4683 184.738 84.2562 184.738 84.0205C184.785 83.6906 184.809 83.3607 184.809 83.0307C184.856 82.7008 184.88 82.3709 184.88 82.041V80.9098C184.88 80.627 184.856 80.4149 184.809 80.2735C184.809 79.7551 184.785 79.2602 184.738 78.7888C184.738 78.2704 184.738 77.7519 184.738 77.2335C184.738 76.715 184.738 76.1966 184.738 75.6781C184.785 75.1596 184.809 74.6412 184.809 74.1227C184.809 73.6986 184.785 73.2979 184.738 72.9209C184.691 72.4967 184.644 72.0725 184.597 71.6483C184.597 71.4126 184.597 71.177 184.597 70.9413C184.644 70.6585 184.55 70.3993 184.314 70.1636C184.267 71.719 184.243 73.2744 184.243 74.8297C184.243 76.338 184.243 77.8462 184.243 79.3544C183.913 77.7519 183.772 76.1023 183.819 74.4055C183.819 73.1801 183.819 71.9547 183.819 70.7292C183.866 69.4566 183.913 68.1841 183.96 66.9115C183.96 65.8275 183.96 64.767 183.96 63.7301C184.008 62.646 184.055 61.562 184.102 60.4779C184.102 60.148 184.102 59.5353 184.102 58.6398C184.102 57.7443 184.078 56.7781 184.031 55.7411C184.031 54.6571 184.031 53.6202 184.031 52.6304C184.031 51.6406 184.031 50.8865 184.031 50.3681C184.031 50.2267 184.031 50.0853 184.031 49.9439C184.078 49.7553 183.984 49.614 183.748 49.5197C183.701 49.4726 183.678 49.3783 183.678 49.2369C183.678 49.0955 183.678 48.9777 183.678 48.8834C183.678 48.5063 183.678 48.1293 183.678 47.7522C183.725 47.328 183.772 46.8567 183.819 46.3383C184.008 46.3383 184.173 46.3383 184.314 46.3383C184.455 46.2911 184.573 46.3147 184.667 46.409C184.762 46.5032 184.809 46.6446 184.809 46.8331C184.856 47.0217 184.856 47.1631 184.809 47.2573C184.432 47.7758 184.29 48.2707 184.385 48.742C184.479 49.1662 184.597 49.6375 184.738 50.156C184.832 49.3076 184.927 48.4592 185.021 47.6108C185.162 46.7153 185.304 45.7962 185.445 44.8536C185.539 44.9007 185.657 44.9243 185.799 44.9243C185.987 44.9243 186.129 44.9714 186.223 45.0657C186.411 45.2542 186.6 45.372 186.788 45.4192C187.024 45.4663 187.26 45.5134 187.495 45.5606C187.59 45.6548 187.637 45.7255 187.637 45.7727C187.778 46.5268 187.755 47.2809 187.566 48.035C187.378 48.742 187.33 49.4726 187.425 50.2267C187.472 50.4623 187.495 50.6744 187.495 50.863C187.543 51.0515 187.637 51.24 187.778 51.4285C187.967 51.8056 188.061 52.3005 188.061 52.9132C188.155 57.5793 188.155 62.1747 188.061 66.6994C188.061 67.642 188.037 68.6083 187.99 69.598C187.943 70.5878 187.92 71.554 187.92 72.4967C187.872 73.1094 187.872 73.7221 187.92 74.3348C187.967 74.9004 188.014 75.4896 188.061 76.1023C188.249 76.1023 188.344 76.0552 188.344 75.9609C188.485 75.631 188.674 75.3482 188.909 75.1125C189.145 74.8297 189.31 74.4998 189.404 74.1227C189.499 73.7928 189.64 73.4865 189.828 73.2037C190.017 72.9209 190.229 72.6616 190.465 72.426C190.983 71.8604 191.407 71.2477 191.737 70.5878C192.114 69.8808 192.491 69.1974 192.868 68.5376C193.198 67.972 193.505 67.3828 193.788 66.7701C194.117 66.1574 194.447 65.5682 194.777 65.0026C194.872 64.767 194.989 64.5785 195.131 64.4371C195.319 64.2957 195.461 64.1307 195.555 63.9422C195.932 63.4237 196.262 62.8817 196.545 62.3161C196.875 61.7505 197.228 61.1849 197.605 60.6193C198.077 59.8181 198.548 59.0404 199.019 58.2863C199.538 57.485 200.056 56.6838 200.575 55.8825C200.669 55.7411 200.834 55.6704 201.069 55.6704C200.787 56.236 200.48 56.8016 200.15 57.3672C199.868 57.9328 199.585 58.4748 199.302 58.9933C199.396 59.0875 199.467 59.1347 199.514 59.1347L200.15 58.0742C200.669 57.1315 201.187 56.2125 201.706 55.317C202.271 54.3743 202.884 53.4788 203.544 52.6304C203.921 52.112 204.227 51.5935 204.463 51.0751C204.746 50.5566 205.076 50.0381 205.453 49.5197C205.547 49.3783 205.641 49.2369 205.736 49.0955C205.83 48.9541 205.924 48.907 206.018 48.9541C206.395 49.0484 206.584 49.0012 206.584 48.8127C206.584 48.577 206.584 48.3414 206.584 48.1057C206.631 47.5873 206.655 47.0924 206.655 46.621C206.655 46.1026 206.655 45.5841 206.655 45.0657C206.937 45.4427 207.15 45.702 207.291 45.8434V44.6415C207.527 44.5944 207.715 44.5708 207.857 44.5708C208.045 44.5237 208.257 44.4765 208.493 44.4294C208.587 44.0523 208.634 43.6517 208.634 43.2275C208.681 42.8033 208.728 42.3791 208.776 41.955C208.823 41.955 208.846 41.955 208.846 41.955C208.893 41.9078 208.941 41.8843 208.988 41.8843C209.082 41.9785 209.129 42.0963 209.129 42.2377C209.176 42.332 209.247 42.4263 209.341 42.5205C209.435 42.5677 209.53 42.5912 209.624 42.5912C209.718 42.5912 209.813 42.6148 209.907 42.6619C210.237 44.453 210.355 46.2911 210.26 48.1764C210.213 50.0617 210.166 51.947 210.119 53.8323C210.213 53.738 210.284 53.6673 210.331 53.6202C210.378 53.5259 210.449 53.4081 210.543 53.2667C210.543 53.5024 210.543 53.7145 210.543 53.903C210.59 54.0444 210.614 54.1858 210.614 54.3272ZM207.291 45.8434C207.15 46.1733 207.055 46.5032 207.008 46.8331C206.961 47.1159 207.055 47.4459 207.291 47.8229V45.8434ZM206.372 80.2735C206.419 80.0378 206.466 79.8022 206.513 79.5665C206.56 79.3309 206.608 79.0952 206.655 78.8595H206.443C206.443 79.0952 206.419 79.3309 206.372 79.5665C206.372 79.8022 206.372 80.0378 206.372 80.2735ZM208.139 47.9643C208.234 48.1057 208.304 48.2471 208.351 48.3885C208.446 48.5299 208.564 48.6949 208.705 48.8834C208.658 48.5535 208.634 48.2707 208.634 48.035C208.634 47.7994 208.634 47.5637 208.634 47.328H208.422C208.375 47.4223 208.328 47.5401 208.281 47.6815C208.234 47.7758 208.186 47.8701 208.139 47.9643Z" fill="#E8E8E8"/>
<path d="M258.881 105.419C258.291 105.69 257.932 105.961 257.547 106.013C251.122 106.75 244.902 108.533 238.695 110.239C236.092 110.95 233.617 111.17 230.937 110.834C227.987 110.459 224.974 110.588 221.986 110.536C215.689 110.433 209.405 110.252 203.109 110.278C195.414 110.304 187.707 110.575 180.012 110.627C175.87 110.653 171.728 110.433 167.586 110.355C159.891 110.213 152.197 110.084 144.515 109.955C140.963 109.89 137.398 109.735 133.845 109.787C127.228 109.877 120.611 110.2 113.994 110.239C107.12 110.278 100.233 109.89 93.3596 110.071C87.3323 110.239 81.2793 109.916 75.2776 110.937C73.0847 111.312 70.8148 111.195 68.5706 111.221C64.5182 111.26 60.4658 111.131 56.4262 111.247C50.6425 111.428 44.846 111.674 39.0751 112.074C32.8682 112.501 26.7127 112.1 20.5442 111.363C15.389 110.756 10.1695 110.704 4.98858 110.355C3.43687 110.252 1.89797 109.942 0 109.671C2.01339 108.275 4.0909 108.171 6.00169 107.874C11.3109 107.06 16.6457 106.272 21.9934 105.936C26.5331 105.651 31.0985 105.987 35.6639 106.078C38.4852 106.129 41.2937 106.259 44.115 106.297C55.5413 106.44 66.9804 106.646 78.4067 106.646C82.3565 106.646 86.3064 106.091 90.269 105.923C93.7315 105.781 97.2197 105.923 100.682 105.781C106.633 105.548 112.583 105.121 118.533 104.941C121.252 104.85 123.984 105.083 126.702 105.289C137.962 106.168 149.234 105.625 160.507 105.742C169.368 105.832 178.243 106.129 187.104 106.078C192.811 106.039 198.517 105.535 204.224 105.264C208.366 105.07 212.509 104.966 216.638 104.695C222.332 104.32 228.013 103.752 233.694 103.377C240.375 102.937 247.07 102.718 253.738 103.661C254.469 103.764 255.226 103.739 255.97 103.752C257.124 103.764 258.021 104.23 258.855 105.445L258.881 105.419Z" fill="#E8E8E8"/>
</svg>
