<svg width="322" height="131" viewBox="0 0 322 131" fill="none" xmlns="http://www.w3.org/2000/svg">
<path d="M319 15.8956C318.28 16.1083 317.842 16.321 317.372 16.3615C309.53 16.9389 301.938 18.3366 294.361 19.6736C291.184 20.2307 288.162 20.4029 284.891 20.1396C281.29 19.8458 277.612 19.9471 273.965 19.9066C266.279 19.8256 258.608 19.6838 250.922 19.704C241.53 19.7243 232.122 19.937 222.73 19.9775C217.674 19.9978 212.618 19.8256 207.562 19.7648C198.17 19.6534 188.777 19.5521 179.401 19.4508C175.065 19.4002 170.713 19.2786 166.377 19.3191C158.3 19.39 150.222 19.6433 142.145 19.6736C133.755 19.704 125.349 19.4002 116.958 19.542C109.601 19.6736 102.213 19.4204 94.8869 20.2206C92.2101 20.5143 89.4394 20.4232 86.7 20.4434C81.7535 20.4738 76.8069 20.3725 71.876 20.4637C64.8162 20.6055 57.7408 20.7979 50.6966 21.1119C43.1203 21.4462 35.6065 21.1322 28.0771 20.5548C21.7844 20.0788 15.4133 20.0383 9.08927 19.7648C7.19518 19.6838 5.31674 19.4407 3 19.228C5.45762 18.1341 7.99351 18.053 10.3259 17.8201C16.8065 17.1819 23.3184 16.5641 29.846 16.3007C35.3874 16.0779 40.9601 16.3413 46.5328 16.4122C49.9766 16.4527 53.4047 16.554 56.8485 16.5843C70.7959 16.6958 84.759 16.8578 98.7063 16.8578C103.528 16.8578 108.349 16.4223 113.186 16.2906C117.412 16.1792 121.67 16.2906 125.897 16.1792C133.16 15.9969 140.423 15.6626 147.687 15.5208C151.005 15.4499 154.339 15.6322 157.658 15.7943C171.402 16.4831 185.161 16.0576 198.921 16.1488C209.738 16.2197 220.57 16.4527 231.387 16.4122C238.352 16.3818 245.318 15.9867 252.284 15.774C257.34 15.6221 262.396 15.5411 267.437 15.3284C274.387 15.0346 281.322 14.589 288.256 14.2952C296.412 13.9508 304.583 13.7787 312.723 14.5181C313.615 14.5991 314.539 14.5788 315.447 14.589C316.855 14.5991 317.951 14.9637 318.969 15.9158L319 15.8956Z" fill="#E8E8E8"/>
<path d="M20.9287 4C21.2779 4.34402 21.6505 4.62045 21.8484 4.93375C22.3838 5.76923 23.1521 6.61085 23.2802 7.47089C23.4548 8.65038 24.2697 9.78687 23.9088 11.0094C23.5712 12.1274 23.5363 13.2701 23.3035 14.4004C22.8611 16.6119 22.3606 18.8235 21.9298 21.0412C21.7319 22.0425 21.5573 23.05 21.4991 24.0636C21.2081 28.5543 20.3234 33.0326 20.8938 37.5479C21.3944 41.5901 21.243 45.663 21.3245 49.7175C21.3827 52.5127 21.3827 55.3139 21.3245 58.1091C21.2896 59.7985 21.0684 61.4878 21.0102 63.1772C20.952 65.0017 21.1848 66.8385 20.9287 68.6508C20.5562 71.2125 21.08 73.7496 21.0568 76.3052C21.0335 78.615 21.4409 80.9248 21.406 83.2285C21.3594 86.8346 21.08 90.4345 20.952 94.0344C20.8821 95.8958 20.9171 97.7571 20.9287 99.6185C20.9636 102.702 21.0102 105.786 21.08 108.87C21.0917 109.435 21.243 110 21.3361 110.56C21.6621 112.538 21.8949 114.522 22.3489 116.494C22.7331 118.177 23.4082 119.848 23.8739 121.525C24.0019 121.986 23.967 122.477 23.804 122.932C23.3151 124.326 22.7564 125.709 22.1743 127.091C22.0695 127.337 21.7087 127.545 21.2314 128C20.789 126.974 20.498 126.2 20.1255 125.438C19.4969 124.148 18.8799 122.852 18.1232 121.58C17.5179 120.554 17.4015 119.547 17.5877 118.484C17.8788 116.838 18.2629 115.191 17.937 113.521C17.6925 112.273 17.9253 111.008 17.8788 109.755C17.774 106.8 17.5761 103.845 17.5179 100.884C17.4364 96.6207 17.483 92.3573 17.3782 88.0939C17.3084 84.967 17.0173 81.8463 16.9824 78.7256C16.9358 75.1134 17.0755 71.5012 17.1221 67.889C17.1803 63.3492 17.192 58.8094 17.3084 54.2696C17.3666 52.0028 17.6925 49.7298 17.7158 47.463C17.774 42.5976 17.774 37.726 17.6576 32.8606C17.5761 29.2976 17.2502 25.7407 17.0872 22.1777C17.0523 21.336 17.32 20.4883 17.2618 19.6405C17.1803 18.2645 16.9941 16.8884 16.7496 15.5185C16.5517 14.3881 16.0744 13.2701 16.0046 12.1397C15.958 11.4332 16.2723 10.6899 16.7263 10.0142C18.0185 8.04835 19.4503 6.10711 20.9404 4H20.9287Z" fill="#E8E8E8"/>
<path d="M300.718 0.00648499C302.047 1.48346 303.205 2.70132 304.229 3.95157C304.631 4.44389 304.924 5.00747 304.936 5.54514C305.094 10.5137 305.192 15.4823 305.301 20.4509C305.46 27.6544 305.411 34.8579 305.85 42.0549C306.118 46.3757 305.765 50.6771 305.521 54.9849C305.387 57.2717 305.643 59.5584 305.606 61.8451C305.557 64.216 305.423 66.587 305.228 68.9579C305.033 71.2835 304.594 73.6091 304.46 75.9412C304.338 77.9688 304.46 79.9964 304.521 82.0304C304.57 83.7601 304.692 85.4897 304.789 87.2128C304.85 88.3788 304.972 89.5384 304.972 90.7044C304.972 92.9005 304.875 95.0965 304.887 97.2925C304.887 98.7565 305.058 100.221 305.094 101.685C305.143 103.978 305.484 106.284 305.094 108.551C304.716 110.754 304.582 112.937 304.753 115.133C304.972 117.899 305.119 120.659 305.338 123.425C305.387 124.072 305.448 124.733 305.765 125.355C306.203 126.23 305.996 127.026 305.411 127.849C304.899 128.575 304.619 129.339 304.168 130.077C304.034 130.304 303.656 130.492 303.302 130.764C301.949 130.181 301.352 129.449 300.974 128.685C300.523 127.771 300.121 126.851 299.889 125.919C299.646 124.953 299.487 123.969 299.524 122.997C299.621 120.406 299.877 117.815 299.999 115.224C300.072 113.455 299.95 111.687 300.023 109.918C300.109 107.858 300.414 105.792 300.401 103.732C300.401 101.581 300.121 99.4367 299.987 97.286C299.743 93.4058 299.426 89.5254 299.292 85.6387C299.158 81.8944 299.219 78.1501 299.195 74.3994C299.182 71.86 299.146 69.3272 299.158 66.7878C299.158 65.3303 299.268 63.8662 299.292 62.4087C299.365 58.9106 299.353 55.4125 299.524 51.9209C299.621 49.8609 300.084 47.8074 300.194 45.7474C300.316 43.2015 300.292 40.6557 300.231 38.1034C300.17 35.4733 300.048 32.8368 299.865 30.2067C299.707 27.9718 299.304 25.7369 299.182 23.5021C299.012 20.5222 299.097 17.5423 298.914 14.5625C298.756 12.0231 298.512 9.48374 298.049 6.95734C297.842 5.84313 298.341 4.8196 298.67 3.7637C299 2.70131 299.487 1.65837 299.975 0.615417C300.072 0.395172 300.474 0.207306 300.755 0L300.718 0.00648499Z" fill="#E8E8E8"/>
<path d="M321.729 106.556C312.908 107.051 304.136 107.821 295.284 107.981C274.517 108.36 253.718 108.54 232.935 108.636C205.469 108.771 178.003 108.662 150.537 108.841C137.107 108.931 123.693 109.503 110.263 109.727C102.08 109.862 93.8662 109.644 85.6838 109.785C68.4417 110.08 51.1838 110.401 33.9736 110.947C28.0243 111.133 22.6012 110.825 17.0825 110.093C12.6803 109.509 8.11859 109.098 3.74827 108.469C2.45631 108.283 1.59501 107.622 0 106.948C2.02566 106.556 3.33356 106.223 4.75312 106.056C15.328 104.817 26.0943 104.258 37.1796 104.201C46.1754 104.156 55.1394 103.411 64.1512 103.206C73.6734 102.994 83.2275 103.026 92.7656 103C96.2587 102.994 99.7358 103.154 103.229 103.186C119.099 103.334 134.985 103.43 150.856 103.597C177.716 103.886 204.56 104.226 231.42 104.515C250.289 104.714 269.173 104.849 288.058 105.035C297.373 105.125 306.688 105.234 316.003 105.382C318.013 105.414 319.99 105.671 322 105.825C321.92 106.062 321.841 106.306 321.761 106.543L321.729 106.556Z" fill="#E8E8E8"/>
<path d="M56.0187 71.4966C55.8302 71.2609 55.6417 71.0253 55.4531 70.7896C55.3117 70.5068 55.1232 70.2476 54.8876 70.0119C54.8404 69.9648 54.8169 69.8234 54.8169 69.5877C55.0054 69.8234 55.1704 70.0355 55.3118 70.224C55.4531 70.3654 55.6181 70.554 55.8066 70.7896C55.9952 71.0253 56.1837 71.2609 56.3722 71.4966C56.5608 71.6851 56.7257 71.9208 56.8671 72.2036C56.4901 71.9208 56.2073 71.6851 56.0187 71.4966ZM71.1482 46.328C71.1953 46.4222 71.1718 46.5636 71.0775 46.7521C70.9832 46.8935 71.0304 47.0114 71.2189 47.1056C71.2189 47.1999 71.2189 47.2942 71.2189 47.3884C71.1718 47.5298 71.1246 47.6241 71.0775 47.6712C70.7476 48.0012 70.3705 48.0483 69.9463 47.8126C69.6635 47.6712 69.3807 47.5534 69.0979 47.4591C68.8152 47.3177 68.5088 47.1528 68.1789 46.9642C67.9432 46.87 67.7311 46.7757 67.5426 46.6814C67.3541 46.5401 67.1655 46.3751 66.977 46.1866C66.1757 45.3853 65.3274 44.8197 64.4318 44.4898C63.5835 44.1599 62.688 43.8771 61.7453 43.6414C61.3682 43.5472 60.9676 43.4765 60.5434 43.4293C60.1192 43.3822 59.7186 43.3822 59.3416 43.4293C58.6817 43.5236 58.0454 43.7592 57.4327 44.1363C56.8671 44.4662 56.3251 44.9847 55.8066 45.6917C55.0997 46.6814 54.5105 47.7655 54.0392 48.9438C53.615 50.1221 53.2144 51.3711 52.8373 52.6908C52.3188 54.529 52.0832 56.3671 52.1303 58.2053C52.1775 59.9963 52.3895 61.8345 52.7666 63.7198C53.0023 64.8038 53.2851 65.8172 53.615 66.7598C53.992 67.7024 54.3927 68.6451 54.8169 69.5877C54.4398 69.3992 54.1806 69.1164 54.0392 68.7394C53.9449 68.3623 53.8035 67.9852 53.615 67.6082C53.2379 66.7127 52.9316 65.7936 52.6959 64.8509C52.4602 63.8612 52.2246 62.895 51.9889 61.9523C51.8004 62.0937 51.7061 62.3529 51.7061 62.73C51.9418 65.6522 52.6723 68.2209 53.8978 70.4361C54.5576 71.5673 55.2882 72.5571 56.0894 73.4055C56.8907 74.2538 57.7155 75.0787 58.5639 75.8799C59.0823 76.3512 59.6008 76.634 60.1192 76.7283C60.6377 76.7754 61.1562 76.7518 61.6746 76.6576C62.1931 76.5633 62.688 76.3984 63.1593 76.1627C63.6306 75.927 64.1255 75.6914 64.6439 75.4557C65.0681 75.22 65.4452 74.9137 65.7751 74.5366C66.1522 74.1124 66.4821 73.6411 66.7649 73.1227C67.0477 72.6042 67.4012 72.2743 67.8254 72.1329C67.8725 72.1329 67.9903 72.0858 68.1789 71.9915C68.226 71.7087 68.2731 71.4259 68.3203 71.1431C68.3674 70.8603 68.4381 70.5775 68.5324 70.2947C68.6266 69.7763 68.8858 69.517 69.31 69.517H69.7342C69.8285 69.7527 69.8756 69.9648 69.8756 70.1533C69.8756 70.2947 69.8992 70.4597 69.9463 70.6482V70.7189H69.8049C69.7107 70.6247 69.64 70.5304 69.5928 70.4361C69.5928 70.2947 69.5457 70.1769 69.4514 70.0826C69.2629 70.3654 69.1215 70.6011 69.0272 70.7896C69.1215 70.8367 69.2158 70.8603 69.31 70.8603C69.4514 70.8603 69.6164 70.8132 69.8049 70.7189C69.7578 71.0488 69.7107 71.3788 69.6635 71.7087C69.6635 71.9915 69.6164 72.3214 69.5221 72.6985L69.9463 72.9106C69.9463 73.2405 69.9463 73.5704 69.9463 73.9003C69.9935 74.2303 70.017 74.5602 70.017 74.8901C69.9228 75.3143 69.7814 75.55 69.5928 75.5971C69.4514 75.6914 69.3336 75.7856 69.2393 75.8799C69.1922 75.9742 69.1922 76.1391 69.2393 76.3748C68.9094 76.9875 68.6031 77.6238 68.3203 78.2836C68.0375 78.8964 67.6133 79.3206 67.0477 79.5562C66.812 79.6505 66.5999 79.8154 66.4114 80.0511C66.2229 80.2396 66.0108 80.4046 65.7751 80.546L64.5025 81.1823C64.5497 81.2765 64.5732 81.3708 64.5732 81.4651C64.5732 81.5593 64.5968 81.6536 64.6439 81.7479C64.5497 81.795 64.4318 81.8421 64.2905 81.8893C64.1962 81.9364 64.0784 81.9835 63.937 82.0307C63.937 82.1249 63.937 82.1956 63.937 82.2428C63.9841 82.2899 64.0077 82.3606 64.0077 82.4549C63.9134 82.8319 63.7013 83.0676 63.3714 83.1618C63.0414 83.209 62.9 83.5153 62.9472 84.0809C62.6644 84.2223 62.3816 84.3637 62.0988 84.5051C61.816 84.6465 61.5096 84.7643 61.1797 84.8586C60.6141 85.0471 60.0485 85.0707 59.483 84.9293C58.9645 84.7879 58.446 84.5287 57.9276 84.1516C57.5505 83.8688 57.1499 83.6096 56.7257 83.3739C56.3487 83.0911 55.9716 82.8319 55.5945 82.5963C54.7933 82.1249 54.0627 81.6065 53.4029 81.0409C52.743 80.4282 52.0832 79.6976 51.4233 78.8492C50.7635 77.9066 50.1743 76.8697 49.6559 75.7385C49.1846 74.6073 48.7368 73.4526 48.3126 72.2743C48.2183 71.9915 48.1476 71.6851 48.1005 71.3552C48.0534 71.0253 47.9827 70.7189 47.8884 70.4361C47.7941 70.1062 47.7235 69.7998 47.6763 69.517C47.6292 69.2342 47.5821 68.9279 47.5349 68.598C47.205 67.184 47.0165 65.77 46.9693 64.3561C46.9222 62.895 46.9458 61.4339 47.04 59.9728C47.1343 58.7002 47.2757 57.4747 47.4642 56.2964C47.6528 55.071 47.912 53.8691 48.2419 52.6908C48.3362 52.408 48.454 52.1488 48.5954 51.9131C48.7368 51.6303 48.8546 51.3711 48.9489 51.1354C49.3259 50.0985 49.7266 49.1088 50.1508 48.1661C50.6221 47.1763 51.1405 46.2573 51.7061 45.4089C51.8947 45.1732 52.0596 44.9611 52.201 44.7726C52.3424 44.5841 52.5074 44.3955 52.6959 44.207C52.7902 44.3955 52.8137 44.4898 52.7666 44.4898C52.4367 45.291 52.0832 46.0687 51.7061 46.8228C51.3762 47.5298 51.0463 48.2839 50.7164 49.0852C50.4807 49.6037 50.2922 50.1692 50.1508 50.782C50.0094 51.3475 49.8444 51.9131 49.6559 52.4787C49.7501 52.9972 49.7266 53.5156 49.5852 54.0341C49.4438 54.5525 49.3731 55.071 49.3731 55.5895L49.4438 55.6601C49.4438 55.7073 49.4438 55.7544 49.4438 55.8015C49.6794 55.236 49.9151 54.7175 50.1508 54.2462C50.4336 53.7277 50.6457 53.1621 50.787 52.5494C50.8813 52.1724 50.952 51.8424 50.9991 51.5596C51.0934 51.2297 51.1877 50.8998 51.2819 50.5699C51.5647 49.4858 51.9418 48.5196 52.4131 47.6712C52.8844 46.8228 53.4029 46.0216 53.9685 45.2675C54.2041 44.8904 54.4398 44.5605 54.6755 44.2777C54.9583 43.9949 55.1939 43.6178 55.3824 43.1465C55.1939 43.0523 55.029 42.958 54.8876 42.8637C55.1704 42.6752 55.4296 42.5102 55.6652 42.3688C55.9009 42.1803 56.1366 42.0389 56.3722 41.9447C56.7493 41.7561 57.1028 41.6147 57.4327 41.5205C57.7626 41.3791 58.1161 41.2141 58.4932 41.0256C58.6346 40.9313 58.776 40.8842 58.9174 40.8842C59.1059 40.837 59.2473 40.6721 59.3416 40.3893C59.4358 40.2008 59.5772 40.1065 59.7658 40.1065C61.0855 40.1065 62.3109 40.3893 63.4421 40.9549C63.772 41.0963 64.0784 41.2612 64.3611 41.4498C64.6911 41.5912 65.021 41.7326 65.3509 41.874C65.4923 41.9682 65.6337 42.0153 65.7751 42.0153C65.9636 42.0153 66.1286 42.0389 66.27 42.086C66.3643 42.1332 66.435 42.1567 66.4821 42.1567C66.5292 42.1567 66.5999 42.1803 66.6942 42.2274C67.1655 42.6045 67.6133 42.9816 68.0375 43.3586C68.5088 43.7357 68.9565 44.1127 69.3807 44.4898C69.5693 44.6312 69.7107 44.7962 69.8049 44.9847C69.9463 45.1732 70.0877 45.3382 70.2291 45.4796C70.3705 45.621 70.5119 45.7624 70.6533 45.9038C70.7947 45.998 70.9597 46.1394 71.1482 46.328ZM52.3424 74.678C52.1068 74.2067 51.8711 73.7354 51.6354 73.2641C51.3998 72.7927 51.2112 72.2978 51.0698 71.7794C50.8342 70.9781 50.5985 70.2005 50.3629 69.4463C50.1743 68.6922 50.0565 67.8674 50.0094 66.9719C50.0094 66.7834 49.9858 66.6184 49.9387 66.477C49.8915 66.2885 49.868 66.1 49.868 65.9114C49.8208 65.6286 49.7737 65.3694 49.7266 65.1337C49.7266 64.8509 49.703 64.5682 49.6559 64.2854C49.6087 63.9554 49.5852 63.6255 49.5852 63.2956C49.5852 62.9657 49.5616 62.6122 49.5145 62.2351C49.4202 62.188 49.3731 62.1644 49.3731 62.1644C49.0903 62.5886 48.9489 63.0599 48.9489 63.5784C48.996 63.9554 49.0432 64.3325 49.0903 64.7095C49.1374 65.0395 49.1846 65.393 49.2317 65.77C49.3731 67.3725 49.6794 68.8572 50.1508 70.224C50.6221 71.5909 51.1641 72.9341 51.7768 74.2538C51.824 74.3952 51.8711 74.5131 51.9182 74.6073C52.0125 74.7016 52.1068 74.7959 52.201 74.8901C52.2482 74.843 52.2717 74.8194 52.2717 74.8194C52.2717 74.7723 52.2953 74.7252 52.3424 74.678ZM64.6439 73.052C64.0784 73.1462 63.5128 73.3583 62.9472 73.6882C62.4287 74.0182 61.8396 74.0653 61.1797 73.8296C61.7453 73.6411 62.3109 73.4762 62.8765 73.3348C63.4421 73.1462 64.0077 72.9813 64.5732 72.8399C64.5732 72.887 64.5732 72.9341 64.5732 72.9813C64.6204 72.9813 64.6439 73.0048 64.6439 73.052ZM64.9267 72.8399C64.9267 72.7927 64.9032 72.7692 64.856 72.7692C64.856 72.7692 64.856 72.7456 64.856 72.6985C64.9032 72.6042 64.9503 72.5335 64.9974 72.4864C65.0446 72.4392 65.0917 72.3685 65.1388 72.2743C65.186 72.3214 65.2095 72.3685 65.2095 72.4157C65.1153 72.6042 65.021 72.7456 64.9267 72.8399ZM60.6848 73.971C60.5906 73.9239 60.4727 73.9003 60.3313 73.9003C60.2371 73.9003 60.1428 73.8768 60.0485 73.8296V73.6882H60.6848V73.971ZM67.1891 70.4361C67.0477 70.2005 67.0713 70.0355 67.2598 69.9412C67.2598 69.9412 67.3541 69.9884 67.5426 70.0826L67.3305 70.5068C67.2834 70.5068 67.2362 70.4833 67.1891 70.4361ZM69.5928 69.2342C69.4514 68.9515 69.3336 68.7158 69.2393 68.5273C69.1451 68.3387 69.0508 68.1266 68.9565 67.891L69.0272 67.8203C69.1686 67.9617 69.2865 68.1266 69.3807 68.3152C69.5221 68.5037 69.5928 68.8101 69.5928 69.2342ZM66.0579 71.8501C66.0579 71.803 66.0343 71.7794 65.9872 71.7794C65.9872 71.7323 65.9872 71.6851 65.9872 71.638C66.0815 71.5437 66.1757 71.4495 66.27 71.3552C66.4114 71.2609 66.5292 71.1667 66.6235 71.0724C66.6235 71.1667 66.6471 71.2374 66.6942 71.2845C66.5528 71.3788 66.3407 71.5673 66.0579 71.8501ZM105.632 55.9429C105.585 55.9429 105.538 55.9665 105.491 56.0136C105.491 56.0136 105.467 56.0136 105.42 56.0136C105.326 55.6366 105.208 55.236 105.066 54.8118C104.972 54.3876 104.878 53.987 104.784 53.6099C104.925 53.6099 105.043 53.5863 105.137 53.5392C105.373 53.9163 105.491 54.3169 105.491 54.7411C105.491 55.1653 105.538 55.5659 105.632 55.9429ZM97.8551 44.6312C97.7608 44.914 97.5959 45.079 97.3602 45.1261C97.1717 45.1732 96.9124 45.1496 96.5825 45.0554C96.6768 44.7726 96.771 44.4898 96.8653 44.207C96.9596 43.9242 97.0538 43.665 97.1481 43.4293C97.2424 43.6178 97.3366 43.8064 97.4309 43.9949C97.5723 44.1834 97.7137 44.3955 97.8551 44.6312ZM100.117 44.3484C100.353 44.5841 100.542 44.7962 100.683 44.9847C100.872 45.1732 101.06 45.3617 101.249 45.5503C101.861 46.1159 102.309 46.7757 102.592 47.5298C102.875 48.2368 103.205 48.9438 103.582 49.6508C103.629 49.745 103.605 49.8629 103.511 50.0043C103.464 50.0985 103.44 50.1928 103.44 50.2871C103.44 50.5699 103.464 50.782 103.511 50.9234C103.275 50.9705 103.11 50.8998 103.016 50.7113C102.922 50.5227 102.828 50.3578 102.733 50.2164C102.545 49.8393 102.356 49.4858 102.168 49.1559C102.026 48.7788 101.861 48.4018 101.673 48.0247C101.437 47.5534 101.178 47.1292 100.895 46.7521C100.659 46.328 100.353 45.9509 99.976 45.621C99.8818 45.5267 99.7875 45.4089 99.6932 45.2675C99.599 45.1261 99.5047 44.9611 99.4105 44.7726C99.599 44.6783 99.8346 44.5369 100.117 44.3484ZM77.2818 71.1431C77.2818 71.0488 77.2818 70.9781 77.2818 70.931C77.329 70.8367 77.3525 70.7425 77.3525 70.6482C77.3525 70.8367 77.329 71.0017 77.2818 71.1431ZM104.147 52.2666C103.77 52.0781 103.558 51.9367 103.511 51.8424C103.464 51.701 103.464 51.3947 103.511 50.9234C103.605 51.0176 103.652 51.0648 103.652 51.0648H104.006C104.053 51.3004 104.077 51.5125 104.077 51.701C104.077 51.8424 104.1 52.031 104.147 52.2666ZM101.39 81.8186C101.39 81.9128 101.414 81.9835 101.461 82.0307H100.471C100.707 81.9835 101.013 81.9128 101.39 81.8186ZM101.743 80.6874C101.932 80.3103 102.097 80.0511 102.238 79.9097C102.427 79.7212 102.733 79.7683 103.157 80.0511C102.922 80.1454 102.71 80.2396 102.521 80.3339C102.333 80.4282 102.073 80.546 101.743 80.6874ZM100.471 82.0307H100.4H100.471ZM106.056 57.2862C106.056 57.7575 106.08 58.2289 106.127 58.7002C106.174 59.1244 106.174 59.5721 106.127 60.0435C106.127 61.4103 106.056 62.8007 105.915 64.2147C105.868 64.5446 105.82 64.8745 105.773 65.2044C105.726 65.4872 105.655 65.7936 105.561 66.1235C105.373 66.8305 105.231 67.5611 105.137 68.3152C105.09 69.0222 105.019 69.7291 104.925 70.4361C104.831 71.6616 104.736 72.8634 104.642 74.0417C104.548 75.22 104.336 76.3984 104.006 77.5767C103.959 77.8123 103.888 77.9773 103.794 78.0716C103.747 78.1187 103.582 78.1894 103.299 78.2836C103.44 77.7652 103.582 77.2467 103.723 76.7283C103.864 76.1627 103.982 75.5971 104.077 75.0315C104.171 74.136 104.242 73.2641 104.289 72.4157C104.383 71.5202 104.477 70.6247 104.571 69.7291C104.619 69.2107 104.642 68.7158 104.642 68.2445C104.689 67.7731 104.76 67.3018 104.854 66.8305C105.184 65.4637 105.396 64.0733 105.491 62.6593C105.585 61.2453 105.655 59.8314 105.703 58.4174V57.2862H106.056ZM96.7946 43.2879C96.8889 43.3351 96.936 43.3586 96.936 43.3586C96.9831 43.3586 97.0538 43.3822 97.1481 43.4293C97.0538 43.3351 96.936 43.2879 96.7946 43.2879ZM95.8048 42.9344C95.522 42.8402 95.2392 42.7695 94.9564 42.7223C94.6737 42.6752 94.4144 42.6045 94.1788 42.5102H94.1081H94.1788C94.4144 42.5102 94.6737 42.4867 94.9564 42.4395C95.2392 42.3924 95.522 42.3924 95.8048 42.4395C95.9934 42.4867 96.1819 42.5338 96.3704 42.5809C96.6061 42.6281 96.7239 42.8402 96.7239 43.2172L96.7946 43.2879C96.6061 43.1937 96.4411 43.123 96.2997 43.0758C96.1583 43.0287 95.9934 42.9816 95.8048 42.9344ZM100.542 79.0613C100.165 79.6741 99.7404 80.2161 99.2691 80.6874C98.7977 81.1587 98.2321 81.5358 97.5723 81.8186C97.101 82.0071 96.6532 82.2192 96.229 82.4549C95.8048 82.6905 95.3806 82.9497 94.9564 83.2325C94.8151 83.3268 94.6972 83.4918 94.603 83.7274C94.5558 83.916 94.4851 84.0809 94.3909 84.2223C94.0138 84.2694 93.6603 84.3166 93.3304 84.3637C93.0476 84.3637 92.7177 84.3637 92.3406 84.3637C91.8693 84.3637 91.398 84.3637 90.9266 84.3637C90.5024 84.3637 90.0547 84.3401 89.5834 84.293C88.9706 84.1988 88.5229 84.293 88.2401 84.5758C87.5802 85.0943 86.8733 85.1414 86.1191 84.7172C85.9306 84.5758 85.7421 84.4344 85.5536 84.293C85.365 84.1516 85.1058 84.1752 84.7759 84.3637C84.7287 84.4108 84.6345 84.4108 84.4931 84.3637C84.3517 84.2694 84.2339 84.1752 84.1396 84.0809C83.7625 83.6567 83.3855 83.2325 83.0084 82.8083C82.6314 82.3842 82.2543 81.9364 81.8772 81.4651C81.783 81.3237 81.6651 81.1587 81.5237 80.9702C81.4295 80.7817 81.3352 80.5931 81.241 80.4046C81.1467 80.2161 81.076 80.0982 81.0289 80.0511C80.6518 79.9097 80.3926 79.6976 80.2512 79.4148C80.1569 79.0849 80.0155 78.8021 79.827 78.5664C79.3557 77.9066 78.9786 77.2232 78.6958 76.5162C78.4601 75.7621 78.2009 75.0315 77.9181 74.3245C77.7296 73.8061 77.5646 73.2876 77.4232 72.7692C77.2818 72.2507 77.2347 71.7087 77.2818 71.1431C77.3761 71.2845 77.5882 71.3552 77.9181 71.3552C77.8239 71.2138 77.7532 71.096 77.706 71.0017C77.6589 70.8603 77.6118 70.7425 77.5646 70.6482C77.8474 70.4597 77.8946 70.2947 77.706 70.1533C77.4704 70.0119 77.329 69.847 77.2818 69.6584C77.2347 69.4699 77.2111 69.2578 77.2111 69.0222C77.3054 68.5037 77.3054 68.0088 77.2111 67.5375C77.164 67.0662 77.164 66.5713 77.2111 66.0528C77.3054 65.1102 77.2818 64.1911 77.1404 63.2956C77.0462 62.4001 77.0933 61.481 77.2818 60.5383C77.3761 60.1613 77.3761 59.7607 77.2818 59.3365C77.1876 58.9123 77.2818 58.5117 77.5646 58.1346C77.5646 58.0875 77.5411 58.0168 77.4939 57.9225C77.4468 57.8282 77.3997 57.734 77.3525 57.6397C77.2583 57.3569 77.1876 57.0977 77.1404 56.862C77.0933 56.5792 77.164 56.2729 77.3525 55.9429C77.4468 55.7544 77.4939 55.5423 77.4939 55.3067C77.4939 55.0239 77.4939 54.7646 77.4939 54.529C77.4468 53.7277 77.4704 52.95 77.5646 52.1959C77.6589 51.4418 77.9417 50.7348 78.413 50.075C78.3187 49.5565 78.4366 49.1559 78.7665 48.8731C79.1436 48.5432 79.3557 48.1897 79.4028 47.8126C79.5913 47.7655 79.7327 47.7419 79.827 47.7419C79.9684 47.7419 80.0862 47.7184 80.1805 47.6712C80.1805 47.5298 80.1098 47.247 79.9684 46.8228C80.5811 46.0687 81.1938 45.2439 81.8065 44.3484C81.9008 44.5369 81.9715 44.7255 82.0186 44.914C82.2072 44.6312 82.3721 44.372 82.5135 44.1363C82.6549 43.9006 82.6785 43.6178 82.5842 43.2879C82.5371 43.0523 82.6549 42.7459 82.9377 42.3688C83.3148 41.9447 83.7154 41.5676 84.1396 41.2377C84.6109 40.9077 85.1294 40.6721 85.695 40.5307C86.072 40.4364 86.4019 40.295 86.6847 40.1065C87.0147 39.918 87.3681 39.8708 87.7452 39.9651C87.8395 39.9651 87.8866 39.9415 87.8866 39.8944C88.028 39.4231 88.2872 39.1403 88.6643 39.046C89.0413 38.9518 89.4184 38.8339 89.7955 38.6925C90.3139 38.504 90.8088 38.339 91.2801 38.1976C91.7986 38.0562 92.317 37.9384 92.8355 37.8441C94.6737 37.5613 96.3704 37.8206 97.9258 38.6218C98.1614 38.7161 98.2793 38.7632 98.2793 38.7632C98.9863 38.6218 99.5518 38.7868 99.976 39.2581C100.4 39.7294 100.895 40.0594 101.461 40.2479C101.555 40.295 101.626 40.4129 101.673 40.6014C101.767 40.7428 101.861 40.9077 101.956 41.0963C101.579 41.1434 101.249 41.002 100.966 40.6721C100.73 40.3422 100.377 40.3657 99.9053 40.7428L100.754 41.0256C100.565 41.0727 100.353 41.1434 100.117 41.2377C100.07 41.2377 99.9996 41.2612 99.9053 41.3084C100.094 41.8268 100.023 42.1332 99.6932 42.2274C99.3633 42.3217 99.0805 42.5102 98.8449 42.793C98.9391 42.8873 98.9863 43.0994 98.9863 43.4293C98.9863 43.4293 98.9391 43.4765 98.8449 43.5707C98.4678 43.2879 98.185 43.0994 97.9965 43.0051L98.4207 42.5809C98.185 42.4395 97.9729 42.3217 97.7844 42.2274C97.5959 42.086 97.4073 41.9682 97.2188 41.874C96.9831 41.7797 96.771 41.7561 96.5825 41.8033C96.4411 41.8504 96.2762 41.9211 96.0876 42.0153C95.9934 41.7326 95.852 41.6147 95.6634 41.6619C95.522 41.709 95.3571 41.7797 95.1685 41.874C94.98 41.9211 94.7915 41.9447 94.603 41.9447C94.4616 41.9447 94.273 41.9682 94.0374 42.0153C93.6132 42.0625 93.3068 42.1332 93.1183 42.2274C92.9298 42.2746 92.6234 42.4867 92.1992 42.8637C92.5763 42.7695 92.9062 42.7223 93.189 42.7223C93.5189 42.6752 93.8253 42.6045 94.1081 42.5102C93.9667 42.6045 93.7074 42.7459 93.3304 42.9344C92.3877 43.1701 91.5158 43.5236 90.7145 43.9949C89.9133 44.4662 89.0885 44.914 88.2401 45.3382C87.9102 45.5267 87.5802 45.6917 87.2503 45.8331C86.9204 45.9745 86.6376 46.2101 86.4019 46.5401C86.1663 46.7757 86.0249 46.9878 85.9777 47.1763C85.9777 47.3649 85.9306 47.577 85.8364 47.8126C85.4593 48.3311 85.0822 48.8967 84.7052 49.5094C84.3752 50.075 84.0218 50.6406 83.6447 51.2061C83.1734 52.0074 82.8434 52.8086 82.6549 53.6099C82.4664 54.4111 82.3721 55.2595 82.3721 56.155V64.3561C81.8537 64.3561 81.5944 64.5682 81.5944 64.9923C81.5944 65.3694 81.4766 65.7229 81.241 66.0528C81.4295 66.1471 81.5944 66.2413 81.7358 66.3356C81.9244 66.3827 82.1365 66.4534 82.3721 66.5477C82.325 66.6891 82.3014 66.8305 82.3014 66.9719C82.3014 67.1133 82.2779 67.2547 82.2307 67.3961C82.0893 68.3387 82.1836 69.3992 82.5135 70.5775C82.7492 71.5202 83.0555 72.4392 83.4326 73.3348C83.8097 74.2303 84.1867 75.1258 84.5638 76.0213C84.658 76.257 84.7052 76.4691 84.7052 76.6576C84.7523 76.8461 84.7994 77.0346 84.8466 77.2232L86.5433 78.7078C86.6847 78.8492 86.8261 78.9906 86.9675 79.132C87.1561 79.2734 87.321 79.4148 87.4624 79.5562C87.5567 79.6505 87.6509 79.7447 87.7452 79.839C87.8395 79.9333 87.9102 80.0511 87.9573 80.1925C88.0044 80.6638 88.2872 80.8995 88.8057 80.8995C89.0885 80.8995 89.3713 80.9231 89.6541 80.9702C89.9369 80.9702 90.2197 80.9466 90.5024 80.8995C90.5967 80.8995 90.691 80.8524 90.7852 80.7581C90.9266 80.6167 91.068 80.4989 91.2094 80.4046C91.2566 80.4517 91.3037 80.5224 91.3508 80.6167C91.398 80.711 91.4687 80.8524 91.5629 81.0409C91.6572 80.8052 91.7515 80.5931 91.8457 80.4046C91.94 80.2161 92.0342 80.004 92.1285 79.7683C92.2228 79.7212 92.3406 79.6976 92.482 79.6976C93.3304 80.0747 94.0845 80.1454 94.7444 79.9097C95.4513 79.6741 96.1348 79.2734 96.7946 78.7078C98.5856 77.0582 99.5754 75.0787 99.7639 72.7692C99.8582 71.4495 99.9525 70.1298 100.047 68.8101C100.141 67.4904 100.282 66.1707 100.471 64.8509C100.612 63.7198 100.707 62.6122 100.754 61.5281C100.848 60.3969 100.919 59.2658 100.966 58.1346C100.966 56.862 100.801 55.6601 100.471 54.529C100.141 53.3507 99.6697 52.2195 99.057 51.1354C98.6799 50.4756 98.3264 49.8393 97.9965 49.2266C97.6666 48.5667 97.3131 47.9069 96.936 47.247C96.8417 47.1528 96.7475 47.1056 96.6532 47.1056C96.6061 47.0585 96.5354 46.9878 96.4411 46.8935C96.2526 46.705 96.0641 46.5401 95.8755 46.3987C95.7341 46.2573 95.5692 46.0923 95.3806 45.9038C95.4749 45.8566 95.5456 45.8095 95.5927 45.7624L95.6634 45.6917C96.1348 46.0687 96.6061 46.4458 97.0774 46.8228C97.5959 47.1528 97.9729 47.577 98.2086 48.0954C98.3028 48.3311 98.3971 48.4725 98.4914 48.5196C98.6328 48.5667 98.8213 48.6374 99.057 48.7317C99.0098 47.7891 98.6328 47.0349 97.9258 46.4694C97.5487 46.1866 97.3838 45.998 97.4309 45.9038C97.478 45.7624 97.7137 45.5738 98.1379 45.3382C98.1379 45.3382 98.2086 45.2675 98.35 45.1261C98.5385 45.4089 98.727 45.6917 98.9156 45.9745C99.1041 46.2573 99.2455 46.5401 99.3398 46.8228C99.9053 47.954 100.447 49.1088 100.966 50.2871C101.531 51.4182 102.073 52.5966 102.592 53.822C103.157 55.236 103.44 56.7678 103.44 58.4174C103.44 59.0772 103.464 59.7135 103.511 60.3262C103.558 60.939 103.582 61.5753 103.582 62.2351C103.582 63.1306 103.511 64.0733 103.37 65.063C103.275 65.5815 103.157 66.1235 103.016 66.6891C102.922 67.2547 102.828 67.8203 102.733 68.3859C102.733 68.5744 102.757 68.7158 102.804 68.8101C102.898 69.8941 102.875 70.9781 102.733 72.0622C102.592 73.0991 102.403 74.136 102.168 75.1729C101.885 76.4926 101.343 77.7888 100.542 79.0613ZM100.754 53.4685C100.989 53.9398 101.154 54.4111 101.249 54.8825C101.39 55.3067 101.531 55.778 101.673 56.2964C101.814 56.7206 101.885 57.1684 101.885 57.6397C101.932 58.111 102.097 58.5352 102.38 58.9123C102.474 57.404 102.333 55.9665 101.956 54.5997C101.579 53.1857 101.06 51.7953 100.4 50.4285L99.7639 50.6406C99.9525 51.159 100.094 51.6539 100.188 52.1252C100.33 52.5966 100.518 53.0443 100.754 53.4685ZM100.683 75.8799C100.589 76.1156 100.494 76.3748 100.4 76.6576C100.306 76.8932 100.212 77.1525 100.117 77.4353C100.824 77.0111 101.013 76.4926 100.683 75.8799ZM89.7248 41.3791C89.6305 41.4733 89.5127 41.5676 89.3713 41.6619C89.277 41.7561 89.1592 41.8504 89.0178 41.9447C89.2063 42.0861 89.3713 42.1096 89.5127 42.0153C90.8324 41.4026 92.1521 40.9549 93.4718 40.6721C94.7915 40.3893 96.1819 40.5307 97.643 41.0963C97.643 41.1434 97.7608 41.0491 97.9965 40.8135C97.478 40.7192 97.0067 40.5778 96.5825 40.3893C96.2055 40.1536 95.7577 40.0829 95.2392 40.1772C94.8622 40.1772 94.603 40.1536 94.4616 40.1065C94.1316 39.8708 93.731 39.8708 93.2597 40.1065C92.6941 40.3422 92.1049 40.5542 91.4922 40.7428C90.9266 40.9313 90.3375 41.1434 89.7248 41.3791ZM87.5331 44.8433C87.4388 44.8904 87.3681 44.9376 87.321 44.9847C87.321 45.0318 87.2739 45.079 87.1796 45.1261C87.2268 45.1732 87.2503 45.2203 87.2503 45.2675C87.2503 45.2675 87.2739 45.291 87.321 45.3382L88.1694 44.914C87.9337 44.8197 87.7216 44.7962 87.5331 44.8433ZM87.4624 43.0051C87.0382 42.8166 86.7083 42.9816 86.4726 43.5C86.7083 43.4058 86.8733 43.3351 86.9675 43.2879C87.1089 43.1937 87.2739 43.0994 87.4624 43.0051ZM86.3312 41.5205C86.0956 41.2848 85.907 41.2141 85.7657 41.3084C85.6714 41.3555 85.5771 41.4498 85.4829 41.5912L85.5536 41.6619V41.8033C85.8364 41.709 86.0956 41.6147 86.3312 41.5205ZM81.9479 47.7419C81.9008 48.0247 81.8537 48.2839 81.8065 48.5196C81.8065 48.7081 81.8065 48.8967 81.8065 49.0852C82.1365 48.8495 82.3014 48.661 82.3014 48.5196C82.3014 48.3782 82.1836 48.119 81.9479 47.7419ZM81.8065 62.73C81.5709 63.2484 81.4766 63.5548 81.5237 63.6491C81.5709 63.6962 81.8065 63.7433 82.2307 63.7905L81.8065 62.73ZM79.1907 57.2862C78.8608 57.3805 78.6487 57.6161 78.5544 57.9932C78.4601 58.3231 78.4601 59.0301 78.5544 60.1141C78.6015 60.1613 78.6722 60.1848 78.7665 60.1848C78.8608 59.6664 78.9315 59.1951 78.9786 58.7709C79.0257 58.2996 79.0964 57.8047 79.1907 57.2862ZM79.12 60.6797C78.7429 61.0568 78.5308 61.3396 78.4837 61.5281C78.4837 61.6695 78.6015 61.9523 78.8372 62.3765C78.8843 62.0937 78.9315 61.8345 78.9786 61.5988C79.0257 61.316 79.0729 61.0097 79.12 60.6797ZM78.8372 63.6491C78.6487 63.1306 78.3423 63.1306 77.9181 63.6491H78.8372ZM77.8474 68.8808L77.9888 68.8101C78.0831 68.8101 78.1538 68.8101 78.2009 68.8101C78.1538 68.6687 78.1067 68.5508 78.0595 68.4566C78.0124 68.3152 77.9653 68.1738 77.9181 68.0324C77.7296 68.1266 77.6118 68.1738 77.5646 68.1738C77.6589 68.4566 77.7532 68.6922 77.8474 68.8808ZM78.8372 67.184C78.9315 66.6655 79.0022 66.1707 79.0493 65.6993C79.0964 65.1809 79.1671 64.6389 79.2614 64.0733C78.9315 64.3089 78.6487 64.4975 78.413 64.6389C78.1302 64.5446 77.8946 64.4739 77.706 64.4268C77.706 64.8509 77.7296 65.1337 77.7767 65.2751C77.871 65.3694 78.1302 65.4637 78.5544 65.5579C78.5544 65.8407 78.5544 66.1235 78.5544 66.4063C78.6015 66.6891 78.6251 66.9483 78.6251 67.184H78.8372ZM80.1098 49.5094C80.6754 48.9909 80.6754 48.5196 80.1098 48.0954L79.4735 49.1559C79.6149 49.2502 79.7327 49.3209 79.827 49.368C79.9212 49.4151 80.0155 49.4623 80.1098 49.5094ZM82.16 72.4157C82.3014 72.1329 82.3957 71.8972 82.4428 71.7087C82.49 71.5202 82.3721 71.3788 82.0893 71.2845C82.0893 71.2845 81.9479 71.3316 81.6651 71.4259L82.16 72.4157ZM97.5723 78.7785C97.7137 78.7314 97.8787 78.6607 98.0672 78.5664C98.0672 78.5193 98.0436 78.4957 97.9965 78.4957C97.9965 78.4957 97.9965 78.4722 97.9965 78.425C97.808 78.5193 97.643 78.59 97.5016 78.6371C97.5487 78.6843 97.5723 78.7314 97.5723 78.7785ZM98.7742 83.0911C99.057 82.9497 99.3162 82.7848 99.5518 82.5963C99.8346 82.4077 100.117 82.2192 100.4 82.0307V82.5256C100.542 82.4784 100.848 82.4549 101.319 82.4549C100.942 83.1147 100.447 83.5389 99.8346 83.7274C99.2691 83.8688 98.727 84.1281 98.2086 84.5051C98.0672 83.7981 98.2557 83.3268 98.7742 83.0911ZM140.708 55.6601C140.755 56.4143 140.803 57.1448 140.85 57.8518C140.897 58.5588 140.92 59.2422 140.92 59.9021C140.968 60.5148 140.991 61.0804 140.991 61.5988C140.944 62.5886 140.897 63.6019 140.85 64.6389C140.803 65.6758 140.732 66.7362 140.638 67.8203C140.496 69.0457 140.308 70.2712 140.072 71.4966C139.883 72.722 139.577 73.9003 139.153 75.0315C138.823 75.7385 138.517 76.3041 138.234 76.7283C138.14 76.8697 138.045 77.0111 137.951 77.1525C137.904 77.2939 137.833 77.4588 137.739 77.6474C137.409 78.213 137.056 78.755 136.678 79.2734C136.349 79.7919 135.995 80.3103 135.618 80.8288L134.982 81.6772C134.746 81.9128 134.51 82.0307 134.275 82.0307C134.133 82.0307 134.039 82.0071 133.992 81.96C133.898 81.9128 133.803 81.8421 133.709 81.7479C133.568 81.8421 133.403 82.0307 133.214 82.3135C133.026 82.502 132.837 82.6905 132.649 82.879C132.46 83.0204 132.272 83.1854 132.083 83.3739C131.942 83.5153 131.777 83.6567 131.588 83.7981C131.447 83.9395 131.305 84.0809 131.164 84.2223C131.164 84.2694 131.093 84.3401 130.952 84.4344C130.858 84.4815 130.787 84.5287 130.74 84.5758C130.74 84.5758 130.693 84.5994 130.598 84.6465C130.316 84.7408 130.151 84.835 130.104 84.9293C130.056 84.9764 130.033 85.1178 130.033 85.3535C130.033 85.542 129.986 85.7306 129.891 85.9191L129.397 87.5451L128.972 85.5656C128.878 85.6599 128.807 85.707 128.76 85.707C128.713 85.7541 128.642 85.8248 128.548 85.9191C128.36 86.1076 128.171 86.2254 127.983 86.2726C127.794 86.3197 127.606 86.3668 127.417 86.414C127.276 86.414 127.111 86.4611 126.922 86.5554C126.781 86.6496 126.639 86.6968 126.498 86.6968C126.356 86.7439 126.215 86.8146 126.074 86.9089C125.697 87.0031 125.437 87.0974 125.296 87.1917C124.919 87.3802 124.613 87.5216 124.377 87.6158L123.599 88.04L123.458 87.8279L123.387 87.8986V87.6865V87.6158C123.293 87.3802 123.269 87.1917 123.316 87.0503C123.364 86.9089 123.434 86.791 123.529 86.6968L123.599 86.1312C123.646 85.9898 123.67 85.8012 123.67 85.5656C123.717 85.5185 123.741 85.4242 123.741 85.2828C123.646 85.2828 123.599 85.3299 123.599 85.4242C123.364 85.7541 123.057 85.9191 122.68 85.9191C122.35 85.9191 122.138 85.8484 122.044 85.707C121.902 85.5656 121.832 85.3771 121.832 85.1414C121.832 85.0471 121.855 84.9764 121.902 84.9293C121.573 84.835 121.243 84.7408 120.913 84.6465C120.63 84.5522 120.324 84.4344 119.994 84.293C118.627 83.6803 117.425 82.7377 116.388 81.4651L115.964 81.0409C115.681 80.7581 115.469 80.5224 115.328 80.3339C114.998 79.8626 114.715 79.3913 114.479 78.9199C114.243 78.4486 114.008 77.9773 113.772 77.506L113.701 77.2232C113.372 76.6105 113.159 75.9977 113.065 75.385L112.924 74.9608C112.83 74.6309 112.759 74.3245 112.712 74.0417C112.665 73.7118 112.617 73.3583 112.57 72.9813C112.523 72.6042 112.476 72.2507 112.429 71.9208C112.382 71.5437 112.311 71.1431 112.217 70.7189C112.17 70.3419 112.123 69.9884 112.075 69.6584C112.028 69.3285 112.052 68.975 112.146 68.598V67.6082C112.099 67.5139 112.075 67.3725 112.075 67.184C112.075 66.8541 112.075 66.5477 112.075 66.2649C112.075 65.935 112.123 65.6286 112.217 65.3458C112.311 64.9688 112.335 64.5917 112.288 64.2147C112.288 63.8376 112.264 63.4605 112.217 63.0835V62.5886C112.123 61.7402 112.099 60.9154 112.146 60.1141C112.193 59.2658 112.264 58.3703 112.358 57.4276C112.405 57.1919 112.429 56.9563 112.429 56.7206C112.476 56.485 112.547 56.2493 112.641 56.0136V55.7308C112.735 55.3538 112.782 55.0003 112.782 54.6704C112.782 54.3404 112.782 53.987 112.782 53.6099C112.83 53.3742 112.853 53.1386 112.853 52.9029C112.853 52.6672 112.853 52.4316 112.853 52.1959C112.806 51.9603 112.806 51.7246 112.853 51.4889C112.9 51.2533 112.924 50.9941 112.924 50.7113C112.877 50.4756 112.853 50.2164 112.853 49.9336C112.9 49.6508 112.924 49.368 112.924 49.0852C112.877 48.8495 112.83 48.6374 112.782 48.4489C112.782 48.2604 112.806 48.0718 112.853 47.8833C112.947 47.4591 112.947 47.0585 112.853 46.6814C112.806 46.2573 112.806 45.8331 112.853 45.4089C112.853 45.1732 112.853 44.914 112.853 44.6312C112.9 44.3484 112.924 44.0892 112.924 43.8535C112.924 43.6178 112.924 43.3822 112.924 43.1465C112.971 42.9109 112.994 42.6752 112.994 42.4395C112.994 42.251 113.018 42.0625 113.065 41.874C113.112 41.6854 113.089 41.4969 112.994 41.3084C112.994 41.2612 112.994 41.2141 112.994 41.167C113.042 41.1198 113.065 41.0727 113.065 41.0256H113.207C113.254 41.2141 113.277 41.4026 113.277 41.5912C113.277 41.7326 113.301 41.8975 113.348 42.086C113.489 41.9918 113.701 41.874 113.984 41.7326C113.984 41.9682 113.984 42.2039 113.984 42.4395C114.031 42.6281 114.079 42.8402 114.126 43.0758C114.173 42.8402 114.196 42.416 114.196 41.8033C114.243 41.9447 114.267 42.0625 114.267 42.1567C114.314 42.2039 114.361 42.2746 114.408 42.3688C114.408 42.2274 114.408 42.1096 114.408 42.0153C114.456 41.9211 114.479 41.8268 114.479 41.7326H114.621C114.715 41.6383 114.762 41.6147 114.762 41.6619C114.809 41.709 114.856 41.7561 114.903 41.8033C114.809 42.0389 114.809 42.2274 114.903 42.3688C115.045 42.5102 115.068 42.6988 114.974 42.9344C114.974 43.123 115.021 43.2644 115.115 43.3586C115.257 43.5943 115.328 43.8535 115.328 44.1363C115.375 44.372 115.398 44.6312 115.398 44.914C115.445 45.6681 115.445 46.4222 115.398 47.1763C115.398 47.9305 115.375 48.6846 115.328 49.4387C115.28 50.2399 115.257 51.0412 115.257 51.8424C115.257 52.6437 115.257 53.4449 115.257 54.2462C115.21 55.0003 115.186 55.5894 115.186 56.0136C115.186 56.3907 115.163 56.9092 115.115 57.569C115.068 58.0403 115.021 58.4881 114.974 58.9123C114.974 59.3365 114.974 59.7842 114.974 60.2555C114.974 60.5855 114.998 60.8211 115.045 60.9625C115.092 60.2555 115.163 59.5486 115.257 58.8416C115.351 58.1346 115.445 57.404 115.54 56.6499C115.587 56.5085 115.634 56.3436 115.681 56.155C115.728 55.9665 115.893 55.8251 116.176 55.7308L116.883 55.4481L116.742 56.155C116.647 56.7678 116.577 57.404 116.529 58.0639C116.482 58.6766 116.412 59.3365 116.317 60.0435C116.223 60.8918 116.176 61.6931 116.176 62.4472C116.176 63.1542 116.199 63.8376 116.247 64.4975V64.5682C116.294 64.8981 116.317 65.228 116.317 65.5579C116.317 65.8407 116.341 66.1471 116.388 66.477H116.459C116.694 66.477 116.883 66.5477 117.024 66.6891C117.119 66.7834 117.166 66.9012 117.166 67.0426C117.166 67.1369 117.166 67.2311 117.166 67.3254C117.119 69.2578 117.26 71.0253 117.59 72.6278C117.637 72.8634 117.661 73.0755 117.661 73.2641C117.708 73.4055 117.755 73.5704 117.802 73.7589C117.849 74.1831 117.896 74.6073 117.943 75.0315C118.038 75.4086 118.179 75.7856 118.368 76.1627L118.58 76.5869C118.674 76.6812 118.745 76.8225 118.792 77.0111C118.886 77.1525 118.957 77.3174 119.004 77.506C119.051 77.6002 119.075 77.6709 119.075 77.7181C119.075 77.7652 119.098 77.8359 119.145 77.9302C119.192 78.0244 119.216 78.1187 119.216 78.213C119.216 78.2601 119.24 78.3308 119.287 78.425C119.334 78.6607 119.428 78.8728 119.569 79.0613C119.711 79.2027 119.876 79.3677 120.064 79.5562L120.206 79.7683C120.489 80.0511 120.771 80.3103 121.054 80.546C121.384 80.7345 121.738 80.9466 122.115 81.1823C122.397 80.9466 122.657 80.8524 122.892 80.8995C123.128 80.8995 123.364 80.9231 123.599 80.9702L124.377 81.1823C124.613 81.1823 124.825 81.253 125.013 81.3944C125.107 81.3472 125.225 81.3001 125.367 81.253C125.508 81.2059 125.626 81.1587 125.72 81.1116L126.356 80.8995L126.71 80.7581C127.228 80.4753 127.723 80.1925 128.195 79.9097C128.713 79.6269 129.184 79.2734 129.609 78.8492C130.881 77.6709 131.847 76.5398 132.507 75.4557C132.884 74.9373 133.238 74.3952 133.568 73.8296C133.898 73.2641 134.157 72.6278 134.345 71.9208C134.44 71.4023 134.534 70.8603 134.628 70.2947C134.722 69.7291 134.817 69.1164 134.911 68.4566C135.1 67.2783 135.217 66.1 135.264 64.9216C135.359 63.7433 135.453 62.5415 135.547 61.316C135.594 60.6562 135.594 59.9963 135.547 59.3365C135.547 58.6766 135.524 58.0168 135.477 57.3569V56.4378C135.477 56.2964 135.453 56.1786 135.406 56.0843C135.406 55.9429 135.406 55.8015 135.406 55.6601L135.83 55.1653C135.971 54.7882 136.019 54.4347 135.971 54.1048C135.971 53.7749 135.995 53.4214 136.042 53.0443C136.089 52.8086 136.113 52.573 136.113 52.3373C136.113 52.1017 136.113 51.866 136.113 51.6303C136.066 51.3947 136.066 51.159 136.113 50.9234C136.207 50.6877 136.231 50.4285 136.184 50.1457C136.136 49.91 136.113 49.6508 136.113 49.368C136.16 49.0852 136.184 48.8024 136.184 48.5196C136.184 48.2839 136.16 48.0718 136.113 47.8833C136.066 47.6948 136.066 47.5063 136.113 47.3177C136.207 46.8935 136.207 46.4929 136.113 46.1159C136.066 45.6917 136.066 45.2675 136.113 44.8433C136.16 44.6076 136.184 44.3484 136.184 44.0656C136.184 43.7828 136.207 43.5236 136.254 43.2879C136.254 43.0523 136.254 42.8166 136.254 42.5809C136.301 42.3453 136.325 42.1096 136.325 41.874C136.325 41.6854 136.349 41.4969 136.396 41.3084C136.443 41.1198 136.419 40.9313 136.325 40.7428C136.325 40.6485 136.372 40.5542 136.466 40.46H136.608L136.82 41.5205C136.961 41.4262 137.079 41.3791 137.173 41.3791C137.315 41.3319 137.48 41.2612 137.668 41.167C137.715 41.4026 137.739 41.6383 137.739 41.874C137.786 42.0625 137.833 42.2746 137.88 42.5102H137.951C137.951 42.3217 137.951 42.1332 137.951 41.9447C137.951 41.709 137.975 41.4733 138.022 41.2377C138.069 41.3791 138.092 41.4969 138.092 41.5912C138.14 41.6383 138.21 41.709 138.305 41.8033C138.305 41.6619 138.305 41.544 138.305 41.4498C138.352 41.3555 138.375 41.2612 138.375 41.167H138.658C138.752 41.0727 138.799 41.0491 138.799 41.0963C138.847 41.1434 138.894 41.1905 138.941 41.2377C138.847 41.4733 138.894 41.6619 139.082 41.8033C139.271 41.9447 139.294 42.1332 139.153 42.3688C139.106 42.416 139.106 42.4867 139.153 42.5809C139.2 42.6752 139.247 42.7459 139.294 42.793C139.577 43.123 139.719 43.6414 139.719 44.3484C139.719 45.1025 139.695 45.8566 139.648 46.6107C139.648 47.3649 139.624 48.119 139.577 48.8731C139.483 49.6743 139.436 50.4756 139.436 51.2768C139.483 52.0781 139.483 52.8793 139.436 53.6806C139.436 54.2462 139.412 54.8118 139.365 55.3774C139.365 55.8958 139.341 56.4378 139.294 57.0034C139.247 57.1919 139.224 57.3805 139.224 57.569C139.224 57.7575 139.2 57.9461 139.153 58.1346C139.2 58.4174 139.224 58.7002 139.224 58.983C139.271 59.2186 139.318 59.4779 139.365 59.7607C139.459 60.1377 139.53 60.4912 139.577 60.8211C139.624 61.1511 139.624 61.5046 139.577 61.8816C139.577 62.1173 139.601 62.2822 139.648 62.3765V62.3058C139.648 62.1173 139.648 61.9523 139.648 61.8109C139.695 61.6224 139.719 61.4339 139.719 61.2453V60.609V59.8314C139.719 59.5957 139.742 59.4072 139.789 59.2658C139.789 59.0301 139.789 58.7944 139.789 58.5588C139.836 58.276 139.836 58.0168 139.789 57.7811C139.742 57.3569 139.742 56.9327 139.789 56.5085V55.6601L139.719 55.1653H140.92V55.5895H140.708V55.6601ZM114.126 45.4089V44.914H114.055V45.4089H114.126ZM137.88 44.8433V44.3484H137.81V44.8433H137.88ZM138.658 71.5673C138.705 71.5673 138.729 71.5202 138.729 71.4259H138.587V71.7794C138.54 71.9208 138.517 72.0622 138.517 72.2036C138.517 72.2978 138.493 72.3921 138.446 72.4864C138.352 72.8634 138.257 73.2169 138.163 73.5469C138.116 73.8296 138.045 74.136 137.951 74.4659C138.281 73.7118 138.517 72.7456 138.658 71.5673ZM147.295 73.1934C147.342 72.6749 147.366 72.1565 147.366 71.638C147.413 71.1195 147.46 70.6011 147.507 70.0826H147.719C147.672 70.6011 147.625 71.1195 147.578 71.638C147.53 72.1565 147.483 72.6985 147.436 73.2641C147.342 73.2169 147.295 73.1934 147.295 73.1934ZM147.719 81.7479C147.719 81.7479 147.79 81.7479 147.931 81.7479V82.5256C147.46 82.1956 147.389 81.9364 147.719 81.7479ZM147.578 66.1235C147.672 66.2178 147.743 66.312 147.79 66.4063C147.884 66.4534 147.978 66.5241 148.073 66.6184C147.884 66.9012 147.743 67.1369 147.648 67.3254C147.648 67.0897 147.625 66.9012 147.578 66.7598C147.578 66.5713 147.578 66.3592 147.578 66.1235ZM158.889 74.2538C159.078 73.9239 159.219 73.7354 159.314 73.6882C159.455 73.594 159.643 73.594 159.879 73.6882C160.115 73.7825 160.35 73.9239 160.586 74.1124C160.822 74.2538 161.057 74.3952 161.293 74.5366C160.775 74.5366 160.445 74.5602 160.303 74.6073C160.209 74.6073 160.044 74.7016 159.808 74.8901C159.667 74.7959 159.502 74.7016 159.314 74.6073C159.172 74.4659 159.031 74.3481 158.889 74.2538ZM165.535 55.6601C165.818 55.2831 166.006 55.0239 166.101 54.8825V55.8015H166.03C165.983 55.8015 165.818 55.7544 165.535 55.6601ZM147.578 69.4463V67.7496H147.648C147.695 68.0324 147.719 68.3152 147.719 68.598C147.719 68.8808 147.743 69.1636 147.79 69.4463H147.578ZM174.302 82.2428C174.726 83.2325 174.49 83.8453 173.595 84.0809C173.595 83.8924 173.642 83.7039 173.736 83.5153C173.5 83.6096 173.406 83.7039 173.453 83.7981C173.5 83.8924 173.524 83.9867 173.524 84.0809C173.43 84.0338 173.359 84.0102 173.312 84.0102C173.265 84.0102 173.194 83.9867 173.1 83.9395C173.053 84.0809 173.029 84.2459 173.029 84.4344C172.652 84.0574 172.299 83.7039 171.969 83.3739C171.686 83.044 171.379 82.7141 171.05 82.3842C171.002 82.8555 171.073 83.3032 171.262 83.7274C171.45 84.1045 171.568 84.5287 171.615 85C171.474 84.7643 171.309 84.5287 171.12 84.293C170.979 84.0574 170.814 83.7981 170.625 83.5153C170.531 83.751 170.46 83.9395 170.413 84.0809C170.413 84.1752 170.39 84.2694 170.343 84.3637C169.965 83.9867 169.612 83.6332 169.282 83.3032C168.999 82.9733 168.716 82.667 168.434 82.3842C168.151 82.1485 167.939 82.0071 167.797 81.96C166.996 81.63 166.336 81.088 165.818 80.3339C165.771 80.2868 165.724 80.2396 165.676 80.1925L165.606 80.0511C165.841 79.8154 165.889 79.6505 165.747 79.5562C165.606 79.4148 165.441 79.3206 165.252 79.2734C164.357 78.9435 163.791 78.3072 163.555 77.3646C163.555 77.2232 163.532 77.0818 163.485 76.9404C163.485 76.799 163.485 76.6576 163.485 76.5162C163.72 76.5162 163.933 76.5162 164.121 76.5162C164.31 76.5162 164.522 76.5398 164.757 76.5869C164.616 76.4455 164.498 76.3277 164.404 76.2334C164.31 76.092 164.215 75.9742 164.121 75.8799C163.885 75.6442 163.626 75.4086 163.343 75.1729C163.108 74.9373 162.825 74.7487 162.495 74.6073C162.071 74.4188 161.694 74.1596 161.364 73.8296C161.364 73.7825 161.27 73.7118 161.081 73.6176C160.515 73.2405 159.973 72.9106 159.455 72.6278C159.314 72.4392 159.125 72.3214 158.889 72.2743C158.795 72.18 158.677 72.1093 158.536 72.0622C158.442 71.9679 158.347 71.8737 158.253 71.7794C158.159 71.5909 158.041 71.5202 157.9 71.5673C157.805 71.5673 157.711 71.6144 157.617 71.7087C157.758 71.8501 157.876 72.0151 157.97 72.2036C158.112 72.345 158.253 72.4864 158.394 72.6278C158.583 72.722 158.724 72.8163 158.819 72.9106C158.772 72.9577 158.748 73.0048 158.748 73.052L158.324 72.6278C157.9 72.3921 157.499 72.1329 157.122 71.8501C156.745 71.5673 156.297 71.3788 155.779 71.2845C155.59 71.1902 155.472 71.096 155.425 71.0017C155.189 70.766 154.93 70.6011 154.647 70.5068C154.365 70.3654 154.082 70.224 153.799 70.0826C153.752 70.3654 153.705 70.6482 153.658 70.931C153.658 71.1667 153.658 71.4259 153.658 71.7087C153.611 72.4157 153.587 73.1227 153.587 73.8296C153.587 74.5366 153.563 75.2436 153.516 75.9506C153.469 76.9875 153.422 78.0244 153.375 79.0613C153.328 80.0511 153.257 81.0645 153.163 82.1014C153.163 82.337 153.139 82.5727 153.092 82.8083C153.092 82.9969 153.069 83.209 153.021 83.4446C152.927 83.7746 152.809 83.9395 152.668 83.9395C152.385 83.8924 152.173 83.9631 152.032 84.1516C151.89 84.293 151.725 84.4344 151.537 84.5758C151.442 84.3401 151.325 84.1281 151.183 83.9395C151.089 83.751 150.995 83.5389 150.9 83.3032H150.688V84.6465C150.17 84.458 149.84 84.1752 149.699 83.7981C149.557 83.4211 149.439 83.0204 149.345 82.5963V83.3739C148.827 82.9497 148.52 82.6198 148.426 82.3842C148.332 82.1485 148.402 81.7714 148.638 81.253C148.732 81.1116 148.779 80.9938 148.779 80.8995C148.779 80.7581 148.803 80.6167 148.85 80.4753C148.85 80.0982 148.944 79.7919 149.133 79.5562C149.227 79.462 149.298 79.3206 149.345 79.132C149.392 78.8964 149.392 78.7314 149.345 78.6371C149.109 78.2601 149.086 77.9066 149.274 77.5767C149.369 77.341 149.345 77.1525 149.204 77.0111C149.157 76.9168 149.086 76.8225 148.992 76.7283C148.897 76.5869 148.827 76.4691 148.779 76.3748C148.779 76.2334 148.803 76.092 148.85 75.9506C148.897 75.8092 148.944 75.6678 148.992 75.5264C148.992 75.4321 148.968 75.3379 148.921 75.2436C148.921 75.1494 148.921 75.0551 148.921 74.9608H148.709C148.426 75.4321 148.285 75.9506 148.285 76.5162C148.332 77.0818 148.261 77.6238 148.073 78.1423C148.025 77.7652 148.025 77.3881 148.073 77.0111C148.12 76.634 148.073 76.257 147.931 75.8799C147.837 76.257 147.695 76.6105 147.507 76.9404C147.366 77.2232 147.366 77.5767 147.507 78.0009C147.601 78.3308 147.625 78.7078 147.578 79.132C147.53 79.5091 147.483 79.9568 147.436 80.4753C147.201 79.9097 147.036 79.3913 146.941 78.9199C146.894 78.4486 146.894 77.9537 146.941 77.4353C147.036 76.7754 147.083 76.1627 147.083 75.5971C147.083 74.9844 147.106 74.3481 147.153 73.6882H147.366C147.413 73.9239 147.436 74.136 147.436 74.3245C147.436 74.4659 147.436 74.6545 147.436 74.8901C147.625 74.843 147.79 74.7959 147.931 74.7487C148.073 74.7016 148.19 74.678 148.285 74.678C148.567 73.1698 148.732 71.6851 148.779 70.224C148.827 68.7629 148.85 67.3018 148.85 65.8407C148.85 64.6153 148.85 63.4134 148.85 62.2351C148.897 61.0568 148.897 59.8785 148.85 58.7002C148.803 57.2391 148.732 55.8015 148.638 54.3876C148.591 52.9736 148.52 51.5596 148.426 50.1457C148.379 49.8629 148.332 49.6037 148.285 49.368C148.285 49.0852 148.261 48.8024 148.214 48.5196C147.978 48.661 147.86 48.7788 147.86 48.8731C147.813 49.2502 147.766 49.6036 147.719 49.9336C147.719 50.2164 147.719 50.5463 147.719 50.9234C147.719 51.3004 147.743 51.701 147.79 52.1252C147.837 52.5023 147.86 52.8793 147.86 53.2564C147.955 53.9634 148.002 54.6939 148.002 55.4481C148.049 56.155 148.096 56.8856 148.143 57.6397C148.237 58.2524 148.237 58.8887 148.143 59.5486C148.049 59.7842 148.002 59.9963 148.002 60.1848C148.049 60.3262 148.073 60.4912 148.073 60.6797C148.12 61.0568 148.143 61.4574 148.143 61.8816C148.19 62.2587 148.12 62.6357 147.931 63.0128C147.837 63.2956 147.79 63.4841 147.79 63.5784C147.837 63.6726 147.955 63.814 148.143 64.0026C147.625 64.5682 147.719 65.0866 148.426 65.5579H147.578C147.578 65.3223 147.578 65.0866 147.578 64.8509C147.578 64.5682 147.601 64.3089 147.648 64.0733V61.1039C147.648 60.5855 147.625 60.0906 147.578 59.6193C147.578 59.1479 147.578 58.653 147.578 58.1346C147.578 57.6161 147.554 57.1212 147.507 56.6499C147.507 56.1315 147.554 55.613 147.648 55.0946C147.648 55.0474 147.625 55.0239 147.578 55.0239C147.578 54.9767 147.578 54.9296 147.578 54.8825C147.342 54.5525 147.271 54.2462 147.366 53.9634C147.366 53.6335 147.389 53.3271 147.436 53.0443C147.483 52.7144 147.46 52.3845 147.366 52.0545C147.271 51.8189 147.224 51.5832 147.224 51.3475C147.271 51.0648 147.295 50.8055 147.295 50.5699C147.342 49.8629 147.295 49.0381 147.153 48.0954C147.059 47.577 146.988 47.0349 146.941 46.4694C146.941 45.9038 146.941 45.3382 146.941 44.7726C146.941 44.3955 146.941 44.0185 146.941 43.6414C146.988 43.2172 147.036 42.8166 147.083 42.4395V39.6116C147.13 39.3759 147.177 39.1638 147.224 38.9753C147.318 38.7397 147.46 38.5276 147.648 38.339C148.025 38.339 148.19 38.4569 148.143 38.6925C148.143 38.8811 148.237 39.0696 148.426 39.2581C148.52 39.1638 148.591 39.0931 148.638 39.046C148.732 38.9518 148.803 38.8575 148.85 38.7632C148.756 38.6218 148.662 38.504 148.567 38.4097C148.473 38.2683 148.379 38.1505 148.285 38.0562C148.567 37.962 148.756 37.9855 148.85 38.1269C148.992 38.2683 149.157 38.3862 149.345 38.4804C149.439 38.3862 149.534 38.2683 149.628 38.1269V38.7632C149.816 38.5747 149.958 38.3862 150.052 38.1976H150.193C150.241 38.3862 150.264 38.6454 150.264 38.9753H150.406C150.406 38.8811 150.429 38.8104 150.476 38.7632C150.571 38.8575 150.641 38.9518 150.688 39.046C150.783 39.1403 150.877 39.2581 150.971 39.3995C151.065 39.211 151.136 39.1167 151.183 39.1167C151.655 39.211 152.055 39.3052 152.385 39.3995C152.527 39.588 152.715 39.7059 152.951 39.753C152.904 39.5645 152.88 39.3288 152.88 39.046C152.691 38.9518 152.503 38.9518 152.314 39.046C152.173 39.0931 152.008 38.9989 151.82 38.7632C152.149 38.7632 152.385 38.7868 152.527 38.8339C152.432 38.6925 152.362 38.5511 152.314 38.4097C152.314 38.2683 152.267 38.1269 152.173 37.9855C152.691 38.2212 153.233 38.4569 153.799 38.6925C153.658 38.7397 153.493 38.8104 153.304 38.9046C153.398 38.9989 153.493 39.0931 153.587 39.1874C153.728 39.2817 153.846 39.3759 153.94 39.4702C153.705 39.4702 153.563 39.5409 153.516 39.6823C153.469 39.7766 153.493 39.8708 153.587 39.9651C154.105 40.1536 154.671 40.2479 155.284 40.2479C155.896 40.2479 156.462 40.3893 156.981 40.6721C157.028 40.6721 157.075 40.6721 157.122 40.6721C157.169 40.6249 157.216 40.6014 157.263 40.6014C157.593 40.6014 157.9 40.6014 158.182 40.6014C158.512 40.5543 158.842 40.5778 159.172 40.6721C159.408 40.7663 159.643 40.837 159.879 40.8842C160.162 40.9313 160.421 40.8842 160.657 40.7428C160.751 40.9784 160.892 41.1434 161.081 41.2377C161.317 41.2848 161.529 41.2848 161.717 41.2377C161.906 41.1905 162.047 41.1905 162.141 41.2377C162.236 41.2848 162.354 41.3319 162.495 41.3791C163.013 41.6147 163.485 41.8504 163.909 42.086C164.38 42.3217 164.875 42.4867 165.394 42.5809C165.488 42.5809 165.559 42.6281 165.606 42.7223C165.653 42.7695 165.7 42.8166 165.747 42.8637C166.124 43.0994 166.478 43.3586 166.808 43.6414C167.138 43.8771 167.538 44.0656 168.009 44.207C168.104 44.2541 168.222 44.3484 168.363 44.4898C168.599 44.6783 168.811 44.8669 168.999 45.0554C169.188 45.2439 169.4 45.4324 169.636 45.621C169.777 45.7624 169.918 45.8802 170.06 45.9745C170.248 46.0687 170.413 46.1866 170.555 46.328C170.885 46.5636 171.073 46.8464 171.12 47.1763C171.167 47.4591 171.379 47.7184 171.756 47.954C172.039 48.6139 172.322 49.2737 172.605 49.9336C172.888 50.5463 173.147 51.1826 173.383 51.8424C173.477 52.1252 173.548 52.408 173.595 52.6908C173.642 52.9265 173.689 53.1857 173.736 53.4685C173.83 54.0812 173.712 54.5761 173.383 54.9532C173.335 55.0003 173.312 55.0474 173.312 55.0946C173.312 55.1417 173.288 55.2124 173.241 55.3067C173.194 55.4952 173.17 55.6837 173.17 55.8722C173.218 56.0136 173.147 56.1786 172.958 56.3671C172.864 56.5085 172.817 56.6971 172.817 56.9327C172.864 57.1213 172.864 57.3333 172.817 57.569C172.77 57.6633 172.723 57.7811 172.676 57.9225C172.676 58.0639 172.628 58.1817 172.534 58.276C172.299 58.653 172.039 59.0065 171.756 59.3365C171.521 59.6193 171.262 59.9492 170.979 60.3262C170.79 60.5619 170.602 60.8211 170.413 61.1039C170.272 61.3396 170.13 61.5753 169.989 61.8109C169.706 62.188 169.4 62.565 169.07 62.9421C168.787 63.3191 168.457 63.6255 168.08 63.8612C167.326 64.3796 166.525 64.8274 165.676 65.2044C164.828 65.5344 163.956 65.8643 163.061 66.1942C162.542 66.3827 161.977 66.5241 161.364 66.6184C160.751 66.7127 160.162 66.8305 159.596 66.9719C159.643 67.1133 159.761 67.3725 159.95 67.7496C160.044 67.8438 160.115 67.9381 160.162 68.0324C160.209 68.1266 160.28 68.2209 160.374 68.3152C160.845 68.6922 161.317 69.0929 161.788 69.517C162.259 69.8941 162.731 70.2712 163.202 70.6482C163.532 70.931 163.838 71.2374 164.121 71.5673C164.451 71.8501 164.828 72.0858 165.252 72.2743C165.394 72.3214 165.559 72.4392 165.747 72.6278C165.559 72.5335 165.394 72.4864 165.252 72.4864C165.346 72.722 165.417 72.8634 165.464 72.9106C165.559 72.9106 165.724 72.8634 165.959 72.7692C166.053 72.8634 166.148 72.9341 166.242 72.9813C166.336 73.0284 166.431 73.0755 166.525 73.1227V73.2641C166.431 73.2641 166.336 73.2641 166.242 73.2641C166.148 73.2169 166.03 73.1934 165.889 73.1934C166.124 73.5704 166.36 73.9239 166.596 74.2538C166.878 74.5838 167.208 74.7959 167.585 74.8901C168.104 75.0787 168.575 75.385 168.999 75.8092C169.376 76.1863 169.73 76.6105 170.06 77.0818C170.39 77.506 170.743 77.9302 171.12 78.3543C171.309 78.59 171.474 78.8021 171.615 78.9906C171.756 79.1792 171.945 79.3677 172.181 79.5562C172.416 79.7447 172.628 79.8861 172.817 79.9804C173.053 80.0275 173.288 79.9333 173.524 79.6976C173.807 79.9804 174.019 80.2632 174.16 80.546C174.302 80.7817 174.325 81.088 174.231 81.4651C174.231 81.8421 174.254 82.1014 174.302 82.2428ZM172.251 53.7513C172.251 53.8456 172.228 53.9398 172.181 54.0341C172.181 54.1283 172.181 54.2226 172.181 54.3169H172.322V53.822C172.275 53.7749 172.251 53.7513 172.251 53.7513ZM148.073 44.4191C148.167 44.3248 148.214 44.2777 148.214 44.2777C148.214 44.2306 148.237 44.1834 148.285 44.1363C148.237 44.0892 148.19 44.0656 148.143 44.0656C148.143 44.207 148.12 44.3248 148.073 44.4191ZM148.355 43.0758C148.638 43.0287 148.709 42.9344 148.567 42.793C148.473 42.6045 148.473 42.4631 148.567 42.3688C148.662 41.9918 148.756 41.6854 148.85 41.4498C148.662 41.4969 148.473 41.5205 148.285 41.5205C148.379 41.3319 148.426 41.1905 148.426 41.0963C148.426 41.002 148.379 40.7428 148.285 40.3186C147.813 40.7899 147.719 41.2612 148.002 41.7326H148.214C148.261 41.9682 148.285 42.2039 148.285 42.4395C148.285 42.6281 148.308 42.8402 148.355 43.0758ZM150.971 39.5409C150.641 39.4466 150.5 39.5409 150.547 39.8237C150.641 39.7294 150.712 39.6823 150.759 39.6823C150.806 39.6352 150.877 39.588 150.971 39.5409ZM149.911 39.9651H149.699C149.746 40.0594 149.769 40.2008 149.769 40.3893C149.864 40.3893 149.934 40.3657 149.981 40.3186C149.981 40.2715 149.958 40.2243 149.911 40.1772C149.911 40.1301 149.911 40.0594 149.911 39.9651ZM148.992 73.8296C149.039 73.7354 149.062 73.6176 149.062 73.4762C149.062 73.3348 149.086 73.2169 149.133 73.1227H148.992C148.992 73.2169 148.968 73.3348 148.921 73.4762C148.921 73.6176 148.921 73.7354 148.921 73.8296H148.992ZM149.274 52.5494H149.486C149.486 52.3138 149.463 52.0781 149.416 51.8424C149.416 51.5596 149.416 51.3004 149.416 51.0648C149.369 51.3004 149.298 51.5596 149.204 51.8424C149.109 52.0781 149.133 52.3138 149.274 52.5494ZM149.133 47.7419C149.133 48.2132 149.133 48.661 149.133 49.0852C149.18 49.5094 149.227 49.9571 149.274 50.4285H149.416C149.416 49.9571 149.392 49.5094 149.345 49.0852C149.345 48.661 149.322 48.2132 149.274 47.7419H149.133ZM149.628 63.0835C149.816 62.565 149.864 62.0466 149.769 61.5281C149.675 61.0097 149.581 60.4912 149.486 59.9728C149.534 60.4912 149.557 61.0097 149.557 61.5281C149.604 62.0466 149.628 62.565 149.628 63.0835ZM149.699 65.4872C149.746 65.8172 149.722 66.1471 149.628 66.477C149.581 66.7598 149.675 67.0662 149.911 67.3961C149.911 67.0662 149.911 66.7598 149.911 66.477C149.911 66.1471 149.934 65.8407 149.981 65.5579C149.84 65.5579 149.746 65.5344 149.699 65.4872ZM149.84 71.5673C149.887 71.096 149.911 70.6482 149.911 70.224C149.911 69.7998 149.934 69.3521 149.981 68.8808H149.699C149.793 69.3521 149.769 69.7998 149.628 70.224C149.534 70.6482 149.604 71.096 149.84 71.5673ZM150.123 47.6712C150.123 47.8598 150.123 48.0483 150.123 48.2368C150.17 48.3782 150.193 48.5667 150.193 48.8024C150.476 48.7081 150.688 48.6139 150.83 48.5196C150.877 48.7081 150.9 48.9674 150.9 49.2973H151.042H151.113C151.018 48.119 150.948 46.9642 150.9 45.8331C150.853 44.6548 150.783 43.5 150.688 42.3688H150.547C150.453 42.3688 150.406 42.416 150.406 42.5102C150.311 42.416 150.217 42.2981 150.123 42.1567C150.076 42.0154 150.005 41.874 149.911 41.7326C150.099 41.7797 150.241 41.8268 150.335 41.874C150.476 41.9211 150.594 41.9682 150.688 42.0153C150.783 41.8268 150.806 41.6383 150.759 41.4498C150.712 41.2141 150.877 41.0491 151.254 40.9549C151.018 40.7192 150.877 40.5542 150.83 40.46C150.311 40.6956 149.958 41.002 149.769 41.3791C149.581 41.7561 149.439 42.1332 149.345 42.5102C149.251 42.7459 149.204 43.0051 149.204 43.2879C149.204 43.5707 149.18 43.8299 149.133 44.0656C149.18 44.1127 149.251 44.1363 149.345 44.1363C149.345 43.9478 149.392 43.7592 149.486 43.5707C149.769 44.2306 149.934 44.914 149.981 45.621C150.076 46.2808 150.123 46.9642 150.123 47.6712ZM150.618 53.7513C150.948 53.4685 150.971 53.1857 150.688 52.9029C150.688 53.2328 150.665 53.5156 150.618 53.7513ZM150.9 54.6704C150.712 54.906 150.594 55.1181 150.547 55.3067C150.5 55.4952 150.618 55.7073 150.9 55.9429C150.995 55.7073 151.018 55.4952 150.971 55.3067C150.924 55.1181 150.9 54.906 150.9 54.6704ZM151.183 58.8416C151.23 58.6059 151.254 58.4174 151.254 58.276C151.301 58.0875 151.207 57.9225 150.971 57.7811C150.971 57.9696 150.924 58.1582 150.83 58.3467C150.735 58.4881 150.853 58.653 151.183 58.8416ZM151.325 52.1252C151.419 51.7482 151.372 51.3711 151.183 50.9941C151.042 50.617 150.971 50.2399 150.971 49.8629C151.018 50.2399 151.042 50.617 151.042 50.9941C151.042 51.3711 151.065 51.7482 151.113 52.1252H151.325ZM163.909 64.0026C164.05 64.0026 164.145 63.979 164.192 63.9319C164.239 63.9319 164.239 63.9083 164.192 63.8612C164.192 63.8612 164.192 63.8376 164.192 63.7905C164.003 63.7905 163.885 63.814 163.838 63.8612C163.838 63.9554 163.862 64.0026 163.909 64.0026ZM164.899 62.8714C164.38 63.0128 164.31 63.2249 164.687 63.5077C164.734 63.4134 164.757 63.3191 164.757 63.2249C164.804 63.1306 164.852 63.0128 164.899 62.8714ZM164.475 58.5588C164.569 58.653 164.64 58.7002 164.687 58.7002C164.734 58.7002 164.757 58.6766 164.757 58.6295C164.804 58.5824 164.875 58.5352 164.969 58.4881C164.922 58.4881 164.875 58.4645 164.828 58.4174C164.781 58.4174 164.757 58.3938 164.757 58.3467C164.663 58.3938 164.569 58.4645 164.475 58.5588ZM171.403 53.2564C171.214 53.3978 171.144 53.5628 171.191 53.7513C171.285 53.9398 171.403 54.1755 171.544 54.4583C171.544 54.2226 171.544 54.0105 171.544 53.822C171.592 53.6335 171.615 53.4449 171.615 53.2564H171.403ZM171.544 56.3671C171.073 56.32 170.908 56.5085 171.05 56.9327C171.285 56.6971 171.45 56.5085 171.544 56.3671ZM170.908 57.2155C170.531 57.404 170.319 57.6633 170.272 57.9932C170.225 58.276 170.083 58.5352 169.848 58.7709C170.46 58.6295 170.814 58.111 170.908 57.2155ZM169.565 59.1951C169.471 59.2422 169.376 59.3129 169.282 59.4072C169.282 59.4543 169.282 59.4779 169.282 59.4779C169.329 59.4779 169.353 59.5014 169.353 59.5486C169.447 59.5014 169.494 59.4779 169.494 59.4779C169.541 59.4307 169.612 59.3836 169.706 59.3365C169.612 59.2422 169.565 59.1951 169.565 59.1951ZM170.272 59.2658C169.989 59.6428 169.636 59.9492 169.211 60.1848C168.787 60.3734 168.434 60.6562 168.151 61.0332C168.057 61.2218 167.915 61.3632 167.727 61.4574C167.538 61.5517 167.326 61.6695 167.09 61.8109L167.161 61.8816C167.161 61.9287 167.185 61.9994 167.232 62.0937L166.171 62.73C166.077 62.7771 165.983 62.8243 165.889 62.8714C165.841 62.9185 165.771 62.9892 165.676 63.0835C165.582 63.1306 165.464 63.1777 165.323 63.2249C165.229 63.2249 165.158 63.2956 165.111 63.437C165.064 63.5784 164.875 63.6962 164.545 63.7905C164.734 64.0261 164.899 64.0968 165.04 64.0026C165.229 63.8612 165.417 63.814 165.606 63.8612C165.841 63.9083 166.053 63.9554 166.242 64.0026C166.431 64.0497 166.572 63.9554 166.666 63.7198C166.478 63.6255 166.313 63.5312 166.171 63.437C166.03 63.2956 165.865 63.1777 165.676 63.0835C166.289 63.1777 166.902 63.0599 167.515 62.73C168.127 62.4001 168.504 61.9759 168.646 61.4574C168.74 61.2218 168.858 61.0804 168.999 61.0332C169.235 60.7976 169.471 60.609 169.706 60.4676C169.942 60.2791 170.178 60.067 170.413 59.8314C170.602 59.5486 170.743 59.2186 170.837 58.8416C170.555 59.0301 170.366 59.1715 170.272 59.2658ZM152.385 41.7326C152.291 42.0154 152.291 42.1803 152.385 42.2274C152.479 42.2746 152.856 42.3453 153.516 42.4395C153.281 42.2981 153.069 42.1803 152.88 42.086C152.739 41.9447 152.574 41.8268 152.385 41.7326ZM154.082 61.6695C155.684 61.4339 157.216 61.1039 158.677 60.6797C160.138 60.2084 161.623 59.7607 163.131 59.3365C163.178 59.3365 163.296 59.2422 163.485 59.0537C163.249 59.0065 162.919 58.9123 162.495 58.7709C162.778 58.6295 163.037 58.4881 163.273 58.3467C163.508 58.2053 163.744 58.0639 163.98 57.9225C164.357 57.7811 164.663 57.5926 164.899 57.3569C165.182 57.0741 165.441 56.7678 165.676 56.4378C165.865 56.155 165.983 55.9429 166.03 55.8015C166.077 55.8015 166.101 55.8251 166.101 55.8722V55.8015C166.383 55.613 166.572 55.2831 166.666 54.8118C166.572 54.7646 166.478 54.7411 166.383 54.7411C166.289 54.6939 166.195 54.6468 166.101 54.5997C166.242 54.3169 166.407 54.0577 166.596 53.822C166.784 53.5392 166.831 53.2093 166.737 52.8322C166.69 52.5966 166.713 52.3609 166.808 52.1252C166.949 51.8896 167.02 51.6539 167.02 51.4182C167.02 51.1826 166.996 50.9705 166.949 50.782C166.902 50.5934 166.855 50.3813 166.808 50.1457C167.043 50.2399 167.161 50.3578 167.161 50.4992C167.302 51.0648 167.467 51.6303 167.656 52.1959C167.845 52.7144 167.821 53.28 167.585 53.8927C167.68 53.7042 167.727 53.6099 167.727 53.6099C168.151 52.8086 168.316 51.9367 168.222 50.9941C168.222 50.7584 168.198 50.5699 168.151 50.4285C168.104 50.2399 168.033 50.0278 167.939 49.7922C167.939 49.6979 167.845 49.6037 167.656 49.5094C167.515 49.4151 167.373 49.3444 167.232 49.2973C167.09 49.2502 166.902 49.1795 166.666 49.0852C166.713 49.1795 166.737 49.2502 166.737 49.2973C166.784 49.3444 166.808 49.4151 166.808 49.5094C166.76 49.5094 166.713 49.4858 166.666 49.4387C166.289 49.1088 165.936 48.7788 165.606 48.4489C165.276 48.0718 164.922 47.7419 164.545 47.4591C164.215 47.2235 163.862 46.9878 163.485 46.7521C163.155 46.4694 162.778 46.2573 162.354 46.1159C162.071 46.0216 161.906 45.9273 161.859 45.8331C161.623 45.5031 161.317 45.2675 160.94 45.1261C160.563 44.9847 160.186 44.8669 159.808 44.7726C159.573 44.6783 159.337 44.6312 159.101 44.6312C158.913 44.5841 158.701 44.5134 158.465 44.4191C157.9 44.2777 157.31 44.207 156.698 44.207C156.603 44.207 156.462 44.1599 156.274 44.0656C155.661 44.3013 155.048 44.372 154.435 44.2777C153.87 44.1363 153.257 43.9478 152.597 43.7121C152.597 43.7121 152.55 43.5707 152.456 43.2879H152.314C152.314 43.3822 152.291 43.4765 152.244 43.5707C152.244 43.6178 152.244 43.6885 152.244 43.7828C152.291 44.207 152.362 45.2203 152.456 46.8228C152.597 48.3782 152.739 50.075 152.88 51.9131C153.021 53.7513 153.139 55.5188 153.233 57.2155C153.375 58.8651 153.469 60.0435 153.516 60.7504C153.563 60.8918 153.563 61.0332 153.516 61.1746C153.516 61.316 153.54 61.481 153.587 61.6695H154.082ZM167.797 81.96C168.08 81.96 168.316 81.9835 168.504 82.0307C168.41 81.9364 168.363 81.8657 168.363 81.8186C168.363 81.7243 168.339 81.63 168.292 81.5358C168.151 81.63 167.986 81.7714 167.797 81.96ZM172.888 83.5153C172.935 83.4682 172.958 83.4446 172.958 83.4446C172.958 83.3975 172.982 83.3504 173.029 83.3032C172.793 83.1618 172.605 82.9497 172.463 82.667C172.369 82.337 172.063 82.2428 171.544 82.3842C171.78 82.6198 171.992 82.8319 172.181 83.0204C172.416 83.1618 172.652 83.3268 172.888 83.5153ZM210.897 71.638C211.039 72.1565 211.015 72.6513 210.827 73.1227C210.685 73.594 210.473 74.0417 210.19 74.4659C208.777 76.634 207.433 78.3543 206.161 79.6269C204.935 80.8995 203.78 81.8421 202.696 82.4549C201.66 83.0676 200.693 83.4682 199.798 83.6567C198.949 83.7981 198.172 83.8924 197.465 83.9395C196.805 83.9395 196.239 83.9631 195.768 84.0102C195.297 84.0574 194.943 84.2694 194.708 84.6465C195.414 84.6465 196.216 84.5522 197.111 84.3637C198.007 84.1752 198.784 83.9867 199.444 83.7981C200.151 83.6096 200.646 83.4682 200.929 83.3739C201.259 83.2797 201.165 83.3504 200.646 83.586C199.421 84.1516 198.242 84.5287 197.111 84.7172C195.98 84.9057 194.896 85 193.859 85C192.869 85 191.927 84.9529 191.031 84.8586C190.183 84.7643 189.405 84.6936 188.698 84.6465C188.321 84.5994 188.156 84.4815 188.203 84.293C188.298 84.1045 188.486 84.0574 188.769 84.1516C189.005 84.1988 189.099 84.1988 189.052 84.1516C189.052 84.0574 188.981 83.9631 188.84 83.8688C188.745 83.7746 188.604 83.6567 188.415 83.5153C188.274 83.3739 188.203 83.2561 188.203 83.1618C188.156 83.0204 187.991 82.9262 187.708 82.879C187.473 82.8319 187.096 82.6434 186.577 82.3135C186.059 81.9364 185.399 81.3708 184.598 80.6167C183.844 79.8154 182.924 78.6136 181.84 77.0111C181.699 76.8225 181.534 76.7754 181.346 76.8697C181.204 76.9168 181.204 76.8225 181.346 76.5869C181.487 76.2098 181.369 76.0449 180.992 76.092C180.662 76.092 180.474 76.0684 180.426 76.0213C180.332 75.927 180.379 75.8328 180.568 75.7385C180.756 75.5971 180.803 75.4086 180.709 75.1729C180.709 74.9373 180.78 74.7487 180.921 74.6073C181.016 74.5131 181.039 74.4188 180.992 74.3245C180.945 74.1831 181.063 74.136 181.346 74.1831C181.487 74.1831 181.487 74.0889 181.346 73.9003C181.204 73.6647 181.322 73.4997 181.699 73.4055C181.793 73.4997 181.77 73.5704 181.628 73.6176C181.534 73.6647 181.558 73.6882 181.699 73.6882C181.84 73.7354 181.958 73.8061 182.052 73.9003C182.194 73.9475 182.335 73.9239 182.477 73.8296C182.524 73.8296 182.736 73.7589 183.113 73.6176C183.49 73.429 183.702 73.3583 183.749 73.4055C183.985 73.6411 184.315 73.6647 184.739 73.4762C185.21 73.2876 185.611 73.3112 185.941 73.5469C186.742 74.1596 187.261 74.5838 187.496 74.8194C187.732 75.0551 187.897 75.2672 187.991 75.4557C188.085 75.5971 188.18 75.7856 188.274 76.0213C188.415 76.2098 188.722 76.5633 189.193 77.0818C189.287 77.176 189.382 77.2232 189.476 77.2232C189.57 77.176 189.57 77.1053 189.476 77.0111C189.476 76.9639 189.382 76.8461 189.193 76.6576C189.052 76.4219 188.887 76.1863 188.698 75.9506C188.557 75.6678 188.415 75.4321 188.274 75.2436C188.133 75.008 188.062 74.8666 188.062 74.8194C188.439 74.9608 188.769 75.2907 189.052 75.8092C189.382 76.3277 189.594 76.634 189.688 76.7283C190.348 77.4353 190.772 78.0244 190.96 78.4957C191.196 78.9671 191.385 79.3441 191.526 79.6269C191.667 79.8626 191.88 80.004 192.162 80.0511C192.492 80.0982 193.081 80.0275 193.93 79.839C194.165 79.7919 194.26 79.8154 194.213 79.9097C194.165 80.004 193.718 80.1218 192.869 80.2632C192.539 80.3103 192.539 80.4517 192.869 80.6874C193.246 80.9231 193.883 81.0173 194.778 80.9702C195.721 80.8759 196.852 80.5224 198.172 79.9097C199.491 79.297 200.929 78.213 202.484 76.6576C203.521 75.5735 204.181 74.678 204.464 73.971C204.794 73.2169 205.029 72.7456 205.171 72.5571C205.124 72.5099 205.053 72.4157 204.959 72.2743C204.912 72.1329 204.888 72.0151 204.888 71.9208C204.888 71.5909 204.817 71.3788 204.676 71.2845C204.582 71.1431 204.464 71.0017 204.322 70.8603C204.181 70.7189 204.04 70.4833 203.898 70.1533C203.757 69.7763 203.639 69.1636 203.545 68.3152C202.885 67.7024 202.579 67.4668 202.626 67.6082C202.673 67.7024 202.649 68.0559 202.555 68.6687C202.508 68.9515 202.461 69.0457 202.414 68.9515C202.414 68.8572 202.39 68.6922 202.343 68.4566C202.296 68.1738 202.249 67.9145 202.202 67.6789C202.202 67.3961 202.202 67.2547 202.202 67.2547C201.353 66.4063 200.481 65.8643 199.586 65.6286C198.737 65.3458 197.795 65.1337 196.758 64.9923C195.721 64.8038 194.566 64.5917 193.294 64.3561C192.021 64.0733 190.607 63.5312 189.052 62.73C186.459 61.3632 184.739 59.9492 183.891 58.4881C183.042 56.9799 182.618 55.5659 182.618 54.2462C182.665 52.9265 182.901 51.7953 183.325 50.8527C183.749 49.8629 183.914 49.203 183.82 48.8731C183.443 49.7686 183.16 50.4049 182.972 50.782C182.83 51.159 182.712 51.4418 182.618 51.6303C182.571 51.8189 182.524 52.0074 182.477 52.1959C182.477 52.3373 182.43 52.6672 182.335 53.1857C182.147 52.7144 182.1 52.2666 182.194 51.8424C182.288 51.3711 182.453 50.8998 182.689 50.4285C183.254 49.2502 183.655 48.3546 183.891 47.7419C184.173 47.0821 184.386 46.5872 184.527 46.2573C184.715 45.8802 184.904 45.5738 185.093 45.3382C185.281 45.0554 185.611 44.7019 186.082 44.2777C186.365 43.9949 186.836 43.6414 187.496 43.2172C188.156 42.793 188.887 42.3688 189.688 41.9447C190.489 41.5205 191.314 41.1434 192.162 40.8135C193.011 40.4836 193.812 40.295 194.566 40.2479C194.99 40.2479 195.344 40.1536 195.627 39.9651C195.957 39.7766 196.027 39.6587 195.839 39.6116C195.65 39.5645 195.108 39.6587 194.213 39.8944C193.364 40.1301 192.021 40.6485 190.183 41.4498C190.277 41.0256 190.937 40.6249 192.162 40.2479C193.435 39.8708 194.802 39.588 196.263 39.3995C197.724 39.1638 199.044 39.0225 200.222 38.9753C201.4 38.9282 201.989 39.046 201.989 39.3288C201.989 39.4231 201.919 39.4938 201.777 39.5409C201.683 39.5409 201.589 39.5645 201.495 39.6116C201.4 39.6116 201.33 39.6352 201.282 39.6823C201.235 39.6823 201.282 39.7294 201.424 39.8237C201.565 39.918 201.707 40.0122 201.848 40.1065C202.037 40.1536 202.154 40.2715 202.202 40.46C202.249 40.5542 202.367 40.6249 202.555 40.6721C202.744 40.6721 203.238 40.8606 204.04 41.2377C204.7 41.5676 205.336 42.0389 205.949 42.6516C206.608 43.2172 207.198 43.8064 207.716 44.4191C208.282 44.9847 208.753 45.4796 209.13 45.9038C209.554 46.2808 209.861 46.4458 210.049 46.3987C210.285 46.3987 210.355 46.4694 210.261 46.6107C210.026 46.8935 209.978 47.1056 210.12 47.247C210.261 47.3413 210.214 47.5298 209.978 47.8126C209.931 47.9069 209.931 48.0012 209.978 48.0954C210.026 48.1897 209.908 48.2368 209.625 48.2368C209.531 48.1897 209.554 48.2839 209.696 48.5196C209.837 48.7081 209.743 48.8495 209.413 48.9438C209.319 48.8967 209.319 48.8495 209.413 48.8024C209.507 48.7553 209.483 48.7081 209.342 48.661C209.248 48.661 209.13 48.6374 208.989 48.5903C208.847 48.496 208.729 48.496 208.635 48.5903C208.588 48.6374 208.399 48.7553 208.07 48.9438C207.74 49.0852 207.551 49.1323 207.504 49.0852C207.268 48.9438 207.056 48.9438 206.868 49.0852C206.726 49.1795 206.538 49.2266 206.302 49.2266C205.642 49.3209 205.289 49.2737 205.242 49.0852C205.194 48.8967 205.006 48.8024 204.676 48.8024C204.535 48.8024 204.322 48.661 204.04 48.3782C203.757 48.0483 203.451 47.7184 203.121 47.3884C202.838 47.0114 202.555 46.6814 202.272 46.3987C202.037 46.1159 201.848 46.0216 201.707 46.1159C201.66 46.163 201.707 46.2808 201.848 46.4694C202.037 46.6579 202.225 46.8935 202.414 47.1763C202.649 47.412 202.861 47.6477 203.05 47.8833C203.238 48.0718 203.333 48.1897 203.333 48.2368C203.003 48.1425 202.602 47.8362 202.131 47.3177C201.707 46.7993 201.259 46.2573 200.788 45.6917C200.316 45.1261 199.892 44.6312 199.515 44.207C199.138 43.7357 198.855 43.5236 198.667 43.5707C197.677 43.8535 197.111 44.0185 196.97 44.0656C196.828 44.1127 196.852 44.0892 197.041 43.9949C197.276 43.9006 197.559 43.7828 197.889 43.6414C198.266 43.5 198.455 43.4058 198.455 43.3586C198.455 43.1701 198.125 43.0758 197.465 43.0758C196.805 43.0287 195.98 43.1701 194.99 43.5C194.048 43.8299 193.011 44.4191 191.88 45.2675C190.796 46.0687 189.829 47.247 188.981 48.8024C189.311 48.7081 189.476 48.8495 189.476 49.2266C189.476 49.6036 189.57 50.0278 189.759 50.4992C189.853 50.6406 189.924 50.7584 189.971 50.8527C190.065 50.8998 190.136 50.9941 190.183 51.1354C190.277 51.2297 190.348 51.4182 190.395 51.701C190.442 51.9367 190.466 52.3373 190.466 52.9029C190.466 54.6939 190.513 55.7073 190.607 55.9429C190.748 56.1786 190.89 56.0843 191.031 55.6601C191.22 55.1888 191.385 54.6232 191.526 53.9634C191.667 53.3035 191.738 52.9736 191.738 52.9736C191.832 52.9736 191.832 53.3035 191.738 53.9634C191.644 54.5761 191.62 55.2124 191.667 55.8722C191.715 56.2022 191.88 56.3907 192.162 56.4378C192.492 56.485 193.341 56.6735 194.708 57.0034C197.63 57.7575 199.821 58.441 201.282 59.0537C202.791 59.6193 203.875 60.1142 204.535 60.5383C205.194 60.9154 205.572 61.1982 205.666 61.3867C205.807 61.5753 205.972 61.6459 206.161 61.5988C206.491 61.5046 206.868 61.646 207.292 62.023C207.716 62.4001 208.117 62.8478 208.494 63.3663C208.871 63.8376 209.177 64.3089 209.413 64.7802C209.696 65.2516 209.837 65.5579 209.837 65.6993C210.544 66.9248 210.874 68.1031 210.827 69.2342C210.827 70.3654 210.662 71.4023 210.332 72.345C210.002 73.2405 209.648 74.0182 209.271 74.678C208.894 75.2907 208.729 75.7385 208.776 76.0213C209.295 75.1258 209.672 74.4895 209.908 74.1124C210.143 73.7354 210.285 73.4526 210.332 73.2641C210.426 73.0284 210.497 72.8163 210.544 72.6278C210.591 72.4392 210.709 72.1093 210.897 71.638ZM234.626 79.2734C235.568 79.5562 236.534 79.8626 237.524 80.1925C238.514 80.4753 239.551 80.7817 240.635 81.1116C240.588 81.5358 240.211 81.9128 239.504 82.2428C238.797 82.4784 238.066 82.7141 237.312 82.9497C236.605 83.1383 235.969 83.4918 235.403 84.0102C234.791 84.5287 233.989 84.6936 233 84.5051C231.444 84.2223 229.912 84.1045 228.404 84.1516C226.896 84.1516 225.411 84.1516 223.95 84.1516C223.479 84.5287 223.172 84.9529 223.031 85.4242C222.937 85.9426 222.913 86.5082 222.96 87.121C222.725 87.2152 222.489 87.3095 222.253 87.4037C222.018 87.5451 221.782 87.663 221.546 87.7572C221.169 87.1917 221.004 86.6261 221.052 86.0605C221.146 85.4949 221.146 84.9293 221.052 84.3637C220.957 84.5994 220.863 84.8115 220.769 85C220.674 85.2357 220.58 85.4713 220.486 85.707C220.439 85.6599 220.368 85.6363 220.274 85.6363C220.321 85.3535 220.345 85.0707 220.345 84.7879C220.345 84.458 220.392 84.1045 220.486 83.7274C220.297 83.8688 220.156 83.9867 220.062 84.0809C219.967 84.1281 219.85 84.1988 219.708 84.293C219.614 84.1516 219.543 84.0102 219.496 83.8688C219.449 83.7274 219.378 83.5625 219.284 83.3739C219.19 83.4682 219.096 83.5389 219.001 83.586C218.954 83.586 218.883 83.6332 218.789 83.7274C218.648 83.586 218.577 83.5153 218.577 83.5153C218.483 83.2325 218.412 82.9497 218.365 82.667C218.318 82.3842 218.318 82.1249 218.365 81.8893C218.412 81.0409 218.459 80.2161 218.506 79.4148C218.601 78.5664 218.695 77.7416 218.789 76.9404C218.883 75.9977 218.931 75.1022 218.931 74.2538C218.978 73.3583 219.025 72.4392 219.072 71.4966C219.119 71.3081 219.143 71.1431 219.143 71.0017C219.19 70.8132 219.284 70.6247 219.425 70.4361C219.473 70.6718 219.52 70.931 219.567 71.2138C219.614 71.4495 219.661 71.6851 219.708 71.9208H219.92C219.873 71.1667 219.85 70.4361 219.85 69.7291C219.897 68.975 219.897 68.1973 219.85 67.3961C219.85 67.0662 219.826 66.7362 219.779 66.4063C219.732 66.0764 219.473 65.8172 219.001 65.6286C218.907 65.5815 218.86 65.4637 218.86 65.2751C218.86 65.0866 218.86 64.9452 218.86 64.8509C218.954 64.7567 219.143 64.7095 219.425 64.7095C219.425 64.3325 219.449 63.9554 219.496 63.5784C219.543 63.2013 219.308 62.8243 218.789 62.4472C219.166 62.3529 219.378 62.2115 219.425 62.023C219.473 61.7873 219.543 61.5281 219.638 61.2453C219.779 60.3027 219.755 59.3836 219.567 58.4881C219.378 57.5454 219.331 56.6028 219.425 55.6601C219.52 55.1417 219.59 54.6468 219.638 54.1755C219.685 53.7042 219.732 53.2328 219.779 52.7615C219.873 51.866 219.92 50.9941 219.92 50.1457C219.92 49.2502 219.944 48.3782 219.991 47.5298C219.991 47.2942 219.991 47.0349 219.991 46.7521C219.991 46.4694 219.732 46.3044 219.213 46.2573C219.119 46.7286 219.048 47.1763 219.001 47.6005C219.001 47.9776 218.978 48.3782 218.931 48.8024C218.836 50.3106 218.766 51.8189 218.718 53.3271C218.718 54.8353 218.671 56.3436 218.577 57.8518C218.483 59.2186 218.389 60.609 218.294 62.023C218.247 63.3898 218.176 64.7567 218.082 66.1235C218.035 66.7834 218.035 67.4432 218.082 68.1031C218.129 68.7629 218.106 69.4228 218.011 70.0826C217.776 71.5437 217.682 73.0284 217.729 74.5366C217.823 76.0449 217.799 77.5531 217.658 79.0613C217.658 79.2499 217.634 79.4384 217.587 79.6269C217.587 79.8154 217.564 80.0275 217.517 80.2632C217.14 80.0747 216.927 79.839 216.88 79.5562C216.88 79.2263 216.88 78.9435 216.88 78.7078C216.927 78.0009 216.975 76.9404 217.022 75.5264C217.069 74.1124 217.116 72.5099 217.163 70.7189C217.257 68.9279 217.352 67.0426 217.446 65.063C217.54 63.0364 217.611 61.1039 217.658 59.2658C217.752 57.3805 217.823 55.6601 217.87 54.1048C217.964 52.5494 218.035 51.324 218.082 50.4285C218.082 49.9571 218.082 49.5094 218.082 49.0852C218.129 48.661 218.176 48.2132 218.224 47.7419C218.224 47.4591 218.247 47.1763 218.294 46.8935C218.341 46.6107 218.2 46.3515 217.87 46.1159C218.2 45.6917 218.2 45.3617 217.87 45.1261C217.54 44.8433 217.399 44.5134 217.446 44.1363C217.446 43.9006 217.493 43.7357 217.587 43.6414C217.729 43.4058 217.799 43.2408 217.799 43.1465C217.799 43.0523 217.752 42.8637 217.658 42.5809C218.035 42.5338 218.389 42.5102 218.718 42.5102C219.096 42.5102 219.449 42.3217 219.779 41.9447C219.449 41.8504 219.143 41.8033 218.86 41.8033C218.577 41.7561 218.294 41.6854 218.011 41.5912C218.53 41.2612 219.048 41.0256 219.567 40.8842C220.132 40.7428 220.722 40.7428 221.334 40.8842C221.711 40.9784 222.088 41.0256 222.465 41.0256C222.89 40.9784 223.29 40.9313 223.667 40.8842C224.186 40.8842 224.681 40.8842 225.152 40.8842C225.67 40.837 226.189 40.8135 226.707 40.8135C227.933 40.8135 229.135 40.8135 230.313 40.8135C231.538 40.8135 232.764 40.837 233.989 40.8842C234.414 40.8842 234.838 40.9313 235.262 41.0256C235.686 41.1198 236.11 41.2377 236.534 41.3791C236.346 41.3791 236.157 41.4026 235.969 41.4498C235.78 41.4498 235.568 41.4498 235.333 41.4498C234.72 41.4026 234.107 41.4733 233.494 41.6619C232.882 41.8033 232.245 41.8504 231.586 41.8033C230.973 41.709 230.36 41.7326 229.747 41.874C229.182 42.0153 228.569 42.086 227.909 42.086C227.344 42.086 226.778 42.0625 226.213 42.0153C225.647 41.9211 225.081 41.8504 224.516 41.8033C224.092 41.8033 223.667 41.8268 223.243 41.874C222.819 41.9211 222.418 41.9918 222.041 42.086C222.041 42.1332 222.018 42.1803 221.971 42.2274C221.971 42.2746 221.971 42.3217 221.971 42.3688C222.159 42.416 222.348 42.4631 222.536 42.5102C222.725 42.5102 222.89 42.4867 223.031 42.4395C223.927 42.251 224.799 42.2039 225.647 42.2981C226.495 42.3453 227.367 42.3924 228.263 42.4395C229.111 42.5338 230.007 42.5338 230.949 42.4395C231.798 42.4395 232.646 42.4867 233.494 42.5809C234.343 42.6281 235.168 42.793 235.969 43.0758C236.582 43.2644 236.959 43.3822 237.1 43.4293C237.289 43.4293 237.713 43.3115 238.373 43.0758C238.373 43.2644 238.373 43.4529 238.373 43.6414C238.42 43.7828 238.42 43.9478 238.373 44.1363C238.373 44.2306 238.349 44.3248 238.302 44.4191C238.302 44.5134 238.255 44.5605 238.161 44.5605C237.642 44.7019 237.147 44.8904 236.676 45.1261C236.252 45.3146 235.757 45.3617 235.191 45.2675C233.966 45.0318 232.74 44.9611 231.515 45.0554C230.572 45.1025 229.63 45.1496 228.687 45.1968C227.791 45.1968 226.872 45.1496 225.93 45.0554C225.317 44.9611 224.704 44.9611 224.092 45.0554C223.526 45.1025 222.913 45.1496 222.253 45.1968C222.301 45.291 222.348 45.4089 222.395 45.5503C222.442 45.6445 222.465 45.6681 222.465 45.621C223.361 45.3853 224.233 45.3617 225.081 45.5503C225.93 45.6917 226.778 45.7859 227.626 45.8331C228.239 45.8331 228.828 45.8095 229.394 45.7624C230.007 45.7152 230.619 45.6917 231.232 45.6917C231.798 45.7388 232.363 45.7859 232.929 45.8331C233.494 45.8331 234.107 45.8566 234.767 45.9038L234.838 46.0452L234.908 46.3987C233.4 46.5401 231.939 46.6579 230.525 46.7521C229.111 46.7993 227.721 46.705 226.354 46.4694C225.034 46.2337 223.738 46.2573 222.465 46.5401C222.23 47.4356 222.23 48.3075 222.465 49.1559C222.748 49.9571 223.008 50.7584 223.243 51.5596V49.8629C223.337 49.8157 223.432 49.7922 223.526 49.7922C223.714 50.9234 223.785 52.0781 223.738 53.2564C223.738 54.4347 223.785 55.6601 223.879 56.9327C225.906 56.5557 227.909 56.5792 229.889 57.0034C231.868 57.3805 233.895 57.7575 235.969 58.1346C235.026 58.3703 234.131 58.5117 233.282 58.5588C232.434 58.5588 231.515 58.441 230.525 58.2053C229.677 57.9696 228.828 57.8282 227.98 57.7811C227.179 57.6868 226.377 57.6397 225.576 57.6397C225.293 57.6397 225.011 57.6633 224.728 57.7104C224.492 57.7575 224.257 57.8047 224.021 57.8518V58.1346H225.011C225.152 58.1346 225.293 58.1582 225.435 58.2053C225.623 58.2053 225.812 58.1817 226 58.1346C227.084 58.0403 228.121 58.111 229.111 58.3467C230.101 58.5824 231.138 58.7944 232.222 58.983C232.363 59.2186 232.528 59.36 232.717 59.4072C232.952 59.4543 233.165 59.4779 233.353 59.4779C233.589 59.4779 233.824 59.4779 234.06 59.4779C234.296 59.4779 234.508 59.5721 234.696 59.7607C235.026 59.9963 235.427 60.1848 235.898 60.3262C236.37 60.4205 236.817 60.5148 237.241 60.609C237.477 60.7033 237.713 60.7269 237.948 60.6797C238.231 60.5855 238.514 60.5148 238.797 60.4676C238.561 60.8447 238.302 61.1511 238.019 61.3867C237.783 61.6224 237.406 61.7166 236.888 61.6695C236.652 61.6695 236.44 61.7402 236.252 61.8816C236.063 61.9759 235.898 62.0701 235.757 62.1644C234.956 62.0701 234.178 61.9759 233.424 61.8816C232.67 61.7873 231.939 61.6459 231.232 61.4574C230.478 61.316 229.747 61.1982 229.04 61.1039C228.333 60.9625 227.603 60.9625 226.849 61.1039C227.179 61.1511 227.697 61.2453 228.404 61.3867C229.158 61.5281 229.96 61.6695 230.808 61.8109C231.656 61.9523 232.458 62.0937 233.212 62.2351C234.013 62.3294 234.602 62.4236 234.979 62.5179C233.848 63.1777 232.764 63.3898 231.727 63.1542C230.737 62.9185 229.747 62.7536 228.758 62.6593C227.909 62.5179 227.061 62.4472 226.213 62.4472C225.411 62.4472 224.563 62.4472 223.667 62.4472C223.667 64.8509 223.667 67.2547 223.667 69.6584C223.667 72.0151 223.691 74.4424 223.738 76.9404C224.021 76.9404 224.257 76.9404 224.445 76.9404C224.681 76.8932 224.916 76.8932 225.152 76.9404C225.859 76.9404 226.566 76.9404 227.273 76.9404C227.98 76.9404 228.687 76.9639 229.394 77.0111C230.242 77.1053 231.091 77.2232 231.939 77.3646C232.835 77.4588 233.707 77.5531 234.555 77.6474C235.026 77.6474 235.356 77.7181 235.545 77.8595C236.063 78.0951 236.558 78.2601 237.029 78.3543C237.548 78.4486 238.043 78.3072 238.514 77.9302C238.608 77.9302 238.703 77.9773 238.797 78.0716C238.844 78.0716 238.938 78.2365 239.08 78.5664C238.278 78.6607 237.501 78.7785 236.747 78.9199C235.992 79.0613 235.285 79.1792 234.626 79.2734ZM223.809 77.7181C223.903 78.1894 223.974 78.5193 224.021 78.7078C225.529 78.8021 227.014 78.8964 228.475 78.9906C229.936 79.0378 231.397 79.1085 232.858 79.2027C233 79.0613 233.282 78.7078 233.707 78.1423C231.963 78.0951 230.289 77.9773 228.687 77.7888C227.084 77.5531 225.458 77.5295 223.809 77.7181ZM225.435 82.8083C227.084 82.7612 228.734 82.7141 230.384 82.667C232.08 82.6198 233.801 82.5727 235.545 82.5256C234.979 82.2899 234.343 82.1249 233.636 82.0307C232.41 81.9835 231.185 81.96 229.96 81.96C228.781 81.9128 227.603 81.8893 226.425 81.8893C226.189 81.8421 225.977 81.8893 225.788 82.0307C225.647 82.1249 225.458 82.2192 225.223 82.3135C225.27 82.4549 225.341 82.6198 225.435 82.8083ZM277.039 71.638C277.181 72.1565 277.157 72.6513 276.968 73.1227C276.827 73.594 276.615 74.0417 276.332 74.4659C274.918 76.634 273.575 78.3543 272.302 79.6269C271.077 80.8995 269.922 81.8421 268.838 82.4549C267.801 83.0676 266.835 83.4682 265.94 83.6567C265.091 83.7981 264.313 83.8924 263.606 83.9395C262.947 83.9395 262.381 83.9631 261.91 84.0102C261.438 84.0574 261.085 84.2694 260.849 84.6465C261.556 84.6465 262.357 84.5522 263.253 84.3637C264.148 84.1752 264.926 83.9867 265.586 83.7981C266.293 83.6096 266.788 83.4682 267.071 83.3739C267.401 83.2797 267.306 83.3504 266.788 83.586C265.562 84.1516 264.384 84.5287 263.253 84.7172C262.122 84.9057 261.038 85 260.001 85C259.011 85 258.068 84.9529 257.173 84.8586C256.325 84.7643 255.547 84.6936 254.84 84.6465C254.463 84.5994 254.298 84.4815 254.345 84.293C254.439 84.1045 254.628 84.0574 254.911 84.1516C255.146 84.1988 255.24 84.1988 255.193 84.1516C255.193 84.0574 255.123 83.9631 254.981 83.8688C254.887 83.7746 254.746 83.6567 254.557 83.5153C254.416 83.3739 254.345 83.2561 254.345 83.1618C254.298 83.0204 254.133 82.9262 253.85 82.879C253.614 82.8319 253.237 82.6434 252.719 82.3135C252.2 81.9364 251.541 81.3708 250.739 80.6167C249.985 79.8154 249.066 78.6136 247.982 77.0111C247.841 76.8225 247.676 76.7754 247.487 76.8697C247.346 76.9168 247.346 76.8225 247.487 76.5869C247.629 76.2098 247.511 76.0449 247.134 76.092C246.804 76.092 246.615 76.0684 246.568 76.0213C246.474 75.927 246.521 75.8328 246.71 75.7385C246.898 75.5971 246.945 75.4086 246.851 75.1729C246.851 74.9373 246.922 74.7487 247.063 74.6073C247.157 74.5131 247.181 74.4188 247.134 74.3245C247.087 74.1831 247.204 74.136 247.487 74.1831C247.629 74.1831 247.629 74.0889 247.487 73.9003C247.346 73.6647 247.464 73.4997 247.841 73.4055C247.935 73.4997 247.911 73.5704 247.77 73.6176C247.676 73.6647 247.699 73.6882 247.841 73.6882C247.982 73.7354 248.1 73.8061 248.194 73.9003C248.336 73.9475 248.477 73.9239 248.618 73.8296C248.666 73.8296 248.878 73.7589 249.255 73.6176C249.632 73.429 249.844 73.3583 249.891 73.4055C250.127 73.6411 250.457 73.6647 250.881 73.4762C251.352 73.2876 251.753 73.3112 252.083 73.5469C252.884 74.1596 253.402 74.5838 253.638 74.8194C253.874 75.0551 254.039 75.2672 254.133 75.4557C254.227 75.5971 254.321 75.7856 254.416 76.0213C254.557 76.2098 254.863 76.5633 255.335 77.0818C255.429 77.176 255.523 77.2232 255.618 77.2232C255.712 77.176 255.712 77.1053 255.618 77.0111C255.618 76.9639 255.523 76.8461 255.335 76.6576C255.193 76.4219 255.028 76.1863 254.84 75.9506C254.698 75.6678 254.557 75.4321 254.416 75.2436C254.274 75.008 254.204 74.8666 254.204 74.8194C254.581 74.9608 254.911 75.2907 255.193 75.8092C255.523 76.3277 255.735 76.634 255.83 76.7283C256.489 77.4353 256.914 78.0244 257.102 78.4957C257.338 78.9671 257.526 79.3441 257.668 79.6269C257.809 79.8626 258.021 80.004 258.304 80.0511C258.634 80.0982 259.223 80.0275 260.072 79.839C260.307 79.7919 260.401 79.8154 260.354 79.9097C260.307 80.004 259.859 80.1218 259.011 80.2632C258.681 80.3103 258.681 80.4517 259.011 80.6874C259.388 80.9231 260.024 81.0173 260.92 80.9702C261.863 80.8759 262.994 80.5224 264.313 79.9097C265.633 79.297 267.071 78.213 268.626 76.6576C269.663 75.5735 270.323 74.678 270.606 73.971C270.936 73.2169 271.171 72.7456 271.313 72.5571C271.265 72.5099 271.195 72.4157 271.1 72.2743C271.053 72.1329 271.03 72.0151 271.03 71.9208C271.03 71.5909 270.959 71.3788 270.818 71.2845C270.723 71.1431 270.606 71.0017 270.464 70.8603C270.323 70.7189 270.181 70.4833 270.04 70.1533C269.899 69.7763 269.781 69.1636 269.687 68.3152C269.027 67.7024 268.72 67.4668 268.767 67.6082C268.815 67.7024 268.791 68.0559 268.697 68.6687C268.65 68.9515 268.602 69.0457 268.555 68.9515C268.555 68.8572 268.532 68.6922 268.485 68.4566C268.438 68.1738 268.39 67.9145 268.343 67.6789C268.343 67.3961 268.343 67.2547 268.343 67.2547C267.495 66.4063 266.623 65.8643 265.727 65.6286C264.879 65.3458 263.936 65.1337 262.899 64.9923C261.863 64.8038 260.708 64.5917 259.435 64.3561C258.163 64.0733 256.749 63.5312 255.193 62.73C252.601 61.3632 250.881 59.9492 250.032 58.4881C249.184 56.9799 248.76 55.5659 248.76 54.2462C248.807 52.9265 249.043 51.7953 249.467 50.8527C249.891 49.8629 250.056 49.203 249.962 48.8731C249.585 49.7686 249.302 50.4049 249.113 50.782C248.972 51.159 248.854 51.4418 248.76 51.6303C248.713 51.8189 248.666 52.0074 248.618 52.1959C248.618 52.3373 248.571 52.6672 248.477 53.1857C248.288 52.7144 248.241 52.2666 248.336 51.8424C248.43 51.3711 248.595 50.8998 248.83 50.4285C249.396 49.2502 249.797 48.3546 250.032 47.7419C250.315 47.0821 250.527 46.5872 250.669 46.2573C250.857 45.8802 251.046 45.5738 251.234 45.3382C251.423 45.0554 251.753 44.7019 252.224 44.2777C252.507 43.9949 252.978 43.6414 253.638 43.2172C254.298 42.793 255.028 42.3688 255.83 41.9447C256.631 41.5205 257.456 41.1434 258.304 40.8135C259.152 40.4836 259.954 40.295 260.708 40.2479C261.132 40.2479 261.486 40.1536 261.768 39.9651C262.098 39.7766 262.169 39.6587 261.98 39.6116C261.792 39.5645 261.25 39.6587 260.354 39.8944C259.506 40.1301 258.163 40.6485 256.325 41.4498C256.419 41.0256 257.079 40.6249 258.304 40.2479C259.577 39.8708 260.943 39.588 262.405 39.3995C263.866 39.1638 265.185 39.0225 266.364 38.9753C267.542 38.9282 268.131 39.046 268.131 39.3288C268.131 39.4231 268.06 39.4938 267.919 39.5409C267.825 39.5409 267.731 39.5645 267.636 39.6116C267.542 39.6116 267.471 39.6352 267.424 39.6823C267.377 39.6823 267.424 39.7294 267.566 39.8237C267.707 39.918 267.848 40.0122 267.99 40.1065C268.178 40.1536 268.296 40.2715 268.343 40.46C268.39 40.5542 268.508 40.6249 268.697 40.6721C268.885 40.6721 269.38 40.8606 270.181 41.2377C270.841 41.5676 271.478 42.0389 272.09 42.6516C272.75 43.2172 273.339 43.8064 273.858 44.4191C274.423 44.9847 274.895 45.4796 275.272 45.9038C275.696 46.2808 276.002 46.4458 276.191 46.3987C276.426 46.3987 276.497 46.4694 276.403 46.6107C276.167 46.8935 276.12 47.1056 276.261 47.247C276.403 47.3413 276.356 47.5298 276.12 47.8126C276.073 47.9069 276.073 48.0012 276.12 48.0954C276.167 48.1897 276.049 48.2368 275.767 48.2368C275.672 48.1897 275.696 48.2839 275.837 48.5196C275.979 48.7081 275.884 48.8495 275.554 48.9438C275.46 48.8967 275.46 48.8495 275.554 48.8024C275.649 48.7553 275.625 48.7081 275.484 48.661C275.39 48.661 275.272 48.6374 275.13 48.5903C274.989 48.496 274.871 48.496 274.777 48.5903C274.73 48.6374 274.541 48.7553 274.211 48.9438C273.881 49.0852 273.693 49.1323 273.646 49.0852C273.41 48.9438 273.198 48.9438 273.009 49.0852C272.868 49.1795 272.679 49.2266 272.444 49.2266C271.784 49.3209 271.43 49.2737 271.383 49.0852C271.336 48.8967 271.148 48.8024 270.818 48.8024C270.676 48.8024 270.464 48.661 270.181 48.3782C269.899 48.0483 269.592 47.7184 269.262 47.3884C268.98 47.0114 268.697 46.6814 268.414 46.3987C268.178 46.1159 267.99 46.0216 267.848 46.1159C267.801 46.163 267.848 46.2808 267.99 46.4694C268.178 46.6579 268.367 46.8935 268.555 47.1763C268.791 47.412 269.003 47.6477 269.192 47.8833C269.38 48.0718 269.474 48.1897 269.474 48.2368C269.145 48.1425 268.744 47.8362 268.273 47.3177C267.848 46.7993 267.401 46.2573 266.929 45.6917C266.458 45.1261 266.034 44.6312 265.657 44.207C265.28 43.7357 264.997 43.5236 264.808 43.5707C263.819 43.8535 263.253 44.0185 263.112 44.0656C262.97 44.1127 262.994 44.0892 263.182 43.9949C263.418 43.9006 263.701 43.7828 264.031 43.6414C264.408 43.5 264.596 43.4058 264.596 43.3586C264.596 43.1701 264.266 43.0758 263.606 43.0758C262.947 43.0287 262.122 43.1701 261.132 43.5C260.189 43.8299 259.152 44.4191 258.021 45.2675C256.937 46.0687 255.971 47.247 255.123 48.8024C255.453 48.7081 255.618 48.8495 255.618 49.2266C255.618 49.6036 255.712 50.0278 255.9 50.4992C255.995 50.6406 256.065 50.7584 256.112 50.8527C256.207 50.8998 256.277 50.9941 256.325 51.1354C256.419 51.2297 256.489 51.4182 256.537 51.701C256.584 51.9367 256.607 52.3373 256.607 52.9029C256.607 54.6939 256.654 55.7073 256.749 55.9429C256.89 56.1786 257.032 56.0843 257.173 55.6601C257.361 55.1888 257.526 54.6232 257.668 53.9634C257.809 53.3035 257.88 52.9736 257.88 52.9736C257.974 52.9736 257.974 53.3035 257.88 53.9634C257.786 54.5761 257.762 55.2124 257.809 55.8722C257.856 56.2022 258.021 56.3907 258.304 56.4378C258.634 56.485 259.482 56.6735 260.849 57.0034C263.771 57.7575 265.963 58.441 267.424 59.0537C268.932 59.6193 270.016 60.1142 270.676 60.5383C271.336 60.9154 271.713 61.1982 271.807 61.3867C271.949 61.5753 272.114 61.6459 272.302 61.5988C272.632 61.5046 273.009 61.646 273.434 62.023C273.858 62.4001 274.258 62.8478 274.635 63.3663C275.012 63.8376 275.319 64.3089 275.554 64.7802C275.837 65.2516 275.979 65.5579 275.979 65.6993C276.686 66.9248 277.016 68.1031 276.968 69.2342C276.968 70.3654 276.804 71.4023 276.474 72.345C276.144 73.2405 275.79 74.0182 275.413 74.678C275.036 75.2907 274.871 75.7385 274.918 76.0213C275.437 75.1258 275.814 74.4895 276.049 74.1124C276.285 73.7354 276.426 73.4526 276.474 73.2641C276.568 73.0284 276.639 72.8163 276.686 72.6278C276.733 72.4392 276.851 72.1093 277.039 71.638Z" fill="#E8E8E8"/>
</svg>
