<svg width="378" height="52" viewBox="0 0 378 52" fill="none" xmlns="http://www.w3.org/2000/svg">
<path d="M124.641 43.916V21.4008L114.497 22.9377V43.916L108.503 45.4529V50.5246H130.634V45.4529L124.641 43.916ZM99.3975 0.883545V15.0996H105.391L106.89 8.14527H114.497V17.0976L124.641 15.5607V8.14527H132.287L133.747 15.0996H139.74V0.883545H99.3975Z" fill="#E8E8E8"/>
<path d="M201.023 14.1008C199.948 11.0271 198.449 8.4528 196.49 6.37802C194.53 4.30325 192.186 2.72795 189.42 1.65214C186.692 0.576329 183.58 0 180.16 0C176.741 0 173.513 0.576326 170.67 1.69056C167.827 2.76637 165.368 4.41851 163.293 6.60856C161.218 8.7986 159.643 11.5266 158.49 14.8308C157.376 18.1351 156.8 21.9389 156.8 26.319C156.8 31.7749 157.684 36.3855 159.489 40.074C161.257 43.8009 163.793 46.6057 167.058 48.5268C170.324 50.4095 174.205 51.37 178.662 51.37C183.503 51.37 187.729 50.2942 191.303 48.1426C194.876 46.0294 197.642 42.9556 199.64 38.9982C201.638 35.0023 202.637 30.2764 202.637 24.7821C202.637 20.7478 202.099 17.1746 201.023 14.1008ZM190.15 36.1165C189.036 38.8061 187.576 40.7271 185.731 41.8798C183.887 43.0325 181.812 43.6088 179.43 43.6088C177.048 43.6088 174.896 42.994 173.129 41.803C171.362 40.6119 170.017 38.7292 169.095 36.155C168.134 33.6191 167.673 30.1996 167.673 25.9732C167.673 21.3625 168.173 17.7509 169.172 15.0998C170.209 12.4871 171.631 10.6044 173.436 9.45177C175.281 8.33754 177.394 7.76121 179.738 7.76121C182.081 7.76121 184.271 8.33754 186.077 9.45177C187.883 10.6044 189.266 12.4487 190.265 15.0229C191.303 17.5588 191.802 20.9783 191.802 25.2047C191.802 29.7769 191.226 33.3886 190.15 36.1165Z" fill="#E8E8E8"/>
<path d="M245.208 44.1081L240.06 34.2337C239.407 32.9658 238.677 31.8515 237.908 30.9294C237.14 30.0457 236.179 29.3157 234.988 28.7778C234.719 28.6625 234.412 28.5473 234.104 28.432C237.409 27.6251 239.983 26.2804 241.789 24.3593C244.209 21.785 245.439 18.4807 245.439 14.5617C245.439 10.1432 243.979 6.76209 241.136 4.37993C238.254 2.0362 233.989 0.883545 228.38 0.883545H221.502L205.788 1.22934V6.30103L211.013 7.72263V43.9544L205.788 45.4529V50.5246H226.881V45.4529L221.08 43.8776V30.3531H223.077C224.768 30.3147 226.074 30.4684 226.958 30.8142C227.842 31.16 228.61 31.8131 229.225 32.7737C229.801 33.7342 230.531 35.1174 231.377 36.9232L237.755 50.5246H249.32V45.4529L245.208 44.1081ZM225.267 23.3603H221.08V8.06843H227.112C229.801 8.06843 231.838 8.68318 233.144 9.9511C234.489 11.219 235.142 12.9864 235.142 15.2533C235.142 17.9428 234.297 19.9408 232.683 21.324C231.031 22.6687 228.533 23.3603 225.267 23.3603Z" fill="#E8E8E8"/>
<path d="M308.796 14.3696C307.759 11.3727 306.222 8.87529 304.262 6.87735C302.264 4.84099 299.882 3.34254 297.078 2.34357C294.311 1.34461 291.199 0.883545 287.741 0.883545H281.555L265.533 1.22934V6.30103L270.759 7.76105V43.916L265.533 45.4529V50.5246H286.281C291.161 50.5246 295.387 49.564 298.999 47.6045C302.61 45.645 305.415 42.7634 307.375 38.9596C309.411 35.1558 310.372 30.4299 310.372 24.8588C310.372 20.8629 309.872 17.3665 308.796 14.3696ZM298.384 34.7332C297.654 37.0769 296.655 38.8443 295.387 40.0738C294.157 41.3033 292.774 42.1486 291.276 42.5712C289.777 43.0323 288.279 43.2628 286.78 43.2628H280.825V8.14527H287.472C288.894 8.14527 290.315 8.33738 291.737 8.76002C293.159 9.18266 294.465 9.98952 295.656 11.1806C296.809 12.4101 297.769 14.1391 298.461 16.406C299.191 18.7113 299.537 21.7082 299.537 25.3967C299.537 29.2773 299.152 32.351 298.384 34.7332Z" fill="#E8E8E8"/>
<path d="M334.001 5.95523V0.883545L313.522 1.22934V6.30103L318.747 7.72263V43.9544L313.522 45.4529V50.5246H334.001V45.4529L328.852 43.916V7.68421L334.001 5.95523Z" fill="#E8E8E8"/>
<path d="M371.078 37.269L369.887 43.2628H355.479V28.7394H370.656V21.7466H355.479V8.14527H369.042L370.156 13.5628H376.15V0.883545H355.248L340.187 1.22934V6.30103L345.374 7.72263V43.916L340.187 45.4529V50.5246H376.918L377.072 37.269H371.078Z" fill="#E8E8E8"/>
<path d="M38.7292 3.6885L38.076 16.3677H32.0822L30.6222 9.22124C31.1217 9.41335 31.5828 9.56704 32.0822 9.75915L30.3917 8.14543L30.6222 9.22124C29.508 8.83702 28.4322 8.49123 27.3563 8.26069C25.8579 7.95332 24.4747 7.76121 23.2068 7.76121C20.5173 7.76121 18.2504 8.45281 16.4445 9.79757C14.6003 11.1423 13.2171 13.0634 12.2566 15.5993C11.3344 18.1351 10.8734 21.1704 10.8734 24.7052C10.8734 27.6637 11.1423 30.2764 11.7187 32.5433L0.845281 34.157C0.307376 31.698 0 28.9701 0 25.9732C0 20.5173 0.922124 15.8682 2.80479 12.026C4.68746 8.14543 7.37699 5.18695 10.7965 3.11217C14.2161 1.03739 18.2504 0 22.861 0C25.2816 0 27.8174 0.307374 30.3917 0.922123C33.0044 1.53687 35.7707 2.459 38.7292 3.6885Z" fill="#E8E8E8"/>
<path d="M30.4302 8.146L30.6607 9.26023C31.1602 9.41392 31.6213 9.56761 32.1207 9.79814L30.4302 8.18442V8.146Z" fill="#E8E8E8"/>
<path d="M39.4205 44.3009C36.5005 46.6831 33.5036 48.4121 30.353 49.6032C27.2408 50.7942 24.1671 51.3706 21.1702 51.3706C17.2896 51.3706 13.7932 50.41 10.5657 48.5273C7.37673 46.6062 4.80247 43.763 2.88138 39.9593C2.88138 39.8824 2.80454 39.8056 2.76611 39.6903L14.1006 37.9998C14.9458 39.3061 15.9448 40.3819 17.0975 41.1888C19.057 42.5335 21.247 43.1867 23.706 43.1867C25.5503 43.1867 27.4714 42.8025 29.5077 42.034C31.5825 41.2272 33.6188 40.0745 35.6936 38.4608L39.4205 44.3009Z" fill="#E8E8E8"/>
<path d="M64.5102 0.883545V5.95523L59.3617 7.72263V5.60943V7.72263V25.3583L49.2952 26.8951V7.68421L44.0698 6.30103V1.22934L64.5102 0.883545Z" fill="#E8E8E8"/>
<path d="M88.7157 26.7808V31.1224C88.7157 33.5046 88.4852 35.733 88.0241 37.8078C87.6015 39.8442 86.8715 41.6884 85.8725 43.379C84.912 45.0311 83.644 46.4527 82.0687 47.6822C80.5319 48.8733 78.6492 49.7954 76.3823 50.4102C74.1539 51.0634 71.5796 51.3707 68.6595 51.3707C64.7789 51.3707 61.5899 50.8713 59.1693 49.9107C56.7103 48.9502 54.7892 47.7207 53.4445 46.1838C52.0613 44.6469 51.1007 42.9948 50.5244 41.2274C49.9097 39.4984 49.5639 37.8078 49.4486 36.1557C49.3718 34.8493 49.2949 33.6967 49.2949 32.6977L59.3614 31.1993V32.0446C59.3614 33.2741 59.4383 34.4651 59.5536 35.6178C59.6688 36.7704 59.8994 37.8078 60.2067 38.7684C60.5525 39.7289 61.052 40.5742 61.7436 41.3042C62.3968 42.0342 63.3189 42.6106 64.4715 42.9948C65.6242 43.4174 67.0842 43.6095 68.8132 43.6095C70.5422 43.6095 72.0791 43.379 73.2702 42.9564C74.4228 42.5337 75.3834 41.9574 76.1134 41.189C76.8434 40.3821 77.3813 39.4984 77.7271 38.461C78.1113 37.4236 78.3418 36.271 78.4571 35.0415C78.5724 33.812 78.6108 32.5056 78.6108 31.1224V28.3176L88.7157 26.7808Z" fill="#E8E8E8"/>
<path d="M87.6021 8.06831L88.7163 7.6841V5.53247L87.6021 8.06831Z" fill="#E8E8E8"/>
<path d="M93.8646 0.883545V5.95523L88.7161 7.68421V20.9782L78.6111 22.4766V7.60736L73.3857 6.30103V1.22934L93.8646 0.883545Z" fill="#E8E8E8"/>
<path d="M78.6494 5.53247V7.60725L79.5331 7.83778L78.6494 5.53247Z" fill="#E8E8E8"/>
</svg>
