<svg width="28" height="28" viewBox="0 0 28 28" fill="none" xmlns="http://www.w3.org/2000/svg">
<path d="M10.1617 9.99414L21.7818 21.6142M10.1617 17.5919L21.7818 5.97181M3.90472 8.20644C3.90472 9.09543 4.25787 9.94801 4.88649 10.5766C5.5151 11.2052 6.36768 11.5584 7.25667 11.5584C8.14566 11.5584 8.99824 11.2052 9.62685 10.5766C10.2555 9.94801 10.6086 9.09543 10.6086 8.20644C10.6086 7.31744 10.2555 6.46486 9.62685 5.83625C8.99824 5.20764 8.14566 4.85449 7.25667 4.85449C6.36768 4.85449 5.5151 5.20764 4.88649 5.83625C4.25787 6.46486 3.90472 7.31744 3.90472 8.20644ZM3.90472 19.3796C3.90472 20.2686 4.25787 21.1211 4.88649 21.7498C5.5151 22.3784 6.36768 22.7315 7.25667 22.7315C8.14566 22.7315 8.99824 22.3784 9.62685 21.7498C10.2555 21.1211 10.6086 20.2686 10.6086 19.3796C10.6086 18.4906 10.2555 17.638 9.62685 17.0094C8.99824 16.3808 8.14566 16.0276 7.25667 16.0276C6.36768 16.0276 5.5151 16.3808 4.88649 17.0094C4.25787 17.638 3.90472 18.4906 3.90472 19.3796Z" stroke="white" stroke-width="2.08475" stroke-linecap="round" stroke-linejoin="round"/>
</svg>
