<?xml version="1.0" encoding="UTF-8"?>
<svg xmlns="http://www.w3.org/2000/svg" viewBox="0 0 500 250">
  <defs>
    <style>
      .cls-1 {
        fill: #fff;
      }

      .cls-2 {
        fill: #7d7d7d;
      }
    </style>
  </defs>
  <g id="Layer_2" data-name="Layer 2"/>
  <g id="Layer_1" data-name="Layer 1">
    <g>
      <path class="cls-1" d="M161.81,123.96l-13.44-5.96-17.95,1.3-13.98-26.92-24.58-9.17-4.56-7.79-11.37,11.93-19.38,21.53-18.42-17.54,9.07,23.95,14.27,10.25,12.45,5.02,20.73,6.96,25.98-5.73,27.68,1.6,9.62,3.97-19.07,3.83-10.48,5.38-14.5-3.21-19.32,6.55-16.2-5.69-1.95,20.81,9.76,26.57,23.77,2.36,19.21-7.92,22.01-32.09,18.03-4.43h.34l17.29,.2v-16.43l.07-.03-8.49-1.95-16.59-7.35Zm-63.41,.04l-14.02,1.39-9.05-8.88,.88-16.39,14.27-7.31,23.2,6.78,.6,16.91-15.89,7.49Zm20.04,55.47l-21.17,6.83-7.68-12.8,.69-11.96,19.43-8.12,13.01,.41,6.34,16.72-10.62,8.92Z"/>
      <polygon class="cls-1" points="404.8 140 378.47 137.17 344.96 136.94 330.91 136.85 329.99 152.11 340.63 152.53 376.83 153.98 403.66 153.23 434.65 146.8 404.8 140"/>
      <polygon class="cls-1" points="245.53 150.4 271.29 150.72 271.29 136.66 246.36 136.64 245.53 150.4"/>
    </g>
    <path class="cls-1" d="M348.87,126.59l4.28-40.23-17.15-39.09-25.97-28.12-43.66-7.88-49.03,8.73-41.21,33.67-14.35,36.63-6.71,11.34,6.74,22.32,7.72,25.56,2.55,8.44-5.29,18.7,6.68,11.84,19.21,19.35,9.64-9.97,12.89,11.48,5.85,16.31,13.95,11.28,7.41-10.01,5.16,11.8,7.27-2.17,7.75-11.91,4.16,12.29,6.22-2.24,4.55-9.86,4.44,10.4,6.99,1.98,7.89-16.53,2.41-15.31,19.09-9.07,10.77,4.53,19.75-24.66-8.24-23.66-.74-2.13,5.07-13.46,3.91-10.35Zm-103.66,29.19l-16.06,7.56-29.48-1.51-12.85-10.39v-18.15l.07-.03,31.87-16.41,27.97,13.7-.37,6.09-.83,13.76-.32,5.38Zm15.5,41.39l-11.91,3.12-1.41-14.11,3.61-15.16,10.13-10.7,12.62,15.16,1.7,24.81-14.74-3.12Zm69.28-45.06l-.3,5.09-16.07,7.56-29.48-1.51-12.85-10.4v-18.14l31.94-16.44,27.97,13.7-.29,4.88-.92,15.26Z"/>
    <polygon class="cls-2" points="330.91 136.85 329.99 152.11 306.01 151.15 271.29 150.72 271.29 136.66 307 136.69 330.91 136.85"/>
    <polygon class="cls-2" points="246.36 136.64 245.53 150.4 226.94 150.17 186.82 149.72 186.82 133.29 186.89 133.26 201.46 136.6 246.36 136.64"/>
  </g>
</svg>