<svg width="6" height="225" viewBox="0 0 6 225" fill="none" xmlns="http://www.w3.org/2000/svg">
<path d="M2.65909 0.148356C3.02752 6.30512 3.60418 12.4433 3.73233 18.6372C4.02066 33.1575 4.14881 47.6778 4.2289 62.2167C4.33302 81.4102 4.25293 100.604 4.38108 119.797C4.44515 129.181 4.87765 138.564 5.04584 147.948C5.14996 153.659 4.98178 159.408 5.0859 165.12C5.31016 177.174 5.55044 189.228 5.95891 201.263C6.10308 205.417 5.86278 209.219 5.31815 213.076C4.87764 216.154 4.5733 219.344 4.10075 222.385C3.96459 223.275 3.46802 223.887 2.95543 225C2.66709 223.591 2.4108 222.682 2.28265 221.681C1.35357 214.281 0.937082 206.771 0.897036 199.019C0.864999 192.733 0.304355 186.465 0.152178 180.178C-0.00800733 173.521 0.0160186 166.845 0 160.187C0 157.758 0.120133 155.31 0.144161 152.881C0.256291 141.791 0.328379 130.683 0.448518 119.593C0.664769 100.826 0.921054 82.0592 1.1373 63.2923C1.28948 50.1071 1.3856 36.9035 1.52176 23.7184C1.58583 17.2093 1.66592 10.7002 1.78605 4.19105C1.81008 2.78167 2.00232 1.39083 2.12246 0C2.29866 0.0556334 2.48288 0.111267 2.65909 0.1669V0.148356Z" fill="#696969"/>
</svg>
